%TF.GenerationSoftware,KiCad,Pcbnew,(6.0.11-0)*%
%TF.CreationDate,2023-06-16T12:41:29-04:00*%
%TF.ProjectId,Mux64,4d757836-342e-46b6-9963-61645f706362,rev?*%
%TF.SameCoordinates,Original*%
%TF.FileFunction,Copper,L1,Top*%
%TF.FilePolarity,Positive*%
%FSLAX46Y46*%
G04 Gerber Fmt 4.6, Leading zero omitted, Abs format (unit mm)*
G04 Created by KiCad (PCBNEW (6.0.11-0)) date 2023-06-16 12:41:29*
%MOMM*%
%LPD*%
G01*
G04 APERTURE LIST*
G04 Aperture macros list*
%AMRoundRect*
0 Rectangle with rounded corners*
0 $1 Rounding radius*
0 $2 $3 $4 $5 $6 $7 $8 $9 X,Y pos of 4 corners*
0 Add a 4 corners polygon primitive as box body*
4,1,4,$2,$3,$4,$5,$6,$7,$8,$9,$2,$3,0*
0 Add four circle primitives for the rounded corners*
1,1,$1+$1,$2,$3*
1,1,$1+$1,$4,$5*
1,1,$1+$1,$6,$7*
1,1,$1+$1,$8,$9*
0 Add four rect primitives between the rounded corners*
20,1,$1+$1,$2,$3,$4,$5,0*
20,1,$1+$1,$4,$5,$6,$7,0*
20,1,$1+$1,$6,$7,$8,$9,0*
20,1,$1+$1,$8,$9,$2,$3,0*%
G04 Aperture macros list end*
%TA.AperFunction,SMDPad,CuDef*%
%ADD10RoundRect,0.250000X0.262500X0.450000X-0.262500X0.450000X-0.262500X-0.450000X0.262500X-0.450000X0*%
%TD*%
%TA.AperFunction,ComponentPad*%
%ADD11R,2.500000X2.500000*%
%TD*%
%TA.AperFunction,ComponentPad*%
%ADD12C,2.500000*%
%TD*%
%TA.AperFunction,ComponentPad*%
%ADD13R,1.700000X1.700000*%
%TD*%
%TA.AperFunction,ComponentPad*%
%ADD14O,1.700000X1.700000*%
%TD*%
%TA.AperFunction,SMDPad,CuDef*%
%ADD15RoundRect,0.250000X0.312500X0.625000X-0.312500X0.625000X-0.312500X-0.625000X0.312500X-0.625000X0*%
%TD*%
%TA.AperFunction,SMDPad,CuDef*%
%ADD16RoundRect,0.250000X0.250000X0.475000X-0.250000X0.475000X-0.250000X-0.475000X0.250000X-0.475000X0*%
%TD*%
%TA.AperFunction,SMDPad,CuDef*%
%ADD17RoundRect,0.150000X-0.512500X-0.150000X0.512500X-0.150000X0.512500X0.150000X-0.512500X0.150000X0*%
%TD*%
%TA.AperFunction,SMDPad,CuDef*%
%ADD18RoundRect,0.250000X0.450000X-0.262500X0.450000X0.262500X-0.450000X0.262500X-0.450000X-0.262500X0*%
%TD*%
%TA.AperFunction,SMDPad,CuDef*%
%ADD19RoundRect,0.250000X-0.250000X-0.475000X0.250000X-0.475000X0.250000X0.475000X-0.250000X0.475000X0*%
%TD*%
%TA.AperFunction,SMDPad,CuDef*%
%ADD20RoundRect,0.250000X-0.262500X-0.450000X0.262500X-0.450000X0.262500X0.450000X-0.262500X0.450000X0*%
%TD*%
%TA.AperFunction,SMDPad,CuDef*%
%ADD21RoundRect,0.250000X-0.475000X0.250000X-0.475000X-0.250000X0.475000X-0.250000X0.475000X0.250000X0*%
%TD*%
%TA.AperFunction,ComponentPad*%
%ADD22R,2.200000X2.200000*%
%TD*%
%TA.AperFunction,ComponentPad*%
%ADD23C,2.200000*%
%TD*%
%TA.AperFunction,SMDPad,CuDef*%
%ADD24R,2.000000X1.500000*%
%TD*%
%TA.AperFunction,SMDPad,CuDef*%
%ADD25R,2.000000X3.800000*%
%TD*%
%TA.AperFunction,SMDPad,CuDef*%
%ADD26R,1.450000X0.460000*%
%TD*%
%TA.AperFunction,SMDPad,CuDef*%
%ADD27R,0.640000X2.540000*%
%TD*%
%TA.AperFunction,SMDPad,CuDef*%
%ADD28R,0.640000X4.700000*%
%TD*%
%TA.AperFunction,SMDPad,CuDef*%
%ADD29C,2.500000*%
%TD*%
%TA.AperFunction,WasherPad*%
%ADD30C,5.700000*%
%TD*%
%TA.AperFunction,ViaPad*%
%ADD31C,0.800000*%
%TD*%
%TA.AperFunction,Conductor*%
%ADD32C,0.152400*%
%TD*%
%TA.AperFunction,Conductor*%
%ADD33C,0.500000*%
%TD*%
%TA.AperFunction,Conductor*%
%ADD34C,0.250000*%
%TD*%
%TA.AperFunction,Conductor*%
%ADD35C,0.200000*%
%TD*%
%TA.AperFunction,Conductor*%
%ADD36C,0.600000*%
%TD*%
G04 APERTURE END LIST*
D10*
%TO.P,R19,1*%
%TO.N,MUX64_A11*%
X78112500Y-130724200D03*
%TO.P,R19,2*%
%TO.N,MUX64_A39*%
X76287500Y-130724200D03*
%TD*%
%TO.P,R31,1*%
%TO.N,MUX64_A39*%
X70752500Y-130708200D03*
%TO.P,R31,2*%
%TO.N,Net-(J11-Pad9)*%
X68927500Y-130708200D03*
%TD*%
%TO.P,R20,1*%
%TO.N,MUX64_A11*%
X78112500Y-125618800D03*
%TO.P,R20,2*%
%TO.N,MUX64_A41*%
X76287500Y-125618800D03*
%TD*%
%TO.P,R17,1*%
%TO.N,MUX64_A11*%
X78112500Y-140858800D03*
%TO.P,R17,2*%
%TO.N,MUX64_A37*%
X76287500Y-140858800D03*
%TD*%
%TO.P,R32,1*%
%TO.N,MUX64_A41*%
X70752500Y-125602800D03*
%TO.P,R32,2*%
%TO.N,Net-(J11-Pad11)*%
X68927500Y-125602800D03*
%TD*%
%TO.P,R30,1*%
%TO.N,MUX64_A40*%
X70752500Y-135788200D03*
%TO.P,R30,2*%
%TO.N,Net-(J11-Pad7)*%
X68927500Y-135788200D03*
%TD*%
%TO.P,R18,1*%
%TO.N,MUX64_A11*%
X78112500Y-135804200D03*
%TO.P,R18,2*%
%TO.N,MUX64_A40*%
X76287500Y-135804200D03*
%TD*%
%TO.P,R28,1*%
%TO.N,MUX64_A38*%
X70752500Y-145922800D03*
%TO.P,R28,2*%
%TO.N,Net-(J11-Pad3)*%
X68927500Y-145922800D03*
%TD*%
%TO.P,R16,1*%
%TO.N,MUX64_A11*%
X78112500Y-145938800D03*
%TO.P,R16,2*%
%TO.N,MUX64_A38*%
X76287500Y-145938800D03*
%TD*%
%TO.P,R15,1*%
%TO.N,MUX64_A11*%
X78112500Y-151018800D03*
%TO.P,R15,2*%
%TO.N,MUX64_A35*%
X76287500Y-151018800D03*
%TD*%
%TO.P,R27,1*%
%TO.N,MUX64_A35*%
X70752500Y-151002800D03*
%TO.P,R27,2*%
%TO.N,Net-(J11-Pad1)*%
X68927500Y-151002800D03*
%TD*%
%TO.P,R29,1*%
%TO.N,MUX64_A37*%
X70752500Y-140842800D03*
%TO.P,R29,2*%
%TO.N,Net-(J11-Pad5)*%
X68927500Y-140842800D03*
%TD*%
%TO.P,R46,1*%
%TO.N,MUX64_A11*%
X111152500Y-147490000D03*
%TO.P,R46,2*%
%TO.N,MUX64_A33*%
X109327500Y-147490000D03*
%TD*%
%TO.P,R98,1*%
%TO.N,MUX64_A11*%
X78045000Y-29590000D03*
%TO.P,R98,2*%
%TO.N,MUX64_A19*%
X76220000Y-29590000D03*
%TD*%
%TO.P,R39,1*%
%TO.N,MUX64_A11*%
X78002500Y-118943600D03*
%TO.P,R39,2*%
%TO.N,MUX64_A26*%
X76177500Y-118943600D03*
%TD*%
D11*
%TO.P,J12,1,Pin_1*%
%TO.N,/mux64-regulators/screw-terminals/HV0*%
X97920000Y-107640000D03*
D12*
%TO.P,J12,2,Pin_2*%
%TO.N,MUX64_A11*%
X97920000Y-100140000D03*
%TO.P,J12,3,Pin_3*%
%TO.N,/mux64-regulators/screw-terminals/HV1*%
X97920000Y-92640000D03*
%TO.P,J12,4,Pin_4*%
%TO.N,MUX64_A11*%
X97920000Y-85140000D03*
%TO.P,J12,5,Pin_5*%
%TO.N,/mux64-regulators/screw-terminals/HV2*%
X97920000Y-77640000D03*
%TO.P,J12,6,Pin_6*%
%TO.N,MUX64_A11*%
X97920000Y-70140000D03*
%TD*%
D13*
%TO.P,J7,1,Pin_1*%
%TO.N,unconnected-(J7-Pad1)*%
X146470000Y-103910000D03*
D14*
%TO.P,J7,2,Pin_2*%
%TO.N,B_d5*%
X143930000Y-103910000D03*
%TO.P,J7,3,Pin_3*%
%TO.N,B_d3*%
X146470000Y-106450000D03*
%TO.P,J7,4,Pin_4*%
%TO.N,B_d4*%
X143930000Y-106450000D03*
%TO.P,J7,5,Pin_5*%
%TO.N,B_d1*%
X146470000Y-108990000D03*
%TO.P,J7,6,Pin_6*%
%TO.N,B_d2*%
X143930000Y-108990000D03*
%TO.P,J7,7,Pin_7*%
%TO.N,MUX64_A0*%
X146470000Y-111530000D03*
%TO.P,J7,8,Pin_8*%
%TO.N,B_d0*%
X143930000Y-111530000D03*
%TO.P,J7,9,Pin_9*%
%TO.N,MUX64_A2*%
X146470000Y-114070000D03*
%TO.P,J7,10,Pin_10*%
%TO.N,MUX64_A0*%
X143930000Y-114070000D03*
%TO.P,J7,11,Pin_11*%
%TO.N,MUX64_A4*%
X146470000Y-116610000D03*
%TO.P,J7,12,Pin_12*%
%TO.N,MUX64_A3*%
X143930000Y-116610000D03*
%TO.P,J7,13,Pin_13*%
%TO.N,MUX64_A6*%
X146470000Y-119150000D03*
%TO.P,J7,14,Pin_14*%
%TO.N,MUX64_A5*%
X143930000Y-119150000D03*
%TO.P,J7,15,Pin_15*%
%TO.N,MUX64_A8*%
X146470000Y-121690000D03*
%TO.P,J7,16,Pin_16*%
%TO.N,MUX64_A7*%
X143930000Y-121690000D03*
%TO.P,J7,17,Pin_17*%
%TO.N,MUX64_A10*%
X146470000Y-124230000D03*
%TO.P,J7,18,Pin_18*%
%TO.N,MUX64_A9*%
X143930000Y-124230000D03*
%TO.P,J7,19,Pin_19*%
%TO.N,MUX64_A11*%
X146470000Y-126770000D03*
%TO.P,J7,20,Pin_20*%
X143930000Y-126770000D03*
%TO.P,J7,21,Pin_21*%
%TO.N,unconnected-(J7-Pad21)*%
X146470000Y-129310000D03*
%TO.P,J7,22,Pin_22*%
%TO.N,MUX64_A11*%
X143930000Y-129310000D03*
%TO.P,J7,23,Pin_23*%
X146470000Y-131850000D03*
%TO.P,J7,24,Pin_24*%
X143930000Y-131850000D03*
%TD*%
D15*
%TO.P,R22,1*%
%TO.N,Net-(R13-Pad2)*%
X109477500Y-77680000D03*
%TO.P,R22,2*%
%TO.N,/mux64-regulators/screw-terminals/HV2*%
X106552500Y-77680000D03*
%TD*%
D16*
%TO.P,C1,1*%
%TO.N,LV_RB*%
X165270000Y-45020000D03*
%TO.P,C1,2*%
%TO.N,MUX64_A11*%
X163370000Y-45020000D03*
%TD*%
D10*
%TO.P,R108,1*%
%TO.N,MUX64_A17*%
X70052500Y-39750000D03*
%TO.P,R108,2*%
%TO.N,Net-(J18-Pad7)*%
X68227500Y-39750000D03*
%TD*%
D17*
%TO.P,U2,1,FILTER*%
%TO.N,Net-(C5-Pad1)*%
X178672500Y-59970000D03*
%TO.P,U2,2,GND*%
%TO.N,MUX64_A11*%
X178672500Y-60920000D03*
%TO.P,U2,3,EN*%
%TO.N,Net-(C6-Pad1)*%
X178672500Y-61870000D03*
%TO.P,U2,4,IN*%
X180947500Y-61870000D03*
%TO.P,U2,5,OUTS*%
%TO.N,Net-(R4-Pad1)*%
X180947500Y-60920000D03*
%TO.P,U2,6,OUTF*%
%TO.N,B_a4*%
X180947500Y-59970000D03*
%TD*%
D18*
%TO.P,R2,1*%
%TO.N,MUX64_A11*%
X219230000Y-51052500D03*
%TO.P,R2,2*%
%TO.N,/C_a3*%
X219230000Y-49227500D03*
%TD*%
D10*
%TO.P,R97,1*%
%TO.N,MUX64_A11*%
X78045000Y-34710000D03*
%TO.P,R97,2*%
%TO.N,MUX64_A20*%
X76220000Y-34710000D03*
%TD*%
%TO.P,R58,1*%
%TO.N,MUX64_A33*%
X103622500Y-147500000D03*
%TO.P,R58,2*%
%TO.N,Net-(J14-Pad3)*%
X101797500Y-147500000D03*
%TD*%
D19*
%TO.P,C3,1*%
%TO.N,1.2V*%
X177870000Y-39720000D03*
%TO.P,C3,2*%
%TO.N,MUX64_A11*%
X179770000Y-39720000D03*
%TD*%
D10*
%TO.P,R84,1*%
%TO.N,MUX64_A4*%
X70052500Y-71820000D03*
%TO.P,R84,2*%
%TO.N,Net-(J16-Pad7)*%
X68227500Y-71820000D03*
%TD*%
%TO.P,R109,1*%
%TO.N,MUX64_A20*%
X70052500Y-34720000D03*
%TO.P,R109,2*%
%TO.N,Net-(J18-Pad9)*%
X68227500Y-34720000D03*
%TD*%
%TO.P,R82,1*%
%TO.N,MUX64_A6*%
X70052500Y-81970000D03*
%TO.P,R82,2*%
%TO.N,Net-(J16-Pad3)*%
X68227500Y-81970000D03*
%TD*%
D15*
%TO.P,R14,1*%
%TO.N,Net-(R11-Pad2)*%
X109477500Y-107660000D03*
%TO.P,R14,2*%
%TO.N,/mux64-regulators/screw-terminals/HV0*%
X106552500Y-107660000D03*
%TD*%
%TO.P,R12,1*%
%TO.N,MUX64_A9*%
X117867500Y-92620000D03*
%TO.P,R12,2*%
%TO.N,Net-(R12-Pad2)*%
X114942500Y-92620000D03*
%TD*%
D10*
%TO.P,R70,1*%
%TO.N,MUX64_A11*%
X77970000Y-81940000D03*
%TO.P,R70,2*%
%TO.N,MUX64_A6*%
X76145000Y-81940000D03*
%TD*%
D20*
%TO.P,R5,1*%
%TO.N,Net-(C6-Pad1)*%
X191739500Y-70317000D03*
%TO.P,R5,2*%
%TO.N,LV_RB*%
X193564500Y-70317000D03*
%TD*%
D10*
%TO.P,R92,1*%
%TO.N,MUX64_A11*%
X111952500Y-34550000D03*
%TO.P,R92,2*%
%TO.N,MUX64_A56*%
X110127500Y-34550000D03*
%TD*%
D13*
%TO.P,J8,1,Pin_1*%
%TO.N,unconnected-(J8-Pad1)*%
X153455000Y-136295000D03*
D14*
%TO.P,J8,2,Pin_2*%
%TO.N,MUX64_A11*%
X153455000Y-138835000D03*
%TO.P,J8,3,Pin_3*%
%TO.N,MUX64_A16*%
X155995000Y-136295000D03*
%TO.P,J8,4,Pin_4*%
%TO.N,MUX64_A15*%
X155995000Y-138835000D03*
%TO.P,J8,5,Pin_5*%
%TO.N,MUX64_A18*%
X158535000Y-136295000D03*
%TO.P,J8,6,Pin_6*%
%TO.N,MUX64_A17*%
X158535000Y-138835000D03*
%TO.P,J8,7,Pin_7*%
%TO.N,MUX64_A20*%
X161075000Y-136295000D03*
%TO.P,J8,8,Pin_8*%
%TO.N,MUX64_A19*%
X161075000Y-138835000D03*
%TO.P,J8,9,Pin_9*%
%TO.N,MUX64_A22*%
X163615000Y-136295000D03*
%TO.P,J8,10,Pin_10*%
%TO.N,MUX64_A21*%
X163615000Y-138835000D03*
%TO.P,J8,11,Pin_11*%
%TO.N,MUX64_A24*%
X166155000Y-136295000D03*
%TO.P,J8,12,Pin_12*%
%TO.N,MUX64_A23*%
X166155000Y-138835000D03*
%TO.P,J8,13,Pin_13*%
%TO.N,MUX64_A26*%
X168695000Y-136295000D03*
%TO.P,J8,14,Pin_14*%
%TO.N,MUX64_A25*%
X168695000Y-138835000D03*
%TO.P,J8,15,Pin_15*%
%TO.N,MUX64_A11*%
X171235000Y-136295000D03*
%TO.P,J8,16,Pin_16*%
X171235000Y-138835000D03*
%TO.P,J8,17,Pin_17*%
%TO.N,MUX64_A30*%
X173775000Y-136295000D03*
%TO.P,J8,18,Pin_18*%
%TO.N,MUX64_A29*%
X173775000Y-138835000D03*
%TO.P,J8,19,Pin_19*%
%TO.N,MUX64_A32*%
X176315000Y-136295000D03*
%TO.P,J8,20,Pin_20*%
%TO.N,MUX64_A31*%
X176315000Y-138835000D03*
%TO.P,J8,21,Pin_21*%
%TO.N,unconnected-(J8-Pad21)*%
X178855000Y-136295000D03*
%TO.P,J8,22,Pin_22*%
%TO.N,MUX64_A33*%
X178855000Y-138835000D03*
%TO.P,J8,23,Pin_23*%
%TO.N,MUX64_A11*%
X181395000Y-136295000D03*
%TO.P,J8,24,Pin_24*%
X181395000Y-138835000D03*
%TD*%
D15*
%TO.P,R11,1*%
%TO.N,MUX64_A10*%
X117867500Y-107660000D03*
%TO.P,R11,2*%
%TO.N,Net-(R11-Pad2)*%
X114942500Y-107660000D03*
%TD*%
D10*
%TO.P,R40,1*%
%TO.N,MUX64_A11*%
X111152500Y-152550000D03*
%TO.P,R40,2*%
%TO.N,MUX64_A34*%
X109327500Y-152550000D03*
%TD*%
D21*
%TO.P,C8,1*%
%TO.N,MUX64_A11*%
X184320000Y-55770000D03*
%TO.P,C8,2*%
%TO.N,B_a4*%
X184320000Y-57670000D03*
%TD*%
D16*
%TO.P,C5,1*%
%TO.N,Net-(C5-Pad1)*%
X176270000Y-56720000D03*
%TO.P,C5,2*%
%TO.N,MUX64_A11*%
X174370000Y-56720000D03*
%TD*%
D10*
%TO.P,R64,1*%
%TO.N,MUX64_A11*%
X77970000Y-87080000D03*
%TO.P,R64,2*%
%TO.N,MUX64_A7*%
X76145000Y-87080000D03*
%TD*%
%TO.P,R48,1*%
%TO.N,MUX64_A11*%
X111152500Y-137340000D03*
%TO.P,R48,2*%
%TO.N,MUX64_A31*%
X109327500Y-137340000D03*
%TD*%
%TO.P,R55,1*%
%TO.N,MUX64_A22*%
X70662500Y-98651000D03*
%TO.P,R55,2*%
%TO.N,Net-(J13-Pad9)*%
X68837500Y-98651000D03*
%TD*%
%TO.P,R42,1*%
%TO.N,MUX64_A11*%
X78002500Y-108825800D03*
%TO.P,R42,2*%
%TO.N,MUX64_A24*%
X76177500Y-108825800D03*
%TD*%
D22*
%TO.P,J16,1,Pin_1*%
%TO.N,Net-(J16-Pad1)*%
X61040000Y-87030000D03*
D23*
%TO.P,J16,2,Pin_2*%
%TO.N,MUX64_A11*%
X61040000Y-84490000D03*
%TO.P,J16,3,Pin_3*%
%TO.N,Net-(J16-Pad3)*%
X61040000Y-81950000D03*
%TO.P,J16,4,Pin_4*%
%TO.N,MUX64_A11*%
X61040000Y-79410000D03*
%TO.P,J16,5,Pin_5*%
%TO.N,Net-(J16-Pad5)*%
X61040000Y-76870000D03*
%TO.P,J16,6,Pin_6*%
%TO.N,MUX64_A11*%
X61040000Y-74330000D03*
%TO.P,J16,7,Pin_7*%
%TO.N,Net-(J16-Pad7)*%
X61040000Y-71790000D03*
%TO.P,J16,8,Pin_8*%
%TO.N,MUX64_A11*%
X61040000Y-69250000D03*
%TO.P,J16,9,Pin_9*%
%TO.N,Net-(J16-Pad9)*%
X61040000Y-66710000D03*
%TO.P,J16,10,Pin_10*%
%TO.N,MUX64_A11*%
X61040000Y-64170000D03*
%TO.P,J16,11,Pin_11*%
%TO.N,Net-(J16-Pad11)*%
X61040000Y-61630000D03*
%TO.P,J16,12,Pin_12*%
%TO.N,MUX64_A11*%
X61040000Y-59090000D03*
%TD*%
D24*
%TO.P,U1,1,GND*%
%TO.N,MUX64_A11*%
X168420000Y-40420000D03*
D25*
%TO.P,U1,2,Vout*%
%TO.N,1.2V*%
X174720000Y-42720000D03*
D24*
X168420000Y-42720000D03*
%TO.P,U1,3,Vin*%
%TO.N,LV_RB*%
X168420000Y-45020000D03*
%TD*%
D10*
%TO.P,R87,1*%
%TO.N,MUX64_A11*%
X111952500Y-54830000D03*
%TO.P,R87,2*%
%TO.N,MUX64_A60*%
X110127500Y-54830000D03*
%TD*%
D26*
%TO.P,J1,01,01*%
%TO.N,/A_tin0_n*%
X207860000Y-141230000D03*
%TO.P,J1,02,02*%
%TO.N,/A_scl*%
X214040000Y-141230000D03*
%TO.P,J1,03,03*%
%TO.N,/A_tin0_p*%
X207860000Y-140430000D03*
%TO.P,J1,04,04*%
%TO.N,/A_sda*%
X214040000Y-140430000D03*
%TO.P,J1,05,05*%
%TO.N,MUX64_A11*%
X207860000Y-139630000D03*
%TO.P,J1,06,06*%
X214040000Y-139630000D03*
%TO.P,J1,07,07*%
%TO.N,/A_din1_n*%
X207860000Y-138830000D03*
%TO.P,J1,08,08*%
%TO.N,MUX64_A11*%
X214040000Y-138830000D03*
%TO.P,J1,09,09*%
%TO.N,/A_din1_p*%
X207860000Y-138030000D03*
%TO.P,J1,10,10*%
%TO.N,MUX64_A11*%
X214040000Y-138030000D03*
%TO.P,J1,11,11*%
X207860000Y-137230000D03*
%TO.P,J1,12,12*%
X214040000Y-137230000D03*
%TO.P,J1,13,13*%
%TO.N,/A_clk2_n*%
X207860000Y-136430000D03*
%TO.P,J1,14,14*%
%TO.N,/A_a3*%
X214040000Y-136430000D03*
%TO.P,J1,15,15*%
%TO.N,/A_clk2_p*%
X207860000Y-135630000D03*
%TO.P,J1,16,16*%
%TO.N,/A_a2*%
X214040000Y-135630000D03*
%TO.P,J1,17,17*%
%TO.N,MUX64_A11*%
X207860000Y-134830000D03*
%TO.P,J1,18,18*%
%TO.N,/A_a1*%
X214040000Y-134830000D03*
%TO.P,J1,19,19*%
%TO.N,/A_tin1_n*%
X207860000Y-134030000D03*
%TO.P,J1,20,20*%
%TO.N,/A_a0*%
X214040000Y-134030000D03*
%TO.P,J1,21,21*%
%TO.N,/A_tin1_p*%
X207860000Y-133230000D03*
%TO.P,J1,22,22*%
%TO.N,MUX64_A11*%
X214040000Y-133230000D03*
%TO.P,J1,23,23*%
X207860000Y-132430000D03*
%TO.P,J1,24,24*%
X214040000Y-132430000D03*
%TO.P,J1,25,25*%
%TO.N,/A_din2_n*%
X207860000Y-131630000D03*
%TO.P,J1,26,26*%
%TO.N,/A_d3*%
X214040000Y-131630000D03*
%TO.P,J1,27,27*%
%TO.N,/A_din2_p*%
X207860000Y-130830000D03*
%TO.P,J1,28,28*%
%TO.N,/A_d2*%
X214040000Y-130830000D03*
%TO.P,J1,29,29*%
%TO.N,MUX64_A11*%
X207860000Y-130030000D03*
%TO.P,J1,30,30*%
%TO.N,/A_d1*%
X214040000Y-130030000D03*
%TO.P,J1,31,31*%
%TO.N,/A_dout1_n*%
X207860000Y-129230000D03*
%TO.P,J1,32,32*%
%TO.N,/A_d0*%
X214040000Y-129230000D03*
%TO.P,J1,33,33*%
%TO.N,/A_dout1_p*%
X207860000Y-128430000D03*
%TO.P,J1,34,34*%
%TO.N,MUX64_A11*%
X214040000Y-128430000D03*
%TO.P,J1,35,35*%
X207860000Y-127630000D03*
%TO.P,J1,36,36*%
%TO.N,LV_RB*%
X214040000Y-127630000D03*
%TO.P,J1,37,37*%
%TO.N,/A_clk3_n*%
X207860000Y-126830000D03*
%TO.P,J1,38,38*%
%TO.N,LV_RB*%
X214040000Y-126830000D03*
%TO.P,J1,39,39*%
%TO.N,/A_clk3_p*%
X207860000Y-126030000D03*
%TO.P,J1,40,40*%
%TO.N,LV_RB*%
X214040000Y-126030000D03*
D27*
%TO.P,J1,G1,GND*%
%TO.N,MUX64_A11*%
X210950000Y-142075000D03*
D28*
%TO.P,J1,G2,GND*%
X210950000Y-136805000D03*
%TO.P,J1,G3,GND*%
X210950000Y-130455000D03*
D27*
%TO.P,J1,G4,GND*%
X210950000Y-125185000D03*
%TD*%
D10*
%TO.P,R90,1*%
%TO.N,MUX64_A11*%
X111952500Y-44670000D03*
%TO.P,R90,2*%
%TO.N,MUX64_A58*%
X110127500Y-44670000D03*
%TD*%
%TO.P,R106,1*%
%TO.N,MUX64_A15*%
X70052500Y-49950000D03*
%TO.P,R106,2*%
%TO.N,Net-(J18-Pad3)*%
X68227500Y-49950000D03*
%TD*%
D15*
%TO.P,R21,1*%
%TO.N,Net-(R12-Pad2)*%
X109477500Y-92620000D03*
%TO.P,R21,2*%
%TO.N,/mux64-regulators/screw-terminals/HV1*%
X106552500Y-92620000D03*
%TD*%
D18*
%TO.P,R3,1*%
%TO.N,MUX64_A11*%
X219230000Y-94662500D03*
%TO.P,R3,2*%
%TO.N,/B_a3*%
X219230000Y-92837500D03*
%TD*%
D10*
%TO.P,R94,1*%
%TO.N,MUX64_A11*%
X78045000Y-49940000D03*
%TO.P,R94,2*%
%TO.N,MUX64_A15*%
X76220000Y-49940000D03*
%TD*%
D13*
%TO.P,J10,1,Pin_1*%
%TO.N,MUX64_A11*%
X150915000Y-94385000D03*
D14*
%TO.P,J10,2,Pin_2*%
X150915000Y-96925000D03*
%TO.P,J10,3,Pin_3*%
%TO.N,1.2V*%
X153455000Y-94385000D03*
%TO.P,J10,4,Pin_4*%
%TO.N,unconnected-(J10-Pad4)*%
X153455000Y-96925000D03*
%TO.P,J10,5,Pin_5*%
%TO.N,1.2V*%
X155995000Y-94385000D03*
%TO.P,J10,6,Pin_6*%
X155995000Y-96925000D03*
%TO.P,J10,7,Pin_7*%
X158535000Y-94385000D03*
%TO.P,J10,8,Pin_8*%
X158535000Y-96925000D03*
%TO.P,J10,9,Pin_9*%
%TO.N,MUX64_A11*%
X161075000Y-94385000D03*
%TO.P,J10,10,Pin_10*%
X161075000Y-96925000D03*
%TO.P,J10,11,Pin_11*%
X163615000Y-94385000D03*
%TO.P,J10,12,Pin_12*%
X163615000Y-96925000D03*
%TO.P,J10,13,Pin_13*%
%TO.N,B_a4*%
X166155000Y-94385000D03*
%TO.P,J10,14,Pin_14*%
%TO.N,B_a0(MUX_OUT)*%
X166155000Y-96925000D03*
%TO.P,J10,15,Pin_15*%
%TO.N,MUX64_A11*%
X168695000Y-94385000D03*
%TO.P,J10,16,Pin_16*%
X168695000Y-96925000D03*
%TO.P,J10,17,Pin_17*%
X171235000Y-94385000D03*
%TO.P,J10,18,Pin_18*%
%TO.N,MUX64_A60*%
X171235000Y-96925000D03*
%TO.P,J10,19,Pin_19*%
%TO.N,MUX64_A57*%
X173775000Y-94385000D03*
%TO.P,J10,20,Pin_20*%
%TO.N,MUX64_A58*%
X173775000Y-96925000D03*
%TO.P,J10,21,Pin_21*%
%TO.N,MUX64_A55*%
X176315000Y-94385000D03*
%TO.P,J10,22,Pin_22*%
%TO.N,MUX64_A56*%
X176315000Y-96925000D03*
%TO.P,J10,23,Pin_23*%
%TO.N,MUX64_A54*%
X178855000Y-94385000D03*
%TO.P,J10,24,Pin_24*%
%TO.N,unconnected-(J10-Pad24)*%
X178855000Y-96925000D03*
%TD*%
D22*
%TO.P,J13,1,Pin_1*%
%TO.N,Net-(J13-Pad1)*%
X61030000Y-118970000D03*
D23*
%TO.P,J13,2,Pin_2*%
%TO.N,MUX64_A11*%
X61030000Y-116430000D03*
%TO.P,J13,3,Pin_3*%
%TO.N,Net-(J13-Pad3)*%
X61030000Y-113890000D03*
%TO.P,J13,4,Pin_4*%
%TO.N,MUX64_A11*%
X61030000Y-111350000D03*
%TO.P,J13,5,Pin_5*%
%TO.N,Net-(J13-Pad5)*%
X61030000Y-108810000D03*
%TO.P,J13,6,Pin_6*%
%TO.N,MUX64_A11*%
X61030000Y-106270000D03*
%TO.P,J13,7,Pin_7*%
%TO.N,Net-(J13-Pad7)*%
X61030000Y-103730000D03*
%TO.P,J13,8,Pin_8*%
%TO.N,MUX64_A11*%
X61030000Y-101190000D03*
%TO.P,J13,9,Pin_9*%
%TO.N,Net-(J13-Pad9)*%
X61030000Y-98650000D03*
%TO.P,J13,10,Pin_10*%
%TO.N,MUX64_A11*%
X61030000Y-96110000D03*
%TO.P,J13,11,Pin_11*%
%TO.N,Net-(J13-Pad11)*%
X61030000Y-93570000D03*
%TO.P,J13,12,Pin_12*%
%TO.N,MUX64_A11*%
X61030000Y-91030000D03*
%TD*%
D29*
%TO.P,TP1,1,1*%
%TO.N,B_a4*%
X190350000Y-48930000D03*
%TD*%
D30*
%TO.P,H2,*%
%TO.N,*%
X85000000Y-151680000D03*
%TD*%
D10*
%TO.P,R59,1*%
%TO.N,MUX64_A32*%
X103622500Y-142400000D03*
%TO.P,R59,2*%
%TO.N,Net-(J14-Pad5)*%
X101797500Y-142400000D03*
%TD*%
%TO.P,R107,1*%
%TO.N,MUX64_A18*%
X70052500Y-44850000D03*
%TO.P,R107,2*%
%TO.N,Net-(J18-Pad5)*%
X68227500Y-44850000D03*
%TD*%
%TO.P,R23,1*%
%TO.N,MUX64_A0*%
X138380000Y-94920000D03*
%TO.P,R23,2*%
%TO.N,MUX64_A11*%
X136555000Y-94920000D03*
%TD*%
%TO.P,R103,1*%
%TO.N,MUX64_A56*%
X104182500Y-34520000D03*
%TO.P,R103,2*%
%TO.N,Net-(J17-Pad9)*%
X102357500Y-34520000D03*
%TD*%
%TO.P,R54,1*%
%TO.N,MUX64_A23*%
X70662500Y-103733400D03*
%TO.P,R54,2*%
%TO.N,Net-(J13-Pad7)*%
X68837500Y-103733400D03*
%TD*%
D16*
%TO.P,C2,1*%
%TO.N,LV_RB*%
X165270000Y-39020000D03*
%TO.P,C2,2*%
%TO.N,MUX64_A11*%
X163370000Y-39020000D03*
%TD*%
D10*
%TO.P,R57,1*%
%TO.N,MUX64_A34*%
X103622500Y-152560000D03*
%TO.P,R57,2*%
%TO.N,Net-(J14-Pad1)*%
X101797500Y-152560000D03*
%TD*%
%TO.P,R8,1*%
%TO.N,MUX64_A11*%
X125527500Y-107660000D03*
%TO.P,R8,2*%
%TO.N,MUX64_A10*%
X123702500Y-107660000D03*
%TD*%
D22*
%TO.P,J11,1,Pin_1*%
%TO.N,Net-(J11-Pad1)*%
X61022500Y-151001000D03*
D23*
%TO.P,J11,2,Pin_2*%
%TO.N,MUX64_A11*%
X61022500Y-148461000D03*
%TO.P,J11,3,Pin_3*%
%TO.N,Net-(J11-Pad3)*%
X61022500Y-145921000D03*
%TO.P,J11,4,Pin_4*%
%TO.N,MUX64_A11*%
X61022500Y-143381000D03*
%TO.P,J11,5,Pin_5*%
%TO.N,Net-(J11-Pad5)*%
X61022500Y-140841000D03*
%TO.P,J11,6,Pin_6*%
%TO.N,MUX64_A11*%
X61022500Y-138301000D03*
%TO.P,J11,7,Pin_7*%
%TO.N,Net-(J11-Pad7)*%
X61022500Y-135761000D03*
%TO.P,J11,8,Pin_8*%
%TO.N,MUX64_A11*%
X61022500Y-133221000D03*
%TO.P,J11,9,Pin_9*%
%TO.N,Net-(J11-Pad9)*%
X61022500Y-130681000D03*
%TO.P,J11,10,Pin_10*%
%TO.N,MUX64_A11*%
X61022500Y-128141000D03*
%TO.P,J11,11,Pin_11*%
%TO.N,Net-(J11-Pad11)*%
X61022500Y-125601000D03*
%TO.P,J11,12,Pin_12*%
%TO.N,MUX64_A11*%
X61022500Y-123061000D03*
%TD*%
D10*
%TO.P,R60,1*%
%TO.N,MUX64_A31*%
X103622500Y-137350000D03*
%TO.P,R60,2*%
%TO.N,Net-(J14-Pad7)*%
X101797500Y-137350000D03*
%TD*%
%TO.P,R85,1*%
%TO.N,MUX64_A3*%
X70052500Y-66740000D03*
%TO.P,R85,2*%
%TO.N,Net-(J16-Pad9)*%
X68227500Y-66740000D03*
%TD*%
%TO.P,R50,1*%
%TO.N,MUX64_A11*%
X111152500Y-127160000D03*
%TO.P,R50,2*%
%TO.N,MUX64_A29*%
X109327500Y-127160000D03*
%TD*%
D30*
%TO.P,H1,*%
%TO.N,*%
X250700000Y-151680000D03*
%TD*%
D10*
%TO.P,R62,1*%
%TO.N,MUX64_A29*%
X103622500Y-127170000D03*
%TO.P,R62,2*%
%TO.N,Net-(J14-Pad11)*%
X101797500Y-127170000D03*
%TD*%
%TO.P,R6,1*%
%TO.N,Net-(C6-Pad1)*%
X186223900Y-70317000D03*
%TO.P,R6,2*%
%TO.N,MUX64_A11*%
X184398900Y-70317000D03*
%TD*%
%TO.P,R99,1*%
%TO.N,MUX64_A60*%
X104182500Y-54800000D03*
%TO.P,R99,2*%
%TO.N,Net-(J17-Pad1)*%
X102357500Y-54800000D03*
%TD*%
D15*
%TO.P,R13,1*%
%TO.N,MUX64_A8*%
X117867500Y-77680000D03*
%TO.P,R13,2*%
%TO.N,Net-(R13-Pad2)*%
X114942500Y-77680000D03*
%TD*%
D10*
%TO.P,R61,1*%
%TO.N,MUX64_A30*%
X103622500Y-132240000D03*
%TO.P,R61,2*%
%TO.N,Net-(J14-Pad9)*%
X101797500Y-132240000D03*
%TD*%
%TO.P,R95,1*%
%TO.N,MUX64_A11*%
X78045000Y-44840000D03*
%TO.P,R95,2*%
%TO.N,MUX64_A18*%
X76220000Y-44840000D03*
%TD*%
%TO.P,R71,1*%
%TO.N,MUX64_A11*%
X77970000Y-76870000D03*
%TO.P,R71,2*%
%TO.N,MUX64_A5*%
X76145000Y-76870000D03*
%TD*%
%TO.P,R53,1*%
%TO.N,MUX64_A24*%
X70662500Y-108825800D03*
%TO.P,R53,2*%
%TO.N,Net-(J13-Pad5)*%
X68837500Y-108825800D03*
%TD*%
D22*
%TO.P,J18,1,Pin_1*%
%TO.N,Net-(J18-Pad1)*%
X61050000Y-55030000D03*
D23*
%TO.P,J18,2,Pin_2*%
%TO.N,MUX64_A11*%
X61050000Y-52490000D03*
%TO.P,J18,3,Pin_3*%
%TO.N,Net-(J18-Pad3)*%
X61050000Y-49950000D03*
%TO.P,J18,4,Pin_4*%
%TO.N,MUX64_A11*%
X61050000Y-47410000D03*
%TO.P,J18,5,Pin_5*%
%TO.N,Net-(J18-Pad5)*%
X61050000Y-44870000D03*
%TO.P,J18,6,Pin_6*%
%TO.N,MUX64_A11*%
X61050000Y-42330000D03*
%TO.P,J18,7,Pin_7*%
%TO.N,Net-(J18-Pad7)*%
X61050000Y-39790000D03*
%TO.P,J18,8,Pin_8*%
%TO.N,MUX64_A11*%
X61050000Y-37250000D03*
%TO.P,J18,9,Pin_9*%
%TO.N,Net-(J18-Pad9)*%
X61050000Y-34710000D03*
%TO.P,J18,10,Pin_10*%
%TO.N,MUX64_A11*%
X61050000Y-32170000D03*
%TO.P,J18,11,Pin_11*%
%TO.N,Net-(J18-Pad11)*%
X61050000Y-29630000D03*
%TO.P,J18,12,Pin_12*%
%TO.N,MUX64_A11*%
X61050000Y-27090000D03*
%TD*%
D26*
%TO.P,J4,01,01*%
%TO.N,LV_RB*%
X237860000Y-54030000D03*
%TO.P,J4,02,02*%
%TO.N,/C_clk1_p*%
X244040000Y-54030000D03*
%TO.P,J4,03,03*%
%TO.N,LV_RB*%
X237860000Y-53230000D03*
%TO.P,J4,04,04*%
%TO.N,/C_clk1_0*%
X244040000Y-53230000D03*
%TO.P,J4,05,05*%
%TO.N,LV_RB*%
X237860000Y-52430000D03*
%TO.P,J4,06,06*%
%TO.N,MUX64_A11*%
X244040000Y-52430000D03*
%TO.P,J4,07,07*%
X237860000Y-51630000D03*
%TO.P,J4,08,08*%
%TO.N,/C_dout0_p*%
X244040000Y-51630000D03*
%TO.P,J4,09,09*%
%TO.N,/C_d4*%
X237860000Y-50830000D03*
%TO.P,J4,10,10*%
%TO.N,/C_dout0_n*%
X244040000Y-50830000D03*
%TO.P,J4,11,11*%
%TO.N,/C_d5*%
X237860000Y-50030000D03*
%TO.P,J4,12,12*%
%TO.N,MUX64_A11*%
X244040000Y-50030000D03*
%TO.P,J4,13,13*%
%TO.N,/C_d6*%
X237860000Y-49230000D03*
%TO.P,J4,14,14*%
%TO.N,/C_din3_n*%
X244040000Y-49230000D03*
%TO.P,J4,15,15*%
%TO.N,/C_d7*%
X237860000Y-48430000D03*
%TO.P,J4,16,16*%
%TO.N,/C_din3_p*%
X244040000Y-48430000D03*
%TO.P,J4,17,17*%
%TO.N,MUX64_A11*%
X237860000Y-47630000D03*
%TO.P,J4,18,18*%
X244040000Y-47630000D03*
%TO.P,J4,19,19*%
X237860000Y-46830000D03*
%TO.P,J4,20,20*%
%TO.N,/C_tin3_p*%
X244040000Y-46830000D03*
%TO.P,J4,21,21*%
%TO.N,/C_a4*%
X237860000Y-46030000D03*
%TO.P,J4,22,22*%
%TO.N,/C_tin3_n*%
X244040000Y-46030000D03*
%TO.P,J4,23,23*%
%TO.N,/C_a5*%
X237860000Y-45230000D03*
%TO.P,J4,24,24*%
%TO.N,MUX64_A11*%
X244040000Y-45230000D03*
%TO.P,J4,25,25*%
%TO.N,/C_a6*%
X237860000Y-44430000D03*
%TO.P,J4,26,26*%
%TO.N,/C_clk0_p*%
X244040000Y-44430000D03*
%TO.P,J4,27,27*%
%TO.N,/C_a7*%
X237860000Y-43630000D03*
%TO.P,J4,28,28*%
%TO.N,/C_clk0_n*%
X244040000Y-43630000D03*
%TO.P,J4,29,29*%
%TO.N,MUX64_A11*%
X237860000Y-42830000D03*
%TO.P,J4,30,30*%
X244040000Y-42830000D03*
%TO.P,J4,31,31*%
X237860000Y-42030000D03*
%TO.P,J4,32,32*%
%TO.N,/C_din0_n*%
X244040000Y-42030000D03*
%TO.P,J4,33,33*%
%TO.N,MUX64_A11*%
X237860000Y-41230000D03*
%TO.P,J4,34,34*%
%TO.N,/C_din0_p*%
X244040000Y-41230000D03*
%TO.P,J4,35,35*%
%TO.N,/C_addr4*%
X237860000Y-40430000D03*
%TO.P,J4,36,36*%
%TO.N,MUX64_A11*%
X244040000Y-40430000D03*
%TO.P,J4,37,37*%
%TO.N,/C_addr3*%
X237860000Y-39630000D03*
%TO.P,J4,38,38*%
%TO.N,/C_tin2_p*%
X244040000Y-39630000D03*
%TO.P,J4,39,39*%
%TO.N,/C_addr2*%
X237860000Y-38830000D03*
%TO.P,J4,40,40*%
%TO.N,/C_tin2_n*%
X244040000Y-38830000D03*
D27*
%TO.P,J4,G1,GND*%
%TO.N,MUX64_A11*%
X240950000Y-54875000D03*
D28*
%TO.P,J4,G2,GND*%
X240950000Y-49605000D03*
%TO.P,J4,G3,GND*%
X240950000Y-43255000D03*
D27*
%TO.P,J4,G4,GND*%
X240950000Y-37985000D03*
%TD*%
D10*
%TO.P,R91,1*%
%TO.N,MUX64_A11*%
X111952500Y-39560000D03*
%TO.P,R91,2*%
%TO.N,MUX64_A55*%
X110127500Y-39560000D03*
%TD*%
%TO.P,R73,1*%
%TO.N,MUX64_A11*%
X77970000Y-66710000D03*
%TO.P,R73,2*%
%TO.N,MUX64_A3*%
X76145000Y-66710000D03*
%TD*%
%TO.P,R93,1*%
%TO.N,MUX64_A11*%
X111952500Y-29410000D03*
%TO.P,R93,2*%
%TO.N,MUX64_A54*%
X110127500Y-29410000D03*
%TD*%
%TO.P,R43,1*%
%TO.N,MUX64_A11*%
X78002500Y-103733400D03*
%TO.P,R43,2*%
%TO.N,MUX64_A23*%
X76177500Y-103733400D03*
%TD*%
%TO.P,R10,1*%
%TO.N,MUX64_A11*%
X125527500Y-77680000D03*
%TO.P,R10,2*%
%TO.N,MUX64_A8*%
X123702500Y-77680000D03*
%TD*%
%TO.P,R45,1*%
%TO.N,MUX64_A11*%
X78002500Y-93554200D03*
%TO.P,R45,2*%
%TO.N,MUX64_A21*%
X76177500Y-93554200D03*
%TD*%
%TO.P,R102,1*%
%TO.N,MUX64_A55*%
X104182500Y-39530000D03*
%TO.P,R102,2*%
%TO.N,Net-(J17-Pad7)*%
X102357500Y-39530000D03*
%TD*%
D22*
%TO.P,J14,1,Pin_1*%
%TO.N,Net-(J14-Pad1)*%
X92920000Y-152570000D03*
D23*
%TO.P,J14,2,Pin_2*%
%TO.N,MUX64_A11*%
X92920000Y-150030000D03*
%TO.P,J14,3,Pin_3*%
%TO.N,Net-(J14-Pad3)*%
X92920000Y-147490000D03*
%TO.P,J14,4,Pin_4*%
%TO.N,MUX64_A11*%
X92920000Y-144950000D03*
%TO.P,J14,5,Pin_5*%
%TO.N,Net-(J14-Pad5)*%
X92920000Y-142410000D03*
%TO.P,J14,6,Pin_6*%
%TO.N,MUX64_A11*%
X92920000Y-139870000D03*
%TO.P,J14,7,Pin_7*%
%TO.N,Net-(J14-Pad7)*%
X92920000Y-137330000D03*
%TO.P,J14,8,Pin_8*%
%TO.N,MUX64_A11*%
X92920000Y-134790000D03*
%TO.P,J14,9,Pin_9*%
%TO.N,Net-(J14-Pad9)*%
X92920000Y-132250000D03*
%TO.P,J14,10,Pin_10*%
%TO.N,MUX64_A11*%
X92920000Y-129710000D03*
%TO.P,J14,11,Pin_11*%
%TO.N,Net-(J14-Pad11)*%
X92920000Y-127170000D03*
%TO.P,J14,12,Pin_12*%
%TO.N,MUX64_A11*%
X92920000Y-124630000D03*
%TD*%
D22*
%TO.P,J17,1,Pin_1*%
%TO.N,Net-(J17-Pad1)*%
X92920000Y-54800000D03*
D23*
%TO.P,J17,2,Pin_2*%
%TO.N,MUX64_A11*%
X92920000Y-52260000D03*
%TO.P,J17,3,Pin_3*%
%TO.N,Net-(J17-Pad3)*%
X92920000Y-49720000D03*
%TO.P,J17,4,Pin_4*%
%TO.N,MUX64_A11*%
X92920000Y-47180000D03*
%TO.P,J17,5,Pin_5*%
%TO.N,Net-(J17-Pad5)*%
X92920000Y-44640000D03*
%TO.P,J17,6,Pin_6*%
%TO.N,MUX64_A11*%
X92920000Y-42100000D03*
%TO.P,J17,7,Pin_7*%
%TO.N,Net-(J17-Pad7)*%
X92920000Y-39560000D03*
%TO.P,J17,8,Pin_8*%
%TO.N,MUX64_A11*%
X92920000Y-37020000D03*
%TO.P,J17,9,Pin_9*%
%TO.N,Net-(J17-Pad9)*%
X92920000Y-34480000D03*
%TO.P,J17,10,Pin_10*%
%TO.N,MUX64_A11*%
X92920000Y-31940000D03*
%TO.P,J17,11,Pin_11*%
%TO.N,Net-(J17-Pad11)*%
X92920000Y-29400000D03*
%TO.P,J17,12,Pin_12*%
%TO.N,MUX64_A11*%
X92920000Y-26860000D03*
%TD*%
D10*
%TO.P,R110,1*%
%TO.N,MUX64_A19*%
X70052500Y-29600000D03*
%TO.P,R110,2*%
%TO.N,Net-(J18-Pad11)*%
X68227500Y-29600000D03*
%TD*%
%TO.P,R96,1*%
%TO.N,MUX64_A11*%
X78045000Y-39740000D03*
%TO.P,R96,2*%
%TO.N,MUX64_A17*%
X76220000Y-39740000D03*
%TD*%
D26*
%TO.P,J5,01,01*%
%TO.N,/B_tin0_n*%
X207860000Y-97630000D03*
%TO.P,J5,02,02*%
%TO.N,/scl*%
X214040000Y-97630000D03*
%TO.P,J5,03,03*%
%TO.N,/B_tin0_p*%
X207860000Y-96830000D03*
%TO.P,J5,04,04*%
%TO.N,/sda*%
X214040000Y-96830000D03*
%TO.P,J5,05,05*%
%TO.N,MUX64_A11*%
X207860000Y-96030000D03*
%TO.P,J5,06,06*%
X214040000Y-96030000D03*
%TO.P,J5,07,07*%
%TO.N,/B_din1_n*%
X207860000Y-95230000D03*
%TO.P,J5,08,08*%
%TO.N,MUX64_A11*%
X214040000Y-95230000D03*
%TO.P,J5,09,09*%
%TO.N,/B_din1_p*%
X207860000Y-94430000D03*
%TO.P,J5,10,10*%
%TO.N,MUX64_A11*%
X214040000Y-94430000D03*
%TO.P,J5,11,11*%
X207860000Y-93630000D03*
%TO.P,J5,12,12*%
X214040000Y-93630000D03*
%TO.P,J5,13,13*%
%TO.N,/B_clk2_n*%
X207860000Y-92830000D03*
%TO.P,J5,14,14*%
%TO.N,/B_a3*%
X214040000Y-92830000D03*
%TO.P,J5,15,15*%
%TO.N,/B_clk2_p*%
X207860000Y-92030000D03*
%TO.P,J5,16,16*%
%TO.N,/B_a2*%
X214040000Y-92030000D03*
%TO.P,J5,17,17*%
%TO.N,MUX64_A11*%
X207860000Y-91230000D03*
%TO.P,J5,18,18*%
%TO.N,/B_a1*%
X214040000Y-91230000D03*
%TO.P,J5,19,19*%
%TO.N,/B_tin1_n*%
X207860000Y-90430000D03*
%TO.P,J5,20,20*%
%TO.N,B_a0(MUX_OUT)*%
X214040000Y-90430000D03*
%TO.P,J5,21,21*%
%TO.N,/B_tin1_p*%
X207860000Y-89630000D03*
%TO.P,J5,22,22*%
%TO.N,MUX64_A11*%
X214040000Y-89630000D03*
%TO.P,J5,23,23*%
X207860000Y-88830000D03*
%TO.P,J5,24,24*%
X214040000Y-88830000D03*
%TO.P,J5,25,25*%
%TO.N,/B_din2_n*%
X207860000Y-88030000D03*
%TO.P,J5,26,26*%
%TO.N,B_d3*%
X214040000Y-88030000D03*
%TO.P,J5,27,27*%
%TO.N,/B_din2_p*%
X207860000Y-87230000D03*
%TO.P,J5,28,28*%
%TO.N,B_d2*%
X214040000Y-87230000D03*
%TO.P,J5,29,29*%
%TO.N,MUX64_A11*%
X207860000Y-86430000D03*
%TO.P,J5,30,30*%
%TO.N,B_d1*%
X214040000Y-86430000D03*
%TO.P,J5,31,31*%
%TO.N,/B_dout1_n*%
X207860000Y-85630000D03*
%TO.P,J5,32,32*%
%TO.N,B_d0*%
X214040000Y-85630000D03*
%TO.P,J5,33,33*%
%TO.N,/B_dout1_p*%
X207860000Y-84830000D03*
%TO.P,J5,34,34*%
%TO.N,MUX64_A11*%
X214040000Y-84830000D03*
%TO.P,J5,35,35*%
X207860000Y-84030000D03*
%TO.P,J5,36,36*%
%TO.N,LV_RB*%
X214040000Y-84030000D03*
%TO.P,J5,37,37*%
%TO.N,/B_clk3_n*%
X207860000Y-83230000D03*
%TO.P,J5,38,38*%
%TO.N,LV_RB*%
X214040000Y-83230000D03*
%TO.P,J5,39,39*%
%TO.N,/B_clk3_p*%
X207860000Y-82430000D03*
%TO.P,J5,40,40*%
%TO.N,LV_RB*%
X214040000Y-82430000D03*
D27*
%TO.P,J5,G1,GND*%
%TO.N,MUX64_A11*%
X210950000Y-98475000D03*
D28*
%TO.P,J5,G2,GND*%
X210950000Y-93205000D03*
%TO.P,J5,G3,GND*%
X210950000Y-86855000D03*
D27*
%TO.P,J5,G4,GND*%
X210950000Y-81585000D03*
%TD*%
D26*
%TO.P,J6,01,01*%
%TO.N,LV_RB*%
X237860000Y-97630000D03*
%TO.P,J6,02,02*%
%TO.N,/B_clk1_p*%
X244040000Y-97630000D03*
%TO.P,J6,03,03*%
%TO.N,LV_RB*%
X237860000Y-96830000D03*
%TO.P,J6,04,04*%
%TO.N,/B_clk1_0*%
X244040000Y-96830000D03*
%TO.P,J6,05,05*%
%TO.N,LV_RB*%
X237860000Y-96030000D03*
%TO.P,J6,06,06*%
%TO.N,MUX64_A11*%
X244040000Y-96030000D03*
%TO.P,J6,07,07*%
X237860000Y-95230000D03*
%TO.P,J6,08,08*%
%TO.N,/B_dout0_p*%
X244040000Y-95230000D03*
%TO.P,J6,09,09*%
%TO.N,B_d4*%
X237860000Y-94430000D03*
%TO.P,J6,10,10*%
%TO.N,/B_dout0_n*%
X244040000Y-94430000D03*
%TO.P,J6,11,11*%
%TO.N,B_d5*%
X237860000Y-93630000D03*
%TO.P,J6,12,12*%
%TO.N,MUX64_A11*%
X244040000Y-93630000D03*
%TO.P,J6,13,13*%
%TO.N,/B_d6*%
X237860000Y-92830000D03*
%TO.P,J6,14,14*%
%TO.N,/B_din3_n*%
X244040000Y-92830000D03*
%TO.P,J6,15,15*%
%TO.N,/B_d7*%
X237860000Y-92030000D03*
%TO.P,J6,16,16*%
%TO.N,/B_din3_p*%
X244040000Y-92030000D03*
%TO.P,J6,17,17*%
%TO.N,MUX64_A11*%
X237860000Y-91230000D03*
%TO.P,J6,18,18*%
X244040000Y-91230000D03*
%TO.P,J6,19,19*%
X237860000Y-90430000D03*
%TO.P,J6,20,20*%
%TO.N,/B_tin3_p*%
X244040000Y-90430000D03*
%TO.P,J6,21,21*%
%TO.N,B_a4*%
X237860000Y-89630000D03*
%TO.P,J6,22,22*%
%TO.N,/B_tin3_n*%
X244040000Y-89630000D03*
%TO.P,J6,23,23*%
%TO.N,/B_a5*%
X237860000Y-88830000D03*
%TO.P,J6,24,24*%
%TO.N,MUX64_A11*%
X244040000Y-88830000D03*
%TO.P,J6,25,25*%
%TO.N,/B_a6*%
X237860000Y-88030000D03*
%TO.P,J6,26,26*%
%TO.N,/B_clk0_p*%
X244040000Y-88030000D03*
%TO.P,J6,27,27*%
%TO.N,/B_a7*%
X237860000Y-87230000D03*
%TO.P,J6,28,28*%
%TO.N,/B_clk0_n*%
X244040000Y-87230000D03*
%TO.P,J6,29,29*%
%TO.N,MUX64_A11*%
X237860000Y-86430000D03*
%TO.P,J6,30,30*%
X244040000Y-86430000D03*
%TO.P,J6,31,31*%
X237860000Y-85630000D03*
%TO.P,J6,32,32*%
%TO.N,/B_din0_n*%
X244040000Y-85630000D03*
%TO.P,J6,33,33*%
%TO.N,MUX64_A11*%
X237860000Y-84830000D03*
%TO.P,J6,34,34*%
%TO.N,/B_din0_p*%
X244040000Y-84830000D03*
%TO.P,J6,35,35*%
%TO.N,/B_addr4*%
X237860000Y-84030000D03*
%TO.P,J6,36,36*%
%TO.N,MUX64_A11*%
X244040000Y-84030000D03*
%TO.P,J6,37,37*%
%TO.N,/B_addr3*%
X237860000Y-83230000D03*
%TO.P,J6,38,38*%
%TO.N,/B_tin2_p*%
X244040000Y-83230000D03*
%TO.P,J6,39,39*%
%TO.N,/B_addr2*%
X237860000Y-82430000D03*
%TO.P,J6,40,40*%
%TO.N,/B_tin2_n*%
X244040000Y-82430000D03*
D27*
%TO.P,J6,G1,GND*%
%TO.N,MUX64_A11*%
X240950000Y-98475000D03*
D28*
%TO.P,J6,G2,GND*%
X240950000Y-93205000D03*
%TO.P,J6,G3,GND*%
X240950000Y-86855000D03*
D27*
%TO.P,J6,G4,GND*%
X240950000Y-81585000D03*
%TD*%
D10*
%TO.P,R9,1*%
%TO.N,MUX64_A11*%
X125527500Y-92620000D03*
%TO.P,R9,2*%
%TO.N,MUX64_A9*%
X123702500Y-92620000D03*
%TD*%
%TO.P,R74,1*%
%TO.N,MUX64_A11*%
X77970000Y-61620000D03*
%TO.P,R74,2*%
%TO.N,MUX64_A2*%
X76145000Y-61620000D03*
%TD*%
%TO.P,R41,1*%
%TO.N,MUX64_A11*%
X78002500Y-113889000D03*
%TO.P,R41,2*%
%TO.N,MUX64_A25*%
X76177500Y-113889000D03*
%TD*%
%TO.P,R51,1*%
%TO.N,MUX64_A26*%
X70662500Y-118943600D03*
%TO.P,R51,2*%
%TO.N,Net-(J13-Pad1)*%
X68837500Y-118943600D03*
%TD*%
D26*
%TO.P,J2,01,01*%
%TO.N,/C_tin0_n*%
X207860000Y-54030000D03*
%TO.P,J2,02,02*%
%TO.N,/C_scl*%
X214040000Y-54030000D03*
%TO.P,J2,03,03*%
%TO.N,/C_tin0_p*%
X207860000Y-53230000D03*
%TO.P,J2,04,04*%
%TO.N,/C_sda*%
X214040000Y-53230000D03*
%TO.P,J2,05,05*%
%TO.N,MUX64_A11*%
X207860000Y-52430000D03*
%TO.P,J2,06,06*%
X214040000Y-52430000D03*
%TO.P,J2,07,07*%
%TO.N,/C_din1_n*%
X207860000Y-51630000D03*
%TO.P,J2,08,08*%
%TO.N,MUX64_A11*%
X214040000Y-51630000D03*
%TO.P,J2,09,09*%
%TO.N,/C_din1_p*%
X207860000Y-50830000D03*
%TO.P,J2,10,10*%
%TO.N,MUX64_A11*%
X214040000Y-50830000D03*
%TO.P,J2,11,11*%
X207860000Y-50030000D03*
%TO.P,J2,12,12*%
X214040000Y-50030000D03*
%TO.P,J2,13,13*%
%TO.N,/C_clk2_n*%
X207860000Y-49230000D03*
%TO.P,J2,14,14*%
%TO.N,/C_a3*%
X214040000Y-49230000D03*
%TO.P,J2,15,15*%
%TO.N,/C_clk2_p*%
X207860000Y-48430000D03*
%TO.P,J2,16,16*%
%TO.N,/C_a2*%
X214040000Y-48430000D03*
%TO.P,J2,17,17*%
%TO.N,MUX64_A11*%
X207860000Y-47630000D03*
%TO.P,J2,18,18*%
%TO.N,/C_a1*%
X214040000Y-47630000D03*
%TO.P,J2,19,19*%
%TO.N,/C_tin1_n*%
X207860000Y-46830000D03*
%TO.P,J2,20,20*%
%TO.N,/C_a0*%
X214040000Y-46830000D03*
%TO.P,J2,21,21*%
%TO.N,/C_tin1_p*%
X207860000Y-46030000D03*
%TO.P,J2,22,22*%
%TO.N,MUX64_A11*%
X214040000Y-46030000D03*
%TO.P,J2,23,23*%
X207860000Y-45230000D03*
%TO.P,J2,24,24*%
X214040000Y-45230000D03*
%TO.P,J2,25,25*%
%TO.N,/C_din2_n*%
X207860000Y-44430000D03*
%TO.P,J2,26,26*%
%TO.N,/C_d3*%
X214040000Y-44430000D03*
%TO.P,J2,27,27*%
%TO.N,/C_din2_p*%
X207860000Y-43630000D03*
%TO.P,J2,28,28*%
%TO.N,/C_d2*%
X214040000Y-43630000D03*
%TO.P,J2,29,29*%
%TO.N,MUX64_A11*%
X207860000Y-42830000D03*
%TO.P,J2,30,30*%
%TO.N,/C_d1*%
X214040000Y-42830000D03*
%TO.P,J2,31,31*%
%TO.N,/C_dout1_n*%
X207860000Y-42030000D03*
%TO.P,J2,32,32*%
%TO.N,/C_d0*%
X214040000Y-42030000D03*
%TO.P,J2,33,33*%
%TO.N,/C_dout1_p*%
X207860000Y-41230000D03*
%TO.P,J2,34,34*%
%TO.N,MUX64_A11*%
X214040000Y-41230000D03*
%TO.P,J2,35,35*%
X207860000Y-40430000D03*
%TO.P,J2,36,36*%
%TO.N,LV_RB*%
X214040000Y-40430000D03*
%TO.P,J2,37,37*%
%TO.N,/C_clk3_n*%
X207860000Y-39630000D03*
%TO.P,J2,38,38*%
%TO.N,LV_RB*%
X214040000Y-39630000D03*
%TO.P,J2,39,39*%
%TO.N,/C_clk3_p*%
X207860000Y-38830000D03*
%TO.P,J2,40,40*%
%TO.N,LV_RB*%
X214040000Y-38830000D03*
D27*
%TO.P,J2,G1,GND*%
%TO.N,MUX64_A11*%
X210950000Y-54875000D03*
D28*
%TO.P,J2,G2,GND*%
X210950000Y-49605000D03*
%TO.P,J2,G3,GND*%
X210950000Y-43255000D03*
D27*
%TO.P,J2,G4,GND*%
X210950000Y-37985000D03*
%TD*%
D10*
%TO.P,R52,1*%
%TO.N,MUX64_A25*%
X70662500Y-113889000D03*
%TO.P,R52,2*%
%TO.N,Net-(J13-Pad3)*%
X68837500Y-113889000D03*
%TD*%
D26*
%TO.P,J3,01,01*%
%TO.N,LV_RB*%
X237860000Y-141230000D03*
%TO.P,J3,02,02*%
%TO.N,/A_clk1_p*%
X244040000Y-141230000D03*
%TO.P,J3,03,03*%
%TO.N,LV_RB*%
X237860000Y-140430000D03*
%TO.P,J3,04,04*%
%TO.N,/A_clk1_0*%
X244040000Y-140430000D03*
%TO.P,J3,05,05*%
%TO.N,LV_RB*%
X237860000Y-139630000D03*
%TO.P,J3,06,06*%
%TO.N,MUX64_A11*%
X244040000Y-139630000D03*
%TO.P,J3,07,07*%
X237860000Y-138830000D03*
%TO.P,J3,08,08*%
%TO.N,/A_dout0_p*%
X244040000Y-138830000D03*
%TO.P,J3,09,09*%
%TO.N,/A_d4*%
X237860000Y-138030000D03*
%TO.P,J3,10,10*%
%TO.N,/A_dout0_n*%
X244040000Y-138030000D03*
%TO.P,J3,11,11*%
%TO.N,/A_d5*%
X237860000Y-137230000D03*
%TO.P,J3,12,12*%
%TO.N,MUX64_A11*%
X244040000Y-137230000D03*
%TO.P,J3,13,13*%
%TO.N,/A_d6*%
X237860000Y-136430000D03*
%TO.P,J3,14,14*%
%TO.N,/A_din3_n*%
X244040000Y-136430000D03*
%TO.P,J3,15,15*%
%TO.N,/A_d7*%
X237860000Y-135630000D03*
%TO.P,J3,16,16*%
%TO.N,/A_din3_p*%
X244040000Y-135630000D03*
%TO.P,J3,17,17*%
%TO.N,MUX64_A11*%
X237860000Y-134830000D03*
%TO.P,J3,18,18*%
X244040000Y-134830000D03*
%TO.P,J3,19,19*%
X237860000Y-134030000D03*
%TO.P,J3,20,20*%
%TO.N,/A_tin3_p*%
X244040000Y-134030000D03*
%TO.P,J3,21,21*%
%TO.N,/A_a4*%
X237860000Y-133230000D03*
%TO.P,J3,22,22*%
%TO.N,/A_tin3_n*%
X244040000Y-133230000D03*
%TO.P,J3,23,23*%
%TO.N,/A_a5*%
X237860000Y-132430000D03*
%TO.P,J3,24,24*%
%TO.N,MUX64_A11*%
X244040000Y-132430000D03*
%TO.P,J3,25,25*%
%TO.N,/A_a6*%
X237860000Y-131630000D03*
%TO.P,J3,26,26*%
%TO.N,/A_clk0_p*%
X244040000Y-131630000D03*
%TO.P,J3,27,27*%
%TO.N,/A_a7*%
X237860000Y-130830000D03*
%TO.P,J3,28,28*%
%TO.N,/A_clk0_n*%
X244040000Y-130830000D03*
%TO.P,J3,29,29*%
%TO.N,MUX64_A11*%
X237860000Y-130030000D03*
%TO.P,J3,30,30*%
X244040000Y-130030000D03*
%TO.P,J3,31,31*%
X237860000Y-129230000D03*
%TO.P,J3,32,32*%
%TO.N,/A_din0_n*%
X244040000Y-129230000D03*
%TO.P,J3,33,33*%
%TO.N,MUX64_A11*%
X237860000Y-128430000D03*
%TO.P,J3,34,34*%
%TO.N,/A_din0_p*%
X244040000Y-128430000D03*
%TO.P,J3,35,35*%
%TO.N,/A_addr4*%
X237860000Y-127630000D03*
%TO.P,J3,36,36*%
%TO.N,MUX64_A11*%
X244040000Y-127630000D03*
%TO.P,J3,37,37*%
%TO.N,/A_addr3*%
X237860000Y-126830000D03*
%TO.P,J3,38,38*%
%TO.N,/A_tin2_p*%
X244040000Y-126830000D03*
%TO.P,J3,39,39*%
%TO.N,/A_addr2*%
X237860000Y-126030000D03*
%TO.P,J3,40,40*%
%TO.N,/A_tin2_n*%
X244040000Y-126030000D03*
D27*
%TO.P,J3,G1,GND*%
%TO.N,MUX64_A11*%
X240950000Y-142075000D03*
D28*
%TO.P,J3,G2,GND*%
X240950000Y-136805000D03*
%TO.P,J3,G3,GND*%
X240950000Y-130455000D03*
D27*
%TO.P,J3,G4,GND*%
X240950000Y-125185000D03*
%TD*%
D20*
%TO.P,R7,1*%
%TO.N,B_a4*%
X191739500Y-60817400D03*
%TO.P,R7,2*%
%TO.N,MUX64_A11*%
X193564500Y-60817400D03*
%TD*%
D10*
%TO.P,R83,1*%
%TO.N,MUX64_A5*%
X70052500Y-76900000D03*
%TO.P,R83,2*%
%TO.N,Net-(J16-Pad5)*%
X68227500Y-76900000D03*
%TD*%
%TO.P,R88,1*%
%TO.N,MUX64_A11*%
X78045000Y-55010000D03*
%TO.P,R88,2*%
%TO.N,MUX64_A16*%
X76220000Y-55010000D03*
%TD*%
%TO.P,R72,1*%
%TO.N,MUX64_A11*%
X77970000Y-71790000D03*
%TO.P,R72,2*%
%TO.N,MUX64_A4*%
X76145000Y-71790000D03*
%TD*%
D20*
%TO.P,R4,1*%
%TO.N,Net-(R4-Pad1)*%
X184398900Y-60817400D03*
%TO.P,R4,2*%
%TO.N,B_a4*%
X186223900Y-60817400D03*
%TD*%
D30*
%TO.P,H4,*%
%TO.N,*%
X250700000Y-28380000D03*
%TD*%
D13*
%TO.P,J9,1,Pin_1*%
%TO.N,unconnected-(J9-Pad1)*%
X185840000Y-129310000D03*
D14*
%TO.P,J9,2,Pin_2*%
%TO.N,MUX64_A34*%
X188380000Y-129310000D03*
%TO.P,J9,3,Pin_3*%
%TO.N,MUX64_A11*%
X185840000Y-126770000D03*
%TO.P,J9,4,Pin_4*%
%TO.N,MUX64_A35*%
X188380000Y-126770000D03*
%TO.P,J9,5,Pin_5*%
%TO.N,MUX64_A38*%
X185840000Y-124230000D03*
%TO.P,J9,6,Pin_6*%
%TO.N,MUX64_A37*%
X188380000Y-124230000D03*
%TO.P,J9,7,Pin_7*%
%TO.N,MUX64_A40*%
X185840000Y-121690000D03*
%TO.P,J9,8,Pin_8*%
%TO.N,MUX64_A39*%
X188380000Y-121690000D03*
%TO.P,J9,9,Pin_9*%
%TO.N,MUX64_A11*%
X185840000Y-119150000D03*
%TO.P,J9,10,Pin_10*%
%TO.N,MUX64_A41*%
X188380000Y-119150000D03*
%TO.P,J9,11,Pin_11*%
%TO.N,MUX64_A11*%
X185840000Y-116610000D03*
%TO.P,J9,12,Pin_12*%
X188380000Y-116610000D03*
%TO.P,J9,13,Pin_13*%
X185840000Y-114070000D03*
%TO.P,J9,14,Pin_14*%
X188380000Y-114070000D03*
%TO.P,J9,15,Pin_15*%
X185840000Y-111530000D03*
%TO.P,J9,16,Pin_16*%
X188380000Y-111530000D03*
%TO.P,J9,17,Pin_17*%
X185840000Y-108990000D03*
%TO.P,J9,18,Pin_18*%
X188380000Y-108990000D03*
%TO.P,J9,19,Pin_19*%
X185840000Y-106450000D03*
%TO.P,J9,20,Pin_20*%
X188380000Y-106450000D03*
%TO.P,J9,21,Pin_21*%
%TO.N,unconnected-(J9-Pad21)*%
X185840000Y-103910000D03*
%TO.P,J9,22,Pin_22*%
%TO.N,MUX64_A11*%
X188380000Y-103910000D03*
%TO.P,J9,23,Pin_23*%
X185840000Y-101370000D03*
%TO.P,J9,24,Pin_24*%
X188380000Y-101370000D03*
%TD*%
D19*
%TO.P,C4,1*%
%TO.N,1.2V*%
X177870000Y-45720000D03*
%TO.P,C4,2*%
%TO.N,MUX64_A11*%
X179770000Y-45720000D03*
%TD*%
D10*
%TO.P,R100,1*%
%TO.N,MUX64_A57*%
X104182500Y-49710000D03*
%TO.P,R100,2*%
%TO.N,Net-(J17-Pad3)*%
X102357500Y-49710000D03*
%TD*%
%TO.P,R47,1*%
%TO.N,MUX64_A11*%
X111152500Y-142390000D03*
%TO.P,R47,2*%
%TO.N,MUX64_A32*%
X109327500Y-142390000D03*
%TD*%
%TO.P,R49,1*%
%TO.N,MUX64_A11*%
X111152500Y-132230000D03*
%TO.P,R49,2*%
%TO.N,MUX64_A30*%
X109327500Y-132230000D03*
%TD*%
%TO.P,R86,1*%
%TO.N,MUX64_A2*%
X70052500Y-61650000D03*
%TO.P,R86,2*%
%TO.N,Net-(J16-Pad11)*%
X68227500Y-61650000D03*
%TD*%
D18*
%TO.P,R1,1*%
%TO.N,MUX64_A11*%
X219230000Y-138272500D03*
%TO.P,R1,2*%
%TO.N,/A_a3*%
X219230000Y-136447500D03*
%TD*%
D10*
%TO.P,R104,1*%
%TO.N,MUX64_A54*%
X104182500Y-29380000D03*
%TO.P,R104,2*%
%TO.N,Net-(J17-Pad11)*%
X102357500Y-29380000D03*
%TD*%
D30*
%TO.P,H3,*%
%TO.N,*%
X85000000Y-28380000D03*
%TD*%
D10*
%TO.P,R44,1*%
%TO.N,MUX64_A11*%
X78002500Y-98651000D03*
%TO.P,R44,2*%
%TO.N,MUX64_A22*%
X76177500Y-98651000D03*
%TD*%
%TO.P,R101,1*%
%TO.N,MUX64_A58*%
X104182500Y-44640000D03*
%TO.P,R101,2*%
%TO.N,Net-(J17-Pad5)*%
X102357500Y-44640000D03*
%TD*%
%TO.P,R89,1*%
%TO.N,MUX64_A11*%
X111952500Y-49740000D03*
%TO.P,R89,2*%
%TO.N,MUX64_A57*%
X110127500Y-49740000D03*
%TD*%
%TO.P,R56,1*%
%TO.N,MUX64_A21*%
X70662500Y-93554200D03*
%TO.P,R56,2*%
%TO.N,Net-(J13-Pad11)*%
X68837500Y-93554200D03*
%TD*%
D16*
%TO.P,C6,1*%
%TO.N,Net-(C6-Pad1)*%
X176270000Y-63720000D03*
%TO.P,C6,2*%
%TO.N,MUX64_A11*%
X174370000Y-63720000D03*
%TD*%
D10*
%TO.P,R105,1*%
%TO.N,MUX64_A16*%
X70052500Y-55020000D03*
%TO.P,R105,2*%
%TO.N,Net-(J18-Pad1)*%
X68227500Y-55020000D03*
%TD*%
%TO.P,R81,1*%
%TO.N,MUX64_A7*%
X70052500Y-87110000D03*
%TO.P,R81,2*%
%TO.N,Net-(J16-Pad1)*%
X68227500Y-87110000D03*
%TD*%
D31*
%TO.N,LV_RB*%
X218360000Y-126760000D03*
X233420000Y-140390000D03*
X219450000Y-72230000D03*
X234450000Y-96870000D03*
X217770000Y-83110000D03*
%TO.N,1.2V*%
X177850000Y-50540000D03*
X147216200Y-96483800D03*
%TO.N,B_a4*%
X191730000Y-63920000D03*
X204980000Y-72730000D03*
%TO.N,B_d4*%
X150630000Y-115280000D03*
%TO.N,B_d5*%
X150770000Y-112780000D03*
%TO.N,MUX64_A2*%
X79710000Y-64810000D03*
%TO.N,MUX64_A3*%
X80310000Y-69780000D03*
%TO.N,MUX64_A4*%
X80980000Y-74690000D03*
%TO.N,MUX64_A5*%
X80620000Y-79690000D03*
%TO.N,MUX64_A6*%
X80220000Y-84800000D03*
%TO.N,MUX64_A7*%
X81560000Y-88520000D03*
%TO.N,MUX64_A15*%
X154720000Y-65630000D03*
%TO.N,MUX64_A16*%
X152180000Y-67090000D03*
%TO.N,MUX64_A17*%
X159875000Y-62955000D03*
%TO.N,MUX64_A18*%
X157260000Y-64140000D03*
%TO.N,MUX64_A19*%
X164970000Y-59510000D03*
%TO.N,MUX64_A20*%
X162380000Y-61240000D03*
%TO.N,MUX64_A21*%
X73660000Y-95860000D03*
%TO.N,MUX64_A22*%
X73260000Y-100670000D03*
%TO.N,MUX64_A23*%
X73400000Y-106030000D03*
%TO.N,MUX64_A24*%
X73440000Y-111460000D03*
%TO.N,MUX64_A25*%
X73680000Y-116170000D03*
%TO.N,MUX64_A26*%
X74260000Y-120690000D03*
%TO.N,MUX64_A11*%
X205460000Y-96050000D03*
X216700000Y-132450000D03*
X246250000Y-93670000D03*
X246140000Y-134860000D03*
X80230000Y-87080000D03*
X114750000Y-49750000D03*
X205230000Y-93690000D03*
X246240000Y-130040000D03*
X205270000Y-137250000D03*
X80370000Y-44850000D03*
X176340000Y-60920000D03*
X79250000Y-95710000D03*
X79950000Y-29580000D03*
X246140000Y-88890000D03*
X114020000Y-143410000D03*
X180540000Y-55850000D03*
X205200000Y-127620000D03*
X80420000Y-125600000D03*
X168410000Y-37330000D03*
X240980000Y-58050000D03*
X205630000Y-42810000D03*
X235480000Y-134780000D03*
X240860000Y-122110000D03*
X216430000Y-129270000D03*
X80480000Y-150970000D03*
X125570000Y-74490000D03*
X246200000Y-137220000D03*
X80050000Y-55030000D03*
X240910000Y-78560000D03*
X128470000Y-94770000D03*
X210970000Y-121800000D03*
X235430000Y-95130000D03*
X205130000Y-91260000D03*
X113090000Y-153930000D03*
X210970000Y-145150000D03*
X246150000Y-84060000D03*
X79320000Y-101500000D03*
X80450000Y-145970000D03*
X246290000Y-86490000D03*
X205770000Y-49980000D03*
X246290000Y-50030000D03*
X216130000Y-45210000D03*
X246190000Y-91310000D03*
X140950000Y-78780000D03*
X205660000Y-40410000D03*
X113990000Y-147870000D03*
X80350000Y-135710000D03*
X246180000Y-45250000D03*
X80400000Y-140850000D03*
X113740000Y-132280000D03*
X79980000Y-114690000D03*
X218880000Y-84650000D03*
X246300000Y-52400000D03*
X235240000Y-51060000D03*
X246190000Y-40420000D03*
X235150000Y-138250000D03*
X205500000Y-139610000D03*
X80400000Y-130740000D03*
X216370000Y-99890000D03*
X80140000Y-49960000D03*
X113740000Y-127080000D03*
X163390000Y-41700000D03*
X205650000Y-45170000D03*
X235570000Y-47590000D03*
X205170000Y-132430000D03*
X79790000Y-108710000D03*
X80040000Y-71760000D03*
X205220000Y-86460000D03*
X222080000Y-51020000D03*
X196120000Y-60820000D03*
X171670000Y-63660000D03*
X246330000Y-42850000D03*
X80220000Y-76880000D03*
X234570000Y-42030000D03*
X240950000Y-34920000D03*
X210940000Y-58180000D03*
X133750000Y-94110000D03*
X246210000Y-139590000D03*
X210920000Y-78510000D03*
X205130000Y-88870000D03*
X235530000Y-91230000D03*
X114770000Y-29430000D03*
X114030000Y-138330000D03*
X246160000Y-96070000D03*
X234480000Y-129220000D03*
X246100000Y-127610000D03*
X205730000Y-47610000D03*
X114840000Y-44600000D03*
X114380000Y-54810000D03*
X246230000Y-47670000D03*
X171670000Y-56730000D03*
X80360000Y-118070000D03*
X80240000Y-34720000D03*
X184400000Y-73600000D03*
X205820000Y-52390000D03*
X205170000Y-84070000D03*
X246090000Y-132440000D03*
X141040000Y-93830000D03*
X179840000Y-42600000D03*
X80160000Y-39780000D03*
X127940000Y-108280000D03*
X241010000Y-145110000D03*
X79960000Y-66660000D03*
X216120000Y-41600000D03*
X114750000Y-34510000D03*
X234530000Y-85670000D03*
X217360000Y-89170000D03*
X240940000Y-101700000D03*
X205260000Y-130020000D03*
X80280000Y-61600000D03*
X114800000Y-39660000D03*
X205170000Y-134820000D03*
X80270000Y-81920000D03*
X211000000Y-35010000D03*
%TO.N,MUX64_A55*%
X135050000Y-85540000D03*
X135020000Y-41790000D03*
%TO.N,MUX64_A54*%
X138780000Y-32820000D03*
X138790000Y-83090000D03*
%TO.N,MUX64_A56*%
X136740000Y-84270000D03*
X136730000Y-37680000D03*
%TO.N,MUX64_A57*%
X130930000Y-47880000D03*
X130930000Y-87880000D03*
%TO.N,MUX64_A58*%
X132900000Y-86520000D03*
X132910000Y-42840000D03*
%TO.N,MUX64_A60*%
X128910000Y-89160000D03*
X128890000Y-49900000D03*
%TD*%
D32*
%TO.N,MUX64_A15*%
X154720000Y-65630000D02*
X154630000Y-65540000D01*
X154630000Y-65540000D02*
X89350000Y-65540000D01*
X81510000Y-53130000D02*
X74710000Y-53130000D01*
X83500000Y-59690000D02*
X83500000Y-55120000D01*
X74710000Y-53130000D02*
X73070000Y-51490000D01*
X89350000Y-65540000D02*
X83500000Y-59690000D01*
X83500000Y-55120000D02*
X81510000Y-53130000D01*
X73070000Y-51490000D02*
X73070000Y-49950000D01*
%TO.N,MUX64_A16*%
X152180000Y-67090000D02*
X151780000Y-66690000D01*
X81150000Y-59420000D02*
X75350000Y-59420000D01*
X88420000Y-66690000D02*
X81150000Y-59420000D01*
X151780000Y-66690000D02*
X88420000Y-66690000D01*
X75350000Y-59420000D02*
X73050000Y-57120000D01*
X73050000Y-57120000D02*
X73050000Y-55020000D01*
%TO.N,MUX64_A18*%
X157260000Y-64140000D02*
X157120000Y-64000000D01*
X157120000Y-64000000D02*
X90120000Y-64000000D01*
X84820000Y-58700000D02*
X84820000Y-49640000D01*
X84820000Y-49640000D02*
X83200000Y-48020000D01*
X90120000Y-64000000D02*
X84820000Y-58700000D01*
X83200000Y-48020000D02*
X73840000Y-48020000D01*
X73840000Y-48020000D02*
X73040000Y-47220000D01*
X73040000Y-47220000D02*
X73040000Y-44850000D01*
%TO.N,MUX64_A17*%
X159875000Y-62955000D02*
X159700000Y-62780000D01*
X159700000Y-62780000D02*
X90980000Y-62780000D01*
X74100000Y-42930000D02*
X73110000Y-41940000D01*
X86210000Y-58010000D02*
X86210000Y-44280000D01*
X90980000Y-62780000D02*
X86210000Y-58010000D01*
X86210000Y-44280000D02*
X84860000Y-42930000D01*
X73110000Y-41940000D02*
X73110000Y-39750000D01*
X84860000Y-42930000D02*
X74100000Y-42930000D01*
%TO.N,MUX64_A20*%
X162380000Y-61240000D02*
X91070000Y-61240000D01*
X87350000Y-39450000D02*
X85910000Y-38010000D01*
X72960000Y-36810000D02*
X72960000Y-34720000D01*
X87350000Y-57520000D02*
X87350000Y-39450000D01*
X85910000Y-38010000D02*
X74160000Y-38010000D01*
X91070000Y-61240000D02*
X87350000Y-57520000D01*
X74160000Y-38010000D02*
X72960000Y-36810000D01*
%TO.N,MUX64_A19*%
X164970000Y-59510000D02*
X164950000Y-59490000D01*
X164950000Y-59490000D02*
X91400000Y-59490000D01*
X91400000Y-59490000D02*
X89020000Y-57110000D01*
X89020000Y-57110000D02*
X89020000Y-34840000D01*
X89020000Y-34840000D02*
X87020000Y-32840000D01*
X87020000Y-32840000D02*
X74510000Y-32840000D01*
X74510000Y-32840000D02*
X72780000Y-31110000D01*
X72780000Y-31110000D02*
X72780000Y-29600000D01*
%TO.N,MUX64_A38*%
X73462800Y-145922800D02*
X73462800Y-144907200D01*
X73462800Y-144907200D02*
X74200000Y-144170000D01*
X81360000Y-144170000D02*
X86640000Y-138890000D01*
X161170000Y-124230000D02*
X185840000Y-124230000D01*
X74200000Y-144170000D02*
X81360000Y-144170000D01*
X86640000Y-138890000D02*
X86640000Y-124750000D01*
X86640000Y-124750000D02*
X90180000Y-121210000D01*
X90180000Y-121210000D02*
X120710000Y-121210000D01*
X136490000Y-136990000D02*
X148410000Y-136990000D01*
X120710000Y-121210000D02*
X136490000Y-136990000D01*
X148410000Y-136990000D02*
X161170000Y-124230000D01*
%TO.N,MUX64_A37*%
X73592800Y-140842800D02*
X73592800Y-140137200D01*
X73592800Y-140137200D02*
X74600000Y-139130000D01*
X74600000Y-139130000D02*
X80920000Y-139130000D01*
X85150000Y-123780000D02*
X89370000Y-119560000D01*
X121400000Y-119560000D02*
X137610000Y-135770000D01*
X148010000Y-135770000D02*
X148060000Y-135720000D01*
X148060000Y-135720000D02*
X148060000Y-135710000D01*
X89370000Y-119560000D02*
X121400000Y-119560000D01*
X80920000Y-139130000D02*
X85150000Y-134900000D01*
X137610000Y-135770000D02*
X148010000Y-135770000D01*
X85150000Y-134900000D02*
X85150000Y-123780000D01*
X148060000Y-135710000D02*
X160666200Y-123103800D01*
X160666200Y-123103800D02*
X187253800Y-123103800D01*
X187253800Y-123103800D02*
X188380000Y-124230000D01*
%TO.N,MUX64_A40*%
X73735800Y-135804200D02*
X73735800Y-134894200D01*
X80920000Y-133860000D02*
X83910000Y-130870000D01*
X83910000Y-130870000D02*
X83910000Y-122300000D01*
X73735800Y-134894200D02*
X74770000Y-133860000D01*
X138020000Y-134780000D02*
X147520000Y-134780000D01*
X74770000Y-133860000D02*
X80920000Y-133860000D01*
X83910000Y-122300000D02*
X88870000Y-117340000D01*
X88870000Y-117340000D02*
X120580000Y-117340000D01*
X120580000Y-117340000D02*
X138020000Y-134780000D01*
X147520000Y-134780000D02*
X160610000Y-121690000D01*
X160610000Y-121690000D02*
X185840000Y-121690000D01*
%TO.N,MUX64_A39*%
X73511800Y-130708200D02*
X73511800Y-129768200D01*
X73511800Y-129768200D02*
X74560000Y-128720000D01*
X82110000Y-126900000D02*
X82110000Y-121890000D01*
X74560000Y-128720000D02*
X80290000Y-128720000D01*
X82110000Y-121890000D02*
X88380000Y-115620000D01*
X120710000Y-115620000D02*
X138890000Y-133800000D01*
X147160000Y-133800000D02*
X160560000Y-120400000D01*
X80290000Y-128720000D02*
X82110000Y-126900000D01*
X88380000Y-115620000D02*
X120710000Y-115620000D01*
X138890000Y-133800000D02*
X147160000Y-133800000D01*
X160560000Y-120400000D02*
X187090000Y-120400000D01*
X187090000Y-120400000D02*
X188380000Y-121690000D01*
%TO.N,MUX64_A41*%
X73587200Y-125602800D02*
X73587200Y-124682800D01*
X73587200Y-124682800D02*
X74830000Y-123440000D01*
X74830000Y-123440000D02*
X78070000Y-123440000D01*
X78070000Y-123440000D02*
X87460000Y-114050000D01*
X87460000Y-114050000D02*
X121150000Y-114050000D01*
X121150000Y-114050000D02*
X137650000Y-130550000D01*
X137650000Y-130550000D02*
X148320000Y-130550000D01*
X148320000Y-130550000D02*
X160990000Y-117880000D01*
X160990000Y-117880000D02*
X187110000Y-117880000D01*
X187110000Y-117880000D02*
X188380000Y-119150000D01*
%TO.N,MUX64_A11*%
X237820000Y-95270000D02*
X235570000Y-95270000D01*
X235570000Y-95270000D02*
X235430000Y-95130000D01*
D33*
%TO.N,LV_RB*%
X235270000Y-96360000D02*
X235560000Y-96070000D01*
%TO.N,Net-(C6-Pad1)*%
X176270000Y-63720000D02*
X176970000Y-63720000D01*
X176970000Y-63720000D02*
X177310000Y-64060000D01*
X177310000Y-64060000D02*
X178650000Y-64060000D01*
X178672500Y-63117500D02*
X178672500Y-64037500D01*
D34*
X178672500Y-64037500D02*
X178650000Y-64060000D01*
D33*
X178650000Y-64060000D02*
X181990000Y-64060000D01*
%TO.N,LV_RB*%
X165270000Y-39020000D02*
X165270000Y-35420000D01*
X216640000Y-126740000D02*
X216640000Y-127380000D01*
X216350000Y-84040000D02*
X213990000Y-84040000D01*
X165270000Y-45020000D02*
X165270000Y-39020000D01*
X202400000Y-70550000D02*
X204080000Y-70550000D01*
X235210000Y-52430000D02*
X234790000Y-52850000D01*
X219450000Y-70590000D02*
X219490000Y-70550000D01*
X165270000Y-45020000D02*
X168420000Y-45020000D01*
X202380000Y-68850000D02*
X202380000Y-70530000D01*
X235355000Y-96915000D02*
X235270000Y-97000000D01*
X195340000Y-33920000D02*
X202380000Y-40960000D01*
X216560000Y-39630000D02*
X216690000Y-39500000D01*
X193797500Y-70550000D02*
X202400000Y-70550000D01*
X235270000Y-97000000D02*
X235270000Y-96360000D01*
X216640000Y-126740000D02*
X218340000Y-126740000D01*
X216690000Y-39610000D02*
X216690000Y-40140000D01*
X234890000Y-53230000D02*
X224960000Y-53230000D01*
X237860000Y-52430000D02*
X235210000Y-52430000D01*
X216690000Y-40140000D02*
X216400000Y-40430000D01*
X233440000Y-140370000D02*
X233420000Y-140390000D01*
X235190000Y-140370000D02*
X235190000Y-139930000D01*
X237920000Y-96870000D02*
X235400000Y-96870000D01*
X216510000Y-83240000D02*
X216640000Y-83110000D01*
D32*
X202380000Y-70530000D02*
X202400000Y-70550000D01*
D33*
X235190000Y-140370000D02*
X233440000Y-140370000D01*
X235270000Y-97310000D02*
X235270000Y-97000000D01*
X213990000Y-83240000D02*
X216510000Y-83240000D01*
X235190000Y-140880000D02*
X235190000Y-140570000D01*
X214040000Y-38830000D02*
X216330000Y-38830000D01*
X216330000Y-38830000D02*
X216690000Y-39190000D01*
X237920000Y-97670000D02*
X235630000Y-97670000D01*
X216690000Y-39500000D02*
X216690000Y-39610000D01*
X224960000Y-53230000D02*
X224940000Y-53250000D01*
X216640000Y-127380000D02*
X216350000Y-127670000D01*
X216640000Y-83110000D02*
X216640000Y-83750000D01*
X216400000Y-40430000D02*
X214040000Y-40430000D01*
X220330000Y-70550000D02*
X219490000Y-70550000D01*
X235310000Y-96870000D02*
X234450000Y-96870000D01*
X169310000Y-33920000D02*
X195340000Y-33920000D01*
X235630000Y-97670000D02*
X235270000Y-97310000D01*
X216280000Y-82440000D02*
X216640000Y-82800000D01*
X224940000Y-53250000D02*
X224940000Y-65940000D01*
X235190000Y-139930000D02*
X235480000Y-139640000D01*
X234790000Y-52850000D02*
X234790000Y-53130000D01*
X165270000Y-35420000D02*
X166770000Y-33920000D01*
X235150000Y-54030000D02*
X237860000Y-54030000D01*
X234890000Y-53230000D02*
X237860000Y-53230000D01*
X235355000Y-96915000D02*
X235310000Y-96870000D01*
X218340000Y-126740000D02*
X218360000Y-126760000D01*
X224940000Y-41680000D02*
X224940000Y-53250000D01*
X216690000Y-39610000D02*
X222870000Y-39610000D01*
X213990000Y-126070000D02*
X216280000Y-126070000D01*
X216280000Y-126070000D02*
X216640000Y-126430000D01*
X219490000Y-70550000D02*
X204080000Y-70550000D01*
X222870000Y-39610000D02*
X224940000Y-41680000D01*
X216640000Y-83110000D02*
X217770000Y-83110000D01*
X193564500Y-70317000D02*
X193797500Y-70550000D01*
X235190000Y-140570000D02*
X235190000Y-140370000D01*
X216640000Y-126430000D02*
X216640000Y-126740000D01*
X235560000Y-96070000D02*
X237920000Y-96070000D01*
X213990000Y-82440000D02*
X216280000Y-82440000D01*
X216510000Y-126870000D02*
X216640000Y-126740000D01*
X235550000Y-141240000D02*
X235190000Y-140880000D01*
X216640000Y-83750000D02*
X216350000Y-84040000D01*
X166770000Y-33920000D02*
X169310000Y-33920000D01*
X213990000Y-126870000D02*
X216510000Y-126870000D01*
X237840000Y-140440000D02*
X235320000Y-140440000D01*
X216640000Y-82800000D02*
X216640000Y-83110000D01*
X224940000Y-65940000D02*
X220330000Y-70550000D01*
X214040000Y-39630000D02*
X216560000Y-39630000D01*
X234790000Y-53130000D02*
X234890000Y-53230000D01*
X219450000Y-72230000D02*
X219450000Y-70590000D01*
X202380000Y-40960000D02*
X202380000Y-68850000D01*
X234790000Y-53670000D02*
X235150000Y-54030000D01*
X235400000Y-96870000D02*
X235355000Y-96915000D01*
X237840000Y-141240000D02*
X235550000Y-141240000D01*
X216350000Y-127670000D02*
X213990000Y-127670000D01*
X234790000Y-53130000D02*
X234790000Y-53670000D01*
X216690000Y-39190000D02*
X216690000Y-39500000D01*
X235480000Y-139640000D02*
X237840000Y-139640000D01*
X235320000Y-140440000D02*
X235190000Y-140570000D01*
%TO.N,1.2V*%
X177870000Y-42790000D02*
X177870000Y-42440000D01*
X148610000Y-100270000D02*
X155950000Y-100270000D01*
X155950000Y-100270000D02*
X155995000Y-100225000D01*
X155900000Y-91050000D02*
X158220000Y-91050000D01*
X155995000Y-100225000D02*
X155995000Y-96925000D01*
X147216200Y-96483800D02*
X147216200Y-92253800D01*
X148420000Y-91050000D02*
X153380000Y-91050000D01*
X155950000Y-100270000D02*
X157840000Y-100270000D01*
X157840000Y-100270000D02*
X158550000Y-99560000D01*
X153380000Y-91050000D02*
X153455000Y-91125000D01*
X155900000Y-91050000D02*
X155995000Y-91145000D01*
X177870000Y-43040000D02*
X177870000Y-42790000D01*
X147216200Y-98876200D02*
X148610000Y-100270000D01*
X153455000Y-91125000D02*
X153455000Y-94385000D01*
X177870000Y-42440000D02*
X177870000Y-39720000D01*
X147216200Y-92253800D02*
X148420000Y-91050000D01*
X158535000Y-99545000D02*
X158535000Y-96925000D01*
X147216200Y-96483800D02*
X147216200Y-98876200D01*
X177850000Y-50540000D02*
X177850000Y-45740000D01*
X153380000Y-91050000D02*
X155900000Y-91050000D01*
X177850000Y-45740000D02*
X177870000Y-45720000D01*
X155995000Y-91145000D02*
X155995000Y-94385000D01*
X174720000Y-42720000D02*
X177800000Y-42720000D01*
X158535000Y-91365000D02*
X158535000Y-94385000D01*
X177870000Y-43040000D02*
X177870000Y-45720000D01*
X168420000Y-42720000D02*
X174720000Y-42720000D01*
X158220000Y-91050000D02*
X158535000Y-91365000D01*
X158550000Y-99560000D02*
X158535000Y-99545000D01*
D32*
%TO.N,Net-(C5-Pad1)*%
X176270000Y-56720000D02*
X178090000Y-56720000D01*
X178680000Y-59962500D02*
X178672500Y-59970000D01*
X178680000Y-57310000D02*
X178680000Y-59962500D01*
X178090000Y-56720000D02*
X178680000Y-57310000D01*
D33*
%TO.N,Net-(C6-Pad1)*%
X186223900Y-70317000D02*
X188947000Y-70317000D01*
X178672500Y-63117500D02*
X178672500Y-61870000D01*
X184650000Y-64060000D02*
X181990000Y-64060000D01*
X181990000Y-64060000D02*
X180947500Y-63017500D01*
X188947000Y-68357000D02*
X184650000Y-64060000D01*
X188947000Y-70317000D02*
X191739500Y-70317000D01*
X180947500Y-63017500D02*
X180947500Y-61870000D01*
X188947000Y-70317000D02*
X188947000Y-68357000D01*
D32*
%TO.N,B_a4*%
X186223900Y-59156100D02*
X188553900Y-59156100D01*
X188553900Y-59156100D02*
X190350000Y-57360000D01*
X184320000Y-57670000D02*
X185730000Y-57670000D01*
X185730000Y-57670000D02*
X186223900Y-58163900D01*
X231590000Y-87290000D02*
X217030000Y-72730000D01*
X186223900Y-59156100D02*
X186223900Y-60817400D01*
X184320000Y-57670000D02*
X181450000Y-57670000D01*
X186223900Y-58163900D02*
X186223900Y-59156100D01*
X181450000Y-57670000D02*
X180947500Y-58172500D01*
X237860000Y-89630000D02*
X233930000Y-89630000D01*
X233930000Y-89630000D02*
X231590000Y-87290000D01*
X180947500Y-58172500D02*
X180947500Y-59970000D01*
X186223900Y-60817400D02*
X191739500Y-60817400D01*
X191739500Y-63910500D02*
X191739500Y-60817400D01*
X190350000Y-57360000D02*
X190350000Y-48930000D01*
X191730000Y-63920000D02*
X191739500Y-63910500D01*
X217030000Y-72730000D02*
X204980000Y-72730000D01*
%TO.N,/A_a3*%
X219203750Y-136470000D02*
X219206250Y-136467500D01*
X214016250Y-136470000D02*
X219203750Y-136470000D01*
%TO.N,/C_a3*%
X219227500Y-49230000D02*
X219230000Y-49227500D01*
X214040000Y-49230000D02*
X219227500Y-49230000D01*
%TO.N,/B_a3*%
X214030000Y-92857500D02*
X219217500Y-92857500D01*
X219217500Y-92857500D02*
X219220000Y-92855000D01*
%TO.N,B_a0(MUX_OUT)*%
X220820000Y-90430000D02*
X222140000Y-91750000D01*
X194950000Y-101380000D02*
X192550000Y-98980000D01*
X222140000Y-91750000D02*
X222140000Y-99970000D01*
X222140000Y-99970000D02*
X220730000Y-101380000D01*
X220730000Y-101380000D02*
X194950000Y-101380000D01*
X214040000Y-90430000D02*
X220820000Y-90430000D01*
X168210000Y-98980000D02*
X166155000Y-96925000D01*
X192550000Y-98980000D02*
X168210000Y-98980000D01*
%TO.N,B_d3*%
X229050000Y-94930000D02*
X221380000Y-102600000D01*
X214040000Y-88030000D02*
X227050000Y-88030000D01*
X229050000Y-90030000D02*
X229050000Y-94930000D01*
X221380000Y-102600000D02*
X150320000Y-102600000D01*
X150320000Y-102600000D02*
X146470000Y-106450000D01*
X227050000Y-88030000D02*
X229050000Y-90030000D01*
%TO.N,B_d2*%
X145200000Y-107720000D02*
X143930000Y-108990000D01*
X152630000Y-105160000D02*
X150070000Y-107720000D01*
X214040000Y-87230000D02*
X227520000Y-87230000D01*
X221660000Y-105160000D02*
X180700000Y-105160000D01*
X229980000Y-89690000D02*
X229980000Y-96840000D01*
X229980000Y-96840000D02*
X221660000Y-105160000D01*
X150070000Y-107720000D02*
X145200000Y-107720000D01*
X180660000Y-105160000D02*
X152630000Y-105160000D01*
X227520000Y-87230000D02*
X229980000Y-89690000D01*
%TO.N,B_d1*%
X230700000Y-100940000D02*
X223930000Y-107710000D01*
X152530000Y-107710000D02*
X151250000Y-108990000D01*
X180370000Y-107710000D02*
X152530000Y-107710000D01*
X151250000Y-108990000D02*
X146470000Y-108990000D01*
X227770000Y-86430000D02*
X230700000Y-89360000D01*
X230700000Y-89360000D02*
X230700000Y-100940000D01*
X214040000Y-86430000D02*
X227770000Y-86430000D01*
X223930000Y-107710000D02*
X180390000Y-107710000D01*
%TO.N,B_d0*%
X228210000Y-85630000D02*
X231510000Y-88930000D01*
X143930000Y-111530000D02*
X145200000Y-110260000D01*
X214040000Y-85630000D02*
X228210000Y-85630000D01*
X231510000Y-103640000D02*
X224890000Y-110260000D01*
X224890000Y-110260000D02*
X180660000Y-110260000D01*
X231510000Y-88930000D02*
X231510000Y-103640000D01*
X145200000Y-110260000D02*
X180730000Y-110260000D01*
%TO.N,B_d4*%
X150790000Y-115290000D02*
X150640000Y-115290000D01*
X233580000Y-95790000D02*
X233580000Y-108610000D01*
X234940000Y-94430000D02*
X233610000Y-95760000D01*
X150790000Y-115290000D02*
X150760000Y-115260000D01*
X233610000Y-95760000D02*
X233580000Y-95790000D01*
X150640000Y-115290000D02*
X150630000Y-115280000D01*
X226900000Y-115290000D02*
X150790000Y-115290000D01*
X229080000Y-113110000D02*
X226900000Y-115290000D01*
X237860000Y-94430000D02*
X234940000Y-94430000D01*
X233580000Y-108610000D02*
X229080000Y-113110000D01*
%TO.N,B_d5*%
X237860000Y-93630000D02*
X234450000Y-93630000D01*
X234450000Y-93630000D02*
X232670000Y-95410000D01*
X150770000Y-112780000D02*
X150780000Y-112790000D01*
X180850000Y-112790000D02*
X215410000Y-112790000D01*
X232670000Y-95410000D02*
X232670000Y-105940000D01*
X150780000Y-112790000D02*
X180860000Y-112790000D01*
X225820000Y-112790000D02*
X215410000Y-112790000D01*
X232670000Y-105940000D02*
X225820000Y-112790000D01*
%TO.N,MUX64_A0*%
X146470000Y-111530000D02*
X145080000Y-112920000D01*
X136780000Y-110410000D02*
X136780000Y-102130000D01*
X145080000Y-112920000D02*
X141480000Y-112920000D01*
X143930000Y-114070000D02*
X140440000Y-114070000D01*
X138765000Y-95305000D02*
X138765000Y-100145000D01*
X138765000Y-100145000D02*
X138765000Y-110205000D01*
X138765000Y-110205000D02*
X141480000Y-112920000D01*
X138380000Y-94920000D02*
X138765000Y-95305000D01*
X140440000Y-114070000D02*
X136780000Y-110410000D01*
X136780000Y-102130000D02*
X138765000Y-100145000D01*
%TO.N,MUX64_A2*%
X73090000Y-63880000D02*
X74020000Y-64810000D01*
X74020000Y-64810000D02*
X79710000Y-64810000D01*
X70052500Y-61650000D02*
X73090000Y-61650000D01*
X76115000Y-61650000D02*
X76145000Y-61620000D01*
X73090000Y-61650000D02*
X76115000Y-61650000D01*
X73090000Y-61650000D02*
X73090000Y-63880000D01*
%TO.N,MUX64_A3*%
X72990000Y-66710000D02*
X76145000Y-66710000D01*
X72990000Y-66710000D02*
X72990000Y-68280000D01*
X72990000Y-68280000D02*
X74310000Y-69600000D01*
X74490000Y-69780000D02*
X80310000Y-69780000D01*
X70082500Y-66710000D02*
X72990000Y-66710000D01*
X70052500Y-66740000D02*
X70082500Y-66710000D01*
X74310000Y-69600000D02*
X74490000Y-69780000D01*
%TO.N,MUX64_A4*%
X76115000Y-71820000D02*
X76145000Y-71790000D01*
X73020000Y-71820000D02*
X76115000Y-71820000D01*
X73020000Y-71820000D02*
X73020000Y-74070000D01*
X73640000Y-74690000D02*
X80980000Y-74690000D01*
X73020000Y-74070000D02*
X73640000Y-74690000D01*
X70052500Y-71820000D02*
X73020000Y-71820000D01*
%TO.N,MUX64_A5*%
X72900000Y-76900000D02*
X76115000Y-76900000D01*
X72900000Y-76900000D02*
X72900000Y-78720000D01*
X73870000Y-79690000D02*
X80620000Y-79690000D01*
X72900000Y-78720000D02*
X73870000Y-79690000D01*
X70052500Y-76900000D02*
X72900000Y-76900000D01*
X76115000Y-76900000D02*
X76145000Y-76870000D01*
%TO.N,MUX64_A6*%
X73220000Y-81970000D02*
X76115000Y-81970000D01*
X76115000Y-81970000D02*
X76145000Y-81940000D01*
X72910000Y-83630000D02*
X74080000Y-84800000D01*
X72910000Y-81970000D02*
X72910000Y-83630000D01*
X72910000Y-81970000D02*
X73220000Y-81970000D01*
X74080000Y-84800000D02*
X80220000Y-84800000D01*
X70052500Y-81970000D02*
X72910000Y-81970000D01*
%TO.N,MUX64_A7*%
X72990000Y-87110000D02*
X72990000Y-88520000D01*
X74330000Y-89860000D02*
X80220000Y-89860000D01*
X80220000Y-89860000D02*
X81560000Y-88520000D01*
X72990000Y-88520000D02*
X74330000Y-89860000D01*
X72990000Y-87110000D02*
X76115000Y-87110000D01*
X70052500Y-87110000D02*
X72990000Y-87110000D01*
X76115000Y-87110000D02*
X76145000Y-87080000D01*
%TO.N,MUX64_A9*%
X139690000Y-117250000D02*
X134150000Y-111710000D01*
X139690000Y-121240000D02*
X139690000Y-117250000D01*
X143930000Y-124230000D02*
X142680000Y-124230000D01*
X142680000Y-124230000D02*
X139690000Y-121240000D01*
X120990000Y-92620000D02*
X120990000Y-94150000D01*
X117867500Y-92620000D02*
X120990000Y-92620000D01*
X120990000Y-92620000D02*
X123702500Y-92620000D01*
X120990000Y-94150000D02*
X134150000Y-107310000D01*
X134150000Y-111710000D02*
X134150000Y-107310000D01*
%TO.N,MUX64_A15*%
X73070000Y-49950000D02*
X76210000Y-49950000D01*
X70052500Y-49950000D02*
X73070000Y-49950000D01*
X76210000Y-49950000D02*
X76220000Y-49940000D01*
%TO.N,MUX64_A16*%
X73050000Y-55020000D02*
X76210000Y-55020000D01*
X76210000Y-55020000D02*
X76220000Y-55010000D01*
X70052500Y-55020000D02*
X73050000Y-55020000D01*
%TO.N,MUX64_A17*%
X73110000Y-39750000D02*
X76210000Y-39750000D01*
X70052500Y-39750000D02*
X73110000Y-39750000D01*
X76210000Y-39750000D02*
X76220000Y-39740000D01*
%TO.N,MUX64_A18*%
X70052500Y-44850000D02*
X73040000Y-44850000D01*
X76210000Y-44850000D02*
X76220000Y-44840000D01*
X73040000Y-44850000D02*
X76210000Y-44850000D01*
%TO.N,MUX64_A19*%
X76210000Y-29600000D02*
X76220000Y-29590000D01*
X70052500Y-29600000D02*
X72780000Y-29600000D01*
X72780000Y-29600000D02*
X76210000Y-29600000D01*
%TO.N,MUX64_A20*%
X72960000Y-34720000D02*
X76210000Y-34720000D01*
X76210000Y-34720000D02*
X76220000Y-34710000D01*
X70052500Y-34720000D02*
X72960000Y-34720000D01*
%TO.N,MUX64_A21*%
X70662500Y-93554200D02*
X73694200Y-93554200D01*
X73694200Y-95825800D02*
X73660000Y-95860000D01*
X73694200Y-93554200D02*
X73694200Y-95825800D01*
X73694200Y-93554200D02*
X76177500Y-93554200D01*
%TO.N,MUX64_A22*%
X73239000Y-98651000D02*
X73239000Y-100649000D01*
X70662500Y-98651000D02*
X73239000Y-98651000D01*
X73239000Y-100649000D02*
X73260000Y-100670000D01*
X73239000Y-98651000D02*
X76177500Y-98651000D01*
%TO.N,MUX64_A23*%
X73436600Y-105993400D02*
X73400000Y-106030000D01*
X73436600Y-103733400D02*
X76177500Y-103733400D01*
X73436600Y-103733400D02*
X73436600Y-105993400D01*
X70662500Y-103733400D02*
X73436600Y-103733400D01*
%TO.N,MUX64_A24*%
X70662500Y-108825800D02*
X73425800Y-108825800D01*
X73425800Y-108825800D02*
X76177500Y-108825800D01*
X73425800Y-108825800D02*
X73425800Y-111445800D01*
X73425800Y-111445800D02*
X73440000Y-111460000D01*
%TO.N,MUX64_A25*%
X73639000Y-113889000D02*
X73639000Y-116129000D01*
X70662500Y-113889000D02*
X73639000Y-113889000D01*
X73639000Y-113889000D02*
X76177500Y-113889000D01*
X73639000Y-116129000D02*
X73680000Y-116170000D01*
%TO.N,MUX64_A26*%
X74303600Y-118943600D02*
X74303600Y-120646400D01*
X70662500Y-118943600D02*
X73343600Y-118943600D01*
X73343600Y-118943600D02*
X74303600Y-118943600D01*
X74303600Y-118943600D02*
X76177500Y-118943600D01*
X74303600Y-120646400D02*
X74260000Y-120690000D01*
%TO.N,MUX64_A29*%
X103622500Y-127170000D02*
X106380000Y-127170000D01*
X125230000Y-130260000D02*
X135430000Y-140460000D01*
X171610000Y-142620000D02*
X171540000Y-142620000D01*
X173775000Y-138835000D02*
X173775000Y-140455000D01*
X106380000Y-127170000D02*
X109137500Y-127170000D01*
X106380000Y-128630000D02*
X108010000Y-130260000D01*
X137590000Y-142620000D02*
X171540000Y-142620000D01*
X106380000Y-127170000D02*
X106380000Y-128630000D01*
X173775000Y-140455000D02*
X171610000Y-142620000D01*
X135430000Y-140460000D02*
X137590000Y-142620000D01*
X108010000Y-130260000D02*
X125230000Y-130260000D01*
%TO.N,MUX64_A30*%
X174210000Y-141730000D02*
X174230000Y-141710000D01*
X106490000Y-132240000D02*
X109137500Y-132240000D01*
X127530000Y-135130000D02*
X136380000Y-143980000D01*
X175080000Y-140860000D02*
X175080000Y-137600000D01*
X136380000Y-143980000D02*
X171930000Y-143980000D01*
X103622500Y-132240000D02*
X106490000Y-132240000D01*
X174230000Y-141710000D02*
X175080000Y-140860000D01*
X171930000Y-143980000D02*
X174200000Y-141710000D01*
X175080000Y-137600000D02*
X173775000Y-136295000D01*
X107610000Y-135130000D02*
X127530000Y-135130000D01*
X174200000Y-141710000D02*
X174230000Y-141710000D01*
X106490000Y-134010000D02*
X107610000Y-135130000D01*
X106490000Y-132240000D02*
X106490000Y-134010000D01*
%TO.N,MUX64_A31*%
X129180000Y-139870000D02*
X134730000Y-145420000D01*
X172300000Y-145420000D02*
X176315000Y-141405000D01*
X106580000Y-138810000D02*
X107640000Y-139870000D01*
X106580000Y-137350000D02*
X109137500Y-137350000D01*
X103622500Y-137350000D02*
X106580000Y-137350000D01*
X176315000Y-141405000D02*
X176315000Y-138835000D01*
X106580000Y-137350000D02*
X106580000Y-138810000D01*
X134730000Y-145420000D02*
X172300000Y-145420000D01*
X107640000Y-139870000D02*
X129180000Y-139870000D01*
%TO.N,MUX64_A32*%
X133660000Y-147370000D02*
X131920000Y-145630000D01*
X106340000Y-143850000D02*
X106340000Y-142400000D01*
X177600000Y-137580000D02*
X177590000Y-137590000D01*
X176315000Y-136295000D02*
X177600000Y-137580000D01*
X108120000Y-145630000D02*
X106340000Y-143850000D01*
X106340000Y-142400000D02*
X109137500Y-142400000D01*
X172170000Y-147370000D02*
X133660000Y-147370000D01*
X177590000Y-137590000D02*
X177590000Y-141950000D01*
X177590000Y-141950000D02*
X172170000Y-147370000D01*
X131920000Y-145630000D02*
X108120000Y-145630000D01*
X103622500Y-142400000D02*
X106340000Y-142400000D01*
%TO.N,MUX64_A33*%
X107180000Y-149310000D02*
X172440000Y-149310000D01*
X103622500Y-147500000D02*
X106440000Y-147500000D01*
X178855000Y-142895000D02*
X178855000Y-138835000D01*
X106440000Y-147500000D02*
X106440000Y-148570000D01*
X106440000Y-147500000D02*
X106660000Y-147500000D01*
X172440000Y-149310000D02*
X178855000Y-142895000D01*
X106660000Y-147500000D02*
X109137500Y-147500000D01*
X106440000Y-148570000D02*
X107180000Y-149310000D01*
%TO.N,MUX64_A35*%
X135710000Y-138240000D02*
X148870000Y-138240000D01*
X124960000Y-127490000D02*
X135710000Y-138240000D01*
X73652800Y-151002800D02*
X73652800Y-150007200D01*
X70752500Y-151002800D02*
X73652800Y-151002800D01*
X124960000Y-127450000D02*
X124960000Y-127490000D01*
X91160000Y-122930000D02*
X120440000Y-122930000D01*
X88030000Y-126060000D02*
X91160000Y-122930000D01*
X76271500Y-151002800D02*
X76287500Y-151018800D01*
X88030000Y-142600000D02*
X88030000Y-126060000D01*
X148870000Y-138240000D02*
X161466200Y-125643800D01*
X120440000Y-122930000D02*
X124960000Y-127450000D01*
X76440000Y-147120000D02*
X83510000Y-147120000D01*
X83510000Y-147120000D02*
X88030000Y-142600000D01*
X73652800Y-151002800D02*
X76271500Y-151002800D01*
X187253800Y-125643800D02*
X188380000Y-126770000D01*
X73652800Y-150007200D02*
X76440000Y-147220000D01*
X161466200Y-125643800D02*
X187253800Y-125643800D01*
%TO.N,MUX64_A37*%
X76271500Y-140842800D02*
X76287500Y-140858800D01*
X70752500Y-140842800D02*
X73592800Y-140842800D01*
X73592800Y-140842800D02*
X76271500Y-140842800D01*
%TO.N,MUX64_A38*%
X76271500Y-145922800D02*
X76287500Y-145938800D01*
X70752500Y-145922800D02*
X73462800Y-145922800D01*
X73462800Y-145922800D02*
X76271500Y-145922800D01*
%TO.N,MUX64_A39*%
X73511800Y-130708200D02*
X76271500Y-130708200D01*
X70752500Y-130708200D02*
X73511800Y-130708200D01*
X76271500Y-130708200D02*
X76287500Y-130724200D01*
%TO.N,MUX64_A40*%
X73735800Y-135804200D02*
X76287500Y-135804200D01*
X70752500Y-135788200D02*
X70768500Y-135804200D01*
X70768500Y-135804200D02*
X73735800Y-135804200D01*
%TO.N,MUX64_A41*%
X70752500Y-125602800D02*
X73587200Y-125602800D01*
X73587200Y-125602800D02*
X73707200Y-125602800D01*
X76271500Y-125602800D02*
X76287500Y-125618800D01*
X73707200Y-125602800D02*
X76271500Y-125602800D01*
%TO.N,Net-(J11-Pad1)*%
X61022500Y-151001000D02*
X68925700Y-151001000D01*
X68925700Y-151001000D02*
X68927500Y-151002800D01*
%TO.N,Net-(J11-Pad3)*%
X61022500Y-145921000D02*
X68925700Y-145921000D01*
X68925700Y-145921000D02*
X68927500Y-145922800D01*
%TO.N,Net-(J11-Pad5)*%
X61022500Y-140841000D02*
X68925700Y-140841000D01*
X68925700Y-140841000D02*
X68927500Y-140842800D01*
%TO.N,Net-(J11-Pad7)*%
X61022500Y-135761000D02*
X68900300Y-135761000D01*
X68900300Y-135761000D02*
X68927500Y-135788200D01*
%TO.N,Net-(J11-Pad9)*%
X61022500Y-130681000D02*
X68900300Y-130681000D01*
X68900300Y-130681000D02*
X68927500Y-130708200D01*
%TO.N,Net-(J11-Pad11)*%
X61022500Y-125601000D02*
X68925700Y-125601000D01*
X68925700Y-125601000D02*
X68927500Y-125602800D01*
%TO.N,MUX64_A11*%
X111152500Y-147490000D02*
X113610000Y-147490000D01*
X216900000Y-89630000D02*
X217360000Y-89170000D01*
X207820000Y-96070000D02*
X205480000Y-96070000D01*
X237820000Y-91270000D02*
X235570000Y-91270000D01*
X210950000Y-125185000D02*
X210950000Y-121820000D01*
X216600000Y-50830000D02*
X216600000Y-50350000D01*
X246180000Y-40430000D02*
X246190000Y-40420000D01*
D35*
X210950000Y-136805000D02*
X210950000Y-139650000D01*
D32*
X78002500Y-118943600D02*
X79486400Y-118943600D01*
X207820000Y-84070000D02*
X205170000Y-84070000D01*
X205140000Y-91270000D02*
X205130000Y-91260000D01*
X244040000Y-50030000D02*
X246290000Y-50030000D01*
X216270000Y-93657500D02*
X214030000Y-93657500D01*
X214016250Y-139670000D02*
X216156250Y-139670000D01*
X219230000Y-51052500D02*
X222047500Y-51052500D01*
X111952500Y-29410000D02*
X114750000Y-29410000D01*
X210950000Y-49605000D02*
X210950000Y-52400000D01*
X214040000Y-96030000D02*
X210980000Y-96030000D01*
X216110000Y-45230000D02*
X216130000Y-45210000D01*
X127320000Y-107660000D02*
X127940000Y-108280000D01*
X210980000Y-96030000D02*
X210950000Y-96000000D01*
X207860000Y-40430000D02*
X205680000Y-40430000D01*
X205710000Y-45230000D02*
X205650000Y-45170000D01*
X236180000Y-42830000D02*
X235380000Y-42030000D01*
X237820000Y-90470000D02*
X236290000Y-90470000D01*
X205480000Y-96070000D02*
X205460000Y-96050000D01*
X216590000Y-93977500D02*
X216270000Y-93657500D01*
X163370000Y-41680000D02*
X163390000Y-41700000D01*
X80260000Y-61620000D02*
X80280000Y-61600000D01*
X111152500Y-137340000D02*
X113040000Y-137340000D01*
X214030000Y-96057500D02*
X216170000Y-96057500D01*
X78045000Y-44840000D02*
X80360000Y-44840000D01*
X125527500Y-77680000D02*
X125527500Y-74532500D01*
X80120000Y-39740000D02*
X80160000Y-39780000D01*
X215920000Y-133230000D02*
X216700000Y-132450000D01*
X216590000Y-95297500D02*
X216590000Y-94667500D01*
X236340000Y-84870000D02*
X235540000Y-85670000D01*
X216560000Y-51630000D02*
X216600000Y-51670000D01*
X193564500Y-60817400D02*
X196117400Y-60817400D01*
X243950000Y-139620000D02*
X246180000Y-139620000D01*
X214040000Y-45230000D02*
X216110000Y-45230000D01*
X78002500Y-98651000D02*
X78002500Y-96957500D01*
X235540000Y-85670000D02*
X235340000Y-85670000D01*
X243950000Y-137220000D02*
X246200000Y-137220000D01*
X77970000Y-61620000D02*
X80260000Y-61620000D01*
X111952500Y-34550000D02*
X114710000Y-34550000D01*
X244000000Y-93670000D02*
X246250000Y-93670000D01*
X246140000Y-84070000D02*
X246150000Y-84060000D01*
X246100000Y-134820000D02*
X246140000Y-134860000D01*
X111710000Y-152550000D02*
X113090000Y-153930000D01*
X237860000Y-51630000D02*
X235810000Y-51630000D01*
X210950000Y-98475000D02*
X213055000Y-100580000D01*
X240950000Y-101690000D02*
X240940000Y-101700000D01*
X216156250Y-139670000D02*
X216576250Y-139250000D01*
X237820000Y-85670000D02*
X235540000Y-85670000D01*
X235290000Y-129220000D02*
X234480000Y-129220000D01*
X235810000Y-51630000D02*
X235240000Y-51060000D01*
X207860000Y-134830000D02*
X205180000Y-134830000D01*
X236240000Y-134020000D02*
X235480000Y-134780000D01*
D33*
X179840000Y-42600000D02*
X179840000Y-39700000D01*
D32*
X80384200Y-130724200D02*
X80400000Y-130740000D01*
X246160000Y-45230000D02*
X246180000Y-45250000D01*
X207820000Y-91270000D02*
X205140000Y-91270000D01*
X235610000Y-47630000D02*
X235570000Y-47590000D01*
X215680000Y-100580000D02*
X216370000Y-99890000D01*
X214016250Y-138870000D02*
X216536250Y-138870000D01*
X136525000Y-94870000D02*
X134510000Y-94870000D01*
X216180000Y-52430000D02*
X216600000Y-52010000D01*
X214040000Y-50830000D02*
X216600000Y-50830000D01*
D34*
X178672500Y-60920000D02*
X176340000Y-60920000D01*
D32*
X219230000Y-51052500D02*
X216612500Y-51052500D01*
X237860000Y-46830000D02*
X236330000Y-46830000D01*
X207860000Y-47630000D02*
X205750000Y-47630000D01*
X219220000Y-94680000D02*
X216602500Y-94680000D01*
X171730000Y-63720000D02*
X171670000Y-63660000D01*
X78002500Y-94462500D02*
X79250000Y-95710000D01*
X126320000Y-92620000D02*
X128470000Y-94770000D01*
X111952500Y-39560000D02*
X114700000Y-39560000D01*
X240950000Y-142075000D02*
X240950000Y-145050000D01*
X216280000Y-50030000D02*
X214040000Y-50030000D01*
X207820000Y-93670000D02*
X205250000Y-93670000D01*
X243950000Y-132420000D02*
X246070000Y-132420000D01*
X210950000Y-43255000D02*
X210950000Y-37985000D01*
X205820000Y-50030000D02*
X205770000Y-49980000D01*
X216256250Y-137270000D02*
X214016250Y-137270000D01*
X125527500Y-92620000D02*
X126320000Y-92620000D01*
X210950000Y-35060000D02*
X211000000Y-35010000D01*
X79179000Y-113889000D02*
X79980000Y-114690000D01*
X244000000Y-88870000D02*
X246120000Y-88870000D01*
X216612500Y-51052500D02*
X216600000Y-51040000D01*
X113610000Y-147490000D02*
X113990000Y-147870000D01*
X237860000Y-41230000D02*
X236380000Y-41230000D01*
X180620000Y-55770000D02*
X180540000Y-55850000D01*
X217020000Y-88830000D02*
X217360000Y-89170000D01*
X215750000Y-41230000D02*
X216120000Y-41600000D01*
X80010000Y-71790000D02*
X80040000Y-71760000D01*
X216680000Y-132430000D02*
X216700000Y-132450000D01*
X219206250Y-138292500D02*
X216588750Y-138292500D01*
X80431200Y-151018800D02*
X80480000Y-150970000D01*
X125527500Y-107660000D02*
X127320000Y-107660000D01*
X214040000Y-88830000D02*
X217020000Y-88830000D01*
X215590000Y-128430000D02*
X216430000Y-129270000D01*
X111952500Y-49740000D02*
X114560000Y-49740000D01*
X113660000Y-127160000D02*
X113740000Y-127080000D01*
X205860000Y-52430000D02*
X205820000Y-52390000D01*
X111152500Y-127160000D02*
X113660000Y-127160000D01*
X77970000Y-76870000D02*
X80210000Y-76870000D01*
X216590000Y-95637500D02*
X216590000Y-95297500D01*
X216576250Y-137590000D02*
X216256250Y-137270000D01*
X196117400Y-60817400D02*
X196120000Y-60820000D01*
X236330000Y-46830000D02*
X235570000Y-47590000D01*
D33*
X179840000Y-42600000D02*
X179840000Y-45700000D01*
D32*
X216600000Y-52010000D02*
X216600000Y-51670000D01*
X214040000Y-46030000D02*
X215310000Y-46030000D01*
X114700000Y-39560000D02*
X114800000Y-39660000D01*
X216170000Y-96057500D02*
X216590000Y-95637500D01*
X210950000Y-93205000D02*
X210950000Y-96000000D01*
X78118300Y-108710000D02*
X79790000Y-108710000D01*
X111152500Y-132230000D02*
X113690000Y-132230000D01*
X237820000Y-84870000D02*
X236340000Y-84870000D01*
X237770000Y-138820000D02*
X235720000Y-138820000D01*
X214040000Y-133230000D02*
X215920000Y-133230000D01*
X78002500Y-93554200D02*
X78002500Y-94462500D01*
X210950000Y-142075000D02*
X210950000Y-145130000D01*
X80030000Y-55010000D02*
X80050000Y-55030000D01*
X236090000Y-130020000D02*
X235290000Y-129220000D01*
X111952500Y-54830000D02*
X114360000Y-54830000D01*
X210950000Y-86855000D02*
X210950000Y-81585000D01*
X244040000Y-47630000D02*
X246190000Y-47630000D01*
X214040000Y-89630000D02*
X216900000Y-89630000D01*
D35*
X210950000Y-139650000D02*
X210950000Y-142075000D01*
D32*
X78045000Y-49940000D02*
X80120000Y-49940000D01*
X210950000Y-54875000D02*
X210950000Y-58170000D01*
X235380000Y-42030000D02*
X234570000Y-42030000D01*
X205270000Y-130030000D02*
X205260000Y-130020000D01*
X210980000Y-52430000D02*
X210950000Y-52400000D01*
X205180000Y-134830000D02*
X205170000Y-134820000D01*
X216576250Y-138910000D02*
X216576250Y-138280000D01*
X236140000Y-86470000D02*
X235340000Y-85670000D01*
X214040000Y-41230000D02*
X215750000Y-41230000D01*
X80120000Y-49940000D02*
X80140000Y-49960000D01*
X111152500Y-142390000D02*
X113000000Y-142390000D01*
X78112500Y-140858800D02*
X80391200Y-140858800D01*
X78045000Y-39740000D02*
X80120000Y-39740000D01*
X235520000Y-134820000D02*
X235480000Y-134780000D01*
X216600000Y-51040000D02*
X216600000Y-50830000D01*
X237770000Y-129220000D02*
X235490000Y-129220000D01*
X78002500Y-103733400D02*
X78002500Y-102817500D01*
X237770000Y-134820000D02*
X235520000Y-134820000D01*
D35*
X240950000Y-43255000D02*
X240950000Y-37985000D01*
D32*
X246220000Y-130020000D02*
X246240000Y-130040000D01*
X246270000Y-86470000D02*
X246290000Y-86490000D01*
X80360000Y-44840000D02*
X80370000Y-44850000D01*
X111152500Y-152550000D02*
X111710000Y-152550000D01*
X240860000Y-130445000D02*
X240860000Y-125175000D01*
X236290000Y-90470000D02*
X235530000Y-91230000D01*
X207860000Y-127630000D02*
X205210000Y-127630000D01*
X244000000Y-96070000D02*
X246160000Y-96070000D01*
X240950000Y-58020000D02*
X240980000Y-58050000D01*
X78002500Y-102817500D02*
X79320000Y-101500000D01*
X205250000Y-93670000D02*
X205230000Y-93690000D01*
X216600000Y-50350000D02*
X216280000Y-50030000D01*
X246270000Y-52430000D02*
X246300000Y-52400000D01*
D33*
X163370000Y-39020000D02*
X163370000Y-41680000D01*
D32*
X235490000Y-129220000D02*
X235290000Y-129220000D01*
X168420000Y-40420000D02*
X168420000Y-37340000D01*
X244040000Y-40430000D02*
X246180000Y-40430000D01*
X246090000Y-127620000D02*
X246100000Y-127610000D01*
D35*
X240950000Y-49605000D02*
X240950000Y-54875000D01*
D32*
X114770000Y-44670000D02*
X114840000Y-44600000D01*
X216590000Y-94667500D02*
X216590000Y-94457500D01*
X235570000Y-91270000D02*
X235530000Y-91230000D01*
D35*
X240910000Y-86895000D02*
X240910000Y-81625000D01*
D32*
X244040000Y-52430000D02*
X246270000Y-52430000D01*
X240950000Y-54875000D02*
X240950000Y-58020000D01*
X218700000Y-84830000D02*
X218880000Y-84650000D01*
X246120000Y-88870000D02*
X246140000Y-88890000D01*
X207860000Y-130030000D02*
X205270000Y-130030000D01*
D33*
X184400000Y-70318100D02*
X184400000Y-73600000D01*
D32*
X214030000Y-95257500D02*
X216550000Y-95257500D01*
X78112500Y-145938800D02*
X80418800Y-145938800D01*
X113040000Y-137340000D02*
X114030000Y-138330000D01*
X244000000Y-91270000D02*
X246150000Y-91270000D01*
X207860000Y-132430000D02*
X205170000Y-132430000D01*
X125527500Y-74532500D02*
X125570000Y-74490000D01*
X210950000Y-58170000D02*
X210940000Y-58180000D01*
X205230000Y-86470000D02*
X205220000Y-86460000D01*
X235580000Y-42030000D02*
X235380000Y-42030000D01*
X114360000Y-54830000D02*
X114380000Y-54810000D01*
X236290000Y-128420000D02*
X235490000Y-129220000D01*
X215310000Y-46030000D02*
X216130000Y-45210000D01*
D36*
X174370000Y-63720000D02*
X171730000Y-63720000D01*
D32*
X246180000Y-139620000D02*
X246210000Y-139590000D01*
X210950000Y-130455000D02*
X210950000Y-125185000D01*
X113690000Y-132230000D02*
X113740000Y-132280000D01*
X214040000Y-52430000D02*
X216180000Y-52430000D01*
X80401200Y-125618800D02*
X80420000Y-125600000D01*
X78045000Y-29590000D02*
X79940000Y-29590000D01*
X237820000Y-86470000D02*
X236140000Y-86470000D01*
X78112500Y-130724200D02*
X80384200Y-130724200D01*
X78045000Y-55010000D02*
X80030000Y-55010000D01*
X235720000Y-138820000D02*
X235150000Y-138250000D01*
X134510000Y-94870000D02*
X133750000Y-94110000D01*
X237860000Y-42830000D02*
X236180000Y-42830000D01*
X214030000Y-94457500D02*
X216590000Y-94457500D01*
X207860000Y-52430000D02*
X205860000Y-52430000D01*
X213070000Y-100580000D02*
X215680000Y-100580000D01*
X80250000Y-81940000D02*
X80270000Y-81920000D01*
X111952500Y-44670000D02*
X114770000Y-44670000D01*
X214040000Y-51630000D02*
X216560000Y-51630000D01*
X244040000Y-42830000D02*
X246310000Y-42830000D01*
X235340000Y-85670000D02*
X234530000Y-85670000D01*
X237770000Y-128420000D02*
X236290000Y-128420000D01*
X244040000Y-45230000D02*
X246160000Y-45230000D01*
X240860000Y-125175000D02*
X240860000Y-122110000D01*
X237860000Y-42030000D02*
X235580000Y-42030000D01*
X78002500Y-96957500D02*
X79250000Y-95710000D01*
D35*
X240950000Y-93205000D02*
X240950000Y-98475000D01*
D32*
X163370000Y-41720000D02*
X163390000Y-41700000D01*
X207860000Y-50030000D02*
X205820000Y-50030000D01*
X213055000Y-100580000D02*
X213070000Y-100580000D01*
X210950000Y-145130000D02*
X210970000Y-145150000D01*
X246310000Y-42830000D02*
X246330000Y-42850000D01*
X171680000Y-56720000D02*
X171670000Y-56730000D01*
X216576250Y-138070000D02*
X216576250Y-137590000D01*
X174370000Y-56720000D02*
X171680000Y-56720000D01*
X244000000Y-84070000D02*
X246140000Y-84070000D01*
X168420000Y-37340000D02*
X168410000Y-37330000D01*
X77970000Y-71790000D02*
X80010000Y-71790000D01*
X244000000Y-86470000D02*
X246270000Y-86470000D01*
X77970000Y-81940000D02*
X80250000Y-81940000D01*
X207860000Y-139630000D02*
X205520000Y-139630000D01*
X205750000Y-47630000D02*
X205730000Y-47610000D01*
X210950000Y-52400000D02*
X210950000Y-54875000D01*
X79486400Y-118943600D02*
X80360000Y-118070000D01*
X216536250Y-138870000D02*
X216576250Y-138910000D01*
D35*
X214040000Y-139630000D02*
X210970000Y-139630000D01*
X240950000Y-136805000D02*
X240950000Y-142075000D01*
X240950000Y-86855000D02*
X240950000Y-81585000D01*
D32*
X210950000Y-121820000D02*
X210970000Y-121800000D01*
X216588750Y-138292500D02*
X216576250Y-138280000D01*
X184398900Y-70317000D02*
X184400000Y-70318100D01*
X114710000Y-34550000D02*
X114750000Y-34510000D01*
X216590000Y-94457500D02*
X216590000Y-93977500D01*
X77970000Y-66710000D02*
X79910000Y-66710000D01*
X214040000Y-84830000D02*
X218700000Y-84830000D01*
X246190000Y-47630000D02*
X246230000Y-47670000D01*
X205680000Y-40430000D02*
X205660000Y-40410000D01*
X214040000Y-52430000D02*
X210980000Y-52430000D01*
X80230000Y-34710000D02*
X80240000Y-34720000D01*
X79910000Y-66710000D02*
X79960000Y-66660000D01*
X214040000Y-128430000D02*
X215590000Y-128430000D01*
X246070000Y-132420000D02*
X246090000Y-132440000D01*
X80210000Y-76870000D02*
X80220000Y-76880000D01*
X205650000Y-42830000D02*
X205630000Y-42810000D01*
X78002500Y-113889000D02*
X79179000Y-113889000D01*
X207860000Y-137230000D02*
X205290000Y-137230000D01*
X216576250Y-139250000D02*
X216576250Y-138910000D01*
X236380000Y-41230000D02*
X235580000Y-42030000D01*
X207820000Y-86470000D02*
X205230000Y-86470000D01*
X216576250Y-138280000D02*
X216576250Y-138070000D01*
X222047500Y-51052500D02*
X222080000Y-51020000D01*
X240950000Y-145050000D02*
X241010000Y-145110000D01*
D33*
X163370000Y-45020000D02*
X163370000Y-41720000D01*
D32*
X78045000Y-34710000D02*
X80230000Y-34710000D01*
X207860000Y-45230000D02*
X205710000Y-45230000D01*
X240950000Y-37985000D02*
X240950000Y-34920000D01*
X78002500Y-108825800D02*
X78118300Y-108710000D01*
X243950000Y-130020000D02*
X246220000Y-130020000D01*
X80418800Y-145938800D02*
X80450000Y-145970000D01*
X78112500Y-151018800D02*
X80431200Y-151018800D01*
X240950000Y-98475000D02*
X240950000Y-101690000D01*
X214016250Y-138070000D02*
X216576250Y-138070000D01*
X210950000Y-78540000D02*
X210920000Y-78510000D01*
X114750000Y-29410000D02*
X114770000Y-29430000D01*
X210950000Y-37985000D02*
X210950000Y-35060000D01*
X80391200Y-140858800D02*
X80400000Y-140850000D01*
X205290000Y-137230000D02*
X205270000Y-137250000D01*
X78112500Y-125618800D02*
X80401200Y-125618800D01*
D35*
X210970000Y-139630000D02*
X210950000Y-139650000D01*
D32*
X240910000Y-81625000D02*
X240910000Y-78560000D01*
X113000000Y-142390000D02*
X114020000Y-143410000D01*
X78112500Y-135804200D02*
X80255800Y-135804200D01*
X184320000Y-55770000D02*
X180620000Y-55770000D01*
X243950000Y-134820000D02*
X246100000Y-134820000D01*
X237770000Y-134020000D02*
X236240000Y-134020000D01*
X237860000Y-47630000D02*
X235610000Y-47630000D01*
X205210000Y-127630000D02*
X205200000Y-127620000D01*
X237770000Y-130020000D02*
X236090000Y-130020000D01*
X243950000Y-127620000D02*
X246090000Y-127620000D01*
X210950000Y-81585000D02*
X210950000Y-78540000D01*
X246150000Y-91270000D02*
X246190000Y-91310000D01*
X214040000Y-132430000D02*
X216680000Y-132430000D01*
X205520000Y-139630000D02*
X205500000Y-139610000D01*
X80255800Y-135804200D02*
X80350000Y-135710000D01*
X216550000Y-95257500D02*
X216590000Y-95297500D01*
X79940000Y-29590000D02*
X79950000Y-29580000D01*
X207860000Y-42830000D02*
X205650000Y-42830000D01*
X207820000Y-88870000D02*
X205130000Y-88870000D01*
X216600000Y-51670000D02*
X216600000Y-51040000D01*
X77970000Y-87080000D02*
X80230000Y-87080000D01*
X216602500Y-94680000D02*
X216590000Y-94667500D01*
X210950000Y-96000000D02*
X210950000Y-98475000D01*
%TO.N,/mux64-regulators/screw-terminals/HV0*%
X97920000Y-107640000D02*
X106532500Y-107640000D01*
X106532500Y-107640000D02*
X106552500Y-107660000D01*
%TO.N,/mux64-regulators/screw-terminals/HV1*%
X106552500Y-92620000D02*
X106532500Y-92640000D01*
X106532500Y-92640000D02*
X97920000Y-92640000D01*
%TO.N,Net-(J13-Pad1)*%
X61030000Y-118970000D02*
X68811100Y-118970000D01*
X68811100Y-118970000D02*
X68837500Y-118943600D01*
%TO.N,Net-(J13-Pad3)*%
X68836500Y-113890000D02*
X68837500Y-113889000D01*
X61030000Y-113890000D02*
X68836500Y-113890000D01*
%TO.N,Net-(J13-Pad5)*%
X61030000Y-108810000D02*
X68821700Y-108810000D01*
X68821700Y-108810000D02*
X68837500Y-108825800D01*
%TO.N,Net-(J13-Pad7)*%
X61030000Y-103730000D02*
X68834100Y-103730000D01*
X68834100Y-103730000D02*
X68837500Y-103733400D01*
%TO.N,Net-(J13-Pad9)*%
X61030000Y-98650000D02*
X68836500Y-98650000D01*
X68836500Y-98650000D02*
X68837500Y-98651000D01*
%TO.N,Net-(J13-Pad11)*%
X68821700Y-93570000D02*
X68837500Y-93554200D01*
X61030000Y-93570000D02*
X68821700Y-93570000D01*
D35*
%TO.N,Net-(J14-Pad1)*%
X101787500Y-152570000D02*
X101797500Y-152560000D01*
X92920000Y-152570000D02*
X101787500Y-152570000D01*
%TO.N,Net-(J14-Pad3)*%
X101787500Y-147490000D02*
X101797500Y-147500000D01*
X92920000Y-147490000D02*
X101787500Y-147490000D01*
%TO.N,Net-(J14-Pad5)*%
X101787500Y-142410000D02*
X101797500Y-142400000D01*
X92920000Y-142410000D02*
X101787500Y-142410000D01*
%TO.N,Net-(J14-Pad7)*%
X92920000Y-137330000D02*
X101777500Y-137330000D01*
X101777500Y-137330000D02*
X101797500Y-137350000D01*
%TO.N,Net-(J14-Pad9)*%
X101787500Y-132250000D02*
X101797500Y-132240000D01*
X92920000Y-132250000D02*
X101787500Y-132250000D01*
%TO.N,Net-(J14-Pad11)*%
X92920000Y-127170000D02*
X101797500Y-127170000D01*
D32*
%TO.N,Net-(J16-Pad1)*%
X61040000Y-87030000D02*
X68147500Y-87030000D01*
X68147500Y-87030000D02*
X68227500Y-87110000D01*
%TO.N,Net-(J16-Pad3)*%
X61040000Y-81950000D02*
X68207500Y-81950000D01*
X68207500Y-81950000D02*
X68227500Y-81970000D01*
%TO.N,Net-(J16-Pad5)*%
X61040000Y-76870000D02*
X68197500Y-76870000D01*
X68197500Y-76870000D02*
X68227500Y-76900000D01*
%TO.N,Net-(J16-Pad7)*%
X61040000Y-71790000D02*
X68197500Y-71790000D01*
X68197500Y-71790000D02*
X68227500Y-71820000D01*
%TO.N,Net-(J16-Pad9)*%
X61040000Y-66710000D02*
X68197500Y-66710000D01*
X68197500Y-66710000D02*
X68227500Y-66740000D01*
%TO.N,Net-(J16-Pad11)*%
X68207500Y-61630000D02*
X68227500Y-61650000D01*
X61040000Y-61630000D02*
X68207500Y-61630000D01*
D35*
%TO.N,Net-(J17-Pad1)*%
X92920000Y-54800000D02*
X102357500Y-54800000D01*
%TO.N,Net-(J17-Pad3)*%
X102347500Y-49720000D02*
X102357500Y-49710000D01*
X92920000Y-49720000D02*
X102347500Y-49720000D01*
%TO.N,Net-(J17-Pad5)*%
X92920000Y-44640000D02*
X102357500Y-44640000D01*
%TO.N,Net-(J17-Pad7)*%
X92920000Y-39560000D02*
X102327500Y-39560000D01*
X102327500Y-39560000D02*
X102357500Y-39530000D01*
%TO.N,Net-(J17-Pad9)*%
X92920000Y-34480000D02*
X102317500Y-34480000D01*
X102317500Y-34480000D02*
X102357500Y-34520000D01*
%TO.N,Net-(J17-Pad11)*%
X92920000Y-29400000D02*
X102337500Y-29400000D01*
X102337500Y-29400000D02*
X102357500Y-29380000D01*
D32*
%TO.N,Net-(J18-Pad1)*%
X68217500Y-55030000D02*
X61050000Y-55030000D01*
X68227500Y-55020000D02*
X68217500Y-55030000D01*
%TO.N,Net-(J18-Pad3)*%
X61050000Y-49950000D02*
X68227500Y-49950000D01*
%TO.N,Net-(J18-Pad5)*%
X61050000Y-44870000D02*
X68207500Y-44870000D01*
X68207500Y-44870000D02*
X68227500Y-44850000D01*
%TO.N,Net-(J18-Pad7)*%
X61050000Y-39790000D02*
X68187500Y-39790000D01*
X68187500Y-39790000D02*
X68227500Y-39750000D01*
%TO.N,Net-(J18-Pad9)*%
X61050000Y-34710000D02*
X68217500Y-34710000D01*
X68217500Y-34710000D02*
X68227500Y-34720000D01*
%TO.N,Net-(J18-Pad11)*%
X68197500Y-29630000D02*
X68227500Y-29600000D01*
X61050000Y-29630000D02*
X68197500Y-29630000D01*
%TO.N,Net-(R4-Pad1)*%
X180947500Y-60920000D02*
X184296300Y-60920000D01*
X184296300Y-60920000D02*
X184398900Y-60817400D01*
%TO.N,MUX64_A55*%
X106900000Y-39530000D02*
X106900000Y-40890000D01*
X176315000Y-88545000D02*
X176315000Y-94385000D01*
X173320000Y-85550000D02*
X176315000Y-88545000D01*
X135060000Y-85550000D02*
X173320000Y-85550000D01*
X107810000Y-41800000D02*
X135010000Y-41800000D01*
X104182500Y-39530000D02*
X106900000Y-39530000D01*
X135050000Y-85540000D02*
X135060000Y-85550000D01*
X106900000Y-40890000D02*
X107810000Y-41800000D01*
X135010000Y-41800000D02*
X135020000Y-41790000D01*
X106900000Y-39530000D02*
X110097500Y-39530000D01*
D35*
X110097500Y-39530000D02*
X110127500Y-39560000D01*
D32*
%TO.N,MUX64_A54*%
X176170000Y-83120000D02*
X178890000Y-85840000D01*
X106910000Y-29380000D02*
X110097500Y-29380000D01*
X178890000Y-85840000D02*
X178890000Y-94350000D01*
X138820000Y-83120000D02*
X176170000Y-83120000D01*
X107990000Y-32860000D02*
X138740000Y-32860000D01*
X106910000Y-29380000D02*
X106910000Y-31780000D01*
X138790000Y-83090000D02*
X138820000Y-83120000D01*
X104182500Y-29380000D02*
X106910000Y-29380000D01*
X106910000Y-31780000D02*
X107310000Y-32180000D01*
X138740000Y-32860000D02*
X138780000Y-32820000D01*
D35*
X110097500Y-29380000D02*
X110127500Y-29410000D01*
D32*
X107310000Y-32180000D02*
X107990000Y-32860000D01*
X178890000Y-94350000D02*
X178855000Y-94385000D01*
%TO.N,MUX64_A56*%
X136740000Y-84270000D02*
X136770000Y-84300000D01*
X106710000Y-34520000D02*
X106710000Y-36490000D01*
X104182500Y-34520000D02*
X106710000Y-34520000D01*
X136690000Y-37640000D02*
X136730000Y-37680000D01*
X107820000Y-37600000D02*
X107860000Y-37640000D01*
X116020000Y-37640000D02*
X136690000Y-37640000D01*
D35*
X110097500Y-34520000D02*
X110127500Y-34550000D01*
D32*
X136770000Y-84300000D02*
X174810000Y-84300000D01*
X107860000Y-37640000D02*
X116020000Y-37640000D01*
X106710000Y-36490000D02*
X107820000Y-37600000D01*
X177580000Y-87070000D02*
X177580000Y-95660000D01*
X174810000Y-84300000D02*
X177580000Y-87070000D01*
X106710000Y-34520000D02*
X110097500Y-34520000D01*
X177580000Y-95660000D02*
X176315000Y-96925000D01*
%TO.N,MUX64_A57*%
X170260000Y-87970000D02*
X173790000Y-91500000D01*
X104182500Y-49710000D02*
X107890000Y-49710000D01*
X131020000Y-87970000D02*
X170260000Y-87970000D01*
X173775000Y-93015000D02*
X173775000Y-94385000D01*
X108830000Y-47760000D02*
X130810000Y-47760000D01*
X173790000Y-91500000D02*
X173790000Y-93000000D01*
D35*
X110097500Y-49710000D02*
X110127500Y-49740000D01*
D32*
X107890000Y-49710000D02*
X110097500Y-49710000D01*
X107890000Y-48700000D02*
X108830000Y-47760000D01*
X173790000Y-93000000D02*
X173775000Y-93015000D01*
X130810000Y-47760000D02*
X130930000Y-47880000D01*
X107890000Y-49710000D02*
X107890000Y-48700000D01*
X130930000Y-87880000D02*
X131020000Y-87970000D01*
%TO.N,MUX64_A58*%
X175060000Y-95640000D02*
X173775000Y-96925000D01*
X171460000Y-86710000D02*
X175060000Y-90310000D01*
X107060000Y-43800000D02*
X107980000Y-42880000D01*
X132900000Y-86520000D02*
X133090000Y-86710000D01*
X175060000Y-90310000D02*
X175060000Y-95640000D01*
X107980000Y-42880000D02*
X132870000Y-42880000D01*
X132870000Y-42880000D02*
X132910000Y-42840000D01*
D35*
X104182500Y-44640000D02*
X104212500Y-44670000D01*
D32*
X107060000Y-44670000D02*
X110127500Y-44670000D01*
X104212500Y-44670000D02*
X107060000Y-44670000D01*
X107060000Y-44670000D02*
X107060000Y-43800000D01*
X133090000Y-86710000D02*
X171460000Y-86710000D01*
%TO.N,MUX64_A60*%
X104182500Y-54800000D02*
X107100000Y-54800000D01*
X107100000Y-53310000D02*
X107880000Y-52530000D01*
X172510000Y-95650000D02*
X171235000Y-96925000D01*
X107100000Y-54800000D02*
X107100000Y-53310000D01*
D35*
X110097500Y-54800000D02*
X110127500Y-54830000D01*
D32*
X128950000Y-89200000D02*
X168890000Y-89200000D01*
X116960000Y-52530000D02*
X119640000Y-49850000D01*
X107880000Y-52530000D02*
X116960000Y-52530000D01*
X172510000Y-92820000D02*
X172510000Y-95650000D01*
X119640000Y-49850000D02*
X128840000Y-49850000D01*
X168890000Y-89200000D02*
X172510000Y-92820000D01*
X128910000Y-89160000D02*
X128950000Y-89200000D01*
X107100000Y-54800000D02*
X110097500Y-54800000D01*
%TO.N,MUX64_A34*%
X107470000Y-150670000D02*
X172830000Y-150670000D01*
X103622500Y-152560000D02*
X106740000Y-152560000D01*
X188380000Y-135120000D02*
X188380000Y-129310000D01*
X172830000Y-150670000D02*
X188380000Y-135120000D01*
X106740000Y-152560000D02*
X109137500Y-152560000D01*
X106740000Y-152560000D02*
X106740000Y-151400000D01*
X106740000Y-151400000D02*
X107470000Y-150670000D01*
%TO.N,Net-(R11-Pad2)*%
X109477500Y-107660000D02*
X114942500Y-107660000D01*
%TO.N,Net-(R12-Pad2)*%
X109477500Y-92620000D02*
X114942500Y-92620000D01*
%TO.N,Net-(R13-Pad2)*%
X109477500Y-77680000D02*
X114942500Y-77680000D01*
%TO.N,MUX64_A8*%
X145250000Y-122930000D02*
X142720000Y-122930000D01*
X142720000Y-122930000D02*
X141110000Y-121320000D01*
X120790000Y-77680000D02*
X120790000Y-83450000D01*
X146470000Y-121690000D02*
X145250000Y-122910000D01*
X117867500Y-77680000D02*
X120790000Y-77680000D01*
X145250000Y-122910000D02*
X145250000Y-122930000D01*
X120790000Y-77680000D02*
X123702500Y-77680000D01*
X141110000Y-116700000D02*
X135850000Y-111440000D01*
X120790000Y-83450000D02*
X135850000Y-98510000D01*
X135850000Y-111440000D02*
X135850000Y-98510000D01*
X141110000Y-121320000D02*
X141110000Y-116700000D01*
%TO.N,MUX64_A10*%
X145230000Y-125470000D02*
X146470000Y-124230000D01*
X138040000Y-117920000D02*
X138040000Y-122770000D01*
X133190000Y-113110000D02*
X133210000Y-113090000D01*
X121440000Y-109550000D02*
X125000000Y-113110000D01*
X121440000Y-107660000D02*
X123702500Y-107660000D01*
X138040000Y-122770000D02*
X140740000Y-125470000D01*
X125000000Y-113110000D02*
X133190000Y-113110000D01*
X140740000Y-125470000D02*
X145230000Y-125470000D01*
X121440000Y-107660000D02*
X121440000Y-109550000D01*
X117867500Y-107660000D02*
X121440000Y-107660000D01*
X133210000Y-113090000D02*
X138040000Y-117920000D01*
%TO.N,/mux64-regulators/screw-terminals/HV2*%
X106512500Y-77640000D02*
X106552500Y-77680000D01*
X97920000Y-77640000D02*
X106512500Y-77640000D01*
%TD*%
M02*
