%TF.GenerationSoftware,KiCad,Pcbnew,(6.0.11-0)*%
%TF.CreationDate,2023-06-08T09:18:10-04:00*%
%TF.ProjectId,Mux64,4d757836-342e-46b6-9963-61645f706362,rev?*%
%TF.SameCoordinates,Original*%
%TF.FileFunction,Legend,Top*%
%TF.FilePolarity,Positive*%
%FSLAX46Y46*%
G04 Gerber Fmt 4.6, Leading zero omitted, Abs format (unit mm)*
G04 Created by KiCad (PCBNEW (6.0.11-0)) date 2023-06-08 09:18:10*
%MOMM*%
%LPD*%
G01*
G04 APERTURE LIST*
%ADD10C,0.200000*%
%ADD11C,0.230000*%
%ADD12C,0.150000*%
%ADD13C,0.120000*%
G04 APERTURE END LIST*
D10*
X53935714Y-131269047D02*
X54011904Y-131345238D01*
X54088095Y-131497619D01*
X53935714Y-131802380D01*
X54011904Y-131954761D01*
X54088095Y-132030952D01*
X53326190Y-133478571D02*
X53326190Y-132564285D01*
X53326190Y-133021428D02*
X54926190Y-133021428D01*
X54697619Y-132869047D01*
X54545238Y-132716666D01*
X54469047Y-132564285D01*
X55002380Y-135307142D02*
X52945238Y-133935714D01*
X54392857Y-136526190D02*
X53326190Y-136526190D01*
X55002380Y-136145238D02*
X53859523Y-135764285D01*
X53859523Y-136754761D01*
X54926190Y-138354761D02*
X53326190Y-138888095D01*
X54926190Y-139421428D01*
X53326190Y-139954761D02*
X54392857Y-139954761D01*
X54926190Y-139954761D02*
X54850000Y-139878571D01*
X54773809Y-139954761D01*
X54850000Y-140030952D01*
X54926190Y-139954761D01*
X54773809Y-139954761D01*
X54392857Y-140716666D02*
X53326190Y-140716666D01*
X54240476Y-140716666D02*
X54316666Y-140792857D01*
X54392857Y-140945238D01*
X54392857Y-141173809D01*
X54316666Y-141326190D01*
X54164285Y-141402380D01*
X53326190Y-141402380D01*
X85455714Y-132699047D02*
X85531904Y-132775238D01*
X85608095Y-132927619D01*
X85455714Y-133232380D01*
X85531904Y-133384761D01*
X85608095Y-133460952D01*
X84846190Y-134908571D02*
X84846190Y-133994285D01*
X84846190Y-134451428D02*
X86446190Y-134451428D01*
X86217619Y-134299047D01*
X86065238Y-134146666D01*
X85989047Y-133994285D01*
X86522380Y-136737142D02*
X84465238Y-135365714D01*
X86293809Y-137194285D02*
X86370000Y-137270476D01*
X86446190Y-137422857D01*
X86446190Y-137803809D01*
X86370000Y-137956190D01*
X86293809Y-138032380D01*
X86141428Y-138108571D01*
X85989047Y-138108571D01*
X85760476Y-138032380D01*
X84846190Y-137118095D01*
X84846190Y-138108571D01*
X86446190Y-139784761D02*
X84846190Y-140318095D01*
X86446190Y-140851428D01*
X84846190Y-141384761D02*
X85912857Y-141384761D01*
X86446190Y-141384761D02*
X86370000Y-141308571D01*
X86293809Y-141384761D01*
X86370000Y-141460952D01*
X86446190Y-141384761D01*
X86293809Y-141384761D01*
X85912857Y-142146666D02*
X84846190Y-142146666D01*
X85760476Y-142146666D02*
X85836666Y-142222857D01*
X85912857Y-142375238D01*
X85912857Y-142603809D01*
X85836666Y-142756190D01*
X85684285Y-142832380D01*
X84846190Y-142832380D01*
D11*
X56195714Y-29100476D02*
X56195714Y-30319523D01*
X55586190Y-29710000D02*
X56805238Y-29710000D01*
X56135714Y-137620476D02*
X56135714Y-138839523D01*
X56155714Y-142850476D02*
X56155714Y-144069523D01*
X56145714Y-90500476D02*
X56145714Y-91719523D01*
X56145714Y-95440476D02*
X56145714Y-96659523D01*
X56155714Y-147880476D02*
X56155714Y-149099523D01*
X56205714Y-34230476D02*
X56205714Y-35449523D01*
X55596190Y-34840000D02*
X56815238Y-34840000D01*
X56155714Y-100510476D02*
X56155714Y-101729523D01*
X116990000Y-26275714D02*
X117218571Y-26351904D01*
X117294761Y-26428095D01*
X117370952Y-26580476D01*
X117370952Y-26809047D01*
X117294761Y-26961428D01*
X117218571Y-27037619D01*
X117066190Y-27113809D01*
X116456666Y-27113809D01*
X116456666Y-25513809D01*
X116990000Y-25513809D01*
X117142380Y-25590000D01*
X117218571Y-25666190D01*
X117294761Y-25818571D01*
X117294761Y-25970952D01*
X117218571Y-26123333D01*
X117142380Y-26199523D01*
X116990000Y-26275714D01*
X116456666Y-26275714D01*
X118285238Y-27113809D02*
X118132857Y-27037619D01*
X118056666Y-26961428D01*
X117980476Y-26809047D01*
X117980476Y-26351904D01*
X118056666Y-26199523D01*
X118132857Y-26123333D01*
X118285238Y-26047142D01*
X118513809Y-26047142D01*
X118666190Y-26123333D01*
X118742380Y-26199523D01*
X118818571Y-26351904D01*
X118818571Y-26809047D01*
X118742380Y-26961428D01*
X118666190Y-27037619D01*
X118513809Y-27113809D01*
X118285238Y-27113809D01*
X119428095Y-27037619D02*
X119580476Y-27113809D01*
X119885238Y-27113809D01*
X120037619Y-27037619D01*
X120113809Y-26885238D01*
X120113809Y-26809047D01*
X120037619Y-26656666D01*
X119885238Y-26580476D01*
X119656666Y-26580476D01*
X119504285Y-26504285D01*
X119428095Y-26351904D01*
X119428095Y-26275714D01*
X119504285Y-26123333D01*
X119656666Y-26047142D01*
X119885238Y-26047142D01*
X120037619Y-26123333D01*
X120570952Y-26047142D02*
X121180476Y-26047142D01*
X120799523Y-25513809D02*
X120799523Y-26885238D01*
X120875714Y-27037619D01*
X121028095Y-27113809D01*
X121180476Y-27113809D01*
X121942380Y-27113809D02*
X121790000Y-27037619D01*
X121713809Y-26961428D01*
X121637619Y-26809047D01*
X121637619Y-26351904D01*
X121713809Y-26199523D01*
X121790000Y-26123333D01*
X121942380Y-26047142D01*
X122170952Y-26047142D01*
X122323333Y-26123333D01*
X122399523Y-26199523D01*
X122475714Y-26351904D01*
X122475714Y-26809047D01*
X122399523Y-26961428D01*
X122323333Y-27037619D01*
X122170952Y-27113809D01*
X121942380Y-27113809D01*
X123161428Y-26047142D02*
X123161428Y-27113809D01*
X123161428Y-26199523D02*
X123237619Y-26123333D01*
X123390000Y-26047142D01*
X123618571Y-26047142D01*
X123770952Y-26123333D01*
X123847142Y-26275714D01*
X123847142Y-27113809D01*
X125828095Y-25513809D02*
X125828095Y-26809047D01*
X125904285Y-26961428D01*
X125980476Y-27037619D01*
X126132857Y-27113809D01*
X126437619Y-27113809D01*
X126590000Y-27037619D01*
X126666190Y-26961428D01*
X126742380Y-26809047D01*
X126742380Y-25513809D01*
X127504285Y-26047142D02*
X127504285Y-27113809D01*
X127504285Y-26199523D02*
X127580476Y-26123333D01*
X127732857Y-26047142D01*
X127961428Y-26047142D01*
X128113809Y-26123333D01*
X128190000Y-26275714D01*
X128190000Y-27113809D01*
X128951904Y-27113809D02*
X128951904Y-26047142D01*
X128951904Y-25513809D02*
X128875714Y-25590000D01*
X128951904Y-25666190D01*
X129028095Y-25590000D01*
X128951904Y-25513809D01*
X128951904Y-25666190D01*
X129561428Y-26047142D02*
X129942380Y-27113809D01*
X130323333Y-26047142D01*
X131542380Y-27037619D02*
X131390000Y-27113809D01*
X131085238Y-27113809D01*
X130932857Y-27037619D01*
X130856666Y-26885238D01*
X130856666Y-26275714D01*
X130932857Y-26123333D01*
X131085238Y-26047142D01*
X131390000Y-26047142D01*
X131542380Y-26123333D01*
X131618571Y-26275714D01*
X131618571Y-26428095D01*
X130856666Y-26580476D01*
X132304285Y-27113809D02*
X132304285Y-26047142D01*
X132304285Y-26351904D02*
X132380476Y-26199523D01*
X132456666Y-26123333D01*
X132609047Y-26047142D01*
X132761428Y-26047142D01*
X133218571Y-27037619D02*
X133370952Y-27113809D01*
X133675714Y-27113809D01*
X133828095Y-27037619D01*
X133904285Y-26885238D01*
X133904285Y-26809047D01*
X133828095Y-26656666D01*
X133675714Y-26580476D01*
X133447142Y-26580476D01*
X133294761Y-26504285D01*
X133218571Y-26351904D01*
X133218571Y-26275714D01*
X133294761Y-26123333D01*
X133447142Y-26047142D01*
X133675714Y-26047142D01*
X133828095Y-26123333D01*
X134590000Y-27113809D02*
X134590000Y-26047142D01*
X134590000Y-25513809D02*
X134513809Y-25590000D01*
X134590000Y-25666190D01*
X134666190Y-25590000D01*
X134590000Y-25513809D01*
X134590000Y-25666190D01*
X135123333Y-26047142D02*
X135732857Y-26047142D01*
X135351904Y-25513809D02*
X135351904Y-26885238D01*
X135428095Y-27037619D01*
X135580476Y-27113809D01*
X135732857Y-27113809D01*
X136113809Y-26047142D02*
X136494761Y-27113809D01*
X136875714Y-26047142D02*
X136494761Y-27113809D01*
X136342380Y-27494761D01*
X136266190Y-27570952D01*
X136113809Y-27647142D01*
X88635714Y-31370476D02*
X88635714Y-32589523D01*
D10*
X54075714Y-36039047D02*
X54151904Y-36115238D01*
X54228095Y-36267619D01*
X54075714Y-36572380D01*
X54151904Y-36724761D01*
X54228095Y-36800952D01*
X53466190Y-38248571D02*
X53466190Y-37334285D01*
X53466190Y-37791428D02*
X55066190Y-37791428D01*
X54837619Y-37639047D01*
X54685238Y-37486666D01*
X54609047Y-37334285D01*
X55142380Y-40077142D02*
X53085238Y-38705714D01*
X54913809Y-40534285D02*
X54990000Y-40610476D01*
X55066190Y-40762857D01*
X55066190Y-41143809D01*
X54990000Y-41296190D01*
X54913809Y-41372380D01*
X54761428Y-41448571D01*
X54609047Y-41448571D01*
X54380476Y-41372380D01*
X53466190Y-40458095D01*
X53466190Y-41448571D01*
X55066190Y-43124761D02*
X53466190Y-43658095D01*
X55066190Y-44191428D01*
X53466190Y-44724761D02*
X54532857Y-44724761D01*
X55066190Y-44724761D02*
X54990000Y-44648571D01*
X54913809Y-44724761D01*
X54990000Y-44800952D01*
X55066190Y-44724761D01*
X54913809Y-44724761D01*
X54532857Y-45486666D02*
X53466190Y-45486666D01*
X54380476Y-45486666D02*
X54456666Y-45562857D01*
X54532857Y-45715238D01*
X54532857Y-45943809D01*
X54456666Y-46096190D01*
X54304285Y-46172380D01*
X53466190Y-46172380D01*
D11*
X56215714Y-81260476D02*
X56215714Y-82479523D01*
X55606190Y-81870000D02*
X56825238Y-81870000D01*
X56175714Y-83820476D02*
X56175714Y-85039523D01*
X88405714Y-124120476D02*
X88405714Y-125339523D01*
X88655714Y-46660476D02*
X88655714Y-47879523D01*
X88675714Y-54250476D02*
X88675714Y-55469523D01*
X88066190Y-54860000D02*
X89285238Y-54860000D01*
X56215714Y-108200476D02*
X56215714Y-109419523D01*
X55606190Y-108810000D02*
X56825238Y-108810000D01*
X56135714Y-122620476D02*
X56135714Y-123839523D01*
X90685714Y-106940476D02*
X90685714Y-108159523D01*
X90076190Y-107550000D02*
X91295238Y-107550000D01*
X56175714Y-78790476D02*
X56175714Y-80009523D01*
X56165714Y-68570476D02*
X56165714Y-69789523D01*
X88695714Y-49130476D02*
X88695714Y-50349523D01*
X88086190Y-49740000D02*
X89305238Y-49740000D01*
X56225714Y-76260476D02*
X56225714Y-77479523D01*
X55616190Y-76870000D02*
X56835238Y-76870000D01*
X56215714Y-54440476D02*
X56215714Y-55659523D01*
X55606190Y-55050000D02*
X56825238Y-55050000D01*
X88405714Y-129060476D02*
X88405714Y-130279523D01*
X88425714Y-126600476D02*
X88425714Y-127819523D01*
X87816190Y-127210000D02*
X89035238Y-127210000D01*
X88655714Y-51690476D02*
X88655714Y-52909523D01*
X56195714Y-51880476D02*
X56195714Y-53099523D01*
D10*
X85765714Y-35289047D02*
X85841904Y-35365238D01*
X85918095Y-35517619D01*
X85765714Y-35822380D01*
X85841904Y-35974761D01*
X85918095Y-36050952D01*
X85156190Y-37498571D02*
X85156190Y-36584285D01*
X85156190Y-37041428D02*
X86756190Y-37041428D01*
X86527619Y-36889047D01*
X86375238Y-36736666D01*
X86299047Y-36584285D01*
X86832380Y-39327142D02*
X84775238Y-37955714D01*
X86603809Y-39784285D02*
X86680000Y-39860476D01*
X86756190Y-40012857D01*
X86756190Y-40393809D01*
X86680000Y-40546190D01*
X86603809Y-40622380D01*
X86451428Y-40698571D01*
X86299047Y-40698571D01*
X86070476Y-40622380D01*
X85156190Y-39708095D01*
X85156190Y-40698571D01*
X86756190Y-42374761D02*
X85156190Y-42908095D01*
X86756190Y-43441428D01*
X85156190Y-43974761D02*
X86222857Y-43974761D01*
X86756190Y-43974761D02*
X86680000Y-43898571D01*
X86603809Y-43974761D01*
X86680000Y-44050952D01*
X86756190Y-43974761D01*
X86603809Y-43974761D01*
X86222857Y-44736666D02*
X85156190Y-44736666D01*
X86070476Y-44736666D02*
X86146666Y-44812857D01*
X86222857Y-44965238D01*
X86222857Y-45193809D01*
X86146666Y-45346190D01*
X85994285Y-45422380D01*
X85156190Y-45422380D01*
D11*
X56185714Y-118320476D02*
X56185714Y-119539523D01*
X55576190Y-118930000D02*
X56795238Y-118930000D01*
X56205714Y-113200476D02*
X56205714Y-114419523D01*
X55596190Y-113810000D02*
X56815238Y-113810000D01*
X88475714Y-141820476D02*
X88475714Y-143039523D01*
X87866190Y-142430000D02*
X89085238Y-142430000D01*
X56155714Y-73560476D02*
X56155714Y-74779523D01*
X88635714Y-41430476D02*
X88635714Y-42649523D01*
X90665714Y-77070476D02*
X90665714Y-78289523D01*
X90056190Y-77680000D02*
X91275238Y-77680000D01*
X56175714Y-61040476D02*
X56175714Y-62259523D01*
X55566190Y-61650000D02*
X56785238Y-61650000D01*
X88415714Y-134130476D02*
X88415714Y-135349523D01*
X56215714Y-70890476D02*
X56215714Y-72109523D01*
X55606190Y-71500000D02*
X56825238Y-71500000D01*
X90645714Y-84580476D02*
X90645714Y-85799523D01*
X88465714Y-136450476D02*
X88465714Y-137669523D01*
X87856190Y-137060000D02*
X89075238Y-137060000D01*
X56165714Y-110730476D02*
X56165714Y-111949523D01*
D10*
X53945714Y-67129047D02*
X54021904Y-67205238D01*
X54098095Y-67357619D01*
X53945714Y-67662380D01*
X54021904Y-67814761D01*
X54098095Y-67890952D01*
X53336190Y-69338571D02*
X53336190Y-68424285D01*
X53336190Y-68881428D02*
X54936190Y-68881428D01*
X54707619Y-68729047D01*
X54555238Y-68576666D01*
X54479047Y-68424285D01*
X55012380Y-71167142D02*
X52955238Y-69795714D01*
X54783809Y-71624285D02*
X54860000Y-71700476D01*
X54936190Y-71852857D01*
X54936190Y-72233809D01*
X54860000Y-72386190D01*
X54783809Y-72462380D01*
X54631428Y-72538571D01*
X54479047Y-72538571D01*
X54250476Y-72462380D01*
X53336190Y-71548095D01*
X53336190Y-72538571D01*
X54936190Y-74214761D02*
X53336190Y-74748095D01*
X54936190Y-75281428D01*
X53336190Y-75814761D02*
X54402857Y-75814761D01*
X54936190Y-75814761D02*
X54860000Y-75738571D01*
X54783809Y-75814761D01*
X54860000Y-75890952D01*
X54936190Y-75814761D01*
X54783809Y-75814761D01*
X54402857Y-76576666D02*
X53336190Y-76576666D01*
X54250476Y-76576666D02*
X54326666Y-76652857D01*
X54402857Y-76805238D01*
X54402857Y-77033809D01*
X54326666Y-77186190D01*
X54174285Y-77262380D01*
X53336190Y-77262380D01*
D11*
X90685714Y-69560476D02*
X90685714Y-70779523D01*
X88425714Y-144350476D02*
X88425714Y-145569523D01*
X88465714Y-146820476D02*
X88465714Y-148039523D01*
X87856190Y-147430000D02*
X89075238Y-147430000D01*
X88445714Y-151940476D02*
X88445714Y-153159523D01*
X87836190Y-152550000D02*
X89055238Y-152550000D01*
X56175714Y-31560476D02*
X56175714Y-32779523D01*
X56185714Y-36630476D02*
X56185714Y-37849523D01*
X56165714Y-115760476D02*
X56165714Y-116979523D01*
X88635714Y-26430476D02*
X88635714Y-27649523D01*
X88425714Y-149380476D02*
X88425714Y-150599523D01*
X88705714Y-44130476D02*
X88705714Y-45349523D01*
X88096190Y-44740000D02*
X89315238Y-44740000D01*
X56235714Y-49320476D02*
X56235714Y-50539523D01*
X55626190Y-49930000D02*
X56845238Y-49930000D01*
X90625714Y-99530476D02*
X90625714Y-100749523D01*
X56185714Y-66170476D02*
X56185714Y-67389523D01*
X55576190Y-66780000D02*
X56795238Y-66780000D01*
X56175714Y-41620476D02*
X56175714Y-42839523D01*
X56155714Y-63500476D02*
X56155714Y-64719523D01*
X56235714Y-38950476D02*
X56235714Y-40169523D01*
X55626190Y-39560000D02*
X56845238Y-39560000D01*
X56195714Y-46850476D02*
X56195714Y-48069523D01*
D10*
X87645714Y-80563333D02*
X87721904Y-80639523D01*
X87798095Y-80791904D01*
X87645714Y-81096666D01*
X87721904Y-81249047D01*
X87798095Y-81325238D01*
X87036190Y-82772857D02*
X87036190Y-81858571D01*
X87036190Y-82315714D02*
X88636190Y-82315714D01*
X88407619Y-82163333D01*
X88255238Y-82010952D01*
X88179047Y-81858571D01*
X88712380Y-84601428D02*
X86655238Y-83230000D01*
X87036190Y-85972857D02*
X87036190Y-85058571D01*
X87036190Y-85515714D02*
X88636190Y-85515714D01*
X88407619Y-85363333D01*
X88255238Y-85210952D01*
X88179047Y-85058571D01*
X88483809Y-86582380D02*
X88560000Y-86658571D01*
X88636190Y-86810952D01*
X88636190Y-87191904D01*
X88560000Y-87344285D01*
X88483809Y-87420476D01*
X88331428Y-87496666D01*
X88179047Y-87496666D01*
X87950476Y-87420476D01*
X87036190Y-86506190D01*
X87036190Y-87496666D01*
X88636190Y-88944285D02*
X88636190Y-88182380D01*
X87874285Y-88106190D01*
X87950476Y-88182380D01*
X88026666Y-88334761D01*
X88026666Y-88715714D01*
X87950476Y-88868095D01*
X87874285Y-88944285D01*
X87721904Y-89020476D01*
X87340952Y-89020476D01*
X87188571Y-88944285D01*
X87112380Y-88868095D01*
X87036190Y-88715714D01*
X87036190Y-88334761D01*
X87112380Y-88182380D01*
X87188571Y-88106190D01*
X88636190Y-90010952D02*
X88636190Y-90163333D01*
X88560000Y-90315714D01*
X88483809Y-90391904D01*
X88331428Y-90468095D01*
X88026666Y-90544285D01*
X87645714Y-90544285D01*
X87340952Y-90468095D01*
X87188571Y-90391904D01*
X87112380Y-90315714D01*
X87036190Y-90163333D01*
X87036190Y-90010952D01*
X87112380Y-89858571D01*
X87188571Y-89782380D01*
X87340952Y-89706190D01*
X87645714Y-89630000D01*
X88026666Y-89630000D01*
X88331428Y-89706190D01*
X88483809Y-89782380D01*
X88560000Y-89858571D01*
X88636190Y-90010952D01*
X88636190Y-92220476D02*
X87036190Y-92753809D01*
X88636190Y-93287142D01*
X87036190Y-93820476D02*
X88102857Y-93820476D01*
X88636190Y-93820476D02*
X88560000Y-93744285D01*
X88483809Y-93820476D01*
X88560000Y-93896666D01*
X88636190Y-93820476D01*
X88483809Y-93820476D01*
X88102857Y-94582380D02*
X87036190Y-94582380D01*
X87950476Y-94582380D02*
X88026666Y-94658571D01*
X88102857Y-94810952D01*
X88102857Y-95039523D01*
X88026666Y-95191904D01*
X87874285Y-95268095D01*
X87036190Y-95268095D01*
D11*
X88435714Y-131730476D02*
X88435714Y-132949523D01*
X87826190Y-132340000D02*
X89045238Y-132340000D01*
X56175714Y-98110476D02*
X56175714Y-99329523D01*
X55566190Y-98720000D02*
X56785238Y-98720000D01*
X56175714Y-150440476D02*
X56175714Y-151659523D01*
X55566190Y-151050000D02*
X56785238Y-151050000D01*
X88405714Y-139120476D02*
X88405714Y-140339523D01*
X90685714Y-92140476D02*
X90685714Y-93359523D01*
X90076190Y-92750000D02*
X91295238Y-92750000D01*
X88645714Y-36440476D02*
X88645714Y-37659523D01*
X56175714Y-26620476D02*
X56175714Y-27839523D01*
X88665714Y-34040476D02*
X88665714Y-35259523D01*
X88056190Y-34650000D02*
X89275238Y-34650000D01*
X88655714Y-28910476D02*
X88655714Y-30129523D01*
X88046190Y-29520000D02*
X89265238Y-29520000D01*
D10*
X53935714Y-98617142D02*
X54011904Y-98693333D01*
X54088095Y-98845714D01*
X53935714Y-99150476D01*
X54011904Y-99302857D01*
X54088095Y-99379047D01*
X54773809Y-99912380D02*
X54850000Y-99988571D01*
X54926190Y-100140952D01*
X54926190Y-100521904D01*
X54850000Y-100674285D01*
X54773809Y-100750476D01*
X54621428Y-100826666D01*
X54469047Y-100826666D01*
X54240476Y-100750476D01*
X53326190Y-99836190D01*
X53326190Y-100826666D01*
X55002380Y-102655238D02*
X52945238Y-101283809D01*
X54773809Y-103112380D02*
X54850000Y-103188571D01*
X54926190Y-103340952D01*
X54926190Y-103721904D01*
X54850000Y-103874285D01*
X54773809Y-103950476D01*
X54621428Y-104026666D01*
X54469047Y-104026666D01*
X54240476Y-103950476D01*
X53326190Y-103036190D01*
X53326190Y-104026666D01*
X54926190Y-105474285D02*
X54926190Y-104712380D01*
X54164285Y-104636190D01*
X54240476Y-104712380D01*
X54316666Y-104864761D01*
X54316666Y-105245714D01*
X54240476Y-105398095D01*
X54164285Y-105474285D01*
X54011904Y-105550476D01*
X53630952Y-105550476D01*
X53478571Y-105474285D01*
X53402380Y-105398095D01*
X53326190Y-105245714D01*
X53326190Y-104864761D01*
X53402380Y-104712380D01*
X53478571Y-104636190D01*
X54926190Y-107226666D02*
X53326190Y-107760000D01*
X54926190Y-108293333D01*
X53326190Y-108826666D02*
X54392857Y-108826666D01*
X54926190Y-108826666D02*
X54850000Y-108750476D01*
X54773809Y-108826666D01*
X54850000Y-108902857D01*
X54926190Y-108826666D01*
X54773809Y-108826666D01*
X54392857Y-109588571D02*
X53326190Y-109588571D01*
X54240476Y-109588571D02*
X54316666Y-109664761D01*
X54392857Y-109817142D01*
X54392857Y-110045714D01*
X54316666Y-110198095D01*
X54164285Y-110274285D01*
X53326190Y-110274285D01*
D11*
X88695714Y-38760476D02*
X88695714Y-39979523D01*
X88086190Y-39370000D02*
X89305238Y-39370000D01*
X56165714Y-130230476D02*
X56165714Y-131449523D01*
X55556190Y-130840000D02*
X56775238Y-130840000D01*
X56155714Y-58560476D02*
X56155714Y-59779523D01*
X56205714Y-102830476D02*
X56205714Y-104049523D01*
X55596190Y-103440000D02*
X56815238Y-103440000D01*
X56155714Y-125100476D02*
X56155714Y-126319523D01*
X55546190Y-125710000D02*
X56765238Y-125710000D01*
X153688571Y-34977333D02*
X153612380Y-34901142D01*
X153460000Y-34672571D01*
X153383809Y-34520190D01*
X153307619Y-34291619D01*
X153231428Y-33910666D01*
X153231428Y-33605904D01*
X153307619Y-33224952D01*
X153383809Y-32996380D01*
X153460000Y-32844000D01*
X153612380Y-32615428D01*
X153688571Y-32539238D01*
X153764761Y-32615428D02*
X155136190Y-34672571D01*
X154983809Y-34520190D02*
X156202857Y-34520190D01*
X156202857Y-34520190D02*
X157421904Y-34520190D01*
X158945714Y-32691619D02*
X157574285Y-34748761D01*
X159326666Y-34977333D02*
X159402857Y-34901142D01*
X159555238Y-34672571D01*
X159631428Y-34520190D01*
X159707619Y-34291619D01*
X159783809Y-33910666D01*
X159783809Y-33605904D01*
X159707619Y-33224952D01*
X159631428Y-32996380D01*
X159555238Y-32844000D01*
X159402857Y-32615428D01*
X159326666Y-32539238D01*
X152698095Y-37553333D02*
X152621904Y-37477142D01*
X152469523Y-37248571D01*
X152393333Y-37096190D01*
X152317142Y-36867619D01*
X152240952Y-36486666D01*
X152240952Y-36181904D01*
X152317142Y-35800952D01*
X152393333Y-35572380D01*
X152469523Y-35420000D01*
X152621904Y-35191428D01*
X152698095Y-35115238D01*
X154983809Y-36181904D02*
X154983809Y-36486666D01*
X155060000Y-36486666D02*
X155060000Y-36181904D01*
X155136190Y-36105714D02*
X155136190Y-36562857D01*
X155212380Y-36486666D02*
X155212380Y-36181904D01*
X155288571Y-36181904D02*
X155288571Y-36486666D01*
X154983809Y-36410476D02*
X155136190Y-36562857D01*
X155288571Y-36410476D01*
X154983809Y-36258095D02*
X155136190Y-36105714D01*
X155288571Y-36258095D01*
X154983809Y-36181904D02*
X155136190Y-36105714D01*
X155288571Y-36181904D01*
X155364761Y-36334285D01*
X155288571Y-36486666D01*
X155136190Y-36562857D01*
X154983809Y-36486666D01*
X154907619Y-36334285D01*
X154983809Y-36181904D01*
X156507619Y-36334285D02*
X157726666Y-36334285D01*
X158945714Y-36181904D02*
X158945714Y-36486666D01*
X159021904Y-36486666D02*
X159021904Y-36181904D01*
X159098095Y-36105714D02*
X159098095Y-36562857D01*
X159174285Y-36486666D02*
X159174285Y-36181904D01*
X159250476Y-36181904D02*
X159250476Y-36486666D01*
X158945714Y-36410476D02*
X159098095Y-36562857D01*
X159250476Y-36410476D01*
X158945714Y-36258095D02*
X159098095Y-36105714D01*
X159250476Y-36258095D01*
X158945714Y-36181904D02*
X159098095Y-36105714D01*
X159250476Y-36181904D01*
X159326666Y-36334285D01*
X159250476Y-36486666D01*
X159098095Y-36562857D01*
X158945714Y-36486666D01*
X158869523Y-36334285D01*
X158945714Y-36181904D01*
X160317142Y-37553333D02*
X160393333Y-37477142D01*
X160545714Y-37248571D01*
X160621904Y-37096190D01*
X160698095Y-36867619D01*
X160774285Y-36486666D01*
X160774285Y-36181904D01*
X160698095Y-35800952D01*
X160621904Y-35572380D01*
X160545714Y-35420000D01*
X160393333Y-35191428D01*
X160317142Y-35115238D01*
X152545714Y-37843619D02*
X151174285Y-39900761D01*
X154298095Y-38453142D02*
X155517142Y-38910285D01*
X154298095Y-39367428D01*
X56245714Y-44320476D02*
X56245714Y-45539523D01*
X55636190Y-44930000D02*
X56855238Y-44930000D01*
X56165714Y-92980476D02*
X56165714Y-94199523D01*
X55556190Y-93590000D02*
X56775238Y-93590000D01*
X56195714Y-134950476D02*
X56195714Y-136169523D01*
X55586190Y-135560000D02*
X56805238Y-135560000D01*
X56135714Y-127560476D02*
X56135714Y-128779523D01*
X56145714Y-132630476D02*
X56145714Y-133849523D01*
X56195714Y-86380476D02*
X56195714Y-87599523D01*
X55586190Y-86990000D02*
X56805238Y-86990000D01*
X56205714Y-140320476D02*
X56205714Y-141539523D01*
X55596190Y-140930000D02*
X56815238Y-140930000D01*
X56145714Y-105500476D02*
X56145714Y-106719523D01*
X56195714Y-145320476D02*
X56195714Y-146539523D01*
X55586190Y-145930000D02*
X56805238Y-145930000D01*
D12*
%TO.C,R46*%
X109597142Y-149592380D02*
X109263809Y-149116190D01*
X109025714Y-149592380D02*
X109025714Y-148592380D01*
X109406666Y-148592380D01*
X109501904Y-148640000D01*
X109549523Y-148687619D01*
X109597142Y-148782857D01*
X109597142Y-148925714D01*
X109549523Y-149020952D01*
X109501904Y-149068571D01*
X109406666Y-149116190D01*
X109025714Y-149116190D01*
X110454285Y-148925714D02*
X110454285Y-149592380D01*
X110216190Y-148544761D02*
X109978095Y-149259047D01*
X110597142Y-149259047D01*
X111406666Y-148592380D02*
X111216190Y-148592380D01*
X111120952Y-148640000D01*
X111073333Y-148687619D01*
X110978095Y-148830476D01*
X110930476Y-149020952D01*
X110930476Y-149401904D01*
X110978095Y-149497142D01*
X111025714Y-149544761D01*
X111120952Y-149592380D01*
X111311428Y-149592380D01*
X111406666Y-149544761D01*
X111454285Y-149497142D01*
X111501904Y-149401904D01*
X111501904Y-149163809D01*
X111454285Y-149068571D01*
X111406666Y-149020952D01*
X111311428Y-148973333D01*
X111120952Y-148973333D01*
X111025714Y-149020952D01*
X110978095Y-149068571D01*
X110930476Y-149163809D01*
%TO.C,R98*%
X76489642Y-31762380D02*
X76156309Y-31286190D01*
X75918214Y-31762380D02*
X75918214Y-30762380D01*
X76299166Y-30762380D01*
X76394404Y-30810000D01*
X76442023Y-30857619D01*
X76489642Y-30952857D01*
X76489642Y-31095714D01*
X76442023Y-31190952D01*
X76394404Y-31238571D01*
X76299166Y-31286190D01*
X75918214Y-31286190D01*
X76965833Y-31762380D02*
X77156309Y-31762380D01*
X77251547Y-31714761D01*
X77299166Y-31667142D01*
X77394404Y-31524285D01*
X77442023Y-31333809D01*
X77442023Y-30952857D01*
X77394404Y-30857619D01*
X77346785Y-30810000D01*
X77251547Y-30762380D01*
X77061071Y-30762380D01*
X76965833Y-30810000D01*
X76918214Y-30857619D01*
X76870595Y-30952857D01*
X76870595Y-31190952D01*
X76918214Y-31286190D01*
X76965833Y-31333809D01*
X77061071Y-31381428D01*
X77251547Y-31381428D01*
X77346785Y-31333809D01*
X77394404Y-31286190D01*
X77442023Y-31190952D01*
X78013452Y-31190952D02*
X77918214Y-31143333D01*
X77870595Y-31095714D01*
X77822976Y-31000476D01*
X77822976Y-30952857D01*
X77870595Y-30857619D01*
X77918214Y-30810000D01*
X78013452Y-30762380D01*
X78203928Y-30762380D01*
X78299166Y-30810000D01*
X78346785Y-30857619D01*
X78394404Y-30952857D01*
X78394404Y-31000476D01*
X78346785Y-31095714D01*
X78299166Y-31143333D01*
X78203928Y-31190952D01*
X78013452Y-31190952D01*
X77918214Y-31238571D01*
X77870595Y-31286190D01*
X77822976Y-31381428D01*
X77822976Y-31571904D01*
X77870595Y-31667142D01*
X77918214Y-31714761D01*
X78013452Y-31762380D01*
X78203928Y-31762380D01*
X78299166Y-31714761D01*
X78346785Y-31667142D01*
X78394404Y-31571904D01*
X78394404Y-31381428D01*
X78346785Y-31286190D01*
X78299166Y-31238571D01*
X78203928Y-31190952D01*
%TO.C,R39*%
X76447142Y-121045980D02*
X76113809Y-120569790D01*
X75875714Y-121045980D02*
X75875714Y-120045980D01*
X76256666Y-120045980D01*
X76351904Y-120093600D01*
X76399523Y-120141219D01*
X76447142Y-120236457D01*
X76447142Y-120379314D01*
X76399523Y-120474552D01*
X76351904Y-120522171D01*
X76256666Y-120569790D01*
X75875714Y-120569790D01*
X76780476Y-120045980D02*
X77399523Y-120045980D01*
X77066190Y-120426933D01*
X77209047Y-120426933D01*
X77304285Y-120474552D01*
X77351904Y-120522171D01*
X77399523Y-120617409D01*
X77399523Y-120855504D01*
X77351904Y-120950742D01*
X77304285Y-120998361D01*
X77209047Y-121045980D01*
X76923333Y-121045980D01*
X76828095Y-120998361D01*
X76780476Y-120950742D01*
X77875714Y-121045980D02*
X78066190Y-121045980D01*
X78161428Y-120998361D01*
X78209047Y-120950742D01*
X78304285Y-120807885D01*
X78351904Y-120617409D01*
X78351904Y-120236457D01*
X78304285Y-120141219D01*
X78256666Y-120093600D01*
X78161428Y-120045980D01*
X77970952Y-120045980D01*
X77875714Y-120093600D01*
X77828095Y-120141219D01*
X77780476Y-120236457D01*
X77780476Y-120474552D01*
X77828095Y-120569790D01*
X77875714Y-120617409D01*
X77970952Y-120665028D01*
X78161428Y-120665028D01*
X78256666Y-120617409D01*
X78304285Y-120569790D01*
X78351904Y-120474552D01*
%TO.C,J12*%
X103777380Y-90079523D02*
X104491666Y-90079523D01*
X104634523Y-90127142D01*
X104729761Y-90222380D01*
X104777380Y-90365238D01*
X104777380Y-90460476D01*
X104777380Y-89079523D02*
X104777380Y-89650952D01*
X104777380Y-89365238D02*
X103777380Y-89365238D01*
X103920238Y-89460476D01*
X104015476Y-89555714D01*
X104063095Y-89650952D01*
X103872619Y-88698571D02*
X103825000Y-88650952D01*
X103777380Y-88555714D01*
X103777380Y-88317619D01*
X103825000Y-88222380D01*
X103872619Y-88174761D01*
X103967857Y-88127142D01*
X104063095Y-88127142D01*
X104205952Y-88174761D01*
X104777380Y-88746190D01*
X104777380Y-88127142D01*
%TO.C,J7*%
X144866666Y-100592380D02*
X144866666Y-101306666D01*
X144819047Y-101449523D01*
X144723809Y-101544761D01*
X144580952Y-101592380D01*
X144485714Y-101592380D01*
X145247619Y-100592380D02*
X145914285Y-100592380D01*
X145485714Y-101592380D01*
%TO.C,R22*%
X107372142Y-79952380D02*
X107038809Y-79476190D01*
X106800714Y-79952380D02*
X106800714Y-78952380D01*
X107181666Y-78952380D01*
X107276904Y-79000000D01*
X107324523Y-79047619D01*
X107372142Y-79142857D01*
X107372142Y-79285714D01*
X107324523Y-79380952D01*
X107276904Y-79428571D01*
X107181666Y-79476190D01*
X106800714Y-79476190D01*
X107753095Y-79047619D02*
X107800714Y-79000000D01*
X107895952Y-78952380D01*
X108134047Y-78952380D01*
X108229285Y-79000000D01*
X108276904Y-79047619D01*
X108324523Y-79142857D01*
X108324523Y-79238095D01*
X108276904Y-79380952D01*
X107705476Y-79952380D01*
X108324523Y-79952380D01*
X108705476Y-79047619D02*
X108753095Y-79000000D01*
X108848333Y-78952380D01*
X109086428Y-78952380D01*
X109181666Y-79000000D01*
X109229285Y-79047619D01*
X109276904Y-79142857D01*
X109276904Y-79238095D01*
X109229285Y-79380952D01*
X108657857Y-79952380D01*
X109276904Y-79952380D01*
%TO.C,C1*%
X159153333Y-44397142D02*
X159105714Y-44444761D01*
X158962857Y-44492380D01*
X158867619Y-44492380D01*
X158724761Y-44444761D01*
X158629523Y-44349523D01*
X158581904Y-44254285D01*
X158534285Y-44063809D01*
X158534285Y-43920952D01*
X158581904Y-43730476D01*
X158629523Y-43635238D01*
X158724761Y-43540000D01*
X158867619Y-43492380D01*
X158962857Y-43492380D01*
X159105714Y-43540000D01*
X159153333Y-43587619D01*
X160105714Y-44492380D02*
X159534285Y-44492380D01*
X159820000Y-44492380D02*
X159820000Y-43492380D01*
X159724761Y-43635238D01*
X159629523Y-43730476D01*
X159534285Y-43778095D01*
%TO.C,R108*%
X68020952Y-41922380D02*
X67687619Y-41446190D01*
X67449523Y-41922380D02*
X67449523Y-40922380D01*
X67830476Y-40922380D01*
X67925714Y-40970000D01*
X67973333Y-41017619D01*
X68020952Y-41112857D01*
X68020952Y-41255714D01*
X67973333Y-41350952D01*
X67925714Y-41398571D01*
X67830476Y-41446190D01*
X67449523Y-41446190D01*
X68973333Y-41922380D02*
X68401904Y-41922380D01*
X68687619Y-41922380D02*
X68687619Y-40922380D01*
X68592380Y-41065238D01*
X68497142Y-41160476D01*
X68401904Y-41208095D01*
X69592380Y-40922380D02*
X69687619Y-40922380D01*
X69782857Y-40970000D01*
X69830476Y-41017619D01*
X69878095Y-41112857D01*
X69925714Y-41303333D01*
X69925714Y-41541428D01*
X69878095Y-41731904D01*
X69830476Y-41827142D01*
X69782857Y-41874761D01*
X69687619Y-41922380D01*
X69592380Y-41922380D01*
X69497142Y-41874761D01*
X69449523Y-41827142D01*
X69401904Y-41731904D01*
X69354285Y-41541428D01*
X69354285Y-41303333D01*
X69401904Y-41112857D01*
X69449523Y-41017619D01*
X69497142Y-40970000D01*
X69592380Y-40922380D01*
X70497142Y-41350952D02*
X70401904Y-41303333D01*
X70354285Y-41255714D01*
X70306666Y-41160476D01*
X70306666Y-41112857D01*
X70354285Y-41017619D01*
X70401904Y-40970000D01*
X70497142Y-40922380D01*
X70687619Y-40922380D01*
X70782857Y-40970000D01*
X70830476Y-41017619D01*
X70878095Y-41112857D01*
X70878095Y-41160476D01*
X70830476Y-41255714D01*
X70782857Y-41303333D01*
X70687619Y-41350952D01*
X70497142Y-41350952D01*
X70401904Y-41398571D01*
X70354285Y-41446190D01*
X70306666Y-41541428D01*
X70306666Y-41731904D01*
X70354285Y-41827142D01*
X70401904Y-41874761D01*
X70497142Y-41922380D01*
X70687619Y-41922380D01*
X70782857Y-41874761D01*
X70830476Y-41827142D01*
X70878095Y-41731904D01*
X70878095Y-41541428D01*
X70830476Y-41446190D01*
X70782857Y-41398571D01*
X70687619Y-41350952D01*
%TO.C,U2*%
X179048095Y-57972380D02*
X179048095Y-58781904D01*
X179095714Y-58877142D01*
X179143333Y-58924761D01*
X179238571Y-58972380D01*
X179429047Y-58972380D01*
X179524285Y-58924761D01*
X179571904Y-58877142D01*
X179619523Y-58781904D01*
X179619523Y-57972380D01*
X180048095Y-58067619D02*
X180095714Y-58020000D01*
X180190952Y-57972380D01*
X180429047Y-57972380D01*
X180524285Y-58020000D01*
X180571904Y-58067619D01*
X180619523Y-58162857D01*
X180619523Y-58258095D01*
X180571904Y-58400952D01*
X180000476Y-58972380D01*
X180619523Y-58972380D01*
%TO.C,R2*%
X218032380Y-50306666D02*
X217556190Y-50640000D01*
X218032380Y-50878095D02*
X217032380Y-50878095D01*
X217032380Y-50497142D01*
X217080000Y-50401904D01*
X217127619Y-50354285D01*
X217222857Y-50306666D01*
X217365714Y-50306666D01*
X217460952Y-50354285D01*
X217508571Y-50401904D01*
X217556190Y-50497142D01*
X217556190Y-50878095D01*
X217127619Y-49925714D02*
X217080000Y-49878095D01*
X217032380Y-49782857D01*
X217032380Y-49544761D01*
X217080000Y-49449523D01*
X217127619Y-49401904D01*
X217222857Y-49354285D01*
X217318095Y-49354285D01*
X217460952Y-49401904D01*
X218032380Y-49973333D01*
X218032380Y-49354285D01*
%TO.C,R97*%
X76489642Y-36882380D02*
X76156309Y-36406190D01*
X75918214Y-36882380D02*
X75918214Y-35882380D01*
X76299166Y-35882380D01*
X76394404Y-35930000D01*
X76442023Y-35977619D01*
X76489642Y-36072857D01*
X76489642Y-36215714D01*
X76442023Y-36310952D01*
X76394404Y-36358571D01*
X76299166Y-36406190D01*
X75918214Y-36406190D01*
X76965833Y-36882380D02*
X77156309Y-36882380D01*
X77251547Y-36834761D01*
X77299166Y-36787142D01*
X77394404Y-36644285D01*
X77442023Y-36453809D01*
X77442023Y-36072857D01*
X77394404Y-35977619D01*
X77346785Y-35930000D01*
X77251547Y-35882380D01*
X77061071Y-35882380D01*
X76965833Y-35930000D01*
X76918214Y-35977619D01*
X76870595Y-36072857D01*
X76870595Y-36310952D01*
X76918214Y-36406190D01*
X76965833Y-36453809D01*
X77061071Y-36501428D01*
X77251547Y-36501428D01*
X77346785Y-36453809D01*
X77394404Y-36406190D01*
X77442023Y-36310952D01*
X77775357Y-35882380D02*
X78442023Y-35882380D01*
X78013452Y-36882380D01*
%TO.C,R58*%
X102067142Y-149602380D02*
X101733809Y-149126190D01*
X101495714Y-149602380D02*
X101495714Y-148602380D01*
X101876666Y-148602380D01*
X101971904Y-148650000D01*
X102019523Y-148697619D01*
X102067142Y-148792857D01*
X102067142Y-148935714D01*
X102019523Y-149030952D01*
X101971904Y-149078571D01*
X101876666Y-149126190D01*
X101495714Y-149126190D01*
X102971904Y-148602380D02*
X102495714Y-148602380D01*
X102448095Y-149078571D01*
X102495714Y-149030952D01*
X102590952Y-148983333D01*
X102829047Y-148983333D01*
X102924285Y-149030952D01*
X102971904Y-149078571D01*
X103019523Y-149173809D01*
X103019523Y-149411904D01*
X102971904Y-149507142D01*
X102924285Y-149554761D01*
X102829047Y-149602380D01*
X102590952Y-149602380D01*
X102495714Y-149554761D01*
X102448095Y-149507142D01*
X103590952Y-149030952D02*
X103495714Y-148983333D01*
X103448095Y-148935714D01*
X103400476Y-148840476D01*
X103400476Y-148792857D01*
X103448095Y-148697619D01*
X103495714Y-148650000D01*
X103590952Y-148602380D01*
X103781428Y-148602380D01*
X103876666Y-148650000D01*
X103924285Y-148697619D01*
X103971904Y-148792857D01*
X103971904Y-148840476D01*
X103924285Y-148935714D01*
X103876666Y-148983333D01*
X103781428Y-149030952D01*
X103590952Y-149030952D01*
X103495714Y-149078571D01*
X103448095Y-149126190D01*
X103400476Y-149221428D01*
X103400476Y-149411904D01*
X103448095Y-149507142D01*
X103495714Y-149554761D01*
X103590952Y-149602380D01*
X103781428Y-149602380D01*
X103876666Y-149554761D01*
X103924285Y-149507142D01*
X103971904Y-149411904D01*
X103971904Y-149221428D01*
X103924285Y-149126190D01*
X103876666Y-149078571D01*
X103781428Y-149030952D01*
%TO.C,C3*%
X183653333Y-38397142D02*
X183605714Y-38444761D01*
X183462857Y-38492380D01*
X183367619Y-38492380D01*
X183224761Y-38444761D01*
X183129523Y-38349523D01*
X183081904Y-38254285D01*
X183034285Y-38063809D01*
X183034285Y-37920952D01*
X183081904Y-37730476D01*
X183129523Y-37635238D01*
X183224761Y-37540000D01*
X183367619Y-37492380D01*
X183462857Y-37492380D01*
X183605714Y-37540000D01*
X183653333Y-37587619D01*
X183986666Y-37492380D02*
X184605714Y-37492380D01*
X184272380Y-37873333D01*
X184415238Y-37873333D01*
X184510476Y-37920952D01*
X184558095Y-37968571D01*
X184605714Y-38063809D01*
X184605714Y-38301904D01*
X184558095Y-38397142D01*
X184510476Y-38444761D01*
X184415238Y-38492380D01*
X184129523Y-38492380D01*
X184034285Y-38444761D01*
X183986666Y-38397142D01*
%TO.C,R84*%
X68497142Y-73922380D02*
X68163809Y-73446190D01*
X67925714Y-73922380D02*
X67925714Y-72922380D01*
X68306666Y-72922380D01*
X68401904Y-72970000D01*
X68449523Y-73017619D01*
X68497142Y-73112857D01*
X68497142Y-73255714D01*
X68449523Y-73350952D01*
X68401904Y-73398571D01*
X68306666Y-73446190D01*
X67925714Y-73446190D01*
X69068571Y-73350952D02*
X68973333Y-73303333D01*
X68925714Y-73255714D01*
X68878095Y-73160476D01*
X68878095Y-73112857D01*
X68925714Y-73017619D01*
X68973333Y-72970000D01*
X69068571Y-72922380D01*
X69259047Y-72922380D01*
X69354285Y-72970000D01*
X69401904Y-73017619D01*
X69449523Y-73112857D01*
X69449523Y-73160476D01*
X69401904Y-73255714D01*
X69354285Y-73303333D01*
X69259047Y-73350952D01*
X69068571Y-73350952D01*
X68973333Y-73398571D01*
X68925714Y-73446190D01*
X68878095Y-73541428D01*
X68878095Y-73731904D01*
X68925714Y-73827142D01*
X68973333Y-73874761D01*
X69068571Y-73922380D01*
X69259047Y-73922380D01*
X69354285Y-73874761D01*
X69401904Y-73827142D01*
X69449523Y-73731904D01*
X69449523Y-73541428D01*
X69401904Y-73446190D01*
X69354285Y-73398571D01*
X69259047Y-73350952D01*
X70306666Y-73255714D02*
X70306666Y-73922380D01*
X70068571Y-72874761D02*
X69830476Y-73589047D01*
X70449523Y-73589047D01*
%TO.C,R109*%
X68020952Y-36892380D02*
X67687619Y-36416190D01*
X67449523Y-36892380D02*
X67449523Y-35892380D01*
X67830476Y-35892380D01*
X67925714Y-35940000D01*
X67973333Y-35987619D01*
X68020952Y-36082857D01*
X68020952Y-36225714D01*
X67973333Y-36320952D01*
X67925714Y-36368571D01*
X67830476Y-36416190D01*
X67449523Y-36416190D01*
X68973333Y-36892380D02*
X68401904Y-36892380D01*
X68687619Y-36892380D02*
X68687619Y-35892380D01*
X68592380Y-36035238D01*
X68497142Y-36130476D01*
X68401904Y-36178095D01*
X69592380Y-35892380D02*
X69687619Y-35892380D01*
X69782857Y-35940000D01*
X69830476Y-35987619D01*
X69878095Y-36082857D01*
X69925714Y-36273333D01*
X69925714Y-36511428D01*
X69878095Y-36701904D01*
X69830476Y-36797142D01*
X69782857Y-36844761D01*
X69687619Y-36892380D01*
X69592380Y-36892380D01*
X69497142Y-36844761D01*
X69449523Y-36797142D01*
X69401904Y-36701904D01*
X69354285Y-36511428D01*
X69354285Y-36273333D01*
X69401904Y-36082857D01*
X69449523Y-35987619D01*
X69497142Y-35940000D01*
X69592380Y-35892380D01*
X70401904Y-36892380D02*
X70592380Y-36892380D01*
X70687619Y-36844761D01*
X70735238Y-36797142D01*
X70830476Y-36654285D01*
X70878095Y-36463809D01*
X70878095Y-36082857D01*
X70830476Y-35987619D01*
X70782857Y-35940000D01*
X70687619Y-35892380D01*
X70497142Y-35892380D01*
X70401904Y-35940000D01*
X70354285Y-35987619D01*
X70306666Y-36082857D01*
X70306666Y-36320952D01*
X70354285Y-36416190D01*
X70401904Y-36463809D01*
X70497142Y-36511428D01*
X70687619Y-36511428D01*
X70782857Y-36463809D01*
X70830476Y-36416190D01*
X70878095Y-36320952D01*
%TO.C,R82*%
X68497142Y-84072380D02*
X68163809Y-83596190D01*
X67925714Y-84072380D02*
X67925714Y-83072380D01*
X68306666Y-83072380D01*
X68401904Y-83120000D01*
X68449523Y-83167619D01*
X68497142Y-83262857D01*
X68497142Y-83405714D01*
X68449523Y-83500952D01*
X68401904Y-83548571D01*
X68306666Y-83596190D01*
X67925714Y-83596190D01*
X69068571Y-83500952D02*
X68973333Y-83453333D01*
X68925714Y-83405714D01*
X68878095Y-83310476D01*
X68878095Y-83262857D01*
X68925714Y-83167619D01*
X68973333Y-83120000D01*
X69068571Y-83072380D01*
X69259047Y-83072380D01*
X69354285Y-83120000D01*
X69401904Y-83167619D01*
X69449523Y-83262857D01*
X69449523Y-83310476D01*
X69401904Y-83405714D01*
X69354285Y-83453333D01*
X69259047Y-83500952D01*
X69068571Y-83500952D01*
X68973333Y-83548571D01*
X68925714Y-83596190D01*
X68878095Y-83691428D01*
X68878095Y-83881904D01*
X68925714Y-83977142D01*
X68973333Y-84024761D01*
X69068571Y-84072380D01*
X69259047Y-84072380D01*
X69354285Y-84024761D01*
X69401904Y-83977142D01*
X69449523Y-83881904D01*
X69449523Y-83691428D01*
X69401904Y-83596190D01*
X69354285Y-83548571D01*
X69259047Y-83500952D01*
X69830476Y-83167619D02*
X69878095Y-83120000D01*
X69973333Y-83072380D01*
X70211428Y-83072380D01*
X70306666Y-83120000D01*
X70354285Y-83167619D01*
X70401904Y-83262857D01*
X70401904Y-83358095D01*
X70354285Y-83500952D01*
X69782857Y-84072380D01*
X70401904Y-84072380D01*
%TO.C,C12*%
X169155742Y-76412857D02*
X169203361Y-76460476D01*
X169250980Y-76603333D01*
X169250980Y-76698571D01*
X169203361Y-76841428D01*
X169108123Y-76936666D01*
X169012885Y-76984285D01*
X168822409Y-77031904D01*
X168679552Y-77031904D01*
X168489076Y-76984285D01*
X168393838Y-76936666D01*
X168298600Y-76841428D01*
X168250980Y-76698571D01*
X168250980Y-76603333D01*
X168298600Y-76460476D01*
X168346219Y-76412857D01*
X169250980Y-75460476D02*
X169250980Y-76031904D01*
X169250980Y-75746190D02*
X168250980Y-75746190D01*
X168393838Y-75841428D01*
X168489076Y-75936666D01*
X168536695Y-76031904D01*
X168346219Y-75079523D02*
X168298600Y-75031904D01*
X168250980Y-74936666D01*
X168250980Y-74698571D01*
X168298600Y-74603333D01*
X168346219Y-74555714D01*
X168441457Y-74508095D01*
X168536695Y-74508095D01*
X168679552Y-74555714D01*
X169250980Y-75127142D01*
X169250980Y-74508095D01*
%TO.C,R29*%
X69197142Y-142845180D02*
X68863809Y-142368990D01*
X68625714Y-142845180D02*
X68625714Y-141845180D01*
X69006666Y-141845180D01*
X69101904Y-141892800D01*
X69149523Y-141940419D01*
X69197142Y-142035657D01*
X69197142Y-142178514D01*
X69149523Y-142273752D01*
X69101904Y-142321371D01*
X69006666Y-142368990D01*
X68625714Y-142368990D01*
X69578095Y-141940419D02*
X69625714Y-141892800D01*
X69720952Y-141845180D01*
X69959047Y-141845180D01*
X70054285Y-141892800D01*
X70101904Y-141940419D01*
X70149523Y-142035657D01*
X70149523Y-142130895D01*
X70101904Y-142273752D01*
X69530476Y-142845180D01*
X70149523Y-142845180D01*
X70625714Y-142845180D02*
X70816190Y-142845180D01*
X70911428Y-142797561D01*
X70959047Y-142749942D01*
X71054285Y-142607085D01*
X71101904Y-142416609D01*
X71101904Y-142035657D01*
X71054285Y-141940419D01*
X71006666Y-141892800D01*
X70911428Y-141845180D01*
X70720952Y-141845180D01*
X70625714Y-141892800D01*
X70578095Y-141940419D01*
X70530476Y-142035657D01*
X70530476Y-142273752D01*
X70578095Y-142368990D01*
X70625714Y-142416609D01*
X70720952Y-142464228D01*
X70911428Y-142464228D01*
X71006666Y-142416609D01*
X71054285Y-142368990D01*
X71101904Y-142273752D01*
%TO.C,R14*%
X107372142Y-109932380D02*
X107038809Y-109456190D01*
X106800714Y-109932380D02*
X106800714Y-108932380D01*
X107181666Y-108932380D01*
X107276904Y-108980000D01*
X107324523Y-109027619D01*
X107372142Y-109122857D01*
X107372142Y-109265714D01*
X107324523Y-109360952D01*
X107276904Y-109408571D01*
X107181666Y-109456190D01*
X106800714Y-109456190D01*
X108324523Y-109932380D02*
X107753095Y-109932380D01*
X108038809Y-109932380D02*
X108038809Y-108932380D01*
X107943571Y-109075238D01*
X107848333Y-109170476D01*
X107753095Y-109218095D01*
X109181666Y-109265714D02*
X109181666Y-109932380D01*
X108943571Y-108884761D02*
X108705476Y-109599047D01*
X109324523Y-109599047D01*
%TO.C,R12*%
X115762142Y-94892380D02*
X115428809Y-94416190D01*
X115190714Y-94892380D02*
X115190714Y-93892380D01*
X115571666Y-93892380D01*
X115666904Y-93940000D01*
X115714523Y-93987619D01*
X115762142Y-94082857D01*
X115762142Y-94225714D01*
X115714523Y-94320952D01*
X115666904Y-94368571D01*
X115571666Y-94416190D01*
X115190714Y-94416190D01*
X116714523Y-94892380D02*
X116143095Y-94892380D01*
X116428809Y-94892380D02*
X116428809Y-93892380D01*
X116333571Y-94035238D01*
X116238333Y-94130476D01*
X116143095Y-94178095D01*
X117095476Y-93987619D02*
X117143095Y-93940000D01*
X117238333Y-93892380D01*
X117476428Y-93892380D01*
X117571666Y-93940000D01*
X117619285Y-93987619D01*
X117666904Y-94082857D01*
X117666904Y-94178095D01*
X117619285Y-94320952D01*
X117047857Y-94892380D01*
X117666904Y-94892380D01*
%TO.C,R70*%
X76414642Y-84042380D02*
X76081309Y-83566190D01*
X75843214Y-84042380D02*
X75843214Y-83042380D01*
X76224166Y-83042380D01*
X76319404Y-83090000D01*
X76367023Y-83137619D01*
X76414642Y-83232857D01*
X76414642Y-83375714D01*
X76367023Y-83470952D01*
X76319404Y-83518571D01*
X76224166Y-83566190D01*
X75843214Y-83566190D01*
X76747976Y-83042380D02*
X77414642Y-83042380D01*
X76986071Y-84042380D01*
X77986071Y-83042380D02*
X78081309Y-83042380D01*
X78176547Y-83090000D01*
X78224166Y-83137619D01*
X78271785Y-83232857D01*
X78319404Y-83423333D01*
X78319404Y-83661428D01*
X78271785Y-83851904D01*
X78224166Y-83947142D01*
X78176547Y-83994761D01*
X78081309Y-84042380D01*
X77986071Y-84042380D01*
X77890833Y-83994761D01*
X77843214Y-83947142D01*
X77795595Y-83851904D01*
X77747976Y-83661428D01*
X77747976Y-83423333D01*
X77795595Y-83232857D01*
X77843214Y-83137619D01*
X77890833Y-83090000D01*
X77986071Y-83042380D01*
%TO.C,R5*%
X197485333Y-69119380D02*
X197152000Y-68643190D01*
X196913904Y-69119380D02*
X196913904Y-68119380D01*
X197294857Y-68119380D01*
X197390095Y-68167000D01*
X197437714Y-68214619D01*
X197485333Y-68309857D01*
X197485333Y-68452714D01*
X197437714Y-68547952D01*
X197390095Y-68595571D01*
X197294857Y-68643190D01*
X196913904Y-68643190D01*
X198390095Y-68119380D02*
X197913904Y-68119380D01*
X197866285Y-68595571D01*
X197913904Y-68547952D01*
X198009142Y-68500333D01*
X198247238Y-68500333D01*
X198342476Y-68547952D01*
X198390095Y-68595571D01*
X198437714Y-68690809D01*
X198437714Y-68928904D01*
X198390095Y-69024142D01*
X198342476Y-69071761D01*
X198247238Y-69119380D01*
X198009142Y-69119380D01*
X197913904Y-69071761D01*
X197866285Y-69024142D01*
%TO.C,R92*%
X110397142Y-36652380D02*
X110063809Y-36176190D01*
X109825714Y-36652380D02*
X109825714Y-35652380D01*
X110206666Y-35652380D01*
X110301904Y-35700000D01*
X110349523Y-35747619D01*
X110397142Y-35842857D01*
X110397142Y-35985714D01*
X110349523Y-36080952D01*
X110301904Y-36128571D01*
X110206666Y-36176190D01*
X109825714Y-36176190D01*
X110873333Y-36652380D02*
X111063809Y-36652380D01*
X111159047Y-36604761D01*
X111206666Y-36557142D01*
X111301904Y-36414285D01*
X111349523Y-36223809D01*
X111349523Y-35842857D01*
X111301904Y-35747619D01*
X111254285Y-35700000D01*
X111159047Y-35652380D01*
X110968571Y-35652380D01*
X110873333Y-35700000D01*
X110825714Y-35747619D01*
X110778095Y-35842857D01*
X110778095Y-36080952D01*
X110825714Y-36176190D01*
X110873333Y-36223809D01*
X110968571Y-36271428D01*
X111159047Y-36271428D01*
X111254285Y-36223809D01*
X111301904Y-36176190D01*
X111349523Y-36080952D01*
X111730476Y-35747619D02*
X111778095Y-35700000D01*
X111873333Y-35652380D01*
X112111428Y-35652380D01*
X112206666Y-35700000D01*
X112254285Y-35747619D01*
X112301904Y-35842857D01*
X112301904Y-35938095D01*
X112254285Y-36080952D01*
X111682857Y-36652380D01*
X112301904Y-36652380D01*
%TO.C,J8*%
X150137380Y-137898333D02*
X150851666Y-137898333D01*
X150994523Y-137945952D01*
X151089761Y-138041190D01*
X151137380Y-138184047D01*
X151137380Y-138279285D01*
X150565952Y-137279285D02*
X150518333Y-137374523D01*
X150470714Y-137422142D01*
X150375476Y-137469761D01*
X150327857Y-137469761D01*
X150232619Y-137422142D01*
X150185000Y-137374523D01*
X150137380Y-137279285D01*
X150137380Y-137088809D01*
X150185000Y-136993571D01*
X150232619Y-136945952D01*
X150327857Y-136898333D01*
X150375476Y-136898333D01*
X150470714Y-136945952D01*
X150518333Y-136993571D01*
X150565952Y-137088809D01*
X150565952Y-137279285D01*
X150613571Y-137374523D01*
X150661190Y-137422142D01*
X150756428Y-137469761D01*
X150946904Y-137469761D01*
X151042142Y-137422142D01*
X151089761Y-137374523D01*
X151137380Y-137279285D01*
X151137380Y-137088809D01*
X151089761Y-136993571D01*
X151042142Y-136945952D01*
X150946904Y-136898333D01*
X150756428Y-136898333D01*
X150661190Y-136945952D01*
X150613571Y-136993571D01*
X150565952Y-137088809D01*
%TO.C,R11*%
X115762142Y-109932380D02*
X115428809Y-109456190D01*
X115190714Y-109932380D02*
X115190714Y-108932380D01*
X115571666Y-108932380D01*
X115666904Y-108980000D01*
X115714523Y-109027619D01*
X115762142Y-109122857D01*
X115762142Y-109265714D01*
X115714523Y-109360952D01*
X115666904Y-109408571D01*
X115571666Y-109456190D01*
X115190714Y-109456190D01*
X116714523Y-109932380D02*
X116143095Y-109932380D01*
X116428809Y-109932380D02*
X116428809Y-108932380D01*
X116333571Y-109075238D01*
X116238333Y-109170476D01*
X116143095Y-109218095D01*
X117666904Y-109932380D02*
X117095476Y-109932380D01*
X117381190Y-109932380D02*
X117381190Y-108932380D01*
X117285952Y-109075238D01*
X117190714Y-109170476D01*
X117095476Y-109218095D01*
%TO.C,R27*%
X69197142Y-153005180D02*
X68863809Y-152528990D01*
X68625714Y-153005180D02*
X68625714Y-152005180D01*
X69006666Y-152005180D01*
X69101904Y-152052800D01*
X69149523Y-152100419D01*
X69197142Y-152195657D01*
X69197142Y-152338514D01*
X69149523Y-152433752D01*
X69101904Y-152481371D01*
X69006666Y-152528990D01*
X68625714Y-152528990D01*
X69578095Y-152100419D02*
X69625714Y-152052800D01*
X69720952Y-152005180D01*
X69959047Y-152005180D01*
X70054285Y-152052800D01*
X70101904Y-152100419D01*
X70149523Y-152195657D01*
X70149523Y-152290895D01*
X70101904Y-152433752D01*
X69530476Y-153005180D01*
X70149523Y-153005180D01*
X70482857Y-152005180D02*
X71149523Y-152005180D01*
X70720952Y-153005180D01*
%TO.C,R40*%
X109597142Y-154652380D02*
X109263809Y-154176190D01*
X109025714Y-154652380D02*
X109025714Y-153652380D01*
X109406666Y-153652380D01*
X109501904Y-153700000D01*
X109549523Y-153747619D01*
X109597142Y-153842857D01*
X109597142Y-153985714D01*
X109549523Y-154080952D01*
X109501904Y-154128571D01*
X109406666Y-154176190D01*
X109025714Y-154176190D01*
X110454285Y-153985714D02*
X110454285Y-154652380D01*
X110216190Y-153604761D02*
X109978095Y-154319047D01*
X110597142Y-154319047D01*
X111168571Y-153652380D02*
X111263809Y-153652380D01*
X111359047Y-153700000D01*
X111406666Y-153747619D01*
X111454285Y-153842857D01*
X111501904Y-154033333D01*
X111501904Y-154271428D01*
X111454285Y-154461904D01*
X111406666Y-154557142D01*
X111359047Y-154604761D01*
X111263809Y-154652380D01*
X111168571Y-154652380D01*
X111073333Y-154604761D01*
X111025714Y-154557142D01*
X110978095Y-154461904D01*
X110930476Y-154271428D01*
X110930476Y-154033333D01*
X110978095Y-153842857D01*
X111025714Y-153747619D01*
X111073333Y-153700000D01*
X111168571Y-153652380D01*
%TO.C,C8*%
X188357142Y-54886666D02*
X188404761Y-54934285D01*
X188452380Y-55077142D01*
X188452380Y-55172380D01*
X188404761Y-55315238D01*
X188309523Y-55410476D01*
X188214285Y-55458095D01*
X188023809Y-55505714D01*
X187880952Y-55505714D01*
X187690476Y-55458095D01*
X187595238Y-55410476D01*
X187500000Y-55315238D01*
X187452380Y-55172380D01*
X187452380Y-55077142D01*
X187500000Y-54934285D01*
X187547619Y-54886666D01*
X187880952Y-54315238D02*
X187833333Y-54410476D01*
X187785714Y-54458095D01*
X187690476Y-54505714D01*
X187642857Y-54505714D01*
X187547619Y-54458095D01*
X187500000Y-54410476D01*
X187452380Y-54315238D01*
X187452380Y-54124761D01*
X187500000Y-54029523D01*
X187547619Y-53981904D01*
X187642857Y-53934285D01*
X187690476Y-53934285D01*
X187785714Y-53981904D01*
X187833333Y-54029523D01*
X187880952Y-54124761D01*
X187880952Y-54315238D01*
X187928571Y-54410476D01*
X187976190Y-54458095D01*
X188071428Y-54505714D01*
X188261904Y-54505714D01*
X188357142Y-54458095D01*
X188404761Y-54410476D01*
X188452380Y-54315238D01*
X188452380Y-54124761D01*
X188404761Y-54029523D01*
X188357142Y-53981904D01*
X188261904Y-53934285D01*
X188071428Y-53934285D01*
X187976190Y-53981904D01*
X187928571Y-54029523D01*
X187880952Y-54124761D01*
%TO.C,C5*%
X170153333Y-56757142D02*
X170105714Y-56804761D01*
X169962857Y-56852380D01*
X169867619Y-56852380D01*
X169724761Y-56804761D01*
X169629523Y-56709523D01*
X169581904Y-56614285D01*
X169534285Y-56423809D01*
X169534285Y-56280952D01*
X169581904Y-56090476D01*
X169629523Y-55995238D01*
X169724761Y-55900000D01*
X169867619Y-55852380D01*
X169962857Y-55852380D01*
X170105714Y-55900000D01*
X170153333Y-55947619D01*
X171058095Y-55852380D02*
X170581904Y-55852380D01*
X170534285Y-56328571D01*
X170581904Y-56280952D01*
X170677142Y-56233333D01*
X170915238Y-56233333D01*
X171010476Y-56280952D01*
X171058095Y-56328571D01*
X171105714Y-56423809D01*
X171105714Y-56661904D01*
X171058095Y-56757142D01*
X171010476Y-56804761D01*
X170915238Y-56852380D01*
X170677142Y-56852380D01*
X170581904Y-56804761D01*
X170534285Y-56757142D01*
%TO.C,R64*%
X76414642Y-89182380D02*
X76081309Y-88706190D01*
X75843214Y-89182380D02*
X75843214Y-88182380D01*
X76224166Y-88182380D01*
X76319404Y-88230000D01*
X76367023Y-88277619D01*
X76414642Y-88372857D01*
X76414642Y-88515714D01*
X76367023Y-88610952D01*
X76319404Y-88658571D01*
X76224166Y-88706190D01*
X75843214Y-88706190D01*
X77271785Y-88182380D02*
X77081309Y-88182380D01*
X76986071Y-88230000D01*
X76938452Y-88277619D01*
X76843214Y-88420476D01*
X76795595Y-88610952D01*
X76795595Y-88991904D01*
X76843214Y-89087142D01*
X76890833Y-89134761D01*
X76986071Y-89182380D01*
X77176547Y-89182380D01*
X77271785Y-89134761D01*
X77319404Y-89087142D01*
X77367023Y-88991904D01*
X77367023Y-88753809D01*
X77319404Y-88658571D01*
X77271785Y-88610952D01*
X77176547Y-88563333D01*
X76986071Y-88563333D01*
X76890833Y-88610952D01*
X76843214Y-88658571D01*
X76795595Y-88753809D01*
X78224166Y-88515714D02*
X78224166Y-89182380D01*
X77986071Y-88134761D02*
X77747976Y-88849047D01*
X78367023Y-88849047D01*
%TO.C,R48*%
X109597142Y-139442380D02*
X109263809Y-138966190D01*
X109025714Y-139442380D02*
X109025714Y-138442380D01*
X109406666Y-138442380D01*
X109501904Y-138490000D01*
X109549523Y-138537619D01*
X109597142Y-138632857D01*
X109597142Y-138775714D01*
X109549523Y-138870952D01*
X109501904Y-138918571D01*
X109406666Y-138966190D01*
X109025714Y-138966190D01*
X110454285Y-138775714D02*
X110454285Y-139442380D01*
X110216190Y-138394761D02*
X109978095Y-139109047D01*
X110597142Y-139109047D01*
X111120952Y-138870952D02*
X111025714Y-138823333D01*
X110978095Y-138775714D01*
X110930476Y-138680476D01*
X110930476Y-138632857D01*
X110978095Y-138537619D01*
X111025714Y-138490000D01*
X111120952Y-138442380D01*
X111311428Y-138442380D01*
X111406666Y-138490000D01*
X111454285Y-138537619D01*
X111501904Y-138632857D01*
X111501904Y-138680476D01*
X111454285Y-138775714D01*
X111406666Y-138823333D01*
X111311428Y-138870952D01*
X111120952Y-138870952D01*
X111025714Y-138918571D01*
X110978095Y-138966190D01*
X110930476Y-139061428D01*
X110930476Y-139251904D01*
X110978095Y-139347142D01*
X111025714Y-139394761D01*
X111120952Y-139442380D01*
X111311428Y-139442380D01*
X111406666Y-139394761D01*
X111454285Y-139347142D01*
X111501904Y-139251904D01*
X111501904Y-139061428D01*
X111454285Y-138966190D01*
X111406666Y-138918571D01*
X111311428Y-138870952D01*
%TO.C,R16*%
X76557142Y-147941180D02*
X76223809Y-147464990D01*
X75985714Y-147941180D02*
X75985714Y-146941180D01*
X76366666Y-146941180D01*
X76461904Y-146988800D01*
X76509523Y-147036419D01*
X76557142Y-147131657D01*
X76557142Y-147274514D01*
X76509523Y-147369752D01*
X76461904Y-147417371D01*
X76366666Y-147464990D01*
X75985714Y-147464990D01*
X77509523Y-147941180D02*
X76938095Y-147941180D01*
X77223809Y-147941180D02*
X77223809Y-146941180D01*
X77128571Y-147084038D01*
X77033333Y-147179276D01*
X76938095Y-147226895D01*
X78366666Y-146941180D02*
X78176190Y-146941180D01*
X78080952Y-146988800D01*
X78033333Y-147036419D01*
X77938095Y-147179276D01*
X77890476Y-147369752D01*
X77890476Y-147750704D01*
X77938095Y-147845942D01*
X77985714Y-147893561D01*
X78080952Y-147941180D01*
X78271428Y-147941180D01*
X78366666Y-147893561D01*
X78414285Y-147845942D01*
X78461904Y-147750704D01*
X78461904Y-147512609D01*
X78414285Y-147417371D01*
X78366666Y-147369752D01*
X78271428Y-147322133D01*
X78080952Y-147322133D01*
X77985714Y-147369752D01*
X77938095Y-147417371D01*
X77890476Y-147512609D01*
%TO.C,R28*%
X69197142Y-147925180D02*
X68863809Y-147448990D01*
X68625714Y-147925180D02*
X68625714Y-146925180D01*
X69006666Y-146925180D01*
X69101904Y-146972800D01*
X69149523Y-147020419D01*
X69197142Y-147115657D01*
X69197142Y-147258514D01*
X69149523Y-147353752D01*
X69101904Y-147401371D01*
X69006666Y-147448990D01*
X68625714Y-147448990D01*
X69578095Y-147020419D02*
X69625714Y-146972800D01*
X69720952Y-146925180D01*
X69959047Y-146925180D01*
X70054285Y-146972800D01*
X70101904Y-147020419D01*
X70149523Y-147115657D01*
X70149523Y-147210895D01*
X70101904Y-147353752D01*
X69530476Y-147925180D01*
X70149523Y-147925180D01*
X70720952Y-147353752D02*
X70625714Y-147306133D01*
X70578095Y-147258514D01*
X70530476Y-147163276D01*
X70530476Y-147115657D01*
X70578095Y-147020419D01*
X70625714Y-146972800D01*
X70720952Y-146925180D01*
X70911428Y-146925180D01*
X71006666Y-146972800D01*
X71054285Y-147020419D01*
X71101904Y-147115657D01*
X71101904Y-147163276D01*
X71054285Y-147258514D01*
X71006666Y-147306133D01*
X70911428Y-147353752D01*
X70720952Y-147353752D01*
X70625714Y-147401371D01*
X70578095Y-147448990D01*
X70530476Y-147544228D01*
X70530476Y-147734704D01*
X70578095Y-147829942D01*
X70625714Y-147877561D01*
X70720952Y-147925180D01*
X70911428Y-147925180D01*
X71006666Y-147877561D01*
X71054285Y-147829942D01*
X71101904Y-147734704D01*
X71101904Y-147544228D01*
X71054285Y-147448990D01*
X71006666Y-147401371D01*
X70911428Y-147353752D01*
%TO.C,R55*%
X69107142Y-100753380D02*
X68773809Y-100277190D01*
X68535714Y-100753380D02*
X68535714Y-99753380D01*
X68916666Y-99753380D01*
X69011904Y-99801000D01*
X69059523Y-99848619D01*
X69107142Y-99943857D01*
X69107142Y-100086714D01*
X69059523Y-100181952D01*
X69011904Y-100229571D01*
X68916666Y-100277190D01*
X68535714Y-100277190D01*
X70011904Y-99753380D02*
X69535714Y-99753380D01*
X69488095Y-100229571D01*
X69535714Y-100181952D01*
X69630952Y-100134333D01*
X69869047Y-100134333D01*
X69964285Y-100181952D01*
X70011904Y-100229571D01*
X70059523Y-100324809D01*
X70059523Y-100562904D01*
X70011904Y-100658142D01*
X69964285Y-100705761D01*
X69869047Y-100753380D01*
X69630952Y-100753380D01*
X69535714Y-100705761D01*
X69488095Y-100658142D01*
X70964285Y-99753380D02*
X70488095Y-99753380D01*
X70440476Y-100229571D01*
X70488095Y-100181952D01*
X70583333Y-100134333D01*
X70821428Y-100134333D01*
X70916666Y-100181952D01*
X70964285Y-100229571D01*
X71011904Y-100324809D01*
X71011904Y-100562904D01*
X70964285Y-100658142D01*
X70916666Y-100705761D01*
X70821428Y-100753380D01*
X70583333Y-100753380D01*
X70488095Y-100705761D01*
X70440476Y-100658142D01*
%TO.C,R42*%
X76447142Y-110928180D02*
X76113809Y-110451990D01*
X75875714Y-110928180D02*
X75875714Y-109928180D01*
X76256666Y-109928180D01*
X76351904Y-109975800D01*
X76399523Y-110023419D01*
X76447142Y-110118657D01*
X76447142Y-110261514D01*
X76399523Y-110356752D01*
X76351904Y-110404371D01*
X76256666Y-110451990D01*
X75875714Y-110451990D01*
X77304285Y-110261514D02*
X77304285Y-110928180D01*
X77066190Y-109880561D02*
X76828095Y-110594847D01*
X77447142Y-110594847D01*
X77780476Y-110023419D02*
X77828095Y-109975800D01*
X77923333Y-109928180D01*
X78161428Y-109928180D01*
X78256666Y-109975800D01*
X78304285Y-110023419D01*
X78351904Y-110118657D01*
X78351904Y-110213895D01*
X78304285Y-110356752D01*
X77732857Y-110928180D01*
X78351904Y-110928180D01*
%TO.C,R18*%
X76557142Y-137806580D02*
X76223809Y-137330390D01*
X75985714Y-137806580D02*
X75985714Y-136806580D01*
X76366666Y-136806580D01*
X76461904Y-136854200D01*
X76509523Y-136901819D01*
X76557142Y-136997057D01*
X76557142Y-137139914D01*
X76509523Y-137235152D01*
X76461904Y-137282771D01*
X76366666Y-137330390D01*
X75985714Y-137330390D01*
X77509523Y-137806580D02*
X76938095Y-137806580D01*
X77223809Y-137806580D02*
X77223809Y-136806580D01*
X77128571Y-136949438D01*
X77033333Y-137044676D01*
X76938095Y-137092295D01*
X78080952Y-137235152D02*
X77985714Y-137187533D01*
X77938095Y-137139914D01*
X77890476Y-137044676D01*
X77890476Y-136997057D01*
X77938095Y-136901819D01*
X77985714Y-136854200D01*
X78080952Y-136806580D01*
X78271428Y-136806580D01*
X78366666Y-136854200D01*
X78414285Y-136901819D01*
X78461904Y-136997057D01*
X78461904Y-137044676D01*
X78414285Y-137139914D01*
X78366666Y-137187533D01*
X78271428Y-137235152D01*
X78080952Y-137235152D01*
X77985714Y-137282771D01*
X77938095Y-137330390D01*
X77890476Y-137425628D01*
X77890476Y-137616104D01*
X77938095Y-137711342D01*
X77985714Y-137758961D01*
X78080952Y-137806580D01*
X78271428Y-137806580D01*
X78366666Y-137758961D01*
X78414285Y-137711342D01*
X78461904Y-137616104D01*
X78461904Y-137425628D01*
X78414285Y-137330390D01*
X78366666Y-137282771D01*
X78271428Y-137235152D01*
%TO.C,J16*%
X64732380Y-74729523D02*
X65446666Y-74729523D01*
X65589523Y-74777142D01*
X65684761Y-74872380D01*
X65732380Y-75015238D01*
X65732380Y-75110476D01*
X65732380Y-73729523D02*
X65732380Y-74300952D01*
X65732380Y-74015238D02*
X64732380Y-74015238D01*
X64875238Y-74110476D01*
X64970476Y-74205714D01*
X65018095Y-74300952D01*
X64732380Y-72872380D02*
X64732380Y-73062857D01*
X64780000Y-73158095D01*
X64827619Y-73205714D01*
X64970476Y-73300952D01*
X65160952Y-73348571D01*
X65541904Y-73348571D01*
X65637142Y-73300952D01*
X65684761Y-73253333D01*
X65732380Y-73158095D01*
X65732380Y-72967619D01*
X65684761Y-72872380D01*
X65637142Y-72824761D01*
X65541904Y-72777142D01*
X65303809Y-72777142D01*
X65208571Y-72824761D01*
X65160952Y-72872380D01*
X65113333Y-72967619D01*
X65113333Y-73158095D01*
X65160952Y-73253333D01*
X65208571Y-73300952D01*
X65303809Y-73348571D01*
%TO.C,U1*%
X170808095Y-37672380D02*
X170808095Y-38481904D01*
X170855714Y-38577142D01*
X170903333Y-38624761D01*
X170998571Y-38672380D01*
X171189047Y-38672380D01*
X171284285Y-38624761D01*
X171331904Y-38577142D01*
X171379523Y-38481904D01*
X171379523Y-37672380D01*
X172379523Y-38672380D02*
X171808095Y-38672380D01*
X172093809Y-38672380D02*
X172093809Y-37672380D01*
X171998571Y-37815238D01*
X171903333Y-37910476D01*
X171808095Y-37958095D01*
%TO.C,R87*%
X110397142Y-56932380D02*
X110063809Y-56456190D01*
X109825714Y-56932380D02*
X109825714Y-55932380D01*
X110206666Y-55932380D01*
X110301904Y-55980000D01*
X110349523Y-56027619D01*
X110397142Y-56122857D01*
X110397142Y-56265714D01*
X110349523Y-56360952D01*
X110301904Y-56408571D01*
X110206666Y-56456190D01*
X109825714Y-56456190D01*
X110968571Y-56360952D02*
X110873333Y-56313333D01*
X110825714Y-56265714D01*
X110778095Y-56170476D01*
X110778095Y-56122857D01*
X110825714Y-56027619D01*
X110873333Y-55980000D01*
X110968571Y-55932380D01*
X111159047Y-55932380D01*
X111254285Y-55980000D01*
X111301904Y-56027619D01*
X111349523Y-56122857D01*
X111349523Y-56170476D01*
X111301904Y-56265714D01*
X111254285Y-56313333D01*
X111159047Y-56360952D01*
X110968571Y-56360952D01*
X110873333Y-56408571D01*
X110825714Y-56456190D01*
X110778095Y-56551428D01*
X110778095Y-56741904D01*
X110825714Y-56837142D01*
X110873333Y-56884761D01*
X110968571Y-56932380D01*
X111159047Y-56932380D01*
X111254285Y-56884761D01*
X111301904Y-56837142D01*
X111349523Y-56741904D01*
X111349523Y-56551428D01*
X111301904Y-56456190D01*
X111254285Y-56408571D01*
X111159047Y-56360952D01*
X111682857Y-55932380D02*
X112349523Y-55932380D01*
X111920952Y-56932380D01*
%TO.C,J1*%
X205267380Y-141038333D02*
X205981666Y-141038333D01*
X206124523Y-141085952D01*
X206219761Y-141181190D01*
X206267380Y-141324047D01*
X206267380Y-141419285D01*
X206267380Y-140038333D02*
X206267380Y-140609761D01*
X206267380Y-140324047D02*
X205267380Y-140324047D01*
X205410238Y-140419285D01*
X205505476Y-140514523D01*
X205553095Y-140609761D01*
%TO.C,R90*%
X110397142Y-46772380D02*
X110063809Y-46296190D01*
X109825714Y-46772380D02*
X109825714Y-45772380D01*
X110206666Y-45772380D01*
X110301904Y-45820000D01*
X110349523Y-45867619D01*
X110397142Y-45962857D01*
X110397142Y-46105714D01*
X110349523Y-46200952D01*
X110301904Y-46248571D01*
X110206666Y-46296190D01*
X109825714Y-46296190D01*
X110873333Y-46772380D02*
X111063809Y-46772380D01*
X111159047Y-46724761D01*
X111206666Y-46677142D01*
X111301904Y-46534285D01*
X111349523Y-46343809D01*
X111349523Y-45962857D01*
X111301904Y-45867619D01*
X111254285Y-45820000D01*
X111159047Y-45772380D01*
X110968571Y-45772380D01*
X110873333Y-45820000D01*
X110825714Y-45867619D01*
X110778095Y-45962857D01*
X110778095Y-46200952D01*
X110825714Y-46296190D01*
X110873333Y-46343809D01*
X110968571Y-46391428D01*
X111159047Y-46391428D01*
X111254285Y-46343809D01*
X111301904Y-46296190D01*
X111349523Y-46200952D01*
X111968571Y-45772380D02*
X112063809Y-45772380D01*
X112159047Y-45820000D01*
X112206666Y-45867619D01*
X112254285Y-45962857D01*
X112301904Y-46153333D01*
X112301904Y-46391428D01*
X112254285Y-46581904D01*
X112206666Y-46677142D01*
X112159047Y-46724761D01*
X112063809Y-46772380D01*
X111968571Y-46772380D01*
X111873333Y-46724761D01*
X111825714Y-46677142D01*
X111778095Y-46581904D01*
X111730476Y-46391428D01*
X111730476Y-46153333D01*
X111778095Y-45962857D01*
X111825714Y-45867619D01*
X111873333Y-45820000D01*
X111968571Y-45772380D01*
%TO.C,R106*%
X68020952Y-52122380D02*
X67687619Y-51646190D01*
X67449523Y-52122380D02*
X67449523Y-51122380D01*
X67830476Y-51122380D01*
X67925714Y-51170000D01*
X67973333Y-51217619D01*
X68020952Y-51312857D01*
X68020952Y-51455714D01*
X67973333Y-51550952D01*
X67925714Y-51598571D01*
X67830476Y-51646190D01*
X67449523Y-51646190D01*
X68973333Y-52122380D02*
X68401904Y-52122380D01*
X68687619Y-52122380D02*
X68687619Y-51122380D01*
X68592380Y-51265238D01*
X68497142Y-51360476D01*
X68401904Y-51408095D01*
X69592380Y-51122380D02*
X69687619Y-51122380D01*
X69782857Y-51170000D01*
X69830476Y-51217619D01*
X69878095Y-51312857D01*
X69925714Y-51503333D01*
X69925714Y-51741428D01*
X69878095Y-51931904D01*
X69830476Y-52027142D01*
X69782857Y-52074761D01*
X69687619Y-52122380D01*
X69592380Y-52122380D01*
X69497142Y-52074761D01*
X69449523Y-52027142D01*
X69401904Y-51931904D01*
X69354285Y-51741428D01*
X69354285Y-51503333D01*
X69401904Y-51312857D01*
X69449523Y-51217619D01*
X69497142Y-51170000D01*
X69592380Y-51122380D01*
X70782857Y-51122380D02*
X70592380Y-51122380D01*
X70497142Y-51170000D01*
X70449523Y-51217619D01*
X70354285Y-51360476D01*
X70306666Y-51550952D01*
X70306666Y-51931904D01*
X70354285Y-52027142D01*
X70401904Y-52074761D01*
X70497142Y-52122380D01*
X70687619Y-52122380D01*
X70782857Y-52074761D01*
X70830476Y-52027142D01*
X70878095Y-51931904D01*
X70878095Y-51693809D01*
X70830476Y-51598571D01*
X70782857Y-51550952D01*
X70687619Y-51503333D01*
X70497142Y-51503333D01*
X70401904Y-51550952D01*
X70354285Y-51598571D01*
X70306666Y-51693809D01*
%TO.C,R21*%
X107372142Y-94892380D02*
X107038809Y-94416190D01*
X106800714Y-94892380D02*
X106800714Y-93892380D01*
X107181666Y-93892380D01*
X107276904Y-93940000D01*
X107324523Y-93987619D01*
X107372142Y-94082857D01*
X107372142Y-94225714D01*
X107324523Y-94320952D01*
X107276904Y-94368571D01*
X107181666Y-94416190D01*
X106800714Y-94416190D01*
X107753095Y-93987619D02*
X107800714Y-93940000D01*
X107895952Y-93892380D01*
X108134047Y-93892380D01*
X108229285Y-93940000D01*
X108276904Y-93987619D01*
X108324523Y-94082857D01*
X108324523Y-94178095D01*
X108276904Y-94320952D01*
X107705476Y-94892380D01*
X108324523Y-94892380D01*
X109276904Y-94892380D02*
X108705476Y-94892380D01*
X108991190Y-94892380D02*
X108991190Y-93892380D01*
X108895952Y-94035238D01*
X108800714Y-94130476D01*
X108705476Y-94178095D01*
%TO.C,R3*%
X218032380Y-93916666D02*
X217556190Y-94250000D01*
X218032380Y-94488095D02*
X217032380Y-94488095D01*
X217032380Y-94107142D01*
X217080000Y-94011904D01*
X217127619Y-93964285D01*
X217222857Y-93916666D01*
X217365714Y-93916666D01*
X217460952Y-93964285D01*
X217508571Y-94011904D01*
X217556190Y-94107142D01*
X217556190Y-94488095D01*
X217032380Y-93583333D02*
X217032380Y-92964285D01*
X217413333Y-93297619D01*
X217413333Y-93154761D01*
X217460952Y-93059523D01*
X217508571Y-93011904D01*
X217603809Y-92964285D01*
X217841904Y-92964285D01*
X217937142Y-93011904D01*
X217984761Y-93059523D01*
X218032380Y-93154761D01*
X218032380Y-93440476D01*
X217984761Y-93535714D01*
X217937142Y-93583333D01*
%TO.C,R94*%
X76489642Y-52112380D02*
X76156309Y-51636190D01*
X75918214Y-52112380D02*
X75918214Y-51112380D01*
X76299166Y-51112380D01*
X76394404Y-51160000D01*
X76442023Y-51207619D01*
X76489642Y-51302857D01*
X76489642Y-51445714D01*
X76442023Y-51540952D01*
X76394404Y-51588571D01*
X76299166Y-51636190D01*
X75918214Y-51636190D01*
X76965833Y-52112380D02*
X77156309Y-52112380D01*
X77251547Y-52064761D01*
X77299166Y-52017142D01*
X77394404Y-51874285D01*
X77442023Y-51683809D01*
X77442023Y-51302857D01*
X77394404Y-51207619D01*
X77346785Y-51160000D01*
X77251547Y-51112380D01*
X77061071Y-51112380D01*
X76965833Y-51160000D01*
X76918214Y-51207619D01*
X76870595Y-51302857D01*
X76870595Y-51540952D01*
X76918214Y-51636190D01*
X76965833Y-51683809D01*
X77061071Y-51731428D01*
X77251547Y-51731428D01*
X77346785Y-51683809D01*
X77394404Y-51636190D01*
X77442023Y-51540952D01*
X78299166Y-51445714D02*
X78299166Y-52112380D01*
X78061071Y-51064761D02*
X77822976Y-51779047D01*
X78442023Y-51779047D01*
%TO.C,R17*%
X76557142Y-142861180D02*
X76223809Y-142384990D01*
X75985714Y-142861180D02*
X75985714Y-141861180D01*
X76366666Y-141861180D01*
X76461904Y-141908800D01*
X76509523Y-141956419D01*
X76557142Y-142051657D01*
X76557142Y-142194514D01*
X76509523Y-142289752D01*
X76461904Y-142337371D01*
X76366666Y-142384990D01*
X75985714Y-142384990D01*
X77509523Y-142861180D02*
X76938095Y-142861180D01*
X77223809Y-142861180D02*
X77223809Y-141861180D01*
X77128571Y-142004038D01*
X77033333Y-142099276D01*
X76938095Y-142146895D01*
X77842857Y-141861180D02*
X78509523Y-141861180D01*
X78080952Y-142861180D01*
%TO.C,J10*%
X147597380Y-96464523D02*
X148311666Y-96464523D01*
X148454523Y-96512142D01*
X148549761Y-96607380D01*
X148597380Y-96750238D01*
X148597380Y-96845476D01*
X148597380Y-95464523D02*
X148597380Y-96035952D01*
X148597380Y-95750238D02*
X147597380Y-95750238D01*
X147740238Y-95845476D01*
X147835476Y-95940714D01*
X147883095Y-96035952D01*
X147597380Y-94845476D02*
X147597380Y-94750238D01*
X147645000Y-94655000D01*
X147692619Y-94607380D01*
X147787857Y-94559761D01*
X147978333Y-94512142D01*
X148216428Y-94512142D01*
X148406904Y-94559761D01*
X148502142Y-94607380D01*
X148549761Y-94655000D01*
X148597380Y-94750238D01*
X148597380Y-94845476D01*
X148549761Y-94940714D01*
X148502142Y-94988333D01*
X148406904Y-95035952D01*
X148216428Y-95083571D01*
X147978333Y-95083571D01*
X147787857Y-95035952D01*
X147692619Y-94988333D01*
X147645000Y-94940714D01*
X147597380Y-94845476D01*
%TO.C,J13*%
X64872380Y-107109523D02*
X65586666Y-107109523D01*
X65729523Y-107157142D01*
X65824761Y-107252380D01*
X65872380Y-107395238D01*
X65872380Y-107490476D01*
X65872380Y-106109523D02*
X65872380Y-106680952D01*
X65872380Y-106395238D02*
X64872380Y-106395238D01*
X65015238Y-106490476D01*
X65110476Y-106585714D01*
X65158095Y-106680952D01*
X64872380Y-105776190D02*
X64872380Y-105157142D01*
X65253333Y-105490476D01*
X65253333Y-105347619D01*
X65300952Y-105252380D01*
X65348571Y-105204761D01*
X65443809Y-105157142D01*
X65681904Y-105157142D01*
X65777142Y-105204761D01*
X65824761Y-105252380D01*
X65872380Y-105347619D01*
X65872380Y-105633333D01*
X65824761Y-105728571D01*
X65777142Y-105776190D01*
%TO.C,TP1*%
X191088095Y-44234380D02*
X191659523Y-44234380D01*
X191373809Y-45234380D02*
X191373809Y-44234380D01*
X191992857Y-45234380D02*
X191992857Y-44234380D01*
X192373809Y-44234380D01*
X192469047Y-44282000D01*
X192516666Y-44329619D01*
X192564285Y-44424857D01*
X192564285Y-44567714D01*
X192516666Y-44662952D01*
X192469047Y-44710571D01*
X192373809Y-44758190D01*
X191992857Y-44758190D01*
X193516666Y-45234380D02*
X192945238Y-45234380D01*
X193230952Y-45234380D02*
X193230952Y-44234380D01*
X193135714Y-44377238D01*
X193040476Y-44472476D01*
X192945238Y-44520095D01*
%TO.C,H2*%
X84238095Y-148632380D02*
X84238095Y-147632380D01*
X84238095Y-148108571D02*
X84809523Y-148108571D01*
X84809523Y-148632380D02*
X84809523Y-147632380D01*
X85238095Y-147727619D02*
X85285714Y-147680000D01*
X85380952Y-147632380D01*
X85619047Y-147632380D01*
X85714285Y-147680000D01*
X85761904Y-147727619D01*
X85809523Y-147822857D01*
X85809523Y-147918095D01*
X85761904Y-148060952D01*
X85190476Y-148632380D01*
X85809523Y-148632380D01*
%TO.C,R59*%
X102067142Y-144502380D02*
X101733809Y-144026190D01*
X101495714Y-144502380D02*
X101495714Y-143502380D01*
X101876666Y-143502380D01*
X101971904Y-143550000D01*
X102019523Y-143597619D01*
X102067142Y-143692857D01*
X102067142Y-143835714D01*
X102019523Y-143930952D01*
X101971904Y-143978571D01*
X101876666Y-144026190D01*
X101495714Y-144026190D01*
X102971904Y-143502380D02*
X102495714Y-143502380D01*
X102448095Y-143978571D01*
X102495714Y-143930952D01*
X102590952Y-143883333D01*
X102829047Y-143883333D01*
X102924285Y-143930952D01*
X102971904Y-143978571D01*
X103019523Y-144073809D01*
X103019523Y-144311904D01*
X102971904Y-144407142D01*
X102924285Y-144454761D01*
X102829047Y-144502380D01*
X102590952Y-144502380D01*
X102495714Y-144454761D01*
X102448095Y-144407142D01*
X103495714Y-144502380D02*
X103686190Y-144502380D01*
X103781428Y-144454761D01*
X103829047Y-144407142D01*
X103924285Y-144264285D01*
X103971904Y-144073809D01*
X103971904Y-143692857D01*
X103924285Y-143597619D01*
X103876666Y-143550000D01*
X103781428Y-143502380D01*
X103590952Y-143502380D01*
X103495714Y-143550000D01*
X103448095Y-143597619D01*
X103400476Y-143692857D01*
X103400476Y-143930952D01*
X103448095Y-144026190D01*
X103495714Y-144073809D01*
X103590952Y-144121428D01*
X103781428Y-144121428D01*
X103876666Y-144073809D01*
X103924285Y-144026190D01*
X103971904Y-143930952D01*
%TO.C,R107*%
X68020952Y-47022380D02*
X67687619Y-46546190D01*
X67449523Y-47022380D02*
X67449523Y-46022380D01*
X67830476Y-46022380D01*
X67925714Y-46070000D01*
X67973333Y-46117619D01*
X68020952Y-46212857D01*
X68020952Y-46355714D01*
X67973333Y-46450952D01*
X67925714Y-46498571D01*
X67830476Y-46546190D01*
X67449523Y-46546190D01*
X68973333Y-47022380D02*
X68401904Y-47022380D01*
X68687619Y-47022380D02*
X68687619Y-46022380D01*
X68592380Y-46165238D01*
X68497142Y-46260476D01*
X68401904Y-46308095D01*
X69592380Y-46022380D02*
X69687619Y-46022380D01*
X69782857Y-46070000D01*
X69830476Y-46117619D01*
X69878095Y-46212857D01*
X69925714Y-46403333D01*
X69925714Y-46641428D01*
X69878095Y-46831904D01*
X69830476Y-46927142D01*
X69782857Y-46974761D01*
X69687619Y-47022380D01*
X69592380Y-47022380D01*
X69497142Y-46974761D01*
X69449523Y-46927142D01*
X69401904Y-46831904D01*
X69354285Y-46641428D01*
X69354285Y-46403333D01*
X69401904Y-46212857D01*
X69449523Y-46117619D01*
X69497142Y-46070000D01*
X69592380Y-46022380D01*
X70259047Y-46022380D02*
X70925714Y-46022380D01*
X70497142Y-47022380D01*
%TO.C,R23*%
X140787142Y-96772380D02*
X140453809Y-96296190D01*
X140215714Y-96772380D02*
X140215714Y-95772380D01*
X140596666Y-95772380D01*
X140691904Y-95820000D01*
X140739523Y-95867619D01*
X140787142Y-95962857D01*
X140787142Y-96105714D01*
X140739523Y-96200952D01*
X140691904Y-96248571D01*
X140596666Y-96296190D01*
X140215714Y-96296190D01*
X141168095Y-95867619D02*
X141215714Y-95820000D01*
X141310952Y-95772380D01*
X141549047Y-95772380D01*
X141644285Y-95820000D01*
X141691904Y-95867619D01*
X141739523Y-95962857D01*
X141739523Y-96058095D01*
X141691904Y-96200952D01*
X141120476Y-96772380D01*
X141739523Y-96772380D01*
X142072857Y-95772380D02*
X142691904Y-95772380D01*
X142358571Y-96153333D01*
X142501428Y-96153333D01*
X142596666Y-96200952D01*
X142644285Y-96248571D01*
X142691904Y-96343809D01*
X142691904Y-96581904D01*
X142644285Y-96677142D01*
X142596666Y-96724761D01*
X142501428Y-96772380D01*
X142215714Y-96772380D01*
X142120476Y-96724761D01*
X142072857Y-96677142D01*
%TO.C,R103*%
X102150952Y-36622380D02*
X101817619Y-36146190D01*
X101579523Y-36622380D02*
X101579523Y-35622380D01*
X101960476Y-35622380D01*
X102055714Y-35670000D01*
X102103333Y-35717619D01*
X102150952Y-35812857D01*
X102150952Y-35955714D01*
X102103333Y-36050952D01*
X102055714Y-36098571D01*
X101960476Y-36146190D01*
X101579523Y-36146190D01*
X103103333Y-36622380D02*
X102531904Y-36622380D01*
X102817619Y-36622380D02*
X102817619Y-35622380D01*
X102722380Y-35765238D01*
X102627142Y-35860476D01*
X102531904Y-35908095D01*
X103722380Y-35622380D02*
X103817619Y-35622380D01*
X103912857Y-35670000D01*
X103960476Y-35717619D01*
X104008095Y-35812857D01*
X104055714Y-36003333D01*
X104055714Y-36241428D01*
X104008095Y-36431904D01*
X103960476Y-36527142D01*
X103912857Y-36574761D01*
X103817619Y-36622380D01*
X103722380Y-36622380D01*
X103627142Y-36574761D01*
X103579523Y-36527142D01*
X103531904Y-36431904D01*
X103484285Y-36241428D01*
X103484285Y-36003333D01*
X103531904Y-35812857D01*
X103579523Y-35717619D01*
X103627142Y-35670000D01*
X103722380Y-35622380D01*
X104389047Y-35622380D02*
X105008095Y-35622380D01*
X104674761Y-36003333D01*
X104817619Y-36003333D01*
X104912857Y-36050952D01*
X104960476Y-36098571D01*
X105008095Y-36193809D01*
X105008095Y-36431904D01*
X104960476Y-36527142D01*
X104912857Y-36574761D01*
X104817619Y-36622380D01*
X104531904Y-36622380D01*
X104436666Y-36574761D01*
X104389047Y-36527142D01*
%TO.C,R54*%
X69107142Y-105835780D02*
X68773809Y-105359590D01*
X68535714Y-105835780D02*
X68535714Y-104835780D01*
X68916666Y-104835780D01*
X69011904Y-104883400D01*
X69059523Y-104931019D01*
X69107142Y-105026257D01*
X69107142Y-105169114D01*
X69059523Y-105264352D01*
X69011904Y-105311971D01*
X68916666Y-105359590D01*
X68535714Y-105359590D01*
X70011904Y-104835780D02*
X69535714Y-104835780D01*
X69488095Y-105311971D01*
X69535714Y-105264352D01*
X69630952Y-105216733D01*
X69869047Y-105216733D01*
X69964285Y-105264352D01*
X70011904Y-105311971D01*
X70059523Y-105407209D01*
X70059523Y-105645304D01*
X70011904Y-105740542D01*
X69964285Y-105788161D01*
X69869047Y-105835780D01*
X69630952Y-105835780D01*
X69535714Y-105788161D01*
X69488095Y-105740542D01*
X70916666Y-105169114D02*
X70916666Y-105835780D01*
X70678571Y-104788161D02*
X70440476Y-105502447D01*
X71059523Y-105502447D01*
%TO.C,C2*%
X159403333Y-41837142D02*
X159355714Y-41884761D01*
X159212857Y-41932380D01*
X159117619Y-41932380D01*
X158974761Y-41884761D01*
X158879523Y-41789523D01*
X158831904Y-41694285D01*
X158784285Y-41503809D01*
X158784285Y-41360952D01*
X158831904Y-41170476D01*
X158879523Y-41075238D01*
X158974761Y-40980000D01*
X159117619Y-40932380D01*
X159212857Y-40932380D01*
X159355714Y-40980000D01*
X159403333Y-41027619D01*
X159784285Y-41027619D02*
X159831904Y-40980000D01*
X159927142Y-40932380D01*
X160165238Y-40932380D01*
X160260476Y-40980000D01*
X160308095Y-41027619D01*
X160355714Y-41122857D01*
X160355714Y-41218095D01*
X160308095Y-41360952D01*
X159736666Y-41932380D01*
X160355714Y-41932380D01*
%TO.C,R32*%
X69197142Y-127605180D02*
X68863809Y-127128990D01*
X68625714Y-127605180D02*
X68625714Y-126605180D01*
X69006666Y-126605180D01*
X69101904Y-126652800D01*
X69149523Y-126700419D01*
X69197142Y-126795657D01*
X69197142Y-126938514D01*
X69149523Y-127033752D01*
X69101904Y-127081371D01*
X69006666Y-127128990D01*
X68625714Y-127128990D01*
X69530476Y-126605180D02*
X70149523Y-126605180D01*
X69816190Y-126986133D01*
X69959047Y-126986133D01*
X70054285Y-127033752D01*
X70101904Y-127081371D01*
X70149523Y-127176609D01*
X70149523Y-127414704D01*
X70101904Y-127509942D01*
X70054285Y-127557561D01*
X69959047Y-127605180D01*
X69673333Y-127605180D01*
X69578095Y-127557561D01*
X69530476Y-127509942D01*
X70530476Y-126700419D02*
X70578095Y-126652800D01*
X70673333Y-126605180D01*
X70911428Y-126605180D01*
X71006666Y-126652800D01*
X71054285Y-126700419D01*
X71101904Y-126795657D01*
X71101904Y-126890895D01*
X71054285Y-127033752D01*
X70482857Y-127605180D01*
X71101904Y-127605180D01*
%TO.C,R57*%
X102067142Y-154662380D02*
X101733809Y-154186190D01*
X101495714Y-154662380D02*
X101495714Y-153662380D01*
X101876666Y-153662380D01*
X101971904Y-153710000D01*
X102019523Y-153757619D01*
X102067142Y-153852857D01*
X102067142Y-153995714D01*
X102019523Y-154090952D01*
X101971904Y-154138571D01*
X101876666Y-154186190D01*
X101495714Y-154186190D01*
X102971904Y-153662380D02*
X102495714Y-153662380D01*
X102448095Y-154138571D01*
X102495714Y-154090952D01*
X102590952Y-154043333D01*
X102829047Y-154043333D01*
X102924285Y-154090952D01*
X102971904Y-154138571D01*
X103019523Y-154233809D01*
X103019523Y-154471904D01*
X102971904Y-154567142D01*
X102924285Y-154614761D01*
X102829047Y-154662380D01*
X102590952Y-154662380D01*
X102495714Y-154614761D01*
X102448095Y-154567142D01*
X103352857Y-153662380D02*
X104019523Y-153662380D01*
X103590952Y-154662380D01*
%TO.C,C9*%
X184167142Y-75936666D02*
X184214761Y-75984285D01*
X184262380Y-76127142D01*
X184262380Y-76222380D01*
X184214761Y-76365238D01*
X184119523Y-76460476D01*
X184024285Y-76508095D01*
X183833809Y-76555714D01*
X183690952Y-76555714D01*
X183500476Y-76508095D01*
X183405238Y-76460476D01*
X183310000Y-76365238D01*
X183262380Y-76222380D01*
X183262380Y-76127142D01*
X183310000Y-75984285D01*
X183357619Y-75936666D01*
X184262380Y-75460476D02*
X184262380Y-75270000D01*
X184214761Y-75174761D01*
X184167142Y-75127142D01*
X184024285Y-75031904D01*
X183833809Y-74984285D01*
X183452857Y-74984285D01*
X183357619Y-75031904D01*
X183310000Y-75079523D01*
X183262380Y-75174761D01*
X183262380Y-75365238D01*
X183310000Y-75460476D01*
X183357619Y-75508095D01*
X183452857Y-75555714D01*
X183690952Y-75555714D01*
X183786190Y-75508095D01*
X183833809Y-75460476D01*
X183881428Y-75365238D01*
X183881428Y-75174761D01*
X183833809Y-75079523D01*
X183786190Y-75031904D01*
X183690952Y-74984285D01*
%TO.C,R8*%
X124448333Y-109762380D02*
X124115000Y-109286190D01*
X123876904Y-109762380D02*
X123876904Y-108762380D01*
X124257857Y-108762380D01*
X124353095Y-108810000D01*
X124400714Y-108857619D01*
X124448333Y-108952857D01*
X124448333Y-109095714D01*
X124400714Y-109190952D01*
X124353095Y-109238571D01*
X124257857Y-109286190D01*
X123876904Y-109286190D01*
X125019761Y-109190952D02*
X124924523Y-109143333D01*
X124876904Y-109095714D01*
X124829285Y-109000476D01*
X124829285Y-108952857D01*
X124876904Y-108857619D01*
X124924523Y-108810000D01*
X125019761Y-108762380D01*
X125210238Y-108762380D01*
X125305476Y-108810000D01*
X125353095Y-108857619D01*
X125400714Y-108952857D01*
X125400714Y-109000476D01*
X125353095Y-109095714D01*
X125305476Y-109143333D01*
X125210238Y-109190952D01*
X125019761Y-109190952D01*
X124924523Y-109238571D01*
X124876904Y-109286190D01*
X124829285Y-109381428D01*
X124829285Y-109571904D01*
X124876904Y-109667142D01*
X124924523Y-109714761D01*
X125019761Y-109762380D01*
X125210238Y-109762380D01*
X125305476Y-109714761D01*
X125353095Y-109667142D01*
X125400714Y-109571904D01*
X125400714Y-109381428D01*
X125353095Y-109286190D01*
X125305476Y-109238571D01*
X125210238Y-109190952D01*
%TO.C,J11*%
X64982380Y-138949523D02*
X65696666Y-138949523D01*
X65839523Y-138997142D01*
X65934761Y-139092380D01*
X65982380Y-139235238D01*
X65982380Y-139330476D01*
X65982380Y-137949523D02*
X65982380Y-138520952D01*
X65982380Y-138235238D02*
X64982380Y-138235238D01*
X65125238Y-138330476D01*
X65220476Y-138425714D01*
X65268095Y-138520952D01*
X65982380Y-136997142D02*
X65982380Y-137568571D01*
X65982380Y-137282857D02*
X64982380Y-137282857D01*
X65125238Y-137378095D01*
X65220476Y-137473333D01*
X65268095Y-137568571D01*
%TO.C,R60*%
X102067142Y-139452380D02*
X101733809Y-138976190D01*
X101495714Y-139452380D02*
X101495714Y-138452380D01*
X101876666Y-138452380D01*
X101971904Y-138500000D01*
X102019523Y-138547619D01*
X102067142Y-138642857D01*
X102067142Y-138785714D01*
X102019523Y-138880952D01*
X101971904Y-138928571D01*
X101876666Y-138976190D01*
X101495714Y-138976190D01*
X102924285Y-138452380D02*
X102733809Y-138452380D01*
X102638571Y-138500000D01*
X102590952Y-138547619D01*
X102495714Y-138690476D01*
X102448095Y-138880952D01*
X102448095Y-139261904D01*
X102495714Y-139357142D01*
X102543333Y-139404761D01*
X102638571Y-139452380D01*
X102829047Y-139452380D01*
X102924285Y-139404761D01*
X102971904Y-139357142D01*
X103019523Y-139261904D01*
X103019523Y-139023809D01*
X102971904Y-138928571D01*
X102924285Y-138880952D01*
X102829047Y-138833333D01*
X102638571Y-138833333D01*
X102543333Y-138880952D01*
X102495714Y-138928571D01*
X102448095Y-139023809D01*
X103638571Y-138452380D02*
X103733809Y-138452380D01*
X103829047Y-138500000D01*
X103876666Y-138547619D01*
X103924285Y-138642857D01*
X103971904Y-138833333D01*
X103971904Y-139071428D01*
X103924285Y-139261904D01*
X103876666Y-139357142D01*
X103829047Y-139404761D01*
X103733809Y-139452380D01*
X103638571Y-139452380D01*
X103543333Y-139404761D01*
X103495714Y-139357142D01*
X103448095Y-139261904D01*
X103400476Y-139071428D01*
X103400476Y-138833333D01*
X103448095Y-138642857D01*
X103495714Y-138547619D01*
X103543333Y-138500000D01*
X103638571Y-138452380D01*
%TO.C,R15*%
X76557142Y-153021180D02*
X76223809Y-152544990D01*
X75985714Y-153021180D02*
X75985714Y-152021180D01*
X76366666Y-152021180D01*
X76461904Y-152068800D01*
X76509523Y-152116419D01*
X76557142Y-152211657D01*
X76557142Y-152354514D01*
X76509523Y-152449752D01*
X76461904Y-152497371D01*
X76366666Y-152544990D01*
X75985714Y-152544990D01*
X77509523Y-153021180D02*
X76938095Y-153021180D01*
X77223809Y-153021180D02*
X77223809Y-152021180D01*
X77128571Y-152164038D01*
X77033333Y-152259276D01*
X76938095Y-152306895D01*
X78414285Y-152021180D02*
X77938095Y-152021180D01*
X77890476Y-152497371D01*
X77938095Y-152449752D01*
X78033333Y-152402133D01*
X78271428Y-152402133D01*
X78366666Y-152449752D01*
X78414285Y-152497371D01*
X78461904Y-152592609D01*
X78461904Y-152830704D01*
X78414285Y-152925942D01*
X78366666Y-152973561D01*
X78271428Y-153021180D01*
X78033333Y-153021180D01*
X77938095Y-152973561D01*
X77890476Y-152925942D01*
%TO.C,C7*%
X189170942Y-75936666D02*
X189218561Y-75984285D01*
X189266180Y-76127142D01*
X189266180Y-76222380D01*
X189218561Y-76365238D01*
X189123323Y-76460476D01*
X189028085Y-76508095D01*
X188837609Y-76555714D01*
X188694752Y-76555714D01*
X188504276Y-76508095D01*
X188409038Y-76460476D01*
X188313800Y-76365238D01*
X188266180Y-76222380D01*
X188266180Y-76127142D01*
X188313800Y-75984285D01*
X188361419Y-75936666D01*
X188266180Y-75603333D02*
X188266180Y-74936666D01*
X189266180Y-75365238D01*
%TO.C,R85*%
X68497142Y-68842380D02*
X68163809Y-68366190D01*
X67925714Y-68842380D02*
X67925714Y-67842380D01*
X68306666Y-67842380D01*
X68401904Y-67890000D01*
X68449523Y-67937619D01*
X68497142Y-68032857D01*
X68497142Y-68175714D01*
X68449523Y-68270952D01*
X68401904Y-68318571D01*
X68306666Y-68366190D01*
X67925714Y-68366190D01*
X69068571Y-68270952D02*
X68973333Y-68223333D01*
X68925714Y-68175714D01*
X68878095Y-68080476D01*
X68878095Y-68032857D01*
X68925714Y-67937619D01*
X68973333Y-67890000D01*
X69068571Y-67842380D01*
X69259047Y-67842380D01*
X69354285Y-67890000D01*
X69401904Y-67937619D01*
X69449523Y-68032857D01*
X69449523Y-68080476D01*
X69401904Y-68175714D01*
X69354285Y-68223333D01*
X69259047Y-68270952D01*
X69068571Y-68270952D01*
X68973333Y-68318571D01*
X68925714Y-68366190D01*
X68878095Y-68461428D01*
X68878095Y-68651904D01*
X68925714Y-68747142D01*
X68973333Y-68794761D01*
X69068571Y-68842380D01*
X69259047Y-68842380D01*
X69354285Y-68794761D01*
X69401904Y-68747142D01*
X69449523Y-68651904D01*
X69449523Y-68461428D01*
X69401904Y-68366190D01*
X69354285Y-68318571D01*
X69259047Y-68270952D01*
X70354285Y-67842380D02*
X69878095Y-67842380D01*
X69830476Y-68318571D01*
X69878095Y-68270952D01*
X69973333Y-68223333D01*
X70211428Y-68223333D01*
X70306666Y-68270952D01*
X70354285Y-68318571D01*
X70401904Y-68413809D01*
X70401904Y-68651904D01*
X70354285Y-68747142D01*
X70306666Y-68794761D01*
X70211428Y-68842380D01*
X69973333Y-68842380D01*
X69878095Y-68794761D01*
X69830476Y-68747142D01*
%TO.C,R50*%
X109597142Y-129262380D02*
X109263809Y-128786190D01*
X109025714Y-129262380D02*
X109025714Y-128262380D01*
X109406666Y-128262380D01*
X109501904Y-128310000D01*
X109549523Y-128357619D01*
X109597142Y-128452857D01*
X109597142Y-128595714D01*
X109549523Y-128690952D01*
X109501904Y-128738571D01*
X109406666Y-128786190D01*
X109025714Y-128786190D01*
X110501904Y-128262380D02*
X110025714Y-128262380D01*
X109978095Y-128738571D01*
X110025714Y-128690952D01*
X110120952Y-128643333D01*
X110359047Y-128643333D01*
X110454285Y-128690952D01*
X110501904Y-128738571D01*
X110549523Y-128833809D01*
X110549523Y-129071904D01*
X110501904Y-129167142D01*
X110454285Y-129214761D01*
X110359047Y-129262380D01*
X110120952Y-129262380D01*
X110025714Y-129214761D01*
X109978095Y-129167142D01*
X111168571Y-128262380D02*
X111263809Y-128262380D01*
X111359047Y-128310000D01*
X111406666Y-128357619D01*
X111454285Y-128452857D01*
X111501904Y-128643333D01*
X111501904Y-128881428D01*
X111454285Y-129071904D01*
X111406666Y-129167142D01*
X111359047Y-129214761D01*
X111263809Y-129262380D01*
X111168571Y-129262380D01*
X111073333Y-129214761D01*
X111025714Y-129167142D01*
X110978095Y-129071904D01*
X110930476Y-128881428D01*
X110930476Y-128643333D01*
X110978095Y-128452857D01*
X111025714Y-128357619D01*
X111073333Y-128310000D01*
X111168571Y-128262380D01*
%TO.C,C10*%
X179163342Y-76412857D02*
X179210961Y-76460476D01*
X179258580Y-76603333D01*
X179258580Y-76698571D01*
X179210961Y-76841428D01*
X179115723Y-76936666D01*
X179020485Y-76984285D01*
X178830009Y-77031904D01*
X178687152Y-77031904D01*
X178496676Y-76984285D01*
X178401438Y-76936666D01*
X178306200Y-76841428D01*
X178258580Y-76698571D01*
X178258580Y-76603333D01*
X178306200Y-76460476D01*
X178353819Y-76412857D01*
X179258580Y-75460476D02*
X179258580Y-76031904D01*
X179258580Y-75746190D02*
X178258580Y-75746190D01*
X178401438Y-75841428D01*
X178496676Y-75936666D01*
X178544295Y-76031904D01*
X178258580Y-74841428D02*
X178258580Y-74746190D01*
X178306200Y-74650952D01*
X178353819Y-74603333D01*
X178449057Y-74555714D01*
X178639533Y-74508095D01*
X178877628Y-74508095D01*
X179068104Y-74555714D01*
X179163342Y-74603333D01*
X179210961Y-74650952D01*
X179258580Y-74746190D01*
X179258580Y-74841428D01*
X179210961Y-74936666D01*
X179163342Y-74984285D01*
X179068104Y-75031904D01*
X178877628Y-75079523D01*
X178639533Y-75079523D01*
X178449057Y-75031904D01*
X178353819Y-74984285D01*
X178306200Y-74936666D01*
X178258580Y-74841428D01*
%TO.C,H1*%
X249938095Y-148632380D02*
X249938095Y-147632380D01*
X249938095Y-148108571D02*
X250509523Y-148108571D01*
X250509523Y-148632380D02*
X250509523Y-147632380D01*
X251509523Y-148632380D02*
X250938095Y-148632380D01*
X251223809Y-148632380D02*
X251223809Y-147632380D01*
X251128571Y-147775238D01*
X251033333Y-147870476D01*
X250938095Y-147918095D01*
%TO.C,R30*%
X69197142Y-137790580D02*
X68863809Y-137314390D01*
X68625714Y-137790580D02*
X68625714Y-136790580D01*
X69006666Y-136790580D01*
X69101904Y-136838200D01*
X69149523Y-136885819D01*
X69197142Y-136981057D01*
X69197142Y-137123914D01*
X69149523Y-137219152D01*
X69101904Y-137266771D01*
X69006666Y-137314390D01*
X68625714Y-137314390D01*
X69530476Y-136790580D02*
X70149523Y-136790580D01*
X69816190Y-137171533D01*
X69959047Y-137171533D01*
X70054285Y-137219152D01*
X70101904Y-137266771D01*
X70149523Y-137362009D01*
X70149523Y-137600104D01*
X70101904Y-137695342D01*
X70054285Y-137742961D01*
X69959047Y-137790580D01*
X69673333Y-137790580D01*
X69578095Y-137742961D01*
X69530476Y-137695342D01*
X70768571Y-136790580D02*
X70863809Y-136790580D01*
X70959047Y-136838200D01*
X71006666Y-136885819D01*
X71054285Y-136981057D01*
X71101904Y-137171533D01*
X71101904Y-137409628D01*
X71054285Y-137600104D01*
X71006666Y-137695342D01*
X70959047Y-137742961D01*
X70863809Y-137790580D01*
X70768571Y-137790580D01*
X70673333Y-137742961D01*
X70625714Y-137695342D01*
X70578095Y-137600104D01*
X70530476Y-137409628D01*
X70530476Y-137171533D01*
X70578095Y-136981057D01*
X70625714Y-136885819D01*
X70673333Y-136838200D01*
X70768571Y-136790580D01*
%TO.C,R62*%
X102067142Y-129272380D02*
X101733809Y-128796190D01*
X101495714Y-129272380D02*
X101495714Y-128272380D01*
X101876666Y-128272380D01*
X101971904Y-128320000D01*
X102019523Y-128367619D01*
X102067142Y-128462857D01*
X102067142Y-128605714D01*
X102019523Y-128700952D01*
X101971904Y-128748571D01*
X101876666Y-128796190D01*
X101495714Y-128796190D01*
X102924285Y-128272380D02*
X102733809Y-128272380D01*
X102638571Y-128320000D01*
X102590952Y-128367619D01*
X102495714Y-128510476D01*
X102448095Y-128700952D01*
X102448095Y-129081904D01*
X102495714Y-129177142D01*
X102543333Y-129224761D01*
X102638571Y-129272380D01*
X102829047Y-129272380D01*
X102924285Y-129224761D01*
X102971904Y-129177142D01*
X103019523Y-129081904D01*
X103019523Y-128843809D01*
X102971904Y-128748571D01*
X102924285Y-128700952D01*
X102829047Y-128653333D01*
X102638571Y-128653333D01*
X102543333Y-128700952D01*
X102495714Y-128748571D01*
X102448095Y-128843809D01*
X103400476Y-128367619D02*
X103448095Y-128320000D01*
X103543333Y-128272380D01*
X103781428Y-128272380D01*
X103876666Y-128320000D01*
X103924285Y-128367619D01*
X103971904Y-128462857D01*
X103971904Y-128558095D01*
X103924285Y-128700952D01*
X103352857Y-129272380D01*
X103971904Y-129272380D01*
%TO.C,R6*%
X190144733Y-69119380D02*
X189811400Y-68643190D01*
X189573304Y-69119380D02*
X189573304Y-68119380D01*
X189954257Y-68119380D01*
X190049495Y-68167000D01*
X190097114Y-68214619D01*
X190144733Y-68309857D01*
X190144733Y-68452714D01*
X190097114Y-68547952D01*
X190049495Y-68595571D01*
X189954257Y-68643190D01*
X189573304Y-68643190D01*
X191001876Y-68119380D02*
X190811400Y-68119380D01*
X190716161Y-68167000D01*
X190668542Y-68214619D01*
X190573304Y-68357476D01*
X190525685Y-68547952D01*
X190525685Y-68928904D01*
X190573304Y-69024142D01*
X190620923Y-69071761D01*
X190716161Y-69119380D01*
X190906638Y-69119380D01*
X191001876Y-69071761D01*
X191049495Y-69024142D01*
X191097114Y-68928904D01*
X191097114Y-68690809D01*
X191049495Y-68595571D01*
X191001876Y-68547952D01*
X190906638Y-68500333D01*
X190716161Y-68500333D01*
X190620923Y-68547952D01*
X190573304Y-68595571D01*
X190525685Y-68690809D01*
%TO.C,R99*%
X102627142Y-56902380D02*
X102293809Y-56426190D01*
X102055714Y-56902380D02*
X102055714Y-55902380D01*
X102436666Y-55902380D01*
X102531904Y-55950000D01*
X102579523Y-55997619D01*
X102627142Y-56092857D01*
X102627142Y-56235714D01*
X102579523Y-56330952D01*
X102531904Y-56378571D01*
X102436666Y-56426190D01*
X102055714Y-56426190D01*
X103103333Y-56902380D02*
X103293809Y-56902380D01*
X103389047Y-56854761D01*
X103436666Y-56807142D01*
X103531904Y-56664285D01*
X103579523Y-56473809D01*
X103579523Y-56092857D01*
X103531904Y-55997619D01*
X103484285Y-55950000D01*
X103389047Y-55902380D01*
X103198571Y-55902380D01*
X103103333Y-55950000D01*
X103055714Y-55997619D01*
X103008095Y-56092857D01*
X103008095Y-56330952D01*
X103055714Y-56426190D01*
X103103333Y-56473809D01*
X103198571Y-56521428D01*
X103389047Y-56521428D01*
X103484285Y-56473809D01*
X103531904Y-56426190D01*
X103579523Y-56330952D01*
X104055714Y-56902380D02*
X104246190Y-56902380D01*
X104341428Y-56854761D01*
X104389047Y-56807142D01*
X104484285Y-56664285D01*
X104531904Y-56473809D01*
X104531904Y-56092857D01*
X104484285Y-55997619D01*
X104436666Y-55950000D01*
X104341428Y-55902380D01*
X104150952Y-55902380D01*
X104055714Y-55950000D01*
X104008095Y-55997619D01*
X103960476Y-56092857D01*
X103960476Y-56330952D01*
X104008095Y-56426190D01*
X104055714Y-56473809D01*
X104150952Y-56521428D01*
X104341428Y-56521428D01*
X104436666Y-56473809D01*
X104484285Y-56426190D01*
X104531904Y-56330952D01*
%TO.C,R20*%
X76557142Y-127621180D02*
X76223809Y-127144990D01*
X75985714Y-127621180D02*
X75985714Y-126621180D01*
X76366666Y-126621180D01*
X76461904Y-126668800D01*
X76509523Y-126716419D01*
X76557142Y-126811657D01*
X76557142Y-126954514D01*
X76509523Y-127049752D01*
X76461904Y-127097371D01*
X76366666Y-127144990D01*
X75985714Y-127144990D01*
X76938095Y-126716419D02*
X76985714Y-126668800D01*
X77080952Y-126621180D01*
X77319047Y-126621180D01*
X77414285Y-126668800D01*
X77461904Y-126716419D01*
X77509523Y-126811657D01*
X77509523Y-126906895D01*
X77461904Y-127049752D01*
X76890476Y-127621180D01*
X77509523Y-127621180D01*
X78128571Y-126621180D02*
X78223809Y-126621180D01*
X78319047Y-126668800D01*
X78366666Y-126716419D01*
X78414285Y-126811657D01*
X78461904Y-127002133D01*
X78461904Y-127240228D01*
X78414285Y-127430704D01*
X78366666Y-127525942D01*
X78319047Y-127573561D01*
X78223809Y-127621180D01*
X78128571Y-127621180D01*
X78033333Y-127573561D01*
X77985714Y-127525942D01*
X77938095Y-127430704D01*
X77890476Y-127240228D01*
X77890476Y-127002133D01*
X77938095Y-126811657D01*
X77985714Y-126716419D01*
X78033333Y-126668800D01*
X78128571Y-126621180D01*
%TO.C,R13*%
X115762142Y-79952380D02*
X115428809Y-79476190D01*
X115190714Y-79952380D02*
X115190714Y-78952380D01*
X115571666Y-78952380D01*
X115666904Y-79000000D01*
X115714523Y-79047619D01*
X115762142Y-79142857D01*
X115762142Y-79285714D01*
X115714523Y-79380952D01*
X115666904Y-79428571D01*
X115571666Y-79476190D01*
X115190714Y-79476190D01*
X116714523Y-79952380D02*
X116143095Y-79952380D01*
X116428809Y-79952380D02*
X116428809Y-78952380D01*
X116333571Y-79095238D01*
X116238333Y-79190476D01*
X116143095Y-79238095D01*
X117047857Y-78952380D02*
X117666904Y-78952380D01*
X117333571Y-79333333D01*
X117476428Y-79333333D01*
X117571666Y-79380952D01*
X117619285Y-79428571D01*
X117666904Y-79523809D01*
X117666904Y-79761904D01*
X117619285Y-79857142D01*
X117571666Y-79904761D01*
X117476428Y-79952380D01*
X117190714Y-79952380D01*
X117095476Y-79904761D01*
X117047857Y-79857142D01*
%TO.C,R61*%
X102067142Y-134342380D02*
X101733809Y-133866190D01*
X101495714Y-134342380D02*
X101495714Y-133342380D01*
X101876666Y-133342380D01*
X101971904Y-133390000D01*
X102019523Y-133437619D01*
X102067142Y-133532857D01*
X102067142Y-133675714D01*
X102019523Y-133770952D01*
X101971904Y-133818571D01*
X101876666Y-133866190D01*
X101495714Y-133866190D01*
X102924285Y-133342380D02*
X102733809Y-133342380D01*
X102638571Y-133390000D01*
X102590952Y-133437619D01*
X102495714Y-133580476D01*
X102448095Y-133770952D01*
X102448095Y-134151904D01*
X102495714Y-134247142D01*
X102543333Y-134294761D01*
X102638571Y-134342380D01*
X102829047Y-134342380D01*
X102924285Y-134294761D01*
X102971904Y-134247142D01*
X103019523Y-134151904D01*
X103019523Y-133913809D01*
X102971904Y-133818571D01*
X102924285Y-133770952D01*
X102829047Y-133723333D01*
X102638571Y-133723333D01*
X102543333Y-133770952D01*
X102495714Y-133818571D01*
X102448095Y-133913809D01*
X103971904Y-134342380D02*
X103400476Y-134342380D01*
X103686190Y-134342380D02*
X103686190Y-133342380D01*
X103590952Y-133485238D01*
X103495714Y-133580476D01*
X103400476Y-133628095D01*
%TO.C,C11*%
X174159542Y-76412857D02*
X174207161Y-76460476D01*
X174254780Y-76603333D01*
X174254780Y-76698571D01*
X174207161Y-76841428D01*
X174111923Y-76936666D01*
X174016685Y-76984285D01*
X173826209Y-77031904D01*
X173683352Y-77031904D01*
X173492876Y-76984285D01*
X173397638Y-76936666D01*
X173302400Y-76841428D01*
X173254780Y-76698571D01*
X173254780Y-76603333D01*
X173302400Y-76460476D01*
X173350019Y-76412857D01*
X174254780Y-75460476D02*
X174254780Y-76031904D01*
X174254780Y-75746190D02*
X173254780Y-75746190D01*
X173397638Y-75841428D01*
X173492876Y-75936666D01*
X173540495Y-76031904D01*
X174254780Y-74508095D02*
X174254780Y-75079523D01*
X174254780Y-74793809D02*
X173254780Y-74793809D01*
X173397638Y-74889047D01*
X173492876Y-74984285D01*
X173540495Y-75079523D01*
%TO.C,R95*%
X76489642Y-47012380D02*
X76156309Y-46536190D01*
X75918214Y-47012380D02*
X75918214Y-46012380D01*
X76299166Y-46012380D01*
X76394404Y-46060000D01*
X76442023Y-46107619D01*
X76489642Y-46202857D01*
X76489642Y-46345714D01*
X76442023Y-46440952D01*
X76394404Y-46488571D01*
X76299166Y-46536190D01*
X75918214Y-46536190D01*
X76965833Y-47012380D02*
X77156309Y-47012380D01*
X77251547Y-46964761D01*
X77299166Y-46917142D01*
X77394404Y-46774285D01*
X77442023Y-46583809D01*
X77442023Y-46202857D01*
X77394404Y-46107619D01*
X77346785Y-46060000D01*
X77251547Y-46012380D01*
X77061071Y-46012380D01*
X76965833Y-46060000D01*
X76918214Y-46107619D01*
X76870595Y-46202857D01*
X76870595Y-46440952D01*
X76918214Y-46536190D01*
X76965833Y-46583809D01*
X77061071Y-46631428D01*
X77251547Y-46631428D01*
X77346785Y-46583809D01*
X77394404Y-46536190D01*
X77442023Y-46440952D01*
X78346785Y-46012380D02*
X77870595Y-46012380D01*
X77822976Y-46488571D01*
X77870595Y-46440952D01*
X77965833Y-46393333D01*
X78203928Y-46393333D01*
X78299166Y-46440952D01*
X78346785Y-46488571D01*
X78394404Y-46583809D01*
X78394404Y-46821904D01*
X78346785Y-46917142D01*
X78299166Y-46964761D01*
X78203928Y-47012380D01*
X77965833Y-47012380D01*
X77870595Y-46964761D01*
X77822976Y-46917142D01*
%TO.C,R71*%
X76414642Y-78972380D02*
X76081309Y-78496190D01*
X75843214Y-78972380D02*
X75843214Y-77972380D01*
X76224166Y-77972380D01*
X76319404Y-78020000D01*
X76367023Y-78067619D01*
X76414642Y-78162857D01*
X76414642Y-78305714D01*
X76367023Y-78400952D01*
X76319404Y-78448571D01*
X76224166Y-78496190D01*
X75843214Y-78496190D01*
X76747976Y-77972380D02*
X77414642Y-77972380D01*
X76986071Y-78972380D01*
X78319404Y-78972380D02*
X77747976Y-78972380D01*
X78033690Y-78972380D02*
X78033690Y-77972380D01*
X77938452Y-78115238D01*
X77843214Y-78210476D01*
X77747976Y-78258095D01*
%TO.C,R53*%
X69107142Y-110928180D02*
X68773809Y-110451990D01*
X68535714Y-110928180D02*
X68535714Y-109928180D01*
X68916666Y-109928180D01*
X69011904Y-109975800D01*
X69059523Y-110023419D01*
X69107142Y-110118657D01*
X69107142Y-110261514D01*
X69059523Y-110356752D01*
X69011904Y-110404371D01*
X68916666Y-110451990D01*
X68535714Y-110451990D01*
X70011904Y-109928180D02*
X69535714Y-109928180D01*
X69488095Y-110404371D01*
X69535714Y-110356752D01*
X69630952Y-110309133D01*
X69869047Y-110309133D01*
X69964285Y-110356752D01*
X70011904Y-110404371D01*
X70059523Y-110499609D01*
X70059523Y-110737704D01*
X70011904Y-110832942D01*
X69964285Y-110880561D01*
X69869047Y-110928180D01*
X69630952Y-110928180D01*
X69535714Y-110880561D01*
X69488095Y-110832942D01*
X70392857Y-109928180D02*
X71011904Y-109928180D01*
X70678571Y-110309133D01*
X70821428Y-110309133D01*
X70916666Y-110356752D01*
X70964285Y-110404371D01*
X71011904Y-110499609D01*
X71011904Y-110737704D01*
X70964285Y-110832942D01*
X70916666Y-110880561D01*
X70821428Y-110928180D01*
X70535714Y-110928180D01*
X70440476Y-110880561D01*
X70392857Y-110832942D01*
%TO.C,J18*%
X64642380Y-41879523D02*
X65356666Y-41879523D01*
X65499523Y-41927142D01*
X65594761Y-42022380D01*
X65642380Y-42165238D01*
X65642380Y-42260476D01*
X65642380Y-40879523D02*
X65642380Y-41450952D01*
X65642380Y-41165238D02*
X64642380Y-41165238D01*
X64785238Y-41260476D01*
X64880476Y-41355714D01*
X64928095Y-41450952D01*
X65070952Y-40308095D02*
X65023333Y-40403333D01*
X64975714Y-40450952D01*
X64880476Y-40498571D01*
X64832857Y-40498571D01*
X64737619Y-40450952D01*
X64690000Y-40403333D01*
X64642380Y-40308095D01*
X64642380Y-40117619D01*
X64690000Y-40022380D01*
X64737619Y-39974761D01*
X64832857Y-39927142D01*
X64880476Y-39927142D01*
X64975714Y-39974761D01*
X65023333Y-40022380D01*
X65070952Y-40117619D01*
X65070952Y-40308095D01*
X65118571Y-40403333D01*
X65166190Y-40450952D01*
X65261428Y-40498571D01*
X65451904Y-40498571D01*
X65547142Y-40450952D01*
X65594761Y-40403333D01*
X65642380Y-40308095D01*
X65642380Y-40117619D01*
X65594761Y-40022380D01*
X65547142Y-39974761D01*
X65451904Y-39927142D01*
X65261428Y-39927142D01*
X65166190Y-39974761D01*
X65118571Y-40022380D01*
X65070952Y-40117619D01*
%TO.C,J4*%
X235267380Y-53838333D02*
X235981666Y-53838333D01*
X236124523Y-53885952D01*
X236219761Y-53981190D01*
X236267380Y-54124047D01*
X236267380Y-54219285D01*
X235600714Y-52933571D02*
X236267380Y-52933571D01*
X235219761Y-53171666D02*
X235934047Y-53409761D01*
X235934047Y-52790714D01*
%TO.C,R91*%
X110397142Y-41662380D02*
X110063809Y-41186190D01*
X109825714Y-41662380D02*
X109825714Y-40662380D01*
X110206666Y-40662380D01*
X110301904Y-40710000D01*
X110349523Y-40757619D01*
X110397142Y-40852857D01*
X110397142Y-40995714D01*
X110349523Y-41090952D01*
X110301904Y-41138571D01*
X110206666Y-41186190D01*
X109825714Y-41186190D01*
X110873333Y-41662380D02*
X111063809Y-41662380D01*
X111159047Y-41614761D01*
X111206666Y-41567142D01*
X111301904Y-41424285D01*
X111349523Y-41233809D01*
X111349523Y-40852857D01*
X111301904Y-40757619D01*
X111254285Y-40710000D01*
X111159047Y-40662380D01*
X110968571Y-40662380D01*
X110873333Y-40710000D01*
X110825714Y-40757619D01*
X110778095Y-40852857D01*
X110778095Y-41090952D01*
X110825714Y-41186190D01*
X110873333Y-41233809D01*
X110968571Y-41281428D01*
X111159047Y-41281428D01*
X111254285Y-41233809D01*
X111301904Y-41186190D01*
X111349523Y-41090952D01*
X112301904Y-41662380D02*
X111730476Y-41662380D01*
X112016190Y-41662380D02*
X112016190Y-40662380D01*
X111920952Y-40805238D01*
X111825714Y-40900476D01*
X111730476Y-40948095D01*
%TO.C,R73*%
X76414642Y-68812380D02*
X76081309Y-68336190D01*
X75843214Y-68812380D02*
X75843214Y-67812380D01*
X76224166Y-67812380D01*
X76319404Y-67860000D01*
X76367023Y-67907619D01*
X76414642Y-68002857D01*
X76414642Y-68145714D01*
X76367023Y-68240952D01*
X76319404Y-68288571D01*
X76224166Y-68336190D01*
X75843214Y-68336190D01*
X76747976Y-67812380D02*
X77414642Y-67812380D01*
X76986071Y-68812380D01*
X77700357Y-67812380D02*
X78319404Y-67812380D01*
X77986071Y-68193333D01*
X78128928Y-68193333D01*
X78224166Y-68240952D01*
X78271785Y-68288571D01*
X78319404Y-68383809D01*
X78319404Y-68621904D01*
X78271785Y-68717142D01*
X78224166Y-68764761D01*
X78128928Y-68812380D01*
X77843214Y-68812380D01*
X77747976Y-68764761D01*
X77700357Y-68717142D01*
%TO.C,R93*%
X110397142Y-31512380D02*
X110063809Y-31036190D01*
X109825714Y-31512380D02*
X109825714Y-30512380D01*
X110206666Y-30512380D01*
X110301904Y-30560000D01*
X110349523Y-30607619D01*
X110397142Y-30702857D01*
X110397142Y-30845714D01*
X110349523Y-30940952D01*
X110301904Y-30988571D01*
X110206666Y-31036190D01*
X109825714Y-31036190D01*
X110873333Y-31512380D02*
X111063809Y-31512380D01*
X111159047Y-31464761D01*
X111206666Y-31417142D01*
X111301904Y-31274285D01*
X111349523Y-31083809D01*
X111349523Y-30702857D01*
X111301904Y-30607619D01*
X111254285Y-30560000D01*
X111159047Y-30512380D01*
X110968571Y-30512380D01*
X110873333Y-30560000D01*
X110825714Y-30607619D01*
X110778095Y-30702857D01*
X110778095Y-30940952D01*
X110825714Y-31036190D01*
X110873333Y-31083809D01*
X110968571Y-31131428D01*
X111159047Y-31131428D01*
X111254285Y-31083809D01*
X111301904Y-31036190D01*
X111349523Y-30940952D01*
X111682857Y-30512380D02*
X112301904Y-30512380D01*
X111968571Y-30893333D01*
X112111428Y-30893333D01*
X112206666Y-30940952D01*
X112254285Y-30988571D01*
X112301904Y-31083809D01*
X112301904Y-31321904D01*
X112254285Y-31417142D01*
X112206666Y-31464761D01*
X112111428Y-31512380D01*
X111825714Y-31512380D01*
X111730476Y-31464761D01*
X111682857Y-31417142D01*
%TO.C,R43*%
X76447142Y-105835780D02*
X76113809Y-105359590D01*
X75875714Y-105835780D02*
X75875714Y-104835780D01*
X76256666Y-104835780D01*
X76351904Y-104883400D01*
X76399523Y-104931019D01*
X76447142Y-105026257D01*
X76447142Y-105169114D01*
X76399523Y-105264352D01*
X76351904Y-105311971D01*
X76256666Y-105359590D01*
X75875714Y-105359590D01*
X77304285Y-105169114D02*
X77304285Y-105835780D01*
X77066190Y-104788161D02*
X76828095Y-105502447D01*
X77447142Y-105502447D01*
X77732857Y-104835780D02*
X78351904Y-104835780D01*
X78018571Y-105216733D01*
X78161428Y-105216733D01*
X78256666Y-105264352D01*
X78304285Y-105311971D01*
X78351904Y-105407209D01*
X78351904Y-105645304D01*
X78304285Y-105740542D01*
X78256666Y-105788161D01*
X78161428Y-105835780D01*
X77875714Y-105835780D01*
X77780476Y-105788161D01*
X77732857Y-105740542D01*
%TO.C,R10*%
X123972142Y-79782380D02*
X123638809Y-79306190D01*
X123400714Y-79782380D02*
X123400714Y-78782380D01*
X123781666Y-78782380D01*
X123876904Y-78830000D01*
X123924523Y-78877619D01*
X123972142Y-78972857D01*
X123972142Y-79115714D01*
X123924523Y-79210952D01*
X123876904Y-79258571D01*
X123781666Y-79306190D01*
X123400714Y-79306190D01*
X124924523Y-79782380D02*
X124353095Y-79782380D01*
X124638809Y-79782380D02*
X124638809Y-78782380D01*
X124543571Y-78925238D01*
X124448333Y-79020476D01*
X124353095Y-79068095D01*
X125543571Y-78782380D02*
X125638809Y-78782380D01*
X125734047Y-78830000D01*
X125781666Y-78877619D01*
X125829285Y-78972857D01*
X125876904Y-79163333D01*
X125876904Y-79401428D01*
X125829285Y-79591904D01*
X125781666Y-79687142D01*
X125734047Y-79734761D01*
X125638809Y-79782380D01*
X125543571Y-79782380D01*
X125448333Y-79734761D01*
X125400714Y-79687142D01*
X125353095Y-79591904D01*
X125305476Y-79401428D01*
X125305476Y-79163333D01*
X125353095Y-78972857D01*
X125400714Y-78877619D01*
X125448333Y-78830000D01*
X125543571Y-78782380D01*
%TO.C,R45*%
X76447142Y-95656580D02*
X76113809Y-95180390D01*
X75875714Y-95656580D02*
X75875714Y-94656580D01*
X76256666Y-94656580D01*
X76351904Y-94704200D01*
X76399523Y-94751819D01*
X76447142Y-94847057D01*
X76447142Y-94989914D01*
X76399523Y-95085152D01*
X76351904Y-95132771D01*
X76256666Y-95180390D01*
X75875714Y-95180390D01*
X77304285Y-94989914D02*
X77304285Y-95656580D01*
X77066190Y-94608961D02*
X76828095Y-95323247D01*
X77447142Y-95323247D01*
X78304285Y-94656580D02*
X77828095Y-94656580D01*
X77780476Y-95132771D01*
X77828095Y-95085152D01*
X77923333Y-95037533D01*
X78161428Y-95037533D01*
X78256666Y-95085152D01*
X78304285Y-95132771D01*
X78351904Y-95228009D01*
X78351904Y-95466104D01*
X78304285Y-95561342D01*
X78256666Y-95608961D01*
X78161428Y-95656580D01*
X77923333Y-95656580D01*
X77828095Y-95608961D01*
X77780476Y-95561342D01*
%TO.C,R102*%
X102150952Y-41632380D02*
X101817619Y-41156190D01*
X101579523Y-41632380D02*
X101579523Y-40632380D01*
X101960476Y-40632380D01*
X102055714Y-40680000D01*
X102103333Y-40727619D01*
X102150952Y-40822857D01*
X102150952Y-40965714D01*
X102103333Y-41060952D01*
X102055714Y-41108571D01*
X101960476Y-41156190D01*
X101579523Y-41156190D01*
X103103333Y-41632380D02*
X102531904Y-41632380D01*
X102817619Y-41632380D02*
X102817619Y-40632380D01*
X102722380Y-40775238D01*
X102627142Y-40870476D01*
X102531904Y-40918095D01*
X103722380Y-40632380D02*
X103817619Y-40632380D01*
X103912857Y-40680000D01*
X103960476Y-40727619D01*
X104008095Y-40822857D01*
X104055714Y-41013333D01*
X104055714Y-41251428D01*
X104008095Y-41441904D01*
X103960476Y-41537142D01*
X103912857Y-41584761D01*
X103817619Y-41632380D01*
X103722380Y-41632380D01*
X103627142Y-41584761D01*
X103579523Y-41537142D01*
X103531904Y-41441904D01*
X103484285Y-41251428D01*
X103484285Y-41013333D01*
X103531904Y-40822857D01*
X103579523Y-40727619D01*
X103627142Y-40680000D01*
X103722380Y-40632380D01*
X104436666Y-40727619D02*
X104484285Y-40680000D01*
X104579523Y-40632380D01*
X104817619Y-40632380D01*
X104912857Y-40680000D01*
X104960476Y-40727619D01*
X105008095Y-40822857D01*
X105008095Y-40918095D01*
X104960476Y-41060952D01*
X104389047Y-41632380D01*
X105008095Y-41632380D01*
%TO.C,J14*%
X96782380Y-140709523D02*
X97496666Y-140709523D01*
X97639523Y-140757142D01*
X97734761Y-140852380D01*
X97782380Y-140995238D01*
X97782380Y-141090476D01*
X97782380Y-139709523D02*
X97782380Y-140280952D01*
X97782380Y-139995238D02*
X96782380Y-139995238D01*
X96925238Y-140090476D01*
X97020476Y-140185714D01*
X97068095Y-140280952D01*
X97115714Y-138852380D02*
X97782380Y-138852380D01*
X96734761Y-139090476D02*
X97449047Y-139328571D01*
X97449047Y-138709523D01*
%TO.C,J17*%
X96982380Y-42199523D02*
X97696666Y-42199523D01*
X97839523Y-42247142D01*
X97934761Y-42342380D01*
X97982380Y-42485238D01*
X97982380Y-42580476D01*
X97982380Y-41199523D02*
X97982380Y-41770952D01*
X97982380Y-41485238D02*
X96982380Y-41485238D01*
X97125238Y-41580476D01*
X97220476Y-41675714D01*
X97268095Y-41770952D01*
X96982380Y-40866190D02*
X96982380Y-40199523D01*
X97982380Y-40628095D01*
%TO.C,R110*%
X68020952Y-31772380D02*
X67687619Y-31296190D01*
X67449523Y-31772380D02*
X67449523Y-30772380D01*
X67830476Y-30772380D01*
X67925714Y-30820000D01*
X67973333Y-30867619D01*
X68020952Y-30962857D01*
X68020952Y-31105714D01*
X67973333Y-31200952D01*
X67925714Y-31248571D01*
X67830476Y-31296190D01*
X67449523Y-31296190D01*
X68973333Y-31772380D02*
X68401904Y-31772380D01*
X68687619Y-31772380D02*
X68687619Y-30772380D01*
X68592380Y-30915238D01*
X68497142Y-31010476D01*
X68401904Y-31058095D01*
X69925714Y-31772380D02*
X69354285Y-31772380D01*
X69640000Y-31772380D02*
X69640000Y-30772380D01*
X69544761Y-30915238D01*
X69449523Y-31010476D01*
X69354285Y-31058095D01*
X70544761Y-30772380D02*
X70640000Y-30772380D01*
X70735238Y-30820000D01*
X70782857Y-30867619D01*
X70830476Y-30962857D01*
X70878095Y-31153333D01*
X70878095Y-31391428D01*
X70830476Y-31581904D01*
X70782857Y-31677142D01*
X70735238Y-31724761D01*
X70640000Y-31772380D01*
X70544761Y-31772380D01*
X70449523Y-31724761D01*
X70401904Y-31677142D01*
X70354285Y-31581904D01*
X70306666Y-31391428D01*
X70306666Y-31153333D01*
X70354285Y-30962857D01*
X70401904Y-30867619D01*
X70449523Y-30820000D01*
X70544761Y-30772380D01*
%TO.C,R96*%
X76489642Y-41912380D02*
X76156309Y-41436190D01*
X75918214Y-41912380D02*
X75918214Y-40912380D01*
X76299166Y-40912380D01*
X76394404Y-40960000D01*
X76442023Y-41007619D01*
X76489642Y-41102857D01*
X76489642Y-41245714D01*
X76442023Y-41340952D01*
X76394404Y-41388571D01*
X76299166Y-41436190D01*
X75918214Y-41436190D01*
X76965833Y-41912380D02*
X77156309Y-41912380D01*
X77251547Y-41864761D01*
X77299166Y-41817142D01*
X77394404Y-41674285D01*
X77442023Y-41483809D01*
X77442023Y-41102857D01*
X77394404Y-41007619D01*
X77346785Y-40960000D01*
X77251547Y-40912380D01*
X77061071Y-40912380D01*
X76965833Y-40960000D01*
X76918214Y-41007619D01*
X76870595Y-41102857D01*
X76870595Y-41340952D01*
X76918214Y-41436190D01*
X76965833Y-41483809D01*
X77061071Y-41531428D01*
X77251547Y-41531428D01*
X77346785Y-41483809D01*
X77394404Y-41436190D01*
X77442023Y-41340952D01*
X78299166Y-40912380D02*
X78108690Y-40912380D01*
X78013452Y-40960000D01*
X77965833Y-41007619D01*
X77870595Y-41150476D01*
X77822976Y-41340952D01*
X77822976Y-41721904D01*
X77870595Y-41817142D01*
X77918214Y-41864761D01*
X78013452Y-41912380D01*
X78203928Y-41912380D01*
X78299166Y-41864761D01*
X78346785Y-41817142D01*
X78394404Y-41721904D01*
X78394404Y-41483809D01*
X78346785Y-41388571D01*
X78299166Y-41340952D01*
X78203928Y-41293333D01*
X78013452Y-41293333D01*
X77918214Y-41340952D01*
X77870595Y-41388571D01*
X77822976Y-41483809D01*
%TO.C,J5*%
X205267380Y-97438333D02*
X205981666Y-97438333D01*
X206124523Y-97485952D01*
X206219761Y-97581190D01*
X206267380Y-97724047D01*
X206267380Y-97819285D01*
X205267380Y-96485952D02*
X205267380Y-96962142D01*
X205743571Y-97009761D01*
X205695952Y-96962142D01*
X205648333Y-96866904D01*
X205648333Y-96628809D01*
X205695952Y-96533571D01*
X205743571Y-96485952D01*
X205838809Y-96438333D01*
X206076904Y-96438333D01*
X206172142Y-96485952D01*
X206219761Y-96533571D01*
X206267380Y-96628809D01*
X206267380Y-96866904D01*
X206219761Y-96962142D01*
X206172142Y-97009761D01*
%TO.C,J6*%
X235267380Y-97438333D02*
X235981666Y-97438333D01*
X236124523Y-97485952D01*
X236219761Y-97581190D01*
X236267380Y-97724047D01*
X236267380Y-97819285D01*
X235267380Y-96533571D02*
X235267380Y-96724047D01*
X235315000Y-96819285D01*
X235362619Y-96866904D01*
X235505476Y-96962142D01*
X235695952Y-97009761D01*
X236076904Y-97009761D01*
X236172142Y-96962142D01*
X236219761Y-96914523D01*
X236267380Y-96819285D01*
X236267380Y-96628809D01*
X236219761Y-96533571D01*
X236172142Y-96485952D01*
X236076904Y-96438333D01*
X235838809Y-96438333D01*
X235743571Y-96485952D01*
X235695952Y-96533571D01*
X235648333Y-96628809D01*
X235648333Y-96819285D01*
X235695952Y-96914523D01*
X235743571Y-96962142D01*
X235838809Y-97009761D01*
%TO.C,R9*%
X124448333Y-94722380D02*
X124115000Y-94246190D01*
X123876904Y-94722380D02*
X123876904Y-93722380D01*
X124257857Y-93722380D01*
X124353095Y-93770000D01*
X124400714Y-93817619D01*
X124448333Y-93912857D01*
X124448333Y-94055714D01*
X124400714Y-94150952D01*
X124353095Y-94198571D01*
X124257857Y-94246190D01*
X123876904Y-94246190D01*
X124924523Y-94722380D02*
X125115000Y-94722380D01*
X125210238Y-94674761D01*
X125257857Y-94627142D01*
X125353095Y-94484285D01*
X125400714Y-94293809D01*
X125400714Y-93912857D01*
X125353095Y-93817619D01*
X125305476Y-93770000D01*
X125210238Y-93722380D01*
X125019761Y-93722380D01*
X124924523Y-93770000D01*
X124876904Y-93817619D01*
X124829285Y-93912857D01*
X124829285Y-94150952D01*
X124876904Y-94246190D01*
X124924523Y-94293809D01*
X125019761Y-94341428D01*
X125210238Y-94341428D01*
X125305476Y-94293809D01*
X125353095Y-94246190D01*
X125400714Y-94150952D01*
%TO.C,R74*%
X76414642Y-63722380D02*
X76081309Y-63246190D01*
X75843214Y-63722380D02*
X75843214Y-62722380D01*
X76224166Y-62722380D01*
X76319404Y-62770000D01*
X76367023Y-62817619D01*
X76414642Y-62912857D01*
X76414642Y-63055714D01*
X76367023Y-63150952D01*
X76319404Y-63198571D01*
X76224166Y-63246190D01*
X75843214Y-63246190D01*
X76747976Y-62722380D02*
X77414642Y-62722380D01*
X76986071Y-63722380D01*
X78224166Y-63055714D02*
X78224166Y-63722380D01*
X77986071Y-62674761D02*
X77747976Y-63389047D01*
X78367023Y-63389047D01*
%TO.C,R41*%
X76447142Y-115991380D02*
X76113809Y-115515190D01*
X75875714Y-115991380D02*
X75875714Y-114991380D01*
X76256666Y-114991380D01*
X76351904Y-115039000D01*
X76399523Y-115086619D01*
X76447142Y-115181857D01*
X76447142Y-115324714D01*
X76399523Y-115419952D01*
X76351904Y-115467571D01*
X76256666Y-115515190D01*
X75875714Y-115515190D01*
X77304285Y-115324714D02*
X77304285Y-115991380D01*
X77066190Y-114943761D02*
X76828095Y-115658047D01*
X77447142Y-115658047D01*
X78351904Y-115991380D02*
X77780476Y-115991380D01*
X78066190Y-115991380D02*
X78066190Y-114991380D01*
X77970952Y-115134238D01*
X77875714Y-115229476D01*
X77780476Y-115277095D01*
%TO.C,R51*%
X69107142Y-121045980D02*
X68773809Y-120569790D01*
X68535714Y-121045980D02*
X68535714Y-120045980D01*
X68916666Y-120045980D01*
X69011904Y-120093600D01*
X69059523Y-120141219D01*
X69107142Y-120236457D01*
X69107142Y-120379314D01*
X69059523Y-120474552D01*
X69011904Y-120522171D01*
X68916666Y-120569790D01*
X68535714Y-120569790D01*
X70011904Y-120045980D02*
X69535714Y-120045980D01*
X69488095Y-120522171D01*
X69535714Y-120474552D01*
X69630952Y-120426933D01*
X69869047Y-120426933D01*
X69964285Y-120474552D01*
X70011904Y-120522171D01*
X70059523Y-120617409D01*
X70059523Y-120855504D01*
X70011904Y-120950742D01*
X69964285Y-120998361D01*
X69869047Y-121045980D01*
X69630952Y-121045980D01*
X69535714Y-120998361D01*
X69488095Y-120950742D01*
X71011904Y-121045980D02*
X70440476Y-121045980D01*
X70726190Y-121045980D02*
X70726190Y-120045980D01*
X70630952Y-120188838D01*
X70535714Y-120284076D01*
X70440476Y-120331695D01*
%TO.C,J2*%
X205267380Y-53838333D02*
X205981666Y-53838333D01*
X206124523Y-53885952D01*
X206219761Y-53981190D01*
X206267380Y-54124047D01*
X206267380Y-54219285D01*
X205362619Y-53409761D02*
X205315000Y-53362142D01*
X205267380Y-53266904D01*
X205267380Y-53028809D01*
X205315000Y-52933571D01*
X205362619Y-52885952D01*
X205457857Y-52838333D01*
X205553095Y-52838333D01*
X205695952Y-52885952D01*
X206267380Y-53457380D01*
X206267380Y-52838333D01*
%TO.C,R52*%
X69107142Y-115991380D02*
X68773809Y-115515190D01*
X68535714Y-115991380D02*
X68535714Y-114991380D01*
X68916666Y-114991380D01*
X69011904Y-115039000D01*
X69059523Y-115086619D01*
X69107142Y-115181857D01*
X69107142Y-115324714D01*
X69059523Y-115419952D01*
X69011904Y-115467571D01*
X68916666Y-115515190D01*
X68535714Y-115515190D01*
X70011904Y-114991380D02*
X69535714Y-114991380D01*
X69488095Y-115467571D01*
X69535714Y-115419952D01*
X69630952Y-115372333D01*
X69869047Y-115372333D01*
X69964285Y-115419952D01*
X70011904Y-115467571D01*
X70059523Y-115562809D01*
X70059523Y-115800904D01*
X70011904Y-115896142D01*
X69964285Y-115943761D01*
X69869047Y-115991380D01*
X69630952Y-115991380D01*
X69535714Y-115943761D01*
X69488095Y-115896142D01*
X70440476Y-115086619D02*
X70488095Y-115039000D01*
X70583333Y-114991380D01*
X70821428Y-114991380D01*
X70916666Y-115039000D01*
X70964285Y-115086619D01*
X71011904Y-115181857D01*
X71011904Y-115277095D01*
X70964285Y-115419952D01*
X70392857Y-115991380D01*
X71011904Y-115991380D01*
%TO.C,J3*%
X235267380Y-141038333D02*
X235981666Y-141038333D01*
X236124523Y-141085952D01*
X236219761Y-141181190D01*
X236267380Y-141324047D01*
X236267380Y-141419285D01*
X235267380Y-140657380D02*
X235267380Y-140038333D01*
X235648333Y-140371666D01*
X235648333Y-140228809D01*
X235695952Y-140133571D01*
X235743571Y-140085952D01*
X235838809Y-140038333D01*
X236076904Y-140038333D01*
X236172142Y-140085952D01*
X236219761Y-140133571D01*
X236267380Y-140228809D01*
X236267380Y-140514523D01*
X236219761Y-140609761D01*
X236172142Y-140657380D01*
%TO.C,R7*%
X197485333Y-59619780D02*
X197152000Y-59143590D01*
X196913904Y-59619780D02*
X196913904Y-58619780D01*
X197294857Y-58619780D01*
X197390095Y-58667400D01*
X197437714Y-58715019D01*
X197485333Y-58810257D01*
X197485333Y-58953114D01*
X197437714Y-59048352D01*
X197390095Y-59095971D01*
X197294857Y-59143590D01*
X196913904Y-59143590D01*
X197818666Y-58619780D02*
X198485333Y-58619780D01*
X198056761Y-59619780D01*
%TO.C,R31*%
X69197142Y-132710580D02*
X68863809Y-132234390D01*
X68625714Y-132710580D02*
X68625714Y-131710580D01*
X69006666Y-131710580D01*
X69101904Y-131758200D01*
X69149523Y-131805819D01*
X69197142Y-131901057D01*
X69197142Y-132043914D01*
X69149523Y-132139152D01*
X69101904Y-132186771D01*
X69006666Y-132234390D01*
X68625714Y-132234390D01*
X69530476Y-131710580D02*
X70149523Y-131710580D01*
X69816190Y-132091533D01*
X69959047Y-132091533D01*
X70054285Y-132139152D01*
X70101904Y-132186771D01*
X70149523Y-132282009D01*
X70149523Y-132520104D01*
X70101904Y-132615342D01*
X70054285Y-132662961D01*
X69959047Y-132710580D01*
X69673333Y-132710580D01*
X69578095Y-132662961D01*
X69530476Y-132615342D01*
X71101904Y-132710580D02*
X70530476Y-132710580D01*
X70816190Y-132710580D02*
X70816190Y-131710580D01*
X70720952Y-131853438D01*
X70625714Y-131948676D01*
X70530476Y-131996295D01*
%TO.C,R83*%
X68497142Y-79002380D02*
X68163809Y-78526190D01*
X67925714Y-79002380D02*
X67925714Y-78002380D01*
X68306666Y-78002380D01*
X68401904Y-78050000D01*
X68449523Y-78097619D01*
X68497142Y-78192857D01*
X68497142Y-78335714D01*
X68449523Y-78430952D01*
X68401904Y-78478571D01*
X68306666Y-78526190D01*
X67925714Y-78526190D01*
X69068571Y-78430952D02*
X68973333Y-78383333D01*
X68925714Y-78335714D01*
X68878095Y-78240476D01*
X68878095Y-78192857D01*
X68925714Y-78097619D01*
X68973333Y-78050000D01*
X69068571Y-78002380D01*
X69259047Y-78002380D01*
X69354285Y-78050000D01*
X69401904Y-78097619D01*
X69449523Y-78192857D01*
X69449523Y-78240476D01*
X69401904Y-78335714D01*
X69354285Y-78383333D01*
X69259047Y-78430952D01*
X69068571Y-78430952D01*
X68973333Y-78478571D01*
X68925714Y-78526190D01*
X68878095Y-78621428D01*
X68878095Y-78811904D01*
X68925714Y-78907142D01*
X68973333Y-78954761D01*
X69068571Y-79002380D01*
X69259047Y-79002380D01*
X69354285Y-78954761D01*
X69401904Y-78907142D01*
X69449523Y-78811904D01*
X69449523Y-78621428D01*
X69401904Y-78526190D01*
X69354285Y-78478571D01*
X69259047Y-78430952D01*
X69782857Y-78002380D02*
X70401904Y-78002380D01*
X70068571Y-78383333D01*
X70211428Y-78383333D01*
X70306666Y-78430952D01*
X70354285Y-78478571D01*
X70401904Y-78573809D01*
X70401904Y-78811904D01*
X70354285Y-78907142D01*
X70306666Y-78954761D01*
X70211428Y-79002380D01*
X69925714Y-79002380D01*
X69830476Y-78954761D01*
X69782857Y-78907142D01*
%TO.C,R88*%
X76489642Y-57182380D02*
X76156309Y-56706190D01*
X75918214Y-57182380D02*
X75918214Y-56182380D01*
X76299166Y-56182380D01*
X76394404Y-56230000D01*
X76442023Y-56277619D01*
X76489642Y-56372857D01*
X76489642Y-56515714D01*
X76442023Y-56610952D01*
X76394404Y-56658571D01*
X76299166Y-56706190D01*
X75918214Y-56706190D01*
X77061071Y-56610952D02*
X76965833Y-56563333D01*
X76918214Y-56515714D01*
X76870595Y-56420476D01*
X76870595Y-56372857D01*
X76918214Y-56277619D01*
X76965833Y-56230000D01*
X77061071Y-56182380D01*
X77251547Y-56182380D01*
X77346785Y-56230000D01*
X77394404Y-56277619D01*
X77442023Y-56372857D01*
X77442023Y-56420476D01*
X77394404Y-56515714D01*
X77346785Y-56563333D01*
X77251547Y-56610952D01*
X77061071Y-56610952D01*
X76965833Y-56658571D01*
X76918214Y-56706190D01*
X76870595Y-56801428D01*
X76870595Y-56991904D01*
X76918214Y-57087142D01*
X76965833Y-57134761D01*
X77061071Y-57182380D01*
X77251547Y-57182380D01*
X77346785Y-57134761D01*
X77394404Y-57087142D01*
X77442023Y-56991904D01*
X77442023Y-56801428D01*
X77394404Y-56706190D01*
X77346785Y-56658571D01*
X77251547Y-56610952D01*
X78013452Y-56610952D02*
X77918214Y-56563333D01*
X77870595Y-56515714D01*
X77822976Y-56420476D01*
X77822976Y-56372857D01*
X77870595Y-56277619D01*
X77918214Y-56230000D01*
X78013452Y-56182380D01*
X78203928Y-56182380D01*
X78299166Y-56230000D01*
X78346785Y-56277619D01*
X78394404Y-56372857D01*
X78394404Y-56420476D01*
X78346785Y-56515714D01*
X78299166Y-56563333D01*
X78203928Y-56610952D01*
X78013452Y-56610952D01*
X77918214Y-56658571D01*
X77870595Y-56706190D01*
X77822976Y-56801428D01*
X77822976Y-56991904D01*
X77870595Y-57087142D01*
X77918214Y-57134761D01*
X78013452Y-57182380D01*
X78203928Y-57182380D01*
X78299166Y-57134761D01*
X78346785Y-57087142D01*
X78394404Y-56991904D01*
X78394404Y-56801428D01*
X78346785Y-56706190D01*
X78299166Y-56658571D01*
X78203928Y-56610952D01*
%TO.C,R72*%
X76414642Y-73892380D02*
X76081309Y-73416190D01*
X75843214Y-73892380D02*
X75843214Y-72892380D01*
X76224166Y-72892380D01*
X76319404Y-72940000D01*
X76367023Y-72987619D01*
X76414642Y-73082857D01*
X76414642Y-73225714D01*
X76367023Y-73320952D01*
X76319404Y-73368571D01*
X76224166Y-73416190D01*
X75843214Y-73416190D01*
X76747976Y-72892380D02*
X77414642Y-72892380D01*
X76986071Y-73892380D01*
X77747976Y-72987619D02*
X77795595Y-72940000D01*
X77890833Y-72892380D01*
X78128928Y-72892380D01*
X78224166Y-72940000D01*
X78271785Y-72987619D01*
X78319404Y-73082857D01*
X78319404Y-73178095D01*
X78271785Y-73320952D01*
X77700357Y-73892380D01*
X78319404Y-73892380D01*
%TO.C,R4*%
X190144733Y-59619780D02*
X189811400Y-59143590D01*
X189573304Y-59619780D02*
X189573304Y-58619780D01*
X189954257Y-58619780D01*
X190049495Y-58667400D01*
X190097114Y-58715019D01*
X190144733Y-58810257D01*
X190144733Y-58953114D01*
X190097114Y-59048352D01*
X190049495Y-59095971D01*
X189954257Y-59143590D01*
X189573304Y-59143590D01*
X191001876Y-58953114D02*
X191001876Y-59619780D01*
X190763780Y-58572161D02*
X190525685Y-59286447D01*
X191144733Y-59286447D01*
%TO.C,H4*%
X249848095Y-32662380D02*
X249848095Y-31662380D01*
X249848095Y-32138571D02*
X250419523Y-32138571D01*
X250419523Y-32662380D02*
X250419523Y-31662380D01*
X251324285Y-31995714D02*
X251324285Y-32662380D01*
X251086190Y-31614761D02*
X250848095Y-32329047D01*
X251467142Y-32329047D01*
%TO.C,J9*%
X186776666Y-131532380D02*
X186776666Y-132246666D01*
X186729047Y-132389523D01*
X186633809Y-132484761D01*
X186490952Y-132532380D01*
X186395714Y-132532380D01*
X187300476Y-132532380D02*
X187490952Y-132532380D01*
X187586190Y-132484761D01*
X187633809Y-132437142D01*
X187729047Y-132294285D01*
X187776666Y-132103809D01*
X187776666Y-131722857D01*
X187729047Y-131627619D01*
X187681428Y-131580000D01*
X187586190Y-131532380D01*
X187395714Y-131532380D01*
X187300476Y-131580000D01*
X187252857Y-131627619D01*
X187205238Y-131722857D01*
X187205238Y-131960952D01*
X187252857Y-132056190D01*
X187300476Y-132103809D01*
X187395714Y-132151428D01*
X187586190Y-132151428D01*
X187681428Y-132103809D01*
X187729047Y-132056190D01*
X187776666Y-131960952D01*
%TO.C,C4*%
X183653333Y-44397142D02*
X183605714Y-44444761D01*
X183462857Y-44492380D01*
X183367619Y-44492380D01*
X183224761Y-44444761D01*
X183129523Y-44349523D01*
X183081904Y-44254285D01*
X183034285Y-44063809D01*
X183034285Y-43920952D01*
X183081904Y-43730476D01*
X183129523Y-43635238D01*
X183224761Y-43540000D01*
X183367619Y-43492380D01*
X183462857Y-43492380D01*
X183605714Y-43540000D01*
X183653333Y-43587619D01*
X184510476Y-43825714D02*
X184510476Y-44492380D01*
X184272380Y-43444761D02*
X184034285Y-44159047D01*
X184653333Y-44159047D01*
%TO.C,R100*%
X102150952Y-51812380D02*
X101817619Y-51336190D01*
X101579523Y-51812380D02*
X101579523Y-50812380D01*
X101960476Y-50812380D01*
X102055714Y-50860000D01*
X102103333Y-50907619D01*
X102150952Y-51002857D01*
X102150952Y-51145714D01*
X102103333Y-51240952D01*
X102055714Y-51288571D01*
X101960476Y-51336190D01*
X101579523Y-51336190D01*
X103103333Y-51812380D02*
X102531904Y-51812380D01*
X102817619Y-51812380D02*
X102817619Y-50812380D01*
X102722380Y-50955238D01*
X102627142Y-51050476D01*
X102531904Y-51098095D01*
X103722380Y-50812380D02*
X103817619Y-50812380D01*
X103912857Y-50860000D01*
X103960476Y-50907619D01*
X104008095Y-51002857D01*
X104055714Y-51193333D01*
X104055714Y-51431428D01*
X104008095Y-51621904D01*
X103960476Y-51717142D01*
X103912857Y-51764761D01*
X103817619Y-51812380D01*
X103722380Y-51812380D01*
X103627142Y-51764761D01*
X103579523Y-51717142D01*
X103531904Y-51621904D01*
X103484285Y-51431428D01*
X103484285Y-51193333D01*
X103531904Y-51002857D01*
X103579523Y-50907619D01*
X103627142Y-50860000D01*
X103722380Y-50812380D01*
X104674761Y-50812380D02*
X104770000Y-50812380D01*
X104865238Y-50860000D01*
X104912857Y-50907619D01*
X104960476Y-51002857D01*
X105008095Y-51193333D01*
X105008095Y-51431428D01*
X104960476Y-51621904D01*
X104912857Y-51717142D01*
X104865238Y-51764761D01*
X104770000Y-51812380D01*
X104674761Y-51812380D01*
X104579523Y-51764761D01*
X104531904Y-51717142D01*
X104484285Y-51621904D01*
X104436666Y-51431428D01*
X104436666Y-51193333D01*
X104484285Y-51002857D01*
X104531904Y-50907619D01*
X104579523Y-50860000D01*
X104674761Y-50812380D01*
%TO.C,R47*%
X109597142Y-144492380D02*
X109263809Y-144016190D01*
X109025714Y-144492380D02*
X109025714Y-143492380D01*
X109406666Y-143492380D01*
X109501904Y-143540000D01*
X109549523Y-143587619D01*
X109597142Y-143682857D01*
X109597142Y-143825714D01*
X109549523Y-143920952D01*
X109501904Y-143968571D01*
X109406666Y-144016190D01*
X109025714Y-144016190D01*
X110454285Y-143825714D02*
X110454285Y-144492380D01*
X110216190Y-143444761D02*
X109978095Y-144159047D01*
X110597142Y-144159047D01*
X110882857Y-143492380D02*
X111549523Y-143492380D01*
X111120952Y-144492380D01*
%TO.C,R49*%
X109597142Y-134332380D02*
X109263809Y-133856190D01*
X109025714Y-134332380D02*
X109025714Y-133332380D01*
X109406666Y-133332380D01*
X109501904Y-133380000D01*
X109549523Y-133427619D01*
X109597142Y-133522857D01*
X109597142Y-133665714D01*
X109549523Y-133760952D01*
X109501904Y-133808571D01*
X109406666Y-133856190D01*
X109025714Y-133856190D01*
X110454285Y-133665714D02*
X110454285Y-134332380D01*
X110216190Y-133284761D02*
X109978095Y-133999047D01*
X110597142Y-133999047D01*
X111025714Y-134332380D02*
X111216190Y-134332380D01*
X111311428Y-134284761D01*
X111359047Y-134237142D01*
X111454285Y-134094285D01*
X111501904Y-133903809D01*
X111501904Y-133522857D01*
X111454285Y-133427619D01*
X111406666Y-133380000D01*
X111311428Y-133332380D01*
X111120952Y-133332380D01*
X111025714Y-133380000D01*
X110978095Y-133427619D01*
X110930476Y-133522857D01*
X110930476Y-133760952D01*
X110978095Y-133856190D01*
X111025714Y-133903809D01*
X111120952Y-133951428D01*
X111311428Y-133951428D01*
X111406666Y-133903809D01*
X111454285Y-133856190D01*
X111501904Y-133760952D01*
%TO.C,R86*%
X68497142Y-63752380D02*
X68163809Y-63276190D01*
X67925714Y-63752380D02*
X67925714Y-62752380D01*
X68306666Y-62752380D01*
X68401904Y-62800000D01*
X68449523Y-62847619D01*
X68497142Y-62942857D01*
X68497142Y-63085714D01*
X68449523Y-63180952D01*
X68401904Y-63228571D01*
X68306666Y-63276190D01*
X67925714Y-63276190D01*
X69068571Y-63180952D02*
X68973333Y-63133333D01*
X68925714Y-63085714D01*
X68878095Y-62990476D01*
X68878095Y-62942857D01*
X68925714Y-62847619D01*
X68973333Y-62800000D01*
X69068571Y-62752380D01*
X69259047Y-62752380D01*
X69354285Y-62800000D01*
X69401904Y-62847619D01*
X69449523Y-62942857D01*
X69449523Y-62990476D01*
X69401904Y-63085714D01*
X69354285Y-63133333D01*
X69259047Y-63180952D01*
X69068571Y-63180952D01*
X68973333Y-63228571D01*
X68925714Y-63276190D01*
X68878095Y-63371428D01*
X68878095Y-63561904D01*
X68925714Y-63657142D01*
X68973333Y-63704761D01*
X69068571Y-63752380D01*
X69259047Y-63752380D01*
X69354285Y-63704761D01*
X69401904Y-63657142D01*
X69449523Y-63561904D01*
X69449523Y-63371428D01*
X69401904Y-63276190D01*
X69354285Y-63228571D01*
X69259047Y-63180952D01*
X70306666Y-62752380D02*
X70116190Y-62752380D01*
X70020952Y-62800000D01*
X69973333Y-62847619D01*
X69878095Y-62990476D01*
X69830476Y-63180952D01*
X69830476Y-63561904D01*
X69878095Y-63657142D01*
X69925714Y-63704761D01*
X70020952Y-63752380D01*
X70211428Y-63752380D01*
X70306666Y-63704761D01*
X70354285Y-63657142D01*
X70401904Y-63561904D01*
X70401904Y-63323809D01*
X70354285Y-63228571D01*
X70306666Y-63180952D01*
X70211428Y-63133333D01*
X70020952Y-63133333D01*
X69925714Y-63180952D01*
X69878095Y-63228571D01*
X69830476Y-63323809D01*
%TO.C,R1*%
X218032380Y-137526666D02*
X217556190Y-137860000D01*
X218032380Y-138098095D02*
X217032380Y-138098095D01*
X217032380Y-137717142D01*
X217080000Y-137621904D01*
X217127619Y-137574285D01*
X217222857Y-137526666D01*
X217365714Y-137526666D01*
X217460952Y-137574285D01*
X217508571Y-137621904D01*
X217556190Y-137717142D01*
X217556190Y-138098095D01*
X218032380Y-136574285D02*
X218032380Y-137145714D01*
X218032380Y-136860000D02*
X217032380Y-136860000D01*
X217175238Y-136955238D01*
X217270476Y-137050476D01*
X217318095Y-137145714D01*
%TO.C,R104*%
X102150952Y-31482380D02*
X101817619Y-31006190D01*
X101579523Y-31482380D02*
X101579523Y-30482380D01*
X101960476Y-30482380D01*
X102055714Y-30530000D01*
X102103333Y-30577619D01*
X102150952Y-30672857D01*
X102150952Y-30815714D01*
X102103333Y-30910952D01*
X102055714Y-30958571D01*
X101960476Y-31006190D01*
X101579523Y-31006190D01*
X103103333Y-31482380D02*
X102531904Y-31482380D01*
X102817619Y-31482380D02*
X102817619Y-30482380D01*
X102722380Y-30625238D01*
X102627142Y-30720476D01*
X102531904Y-30768095D01*
X103722380Y-30482380D02*
X103817619Y-30482380D01*
X103912857Y-30530000D01*
X103960476Y-30577619D01*
X104008095Y-30672857D01*
X104055714Y-30863333D01*
X104055714Y-31101428D01*
X104008095Y-31291904D01*
X103960476Y-31387142D01*
X103912857Y-31434761D01*
X103817619Y-31482380D01*
X103722380Y-31482380D01*
X103627142Y-31434761D01*
X103579523Y-31387142D01*
X103531904Y-31291904D01*
X103484285Y-31101428D01*
X103484285Y-30863333D01*
X103531904Y-30672857D01*
X103579523Y-30577619D01*
X103627142Y-30530000D01*
X103722380Y-30482380D01*
X104912857Y-30815714D02*
X104912857Y-31482380D01*
X104674761Y-30434761D02*
X104436666Y-31149047D01*
X105055714Y-31149047D01*
%TO.C,H3*%
X84118095Y-32592380D02*
X84118095Y-31592380D01*
X84118095Y-32068571D02*
X84689523Y-32068571D01*
X84689523Y-32592380D02*
X84689523Y-31592380D01*
X85070476Y-31592380D02*
X85689523Y-31592380D01*
X85356190Y-31973333D01*
X85499047Y-31973333D01*
X85594285Y-32020952D01*
X85641904Y-32068571D01*
X85689523Y-32163809D01*
X85689523Y-32401904D01*
X85641904Y-32497142D01*
X85594285Y-32544761D01*
X85499047Y-32592380D01*
X85213333Y-32592380D01*
X85118095Y-32544761D01*
X85070476Y-32497142D01*
%TO.C,R19*%
X76557142Y-132726580D02*
X76223809Y-132250390D01*
X75985714Y-132726580D02*
X75985714Y-131726580D01*
X76366666Y-131726580D01*
X76461904Y-131774200D01*
X76509523Y-131821819D01*
X76557142Y-131917057D01*
X76557142Y-132059914D01*
X76509523Y-132155152D01*
X76461904Y-132202771D01*
X76366666Y-132250390D01*
X75985714Y-132250390D01*
X77509523Y-132726580D02*
X76938095Y-132726580D01*
X77223809Y-132726580D02*
X77223809Y-131726580D01*
X77128571Y-131869438D01*
X77033333Y-131964676D01*
X76938095Y-132012295D01*
X77985714Y-132726580D02*
X78176190Y-132726580D01*
X78271428Y-132678961D01*
X78319047Y-132631342D01*
X78414285Y-132488485D01*
X78461904Y-132298009D01*
X78461904Y-131917057D01*
X78414285Y-131821819D01*
X78366666Y-131774200D01*
X78271428Y-131726580D01*
X78080952Y-131726580D01*
X77985714Y-131774200D01*
X77938095Y-131821819D01*
X77890476Y-131917057D01*
X77890476Y-132155152D01*
X77938095Y-132250390D01*
X77985714Y-132298009D01*
X78080952Y-132345628D01*
X78271428Y-132345628D01*
X78366666Y-132298009D01*
X78414285Y-132250390D01*
X78461904Y-132155152D01*
%TO.C,R44*%
X76447142Y-100753380D02*
X76113809Y-100277190D01*
X75875714Y-100753380D02*
X75875714Y-99753380D01*
X76256666Y-99753380D01*
X76351904Y-99801000D01*
X76399523Y-99848619D01*
X76447142Y-99943857D01*
X76447142Y-100086714D01*
X76399523Y-100181952D01*
X76351904Y-100229571D01*
X76256666Y-100277190D01*
X75875714Y-100277190D01*
X77304285Y-100086714D02*
X77304285Y-100753380D01*
X77066190Y-99705761D02*
X76828095Y-100420047D01*
X77447142Y-100420047D01*
X78256666Y-100086714D02*
X78256666Y-100753380D01*
X78018571Y-99705761D02*
X77780476Y-100420047D01*
X78399523Y-100420047D01*
%TO.C,R101*%
X102150952Y-46742380D02*
X101817619Y-46266190D01*
X101579523Y-46742380D02*
X101579523Y-45742380D01*
X101960476Y-45742380D01*
X102055714Y-45790000D01*
X102103333Y-45837619D01*
X102150952Y-45932857D01*
X102150952Y-46075714D01*
X102103333Y-46170952D01*
X102055714Y-46218571D01*
X101960476Y-46266190D01*
X101579523Y-46266190D01*
X103103333Y-46742380D02*
X102531904Y-46742380D01*
X102817619Y-46742380D02*
X102817619Y-45742380D01*
X102722380Y-45885238D01*
X102627142Y-45980476D01*
X102531904Y-46028095D01*
X103722380Y-45742380D02*
X103817619Y-45742380D01*
X103912857Y-45790000D01*
X103960476Y-45837619D01*
X104008095Y-45932857D01*
X104055714Y-46123333D01*
X104055714Y-46361428D01*
X104008095Y-46551904D01*
X103960476Y-46647142D01*
X103912857Y-46694761D01*
X103817619Y-46742380D01*
X103722380Y-46742380D01*
X103627142Y-46694761D01*
X103579523Y-46647142D01*
X103531904Y-46551904D01*
X103484285Y-46361428D01*
X103484285Y-46123333D01*
X103531904Y-45932857D01*
X103579523Y-45837619D01*
X103627142Y-45790000D01*
X103722380Y-45742380D01*
X105008095Y-46742380D02*
X104436666Y-46742380D01*
X104722380Y-46742380D02*
X104722380Y-45742380D01*
X104627142Y-45885238D01*
X104531904Y-45980476D01*
X104436666Y-46028095D01*
%TO.C,R89*%
X110397142Y-51842380D02*
X110063809Y-51366190D01*
X109825714Y-51842380D02*
X109825714Y-50842380D01*
X110206666Y-50842380D01*
X110301904Y-50890000D01*
X110349523Y-50937619D01*
X110397142Y-51032857D01*
X110397142Y-51175714D01*
X110349523Y-51270952D01*
X110301904Y-51318571D01*
X110206666Y-51366190D01*
X109825714Y-51366190D01*
X110968571Y-51270952D02*
X110873333Y-51223333D01*
X110825714Y-51175714D01*
X110778095Y-51080476D01*
X110778095Y-51032857D01*
X110825714Y-50937619D01*
X110873333Y-50890000D01*
X110968571Y-50842380D01*
X111159047Y-50842380D01*
X111254285Y-50890000D01*
X111301904Y-50937619D01*
X111349523Y-51032857D01*
X111349523Y-51080476D01*
X111301904Y-51175714D01*
X111254285Y-51223333D01*
X111159047Y-51270952D01*
X110968571Y-51270952D01*
X110873333Y-51318571D01*
X110825714Y-51366190D01*
X110778095Y-51461428D01*
X110778095Y-51651904D01*
X110825714Y-51747142D01*
X110873333Y-51794761D01*
X110968571Y-51842380D01*
X111159047Y-51842380D01*
X111254285Y-51794761D01*
X111301904Y-51747142D01*
X111349523Y-51651904D01*
X111349523Y-51461428D01*
X111301904Y-51366190D01*
X111254285Y-51318571D01*
X111159047Y-51270952D01*
X111825714Y-51842380D02*
X112016190Y-51842380D01*
X112111428Y-51794761D01*
X112159047Y-51747142D01*
X112254285Y-51604285D01*
X112301904Y-51413809D01*
X112301904Y-51032857D01*
X112254285Y-50937619D01*
X112206666Y-50890000D01*
X112111428Y-50842380D01*
X111920952Y-50842380D01*
X111825714Y-50890000D01*
X111778095Y-50937619D01*
X111730476Y-51032857D01*
X111730476Y-51270952D01*
X111778095Y-51366190D01*
X111825714Y-51413809D01*
X111920952Y-51461428D01*
X112111428Y-51461428D01*
X112206666Y-51413809D01*
X112254285Y-51366190D01*
X112301904Y-51270952D01*
%TO.C,R56*%
X69107142Y-95656580D02*
X68773809Y-95180390D01*
X68535714Y-95656580D02*
X68535714Y-94656580D01*
X68916666Y-94656580D01*
X69011904Y-94704200D01*
X69059523Y-94751819D01*
X69107142Y-94847057D01*
X69107142Y-94989914D01*
X69059523Y-95085152D01*
X69011904Y-95132771D01*
X68916666Y-95180390D01*
X68535714Y-95180390D01*
X70011904Y-94656580D02*
X69535714Y-94656580D01*
X69488095Y-95132771D01*
X69535714Y-95085152D01*
X69630952Y-95037533D01*
X69869047Y-95037533D01*
X69964285Y-95085152D01*
X70011904Y-95132771D01*
X70059523Y-95228009D01*
X70059523Y-95466104D01*
X70011904Y-95561342D01*
X69964285Y-95608961D01*
X69869047Y-95656580D01*
X69630952Y-95656580D01*
X69535714Y-95608961D01*
X69488095Y-95561342D01*
X70916666Y-94656580D02*
X70726190Y-94656580D01*
X70630952Y-94704200D01*
X70583333Y-94751819D01*
X70488095Y-94894676D01*
X70440476Y-95085152D01*
X70440476Y-95466104D01*
X70488095Y-95561342D01*
X70535714Y-95608961D01*
X70630952Y-95656580D01*
X70821428Y-95656580D01*
X70916666Y-95608961D01*
X70964285Y-95561342D01*
X71011904Y-95466104D01*
X71011904Y-95228009D01*
X70964285Y-95132771D01*
X70916666Y-95085152D01*
X70821428Y-95037533D01*
X70630952Y-95037533D01*
X70535714Y-95085152D01*
X70488095Y-95132771D01*
X70440476Y-95228009D01*
%TO.C,C6*%
X170153333Y-63757142D02*
X170105714Y-63804761D01*
X169962857Y-63852380D01*
X169867619Y-63852380D01*
X169724761Y-63804761D01*
X169629523Y-63709523D01*
X169581904Y-63614285D01*
X169534285Y-63423809D01*
X169534285Y-63280952D01*
X169581904Y-63090476D01*
X169629523Y-62995238D01*
X169724761Y-62900000D01*
X169867619Y-62852380D01*
X169962857Y-62852380D01*
X170105714Y-62900000D01*
X170153333Y-62947619D01*
X171010476Y-62852380D02*
X170820000Y-62852380D01*
X170724761Y-62900000D01*
X170677142Y-62947619D01*
X170581904Y-63090476D01*
X170534285Y-63280952D01*
X170534285Y-63661904D01*
X170581904Y-63757142D01*
X170629523Y-63804761D01*
X170724761Y-63852380D01*
X170915238Y-63852380D01*
X171010476Y-63804761D01*
X171058095Y-63757142D01*
X171105714Y-63661904D01*
X171105714Y-63423809D01*
X171058095Y-63328571D01*
X171010476Y-63280952D01*
X170915238Y-63233333D01*
X170724761Y-63233333D01*
X170629523Y-63280952D01*
X170581904Y-63328571D01*
X170534285Y-63423809D01*
%TO.C,R105*%
X68020952Y-57192380D02*
X67687619Y-56716190D01*
X67449523Y-57192380D02*
X67449523Y-56192380D01*
X67830476Y-56192380D01*
X67925714Y-56240000D01*
X67973333Y-56287619D01*
X68020952Y-56382857D01*
X68020952Y-56525714D01*
X67973333Y-56620952D01*
X67925714Y-56668571D01*
X67830476Y-56716190D01*
X67449523Y-56716190D01*
X68973333Y-57192380D02*
X68401904Y-57192380D01*
X68687619Y-57192380D02*
X68687619Y-56192380D01*
X68592380Y-56335238D01*
X68497142Y-56430476D01*
X68401904Y-56478095D01*
X69592380Y-56192380D02*
X69687619Y-56192380D01*
X69782857Y-56240000D01*
X69830476Y-56287619D01*
X69878095Y-56382857D01*
X69925714Y-56573333D01*
X69925714Y-56811428D01*
X69878095Y-57001904D01*
X69830476Y-57097142D01*
X69782857Y-57144761D01*
X69687619Y-57192380D01*
X69592380Y-57192380D01*
X69497142Y-57144761D01*
X69449523Y-57097142D01*
X69401904Y-57001904D01*
X69354285Y-56811428D01*
X69354285Y-56573333D01*
X69401904Y-56382857D01*
X69449523Y-56287619D01*
X69497142Y-56240000D01*
X69592380Y-56192380D01*
X70830476Y-56192380D02*
X70354285Y-56192380D01*
X70306666Y-56668571D01*
X70354285Y-56620952D01*
X70449523Y-56573333D01*
X70687619Y-56573333D01*
X70782857Y-56620952D01*
X70830476Y-56668571D01*
X70878095Y-56763809D01*
X70878095Y-57001904D01*
X70830476Y-57097142D01*
X70782857Y-57144761D01*
X70687619Y-57192380D01*
X70449523Y-57192380D01*
X70354285Y-57144761D01*
X70306666Y-57097142D01*
%TO.C,R81*%
X68497142Y-89212380D02*
X68163809Y-88736190D01*
X67925714Y-89212380D02*
X67925714Y-88212380D01*
X68306666Y-88212380D01*
X68401904Y-88260000D01*
X68449523Y-88307619D01*
X68497142Y-88402857D01*
X68497142Y-88545714D01*
X68449523Y-88640952D01*
X68401904Y-88688571D01*
X68306666Y-88736190D01*
X67925714Y-88736190D01*
X69068571Y-88640952D02*
X68973333Y-88593333D01*
X68925714Y-88545714D01*
X68878095Y-88450476D01*
X68878095Y-88402857D01*
X68925714Y-88307619D01*
X68973333Y-88260000D01*
X69068571Y-88212380D01*
X69259047Y-88212380D01*
X69354285Y-88260000D01*
X69401904Y-88307619D01*
X69449523Y-88402857D01*
X69449523Y-88450476D01*
X69401904Y-88545714D01*
X69354285Y-88593333D01*
X69259047Y-88640952D01*
X69068571Y-88640952D01*
X68973333Y-88688571D01*
X68925714Y-88736190D01*
X68878095Y-88831428D01*
X68878095Y-89021904D01*
X68925714Y-89117142D01*
X68973333Y-89164761D01*
X69068571Y-89212380D01*
X69259047Y-89212380D01*
X69354285Y-89164761D01*
X69401904Y-89117142D01*
X69449523Y-89021904D01*
X69449523Y-88831428D01*
X69401904Y-88736190D01*
X69354285Y-88688571D01*
X69259047Y-88640952D01*
X70401904Y-89212380D02*
X69830476Y-89212380D01*
X70116190Y-89212380D02*
X70116190Y-88212380D01*
X70020952Y-88355238D01*
X69925714Y-88450476D01*
X69830476Y-88498095D01*
D13*
%TO.C,R46*%
X110467064Y-146755000D02*
X110012936Y-146755000D01*
X110467064Y-148225000D02*
X110012936Y-148225000D01*
%TO.C,R98*%
X77359564Y-28925000D02*
X76905436Y-28925000D01*
X77359564Y-30395000D02*
X76905436Y-30395000D01*
%TO.C,R39*%
X77317064Y-118208600D02*
X76862936Y-118208600D01*
X77317064Y-119678600D02*
X76862936Y-119678600D01*
%TO.C,J12*%
X92619000Y-71390000D02*
X93619000Y-71390000D01*
X103220000Y-111690000D02*
X103220000Y-111090000D01*
X92560000Y-111450000D02*
X102980000Y-111450000D01*
X92619000Y-78890000D02*
X92619000Y-76390000D01*
X92619000Y-106390000D02*
X93619000Y-106390000D01*
X92619000Y-68890000D02*
X93619000Y-68890000D01*
X93619000Y-71390000D02*
X93619000Y-68890000D01*
X92619000Y-108890000D02*
X92619000Y-106390000D01*
X92619000Y-83890000D02*
X93619000Y-83890000D01*
X93619000Y-86390000D02*
X93619000Y-83890000D01*
X92619000Y-71390000D02*
X92619000Y-68890000D01*
X102980000Y-111450000D02*
X102980000Y-66330000D01*
X92619000Y-101390000D02*
X92619000Y-98890000D01*
X92619000Y-91390000D02*
X93619000Y-91390000D01*
X92619000Y-76390000D02*
X93619000Y-76390000D01*
X102380000Y-111690000D02*
X103220000Y-111690000D01*
X92619000Y-86390000D02*
X92619000Y-83890000D01*
X102320000Y-111450000D02*
X102320000Y-66330000D01*
X92619000Y-101390000D02*
X93619000Y-101390000D01*
X94619000Y-111450000D02*
X94619000Y-66330000D01*
X93619000Y-101390000D02*
X93619000Y-98890000D01*
X92619000Y-108890000D02*
X93619000Y-108890000D01*
X93619000Y-93890000D02*
X93619000Y-91390000D01*
X92560000Y-66330000D02*
X102980000Y-66330000D01*
X93619000Y-78890000D02*
X93619000Y-76390000D01*
X93619000Y-108890000D02*
X93619000Y-106390000D01*
X92619000Y-78890000D02*
X93619000Y-78890000D01*
X92619000Y-86390000D02*
X93619000Y-86390000D01*
X92560000Y-111450000D02*
X92560000Y-66330000D01*
X101720000Y-111450000D02*
X101720000Y-66330000D01*
X92619000Y-98890000D02*
X93619000Y-98890000D01*
X92619000Y-93890000D02*
X93619000Y-93890000D01*
X92619000Y-93890000D02*
X92619000Y-91390000D01*
X97131000Y-109124000D02*
G75*
G03*
X98709089Y-109123953I789000J1483995D01*
G01*
X99600000Y-107640000D02*
G75*
G03*
X99403352Y-106851288I-1680000J0D01*
G01*
X99404000Y-108429000D02*
G75*
G03*
X99600450Y-107610617I-1483995J788998D01*
G01*
X98709000Y-106155999D02*
G75*
G03*
X97130911Y-106156047I-789000J-1484001D01*
G01*
X96436000Y-106851000D02*
G75*
G03*
X96436047Y-108429089I1483995J-789000D01*
G01*
X99600000Y-92640000D02*
G75*
G03*
X99600000Y-92640000I-1680000J0D01*
G01*
X99600000Y-85140000D02*
G75*
G03*
X99600000Y-85140000I-1680000J0D01*
G01*
X99600000Y-77640000D02*
G75*
G03*
X99600000Y-77640000I-1680000J0D01*
G01*
X99600000Y-70140000D02*
G75*
G03*
X99600000Y-70140000I-1680000J0D01*
G01*
X99600000Y-100140000D02*
G75*
G03*
X99600000Y-100140000I-1680000J0D01*
G01*
%TO.C,J7*%
X147800000Y-105180000D02*
X147800000Y-133180000D01*
X146470000Y-102580000D02*
X147800000Y-102580000D01*
X142600000Y-102580000D02*
X145200000Y-102580000D01*
X145200000Y-105180000D02*
X147800000Y-105180000D01*
X142600000Y-133180000D02*
X147800000Y-133180000D01*
X147800000Y-102580000D02*
X147800000Y-103910000D01*
X142600000Y-102580000D02*
X142600000Y-133180000D01*
X145200000Y-102580000D02*
X145200000Y-105180000D01*
%TO.C,R22*%
X108742064Y-78590000D02*
X107287936Y-78590000D01*
X108742064Y-76770000D02*
X107287936Y-76770000D01*
%TO.C,C1*%
X159058748Y-46455000D02*
X159581252Y-46455000D01*
X159058748Y-44985000D02*
X159581252Y-44985000D01*
%TO.C,R108*%
X69367064Y-39085000D02*
X68912936Y-39085000D01*
X69367064Y-40555000D02*
X68912936Y-40555000D01*
%TO.C,U2*%
X179810000Y-62480000D02*
X179010000Y-62480000D01*
X179810000Y-59360000D02*
X178010000Y-59360000D01*
X179810000Y-59360000D02*
X180610000Y-59360000D01*
X179810000Y-62480000D02*
X180610000Y-62480000D01*
%TO.C,R2*%
X219965000Y-50367064D02*
X219965000Y-49912936D01*
X218495000Y-50367064D02*
X218495000Y-49912936D01*
%TO.C,R97*%
X77359564Y-34045000D02*
X76905436Y-34045000D01*
X77359564Y-35515000D02*
X76905436Y-35515000D01*
%TO.C,R58*%
X102937064Y-148235000D02*
X102482936Y-148235000D01*
X102937064Y-146765000D02*
X102482936Y-146765000D01*
%TO.C,C3*%
X183558748Y-38985000D02*
X184081252Y-38985000D01*
X183558748Y-40455000D02*
X184081252Y-40455000D01*
%TO.C,R84*%
X69367064Y-72555000D02*
X68912936Y-72555000D01*
X69367064Y-71085000D02*
X68912936Y-71085000D01*
%TO.C,R109*%
X69367064Y-35525000D02*
X68912936Y-35525000D01*
X69367064Y-34055000D02*
X68912936Y-34055000D01*
%TO.C,R82*%
X69367064Y-82705000D02*
X68912936Y-82705000D01*
X69367064Y-81235000D02*
X68912936Y-81235000D01*
%TO.C,C12*%
X169743600Y-76031252D02*
X169743600Y-75508748D01*
X171213600Y-76031252D02*
X171213600Y-75508748D01*
%TO.C,R29*%
X70067064Y-140007800D02*
X69612936Y-140007800D01*
X70067064Y-141477800D02*
X69612936Y-141477800D01*
%TO.C,R14*%
X108742064Y-108570000D02*
X107287936Y-108570000D01*
X108742064Y-106750000D02*
X107287936Y-106750000D01*
%TO.C,R12*%
X117132064Y-93530000D02*
X115677936Y-93530000D01*
X117132064Y-91710000D02*
X115677936Y-91710000D01*
%TO.C,R70*%
X77284564Y-81205000D02*
X76830436Y-81205000D01*
X77284564Y-82675000D02*
X76830436Y-82675000D01*
%TO.C,R5*%
X197424936Y-69582000D02*
X197879064Y-69582000D01*
X197424936Y-71052000D02*
X197879064Y-71052000D01*
%TO.C,R92*%
X111267064Y-35285000D02*
X110812936Y-35285000D01*
X111267064Y-33815000D02*
X110812936Y-33815000D01*
%TO.C,J8*%
X182725000Y-140165000D02*
X182725000Y-134965000D01*
X152125000Y-140165000D02*
X152125000Y-137565000D01*
X154725000Y-134965000D02*
X182725000Y-134965000D01*
X152125000Y-136295000D02*
X152125000Y-134965000D01*
X152125000Y-134965000D02*
X153455000Y-134965000D01*
X154725000Y-137565000D02*
X154725000Y-134965000D01*
X152125000Y-140165000D02*
X182725000Y-140165000D01*
X152125000Y-137565000D02*
X154725000Y-137565000D01*
%TO.C,R11*%
X117132064Y-106750000D02*
X115677936Y-106750000D01*
X117132064Y-108570000D02*
X115677936Y-108570000D01*
%TO.C,R27*%
X70067064Y-150167800D02*
X69612936Y-150167800D01*
X70067064Y-151637800D02*
X69612936Y-151637800D01*
%TO.C,R40*%
X110467064Y-153285000D02*
X110012936Y-153285000D01*
X110467064Y-151815000D02*
X110012936Y-151815000D01*
%TO.C,C8*%
X187055000Y-54458748D02*
X187055000Y-54981252D01*
X185585000Y-54458748D02*
X185585000Y-54981252D01*
%TO.C,C5*%
X170581252Y-53985000D02*
X170058748Y-53985000D01*
X170581252Y-55455000D02*
X170058748Y-55455000D01*
%TO.C,R64*%
X77284564Y-87815000D02*
X76830436Y-87815000D01*
X77284564Y-86345000D02*
X76830436Y-86345000D01*
%TO.C,R48*%
X110467064Y-136605000D02*
X110012936Y-136605000D01*
X110467064Y-138075000D02*
X110012936Y-138075000D01*
%TO.C,R16*%
X77427064Y-145103800D02*
X76972936Y-145103800D01*
X77427064Y-146573800D02*
X76972936Y-146573800D01*
%TO.C,R28*%
X70067064Y-146557800D02*
X69612936Y-146557800D01*
X70067064Y-145087800D02*
X69612936Y-145087800D01*
%TO.C,R55*%
X69977064Y-99386000D02*
X69522936Y-99386000D01*
X69977064Y-97916000D02*
X69522936Y-97916000D01*
%TO.C,R42*%
X77317064Y-108090800D02*
X76862936Y-108090800D01*
X77317064Y-109560800D02*
X76862936Y-109560800D01*
%TO.C,R18*%
X77427064Y-136439200D02*
X76972936Y-136439200D01*
X77427064Y-134969200D02*
X76972936Y-134969200D01*
%TO.C,J16*%
X64200000Y-88590000D02*
X64200000Y-57529000D01*
X64440000Y-88830000D02*
X64440000Y-88330000D01*
X58340000Y-88590000D02*
X58340000Y-57529000D01*
X57880000Y-88590000D02*
X64200000Y-88590000D01*
X63640000Y-88590000D02*
X63640000Y-57529000D01*
X57880000Y-57529000D02*
X64200000Y-57529000D01*
X63700000Y-88830000D02*
X64440000Y-88830000D01*
X57880000Y-88590000D02*
X57880000Y-57529000D01*
%TO.C,U1*%
X173480000Y-46130000D02*
X173480000Y-44870000D01*
X169720000Y-46130000D02*
X173480000Y-46130000D01*
X173480000Y-39310000D02*
X173480000Y-40570000D01*
X167470000Y-39310000D02*
X173480000Y-39310000D01*
%TO.C,R87*%
X111267064Y-54095000D02*
X110812936Y-54095000D01*
X111267064Y-55565000D02*
X110812936Y-55565000D01*
D10*
%TO.C,J1*%
X207965500Y-125380000D02*
X207965500Y-123630000D01*
X213934500Y-125380000D02*
X213934500Y-123630000D01*
X213934500Y-143630000D02*
X213934500Y-141880000D01*
X211650000Y-143630000D02*
X213934500Y-143630000D01*
X207965500Y-141880000D02*
X207965500Y-143630000D01*
X213934500Y-123630000D02*
X211650000Y-123630000D01*
X207965500Y-123630000D02*
X208450000Y-123630000D01*
X207965500Y-143630000D02*
X208450000Y-143630000D01*
X207450000Y-142130000D02*
G75*
G03*
X207450000Y-142130000I-100000J0D01*
G01*
D13*
%TO.C,R90*%
X111267064Y-45405000D02*
X110812936Y-45405000D01*
X111267064Y-43935000D02*
X110812936Y-43935000D01*
%TO.C,R106*%
X69367064Y-49285000D02*
X68912936Y-49285000D01*
X69367064Y-50755000D02*
X68912936Y-50755000D01*
%TO.C,R21*%
X108742064Y-91710000D02*
X107287936Y-91710000D01*
X108742064Y-93530000D02*
X107287936Y-93530000D01*
%TO.C,R3*%
X218495000Y-93977064D02*
X218495000Y-93522936D01*
X219965000Y-93977064D02*
X219965000Y-93522936D01*
%TO.C,R94*%
X77359564Y-50745000D02*
X76905436Y-50745000D01*
X77359564Y-49275000D02*
X76905436Y-49275000D01*
%TO.C,R17*%
X77427064Y-140023800D02*
X76972936Y-140023800D01*
X77427064Y-141493800D02*
X76972936Y-141493800D01*
%TO.C,J10*%
X152185000Y-93055000D02*
X180185000Y-93055000D01*
X149585000Y-95655000D02*
X152185000Y-95655000D01*
X149585000Y-98255000D02*
X149585000Y-95655000D01*
X180185000Y-98255000D02*
X180185000Y-93055000D01*
X149585000Y-98255000D02*
X180185000Y-98255000D01*
X149585000Y-94385000D02*
X149585000Y-93055000D01*
X152185000Y-95655000D02*
X152185000Y-93055000D01*
X149585000Y-93055000D02*
X150915000Y-93055000D01*
%TO.C,J13*%
X57870000Y-120530000D02*
X57870000Y-89469000D01*
X63690000Y-120770000D02*
X64430000Y-120770000D01*
X64190000Y-120530000D02*
X64190000Y-89469000D01*
X58330000Y-120530000D02*
X58330000Y-89469000D01*
X64430000Y-120770000D02*
X64430000Y-120270000D01*
X63630000Y-120530000D02*
X63630000Y-89469000D01*
X57870000Y-120530000D02*
X64190000Y-120530000D01*
X57870000Y-89469000D02*
X64190000Y-89469000D01*
%TO.C,TP1*%
X193800000Y-46930000D02*
G75*
G03*
X193800000Y-46930000I-1450000J0D01*
G01*
%TO.C,R59*%
X102937064Y-143135000D02*
X102482936Y-143135000D01*
X102937064Y-141665000D02*
X102482936Y-141665000D01*
%TO.C,R107*%
X69367064Y-44185000D02*
X68912936Y-44185000D01*
X69367064Y-45655000D02*
X68912936Y-45655000D01*
%TO.C,R23*%
X141657064Y-95405000D02*
X141202936Y-95405000D01*
X141657064Y-93935000D02*
X141202936Y-93935000D01*
%TO.C,R103*%
X103497064Y-33785000D02*
X103042936Y-33785000D01*
X103497064Y-35255000D02*
X103042936Y-35255000D01*
%TO.C,R54*%
X69977064Y-104468400D02*
X69522936Y-104468400D01*
X69977064Y-102998400D02*
X69522936Y-102998400D01*
%TO.C,C2*%
X159058748Y-38985000D02*
X159581252Y-38985000D01*
X159058748Y-40455000D02*
X159581252Y-40455000D01*
%TO.C,R32*%
X70067064Y-126237800D02*
X69612936Y-126237800D01*
X70067064Y-124767800D02*
X69612936Y-124767800D01*
%TO.C,R57*%
X102937064Y-153295000D02*
X102482936Y-153295000D01*
X102937064Y-151825000D02*
X102482936Y-151825000D01*
%TO.C,C9*%
X184755000Y-76031252D02*
X184755000Y-75508748D01*
X186225000Y-76031252D02*
X186225000Y-75508748D01*
%TO.C,R8*%
X124842064Y-108395000D02*
X124387936Y-108395000D01*
X124842064Y-106925000D02*
X124387936Y-106925000D01*
%TO.C,J11*%
X63682500Y-152701000D02*
X64422500Y-152701000D01*
X58322500Y-152461000D02*
X58322500Y-121400000D01*
X57862500Y-121400000D02*
X64182500Y-121400000D01*
X63622500Y-152461000D02*
X63622500Y-121400000D01*
X57862500Y-152461000D02*
X64182500Y-152461000D01*
X64422500Y-152701000D02*
X64422500Y-152201000D01*
X57862500Y-152461000D02*
X57862500Y-121400000D01*
X64182500Y-152461000D02*
X64182500Y-121400000D01*
%TO.C,R60*%
X102937064Y-136615000D02*
X102482936Y-136615000D01*
X102937064Y-138085000D02*
X102482936Y-138085000D01*
%TO.C,R15*%
X77427064Y-151653800D02*
X76972936Y-151653800D01*
X77427064Y-150183800D02*
X76972936Y-150183800D01*
%TO.C,C7*%
X191228800Y-76031252D02*
X191228800Y-75508748D01*
X189758800Y-76031252D02*
X189758800Y-75508748D01*
%TO.C,R85*%
X69367064Y-66005000D02*
X68912936Y-66005000D01*
X69367064Y-67475000D02*
X68912936Y-67475000D01*
%TO.C,R50*%
X110467064Y-126425000D02*
X110012936Y-126425000D01*
X110467064Y-127895000D02*
X110012936Y-127895000D01*
%TO.C,C10*%
X179751200Y-76031252D02*
X179751200Y-75508748D01*
X181221200Y-76031252D02*
X181221200Y-75508748D01*
%TO.C,R30*%
X70067064Y-134953200D02*
X69612936Y-134953200D01*
X70067064Y-136423200D02*
X69612936Y-136423200D01*
%TO.C,R62*%
X102937064Y-127905000D02*
X102482936Y-127905000D01*
X102937064Y-126435000D02*
X102482936Y-126435000D01*
%TO.C,R6*%
X190084336Y-69582000D02*
X190538464Y-69582000D01*
X190084336Y-71052000D02*
X190538464Y-71052000D01*
%TO.C,R99*%
X103497064Y-54065000D02*
X103042936Y-54065000D01*
X103497064Y-55535000D02*
X103042936Y-55535000D01*
%TO.C,R20*%
X77427064Y-126253800D02*
X76972936Y-126253800D01*
X77427064Y-124783800D02*
X76972936Y-124783800D01*
%TO.C,R13*%
X117132064Y-78590000D02*
X115677936Y-78590000D01*
X117132064Y-76770000D02*
X115677936Y-76770000D01*
%TO.C,R61*%
X102937064Y-132975000D02*
X102482936Y-132975000D01*
X102937064Y-131505000D02*
X102482936Y-131505000D01*
%TO.C,C11*%
X176217400Y-76031252D02*
X176217400Y-75508748D01*
X174747400Y-76031252D02*
X174747400Y-75508748D01*
%TO.C,R95*%
X77359564Y-44175000D02*
X76905436Y-44175000D01*
X77359564Y-45645000D02*
X76905436Y-45645000D01*
%TO.C,R71*%
X77284564Y-77605000D02*
X76830436Y-77605000D01*
X77284564Y-76135000D02*
X76830436Y-76135000D01*
%TO.C,R53*%
X69977064Y-108090800D02*
X69522936Y-108090800D01*
X69977064Y-109560800D02*
X69522936Y-109560800D01*
%TO.C,J18*%
X63650000Y-56660000D02*
X63650000Y-25599000D01*
X64210000Y-56660000D02*
X64210000Y-25599000D01*
X58350000Y-56660000D02*
X58350000Y-25599000D01*
X63710000Y-56900000D02*
X64450000Y-56900000D01*
X57890000Y-56660000D02*
X64210000Y-56660000D01*
X57890000Y-56660000D02*
X57890000Y-25599000D01*
X57890000Y-25599000D02*
X64210000Y-25599000D01*
X64450000Y-56900000D02*
X64450000Y-56400000D01*
D10*
%TO.C,J4*%
X237965500Y-38180000D02*
X237965500Y-36430000D01*
X237965500Y-56430000D02*
X238450000Y-56430000D01*
X243934500Y-56430000D02*
X243934500Y-54680000D01*
X241650000Y-56430000D02*
X243934500Y-56430000D01*
X237965500Y-36430000D02*
X238450000Y-36430000D01*
X237965500Y-54680000D02*
X237965500Y-56430000D01*
X243934500Y-38180000D02*
X243934500Y-36430000D01*
X243934500Y-36430000D02*
X241650000Y-36430000D01*
X237450000Y-54930000D02*
G75*
G03*
X237450000Y-54930000I-100000J0D01*
G01*
D13*
%TO.C,R91*%
X111267064Y-38825000D02*
X110812936Y-38825000D01*
X111267064Y-40295000D02*
X110812936Y-40295000D01*
%TO.C,R73*%
X77284564Y-67445000D02*
X76830436Y-67445000D01*
X77284564Y-65975000D02*
X76830436Y-65975000D01*
%TO.C,R93*%
X111267064Y-28675000D02*
X110812936Y-28675000D01*
X111267064Y-30145000D02*
X110812936Y-30145000D01*
%TO.C,R43*%
X77317064Y-104468400D02*
X76862936Y-104468400D01*
X77317064Y-102998400D02*
X76862936Y-102998400D01*
%TO.C,R10*%
X124842064Y-78415000D02*
X124387936Y-78415000D01*
X124842064Y-76945000D02*
X124387936Y-76945000D01*
%TO.C,R45*%
X77317064Y-92819200D02*
X76862936Y-92819200D01*
X77317064Y-94289200D02*
X76862936Y-94289200D01*
%TO.C,R102*%
X103497064Y-38795000D02*
X103042936Y-38795000D01*
X103497064Y-40265000D02*
X103042936Y-40265000D01*
%TO.C,J14*%
X89760000Y-154130000D02*
X96080000Y-154130000D01*
X89760000Y-123069000D02*
X96080000Y-123069000D01*
X90220000Y-154130000D02*
X90220000Y-123069000D01*
X96320000Y-154370000D02*
X96320000Y-153870000D01*
X95520000Y-154130000D02*
X95520000Y-123069000D01*
X89760000Y-154130000D02*
X89760000Y-123069000D01*
X96080000Y-154130000D02*
X96080000Y-123069000D01*
X95580000Y-154370000D02*
X96320000Y-154370000D01*
%TO.C,J17*%
X90220000Y-56360000D02*
X90220000Y-25299000D01*
X89760000Y-56360000D02*
X89760000Y-25299000D01*
X95520000Y-56360000D02*
X95520000Y-25299000D01*
X89760000Y-25299000D02*
X96080000Y-25299000D01*
X96080000Y-56360000D02*
X96080000Y-25299000D01*
X95580000Y-56600000D02*
X96320000Y-56600000D01*
X96320000Y-56600000D02*
X96320000Y-56100000D01*
X89760000Y-56360000D02*
X96080000Y-56360000D01*
%TO.C,R110*%
X69367064Y-30405000D02*
X68912936Y-30405000D01*
X69367064Y-28935000D02*
X68912936Y-28935000D01*
%TO.C,R96*%
X77359564Y-39075000D02*
X76905436Y-39075000D01*
X77359564Y-40545000D02*
X76905436Y-40545000D01*
D10*
%TO.C,J5*%
X211650000Y-100030000D02*
X213934500Y-100030000D01*
X213934500Y-100030000D02*
X213934500Y-98280000D01*
X207965500Y-98280000D02*
X207965500Y-100030000D01*
X213934500Y-80030000D02*
X211650000Y-80030000D01*
X213934500Y-81780000D02*
X213934500Y-80030000D01*
X207965500Y-80030000D02*
X208450000Y-80030000D01*
X207965500Y-81780000D02*
X207965500Y-80030000D01*
X207965500Y-100030000D02*
X208450000Y-100030000D01*
X207450000Y-98530000D02*
G75*
G03*
X207450000Y-98530000I-100000J0D01*
G01*
%TO.C,J6*%
X243934500Y-100030000D02*
X243934500Y-98280000D01*
X243934500Y-80030000D02*
X241650000Y-80030000D01*
X237965500Y-98280000D02*
X237965500Y-100030000D01*
X237965500Y-100030000D02*
X238450000Y-100030000D01*
X237965500Y-81780000D02*
X237965500Y-80030000D01*
X243934500Y-81780000D02*
X243934500Y-80030000D01*
X241650000Y-100030000D02*
X243934500Y-100030000D01*
X237965500Y-80030000D02*
X238450000Y-80030000D01*
X237450000Y-98530000D02*
G75*
G03*
X237450000Y-98530000I-100000J0D01*
G01*
D13*
%TO.C,R9*%
X124842064Y-93355000D02*
X124387936Y-93355000D01*
X124842064Y-91885000D02*
X124387936Y-91885000D01*
%TO.C,R74*%
X77284564Y-60885000D02*
X76830436Y-60885000D01*
X77284564Y-62355000D02*
X76830436Y-62355000D01*
%TO.C,R41*%
X77317064Y-114624000D02*
X76862936Y-114624000D01*
X77317064Y-113154000D02*
X76862936Y-113154000D01*
%TO.C,R51*%
X69977064Y-118208600D02*
X69522936Y-118208600D01*
X69977064Y-119678600D02*
X69522936Y-119678600D01*
D10*
%TO.C,J2*%
X213934500Y-36430000D02*
X211650000Y-36430000D01*
X213934500Y-56430000D02*
X213934500Y-54680000D01*
X207965500Y-54680000D02*
X207965500Y-56430000D01*
X213934500Y-38180000D02*
X213934500Y-36430000D01*
X207965500Y-38180000D02*
X207965500Y-36430000D01*
X207965500Y-36430000D02*
X208450000Y-36430000D01*
X211650000Y-56430000D02*
X213934500Y-56430000D01*
X207965500Y-56430000D02*
X208450000Y-56430000D01*
X207450000Y-54930000D02*
G75*
G03*
X207450000Y-54930000I-100000J0D01*
G01*
D13*
%TO.C,R52*%
X69977064Y-113154000D02*
X69522936Y-113154000D01*
X69977064Y-114624000D02*
X69522936Y-114624000D01*
D10*
%TO.C,J3*%
X243934500Y-125380000D02*
X243934500Y-123630000D01*
X237965500Y-125380000D02*
X237965500Y-123630000D01*
X243934500Y-123630000D02*
X241650000Y-123630000D01*
X237965500Y-141880000D02*
X237965500Y-143630000D01*
X237965500Y-123630000D02*
X238450000Y-123630000D01*
X243934500Y-143630000D02*
X243934500Y-141880000D01*
X237965500Y-143630000D02*
X238450000Y-143630000D01*
X241650000Y-143630000D02*
X243934500Y-143630000D01*
X237450000Y-142130000D02*
G75*
G03*
X237450000Y-142130000I-100000J0D01*
G01*
D13*
%TO.C,R7*%
X197424936Y-60082400D02*
X197879064Y-60082400D01*
X197424936Y-61552400D02*
X197879064Y-61552400D01*
%TO.C,R31*%
X70067064Y-129873200D02*
X69612936Y-129873200D01*
X70067064Y-131343200D02*
X69612936Y-131343200D01*
%TO.C,R83*%
X69367064Y-77635000D02*
X68912936Y-77635000D01*
X69367064Y-76165000D02*
X68912936Y-76165000D01*
%TO.C,R88*%
X77359564Y-55815000D02*
X76905436Y-55815000D01*
X77359564Y-54345000D02*
X76905436Y-54345000D01*
%TO.C,R72*%
X77284564Y-72525000D02*
X76830436Y-72525000D01*
X77284564Y-71055000D02*
X76830436Y-71055000D01*
%TO.C,R4*%
X190084336Y-61552400D02*
X190538464Y-61552400D01*
X190084336Y-60082400D02*
X190538464Y-60082400D01*
%TO.C,J9*%
X189710000Y-100040000D02*
X184510000Y-100040000D01*
X189710000Y-130640000D02*
X187110000Y-130640000D01*
X185840000Y-130640000D02*
X184510000Y-130640000D01*
X189710000Y-130640000D02*
X189710000Y-100040000D01*
X187110000Y-130640000D02*
X187110000Y-128040000D01*
X184510000Y-128040000D02*
X184510000Y-100040000D01*
X187110000Y-128040000D02*
X184510000Y-128040000D01*
X184510000Y-130640000D02*
X184510000Y-129310000D01*
%TO.C,C4*%
X183558748Y-46455000D02*
X184081252Y-46455000D01*
X183558748Y-44985000D02*
X184081252Y-44985000D01*
%TO.C,R100*%
X103497064Y-48975000D02*
X103042936Y-48975000D01*
X103497064Y-50445000D02*
X103042936Y-50445000D01*
%TO.C,R47*%
X110467064Y-141655000D02*
X110012936Y-141655000D01*
X110467064Y-143125000D02*
X110012936Y-143125000D01*
%TO.C,R49*%
X110467064Y-131495000D02*
X110012936Y-131495000D01*
X110467064Y-132965000D02*
X110012936Y-132965000D01*
%TO.C,R86*%
X69367064Y-62385000D02*
X68912936Y-62385000D01*
X69367064Y-60915000D02*
X68912936Y-60915000D01*
%TO.C,R1*%
X219965000Y-137587064D02*
X219965000Y-137132936D01*
X218495000Y-137587064D02*
X218495000Y-137132936D01*
%TO.C,R104*%
X103497064Y-30115000D02*
X103042936Y-30115000D01*
X103497064Y-28645000D02*
X103042936Y-28645000D01*
%TO.C,R19*%
X77427064Y-131359200D02*
X76972936Y-131359200D01*
X77427064Y-129889200D02*
X76972936Y-129889200D01*
%TO.C,R44*%
X77317064Y-97916000D02*
X76862936Y-97916000D01*
X77317064Y-99386000D02*
X76862936Y-99386000D01*
%TO.C,R101*%
X103497064Y-45375000D02*
X103042936Y-45375000D01*
X103497064Y-43905000D02*
X103042936Y-43905000D01*
%TO.C,R89*%
X111267064Y-49005000D02*
X110812936Y-49005000D01*
X111267064Y-50475000D02*
X110812936Y-50475000D01*
%TO.C,R56*%
X69977064Y-94289200D02*
X69522936Y-94289200D01*
X69977064Y-92819200D02*
X69522936Y-92819200D01*
%TO.C,C6*%
X170581252Y-60985000D02*
X170058748Y-60985000D01*
X170581252Y-62455000D02*
X170058748Y-62455000D01*
%TO.C,R105*%
X69367064Y-54355000D02*
X68912936Y-54355000D01*
X69367064Y-55825000D02*
X68912936Y-55825000D01*
%TO.C,R81*%
X69367064Y-87845000D02*
X68912936Y-87845000D01*
X69367064Y-86375000D02*
X68912936Y-86375000D01*
%TD*%
M02*
