%TF.GenerationSoftware,KiCad,Pcbnew,(6.0.11-0)*%
%TF.CreationDate,2023-06-08T09:18:10-04:00*%
%TF.ProjectId,Mux64,4d757836-342e-46b6-9963-61645f706362,rev?*%
%TF.SameCoordinates,Original*%
%TF.FileFunction,Paste,Top*%
%TF.FilePolarity,Positive*%
%FSLAX46Y46*%
G04 Gerber Fmt 4.6, Leading zero omitted, Abs format (unit mm)*
G04 Created by KiCad (PCBNEW (6.0.11-0)) date 2023-06-08 09:18:10*
%MOMM*%
%LPD*%
G01*
G04 APERTURE LIST*
G04 Aperture macros list*
%AMRoundRect*
0 Rectangle with rounded corners*
0 $1 Rounding radius*
0 $2 $3 $4 $5 $6 $7 $8 $9 X,Y pos of 4 corners*
0 Add a 4 corners polygon primitive as box body*
4,1,4,$2,$3,$4,$5,$6,$7,$8,$9,$2,$3,0*
0 Add four circle primitives for the rounded corners*
1,1,$1+$1,$2,$3*
1,1,$1+$1,$4,$5*
1,1,$1+$1,$6,$7*
1,1,$1+$1,$8,$9*
0 Add four rect primitives between the rounded corners*
20,1,$1+$1,$2,$3,$4,$5,0*
20,1,$1+$1,$4,$5,$6,$7,0*
20,1,$1+$1,$6,$7,$8,$9,0*
20,1,$1+$1,$8,$9,$2,$3,0*%
G04 Aperture macros list end*
%ADD10RoundRect,0.250000X0.262500X0.450000X-0.262500X0.450000X-0.262500X-0.450000X0.262500X-0.450000X0*%
%ADD11RoundRect,0.250000X0.312500X0.625000X-0.312500X0.625000X-0.312500X-0.625000X0.312500X-0.625000X0*%
%ADD12RoundRect,0.250000X-0.250000X-0.475000X0.250000X-0.475000X0.250000X0.475000X-0.250000X0.475000X0*%
%ADD13RoundRect,0.150000X-0.512500X-0.150000X0.512500X-0.150000X0.512500X0.150000X-0.512500X0.150000X0*%
%ADD14RoundRect,0.250000X0.450000X-0.262500X0.450000X0.262500X-0.450000X0.262500X-0.450000X-0.262500X0*%
%ADD15RoundRect,0.250000X0.475000X-0.250000X0.475000X0.250000X-0.475000X0.250000X-0.475000X-0.250000X0*%
%ADD16RoundRect,0.250000X-0.262500X-0.450000X0.262500X-0.450000X0.262500X0.450000X-0.262500X0.450000X0*%
%ADD17RoundRect,0.250000X-0.475000X0.250000X-0.475000X-0.250000X0.475000X-0.250000X0.475000X0.250000X0*%
%ADD18RoundRect,0.250000X0.250000X0.475000X-0.250000X0.475000X-0.250000X-0.475000X0.250000X-0.475000X0*%
%ADD19R,2.000000X1.500000*%
%ADD20R,2.000000X3.800000*%
%ADD21R,1.450000X0.460000*%
%ADD22R,0.640000X2.540000*%
%ADD23R,0.640000X4.700000*%
G04 APERTURE END LIST*
D10*
%TO.C,R46*%
X111152500Y-147490000D03*
X109327500Y-147490000D03*
%TD*%
%TO.C,R98*%
X78045000Y-29660000D03*
X76220000Y-29660000D03*
%TD*%
%TO.C,R39*%
X78002500Y-118943600D03*
X76177500Y-118943600D03*
%TD*%
D11*
%TO.C,R22*%
X109477500Y-77680000D03*
X106552500Y-77680000D03*
%TD*%
D12*
%TO.C,C1*%
X158370000Y-45720000D03*
X160270000Y-45720000D03*
%TD*%
D10*
%TO.C,R108*%
X70052500Y-39820000D03*
X68227500Y-39820000D03*
%TD*%
D13*
%TO.C,U2*%
X178672500Y-59970000D03*
X178672500Y-60920000D03*
X178672500Y-61870000D03*
X180947500Y-61870000D03*
X180947500Y-60920000D03*
X180947500Y-59970000D03*
%TD*%
D14*
%TO.C,R2*%
X219230000Y-51052500D03*
X219230000Y-49227500D03*
%TD*%
D10*
%TO.C,R97*%
X78045000Y-34780000D03*
X76220000Y-34780000D03*
%TD*%
%TO.C,R58*%
X103622500Y-147500000D03*
X101797500Y-147500000D03*
%TD*%
D12*
%TO.C,C3*%
X182870000Y-39720000D03*
X184770000Y-39720000D03*
%TD*%
D10*
%TO.C,R84*%
X70052500Y-71820000D03*
X68227500Y-71820000D03*
%TD*%
%TO.C,R109*%
X70052500Y-34790000D03*
X68227500Y-34790000D03*
%TD*%
%TO.C,R82*%
X70052500Y-81970000D03*
X68227500Y-81970000D03*
%TD*%
D15*
%TO.C,C12*%
X170478600Y-76720000D03*
X170478600Y-74820000D03*
%TD*%
D10*
%TO.C,R29*%
X70752500Y-140742800D03*
X68927500Y-140742800D03*
%TD*%
D11*
%TO.C,R14*%
X109477500Y-107660000D03*
X106552500Y-107660000D03*
%TD*%
%TO.C,R12*%
X117867500Y-92620000D03*
X114942500Y-92620000D03*
%TD*%
D10*
%TO.C,R70*%
X77970000Y-81940000D03*
X76145000Y-81940000D03*
%TD*%
D16*
%TO.C,R5*%
X196739500Y-70317000D03*
X198564500Y-70317000D03*
%TD*%
D10*
%TO.C,R92*%
X111952500Y-34550000D03*
X110127500Y-34550000D03*
%TD*%
D11*
%TO.C,R11*%
X117867500Y-107660000D03*
X114942500Y-107660000D03*
%TD*%
D10*
%TO.C,R27*%
X70752500Y-150902800D03*
X68927500Y-150902800D03*
%TD*%
%TO.C,R40*%
X111152500Y-152550000D03*
X109327500Y-152550000D03*
%TD*%
D17*
%TO.C,C8*%
X186320000Y-53770000D03*
X186320000Y-55670000D03*
%TD*%
D18*
%TO.C,C5*%
X171270000Y-54720000D03*
X169370000Y-54720000D03*
%TD*%
D10*
%TO.C,R64*%
X77970000Y-87080000D03*
X76145000Y-87080000D03*
%TD*%
%TO.C,R48*%
X111152500Y-137340000D03*
X109327500Y-137340000D03*
%TD*%
%TO.C,R16*%
X78112500Y-145838800D03*
X76287500Y-145838800D03*
%TD*%
%TO.C,R28*%
X70752500Y-145822800D03*
X68927500Y-145822800D03*
%TD*%
%TO.C,R55*%
X70662500Y-98651000D03*
X68837500Y-98651000D03*
%TD*%
%TO.C,R42*%
X78002500Y-108825800D03*
X76177500Y-108825800D03*
%TD*%
%TO.C,R18*%
X78112500Y-135704200D03*
X76287500Y-135704200D03*
%TD*%
D19*
%TO.C,U1*%
X168420000Y-40420000D03*
D20*
X174720000Y-42720000D03*
D19*
X168420000Y-42720000D03*
X168420000Y-45020000D03*
%TD*%
D10*
%TO.C,R87*%
X111952500Y-54830000D03*
X110127500Y-54830000D03*
%TD*%
D21*
%TO.C,J1*%
X207860000Y-141230000D03*
X214040000Y-141230000D03*
X207860000Y-140430000D03*
X214040000Y-140430000D03*
X207860000Y-139630000D03*
X214040000Y-139630000D03*
X207860000Y-138830000D03*
X214040000Y-138830000D03*
X207860000Y-138030000D03*
X214040000Y-138030000D03*
X207860000Y-137230000D03*
X214040000Y-137230000D03*
X207860000Y-136430000D03*
X214040000Y-136430000D03*
X207860000Y-135630000D03*
X214040000Y-135630000D03*
X207860000Y-134830000D03*
X214040000Y-134830000D03*
X207860000Y-134030000D03*
X214040000Y-134030000D03*
X207860000Y-133230000D03*
X214040000Y-133230000D03*
X207860000Y-132430000D03*
X214040000Y-132430000D03*
X207860000Y-131630000D03*
X214040000Y-131630000D03*
X207860000Y-130830000D03*
X214040000Y-130830000D03*
X207860000Y-130030000D03*
X214040000Y-130030000D03*
X207860000Y-129230000D03*
X214040000Y-129230000D03*
X207860000Y-128430000D03*
X214040000Y-128430000D03*
X207860000Y-127630000D03*
X214040000Y-127630000D03*
X207860000Y-126830000D03*
X214040000Y-126830000D03*
X207860000Y-126030000D03*
X214040000Y-126030000D03*
D22*
X210950000Y-142075000D03*
D23*
X210950000Y-136805000D03*
X210950000Y-130455000D03*
D22*
X210950000Y-125185000D03*
%TD*%
D10*
%TO.C,R90*%
X111952500Y-44670000D03*
X110127500Y-44670000D03*
%TD*%
%TO.C,R106*%
X70052500Y-50020000D03*
X68227500Y-50020000D03*
%TD*%
D11*
%TO.C,R21*%
X109477500Y-92620000D03*
X106552500Y-92620000D03*
%TD*%
D14*
%TO.C,R3*%
X219230000Y-94662500D03*
X219230000Y-92837500D03*
%TD*%
D10*
%TO.C,R94*%
X78045000Y-50010000D03*
X76220000Y-50010000D03*
%TD*%
%TO.C,R17*%
X78112500Y-140758800D03*
X76287500Y-140758800D03*
%TD*%
%TO.C,R59*%
X103622500Y-142400000D03*
X101797500Y-142400000D03*
%TD*%
%TO.C,R107*%
X70052500Y-44920000D03*
X68227500Y-44920000D03*
%TD*%
%TO.C,R23*%
X142342500Y-94670000D03*
X140517500Y-94670000D03*
%TD*%
%TO.C,R103*%
X104182500Y-34520000D03*
X102357500Y-34520000D03*
%TD*%
%TO.C,R54*%
X70662500Y-103733400D03*
X68837500Y-103733400D03*
%TD*%
D12*
%TO.C,C2*%
X158370000Y-39720000D03*
X160270000Y-39720000D03*
%TD*%
D10*
%TO.C,R32*%
X70752500Y-125502800D03*
X68927500Y-125502800D03*
%TD*%
%TO.C,R57*%
X103622500Y-152560000D03*
X101797500Y-152560000D03*
%TD*%
D15*
%TO.C,C9*%
X185490000Y-76720000D03*
X185490000Y-74820000D03*
%TD*%
D10*
%TO.C,R8*%
X125527500Y-107660000D03*
X123702500Y-107660000D03*
%TD*%
%TO.C,R60*%
X103622500Y-137350000D03*
X101797500Y-137350000D03*
%TD*%
%TO.C,R15*%
X78112500Y-150918800D03*
X76287500Y-150918800D03*
%TD*%
D15*
%TO.C,C7*%
X190493800Y-76720000D03*
X190493800Y-74820000D03*
%TD*%
D10*
%TO.C,R85*%
X70052500Y-66740000D03*
X68227500Y-66740000D03*
%TD*%
%TO.C,R50*%
X111152500Y-127160000D03*
X109327500Y-127160000D03*
%TD*%
D15*
%TO.C,C10*%
X180486200Y-76720000D03*
X180486200Y-74820000D03*
%TD*%
D10*
%TO.C,R30*%
X70752500Y-135688200D03*
X68927500Y-135688200D03*
%TD*%
%TO.C,R62*%
X103622500Y-127170000D03*
X101797500Y-127170000D03*
%TD*%
D16*
%TO.C,R6*%
X189398900Y-70317000D03*
X191223900Y-70317000D03*
%TD*%
D10*
%TO.C,R99*%
X104182500Y-54800000D03*
X102357500Y-54800000D03*
%TD*%
%TO.C,R20*%
X78112500Y-125518800D03*
X76287500Y-125518800D03*
%TD*%
D11*
%TO.C,R13*%
X117867500Y-77680000D03*
X114942500Y-77680000D03*
%TD*%
D10*
%TO.C,R61*%
X103622500Y-132240000D03*
X101797500Y-132240000D03*
%TD*%
D15*
%TO.C,C11*%
X175482400Y-76720000D03*
X175482400Y-74820000D03*
%TD*%
D10*
%TO.C,R95*%
X78045000Y-44910000D03*
X76220000Y-44910000D03*
%TD*%
%TO.C,R71*%
X77970000Y-76870000D03*
X76145000Y-76870000D03*
%TD*%
%TO.C,R53*%
X70662500Y-108825800D03*
X68837500Y-108825800D03*
%TD*%
D21*
%TO.C,J4*%
X237860000Y-54030000D03*
X244040000Y-54030000D03*
X237860000Y-53230000D03*
X244040000Y-53230000D03*
X237860000Y-52430000D03*
X244040000Y-52430000D03*
X237860000Y-51630000D03*
X244040000Y-51630000D03*
X237860000Y-50830000D03*
X244040000Y-50830000D03*
X237860000Y-50030000D03*
X244040000Y-50030000D03*
X237860000Y-49230000D03*
X244040000Y-49230000D03*
X237860000Y-48430000D03*
X244040000Y-48430000D03*
X237860000Y-47630000D03*
X244040000Y-47630000D03*
X237860000Y-46830000D03*
X244040000Y-46830000D03*
X237860000Y-46030000D03*
X244040000Y-46030000D03*
X237860000Y-45230000D03*
X244040000Y-45230000D03*
X237860000Y-44430000D03*
X244040000Y-44430000D03*
X237860000Y-43630000D03*
X244040000Y-43630000D03*
X237860000Y-42830000D03*
X244040000Y-42830000D03*
X237860000Y-42030000D03*
X244040000Y-42030000D03*
X237860000Y-41230000D03*
X244040000Y-41230000D03*
X237860000Y-40430000D03*
X244040000Y-40430000D03*
X237860000Y-39630000D03*
X244040000Y-39630000D03*
X237860000Y-38830000D03*
X244040000Y-38830000D03*
D22*
X240950000Y-54875000D03*
D23*
X240950000Y-49605000D03*
X240950000Y-43255000D03*
D22*
X240950000Y-37985000D03*
%TD*%
D10*
%TO.C,R91*%
X111952500Y-39560000D03*
X110127500Y-39560000D03*
%TD*%
%TO.C,R73*%
X77970000Y-66710000D03*
X76145000Y-66710000D03*
%TD*%
%TO.C,R93*%
X111952500Y-29410000D03*
X110127500Y-29410000D03*
%TD*%
%TO.C,R43*%
X78002500Y-103733400D03*
X76177500Y-103733400D03*
%TD*%
%TO.C,R10*%
X125527500Y-77680000D03*
X123702500Y-77680000D03*
%TD*%
%TO.C,R45*%
X78002500Y-93554200D03*
X76177500Y-93554200D03*
%TD*%
%TO.C,R102*%
X104182500Y-39530000D03*
X102357500Y-39530000D03*
%TD*%
%TO.C,R110*%
X70052500Y-29670000D03*
X68227500Y-29670000D03*
%TD*%
%TO.C,R96*%
X78045000Y-39810000D03*
X76220000Y-39810000D03*
%TD*%
D21*
%TO.C,J5*%
X207860000Y-97630000D03*
X214040000Y-97630000D03*
X207860000Y-96830000D03*
X214040000Y-96830000D03*
X207860000Y-96030000D03*
X214040000Y-96030000D03*
X207860000Y-95230000D03*
X214040000Y-95230000D03*
X207860000Y-94430000D03*
X214040000Y-94430000D03*
X207860000Y-93630000D03*
X214040000Y-93630000D03*
X207860000Y-92830000D03*
X214040000Y-92830000D03*
X207860000Y-92030000D03*
X214040000Y-92030000D03*
X207860000Y-91230000D03*
X214040000Y-91230000D03*
X207860000Y-90430000D03*
X214040000Y-90430000D03*
X207860000Y-89630000D03*
X214040000Y-89630000D03*
X207860000Y-88830000D03*
X214040000Y-88830000D03*
X207860000Y-88030000D03*
X214040000Y-88030000D03*
X207860000Y-87230000D03*
X214040000Y-87230000D03*
X207860000Y-86430000D03*
X214040000Y-86430000D03*
X207860000Y-85630000D03*
X214040000Y-85630000D03*
X207860000Y-84830000D03*
X214040000Y-84830000D03*
X207860000Y-84030000D03*
X214040000Y-84030000D03*
X207860000Y-83230000D03*
X214040000Y-83230000D03*
X207860000Y-82430000D03*
X214040000Y-82430000D03*
D22*
X210950000Y-98475000D03*
D23*
X210950000Y-93205000D03*
X210950000Y-86855000D03*
D22*
X210950000Y-81585000D03*
%TD*%
D21*
%TO.C,J6*%
X237860000Y-97630000D03*
X244040000Y-97630000D03*
X237860000Y-96830000D03*
X244040000Y-96830000D03*
X237860000Y-96030000D03*
X244040000Y-96030000D03*
X237860000Y-95230000D03*
X244040000Y-95230000D03*
X237860000Y-94430000D03*
X244040000Y-94430000D03*
X237860000Y-93630000D03*
X244040000Y-93630000D03*
X237860000Y-92830000D03*
X244040000Y-92830000D03*
X237860000Y-92030000D03*
X244040000Y-92030000D03*
X237860000Y-91230000D03*
X244040000Y-91230000D03*
X237860000Y-90430000D03*
X244040000Y-90430000D03*
X237860000Y-89630000D03*
X244040000Y-89630000D03*
X237860000Y-88830000D03*
X244040000Y-88830000D03*
X237860000Y-88030000D03*
X244040000Y-88030000D03*
X237860000Y-87230000D03*
X244040000Y-87230000D03*
X237860000Y-86430000D03*
X244040000Y-86430000D03*
X237860000Y-85630000D03*
X244040000Y-85630000D03*
X237860000Y-84830000D03*
X244040000Y-84830000D03*
X237860000Y-84030000D03*
X244040000Y-84030000D03*
X237860000Y-83230000D03*
X244040000Y-83230000D03*
X237860000Y-82430000D03*
X244040000Y-82430000D03*
D22*
X240950000Y-98475000D03*
D23*
X240950000Y-93205000D03*
X240950000Y-86855000D03*
D22*
X240950000Y-81585000D03*
%TD*%
D10*
%TO.C,R9*%
X125527500Y-92620000D03*
X123702500Y-92620000D03*
%TD*%
%TO.C,R74*%
X77970000Y-61620000D03*
X76145000Y-61620000D03*
%TD*%
%TO.C,R41*%
X78002500Y-113889000D03*
X76177500Y-113889000D03*
%TD*%
%TO.C,R51*%
X70662500Y-118943600D03*
X68837500Y-118943600D03*
%TD*%
D21*
%TO.C,J2*%
X207860000Y-54030000D03*
X214040000Y-54030000D03*
X207860000Y-53230000D03*
X214040000Y-53230000D03*
X207860000Y-52430000D03*
X214040000Y-52430000D03*
X207860000Y-51630000D03*
X214040000Y-51630000D03*
X207860000Y-50830000D03*
X214040000Y-50830000D03*
X207860000Y-50030000D03*
X214040000Y-50030000D03*
X207860000Y-49230000D03*
X214040000Y-49230000D03*
X207860000Y-48430000D03*
X214040000Y-48430000D03*
X207860000Y-47630000D03*
X214040000Y-47630000D03*
X207860000Y-46830000D03*
X214040000Y-46830000D03*
X207860000Y-46030000D03*
X214040000Y-46030000D03*
X207860000Y-45230000D03*
X214040000Y-45230000D03*
X207860000Y-44430000D03*
X214040000Y-44430000D03*
X207860000Y-43630000D03*
X214040000Y-43630000D03*
X207860000Y-42830000D03*
X214040000Y-42830000D03*
X207860000Y-42030000D03*
X214040000Y-42030000D03*
X207860000Y-41230000D03*
X214040000Y-41230000D03*
X207860000Y-40430000D03*
X214040000Y-40430000D03*
X207860000Y-39630000D03*
X214040000Y-39630000D03*
X207860000Y-38830000D03*
X214040000Y-38830000D03*
D22*
X210950000Y-54875000D03*
D23*
X210950000Y-49605000D03*
X210950000Y-43255000D03*
D22*
X210950000Y-37985000D03*
%TD*%
D10*
%TO.C,R52*%
X70662500Y-113889000D03*
X68837500Y-113889000D03*
%TD*%
D21*
%TO.C,J3*%
X237860000Y-141230000D03*
X244040000Y-141230000D03*
X237860000Y-140430000D03*
X244040000Y-140430000D03*
X237860000Y-139630000D03*
X244040000Y-139630000D03*
X237860000Y-138830000D03*
X244040000Y-138830000D03*
X237860000Y-138030000D03*
X244040000Y-138030000D03*
X237860000Y-137230000D03*
X244040000Y-137230000D03*
X237860000Y-136430000D03*
X244040000Y-136430000D03*
X237860000Y-135630000D03*
X244040000Y-135630000D03*
X237860000Y-134830000D03*
X244040000Y-134830000D03*
X237860000Y-134030000D03*
X244040000Y-134030000D03*
X237860000Y-133230000D03*
X244040000Y-133230000D03*
X237860000Y-132430000D03*
X244040000Y-132430000D03*
X237860000Y-131630000D03*
X244040000Y-131630000D03*
X237860000Y-130830000D03*
X244040000Y-130830000D03*
X237860000Y-130030000D03*
X244040000Y-130030000D03*
X237860000Y-129230000D03*
X244040000Y-129230000D03*
X237860000Y-128430000D03*
X244040000Y-128430000D03*
X237860000Y-127630000D03*
X244040000Y-127630000D03*
X237860000Y-126830000D03*
X244040000Y-126830000D03*
X237860000Y-126030000D03*
X244040000Y-126030000D03*
D22*
X240950000Y-142075000D03*
D23*
X240950000Y-136805000D03*
X240950000Y-130455000D03*
D22*
X240950000Y-125185000D03*
%TD*%
D16*
%TO.C,R7*%
X196739500Y-60817400D03*
X198564500Y-60817400D03*
%TD*%
D10*
%TO.C,R31*%
X70752500Y-130608200D03*
X68927500Y-130608200D03*
%TD*%
%TO.C,R83*%
X70052500Y-76900000D03*
X68227500Y-76900000D03*
%TD*%
%TO.C,R88*%
X78045000Y-55080000D03*
X76220000Y-55080000D03*
%TD*%
%TO.C,R72*%
X77970000Y-71790000D03*
X76145000Y-71790000D03*
%TD*%
D16*
%TO.C,R4*%
X189398900Y-60817400D03*
X191223900Y-60817400D03*
%TD*%
D12*
%TO.C,C4*%
X182870000Y-45720000D03*
X184770000Y-45720000D03*
%TD*%
D10*
%TO.C,R100*%
X104182500Y-49710000D03*
X102357500Y-49710000D03*
%TD*%
%TO.C,R47*%
X111152500Y-142390000D03*
X109327500Y-142390000D03*
%TD*%
%TO.C,R49*%
X111152500Y-132230000D03*
X109327500Y-132230000D03*
%TD*%
%TO.C,R86*%
X70052500Y-61650000D03*
X68227500Y-61650000D03*
%TD*%
D14*
%TO.C,R1*%
X219230000Y-138272500D03*
X219230000Y-136447500D03*
%TD*%
D10*
%TO.C,R104*%
X104182500Y-29380000D03*
X102357500Y-29380000D03*
%TD*%
%TO.C,R19*%
X78112500Y-130624200D03*
X76287500Y-130624200D03*
%TD*%
%TO.C,R44*%
X78002500Y-98651000D03*
X76177500Y-98651000D03*
%TD*%
%TO.C,R101*%
X104182500Y-44640000D03*
X102357500Y-44640000D03*
%TD*%
%TO.C,R89*%
X111952500Y-49740000D03*
X110127500Y-49740000D03*
%TD*%
%TO.C,R56*%
X70662500Y-93554200D03*
X68837500Y-93554200D03*
%TD*%
D18*
%TO.C,C6*%
X171270000Y-61720000D03*
X169370000Y-61720000D03*
%TD*%
D10*
%TO.C,R105*%
X70052500Y-55090000D03*
X68227500Y-55090000D03*
%TD*%
%TO.C,R81*%
X70052500Y-87110000D03*
X68227500Y-87110000D03*
%TD*%
M02*
