%TF.GenerationSoftware,KiCad,Pcbnew,(6.0.11-0)*%
%TF.CreationDate,2023-06-11T17:05:38-04:00*%
%TF.ProjectId,Mux64,4d757836-342e-46b6-9963-61645f706362,rev?*%
%TF.SameCoordinates,Original*%
%TF.FileFunction,Legend,Bot*%
%TF.FilePolarity,Positive*%
%FSLAX46Y46*%
G04 Gerber Fmt 4.6, Leading zero omitted, Abs format (unit mm)*
G04 Created by KiCad (PCBNEW (6.0.11-0)) date 2023-06-11 17:05:38*
%MOMM*%
%LPD*%
G01*
G04 APERTURE LIST*
%ADD10C,0.150000*%
%ADD11C,0.120000*%
G04 APERTURE END LIST*
D10*
%TO.C,C12*%
X145102857Y-75145742D02*
X145150476Y-75193361D01*
X145293333Y-75240980D01*
X145388571Y-75240980D01*
X145531428Y-75193361D01*
X145626666Y-75098123D01*
X145674285Y-75002885D01*
X145721904Y-74812409D01*
X145721904Y-74669552D01*
X145674285Y-74479076D01*
X145626666Y-74383838D01*
X145531428Y-74288600D01*
X145388571Y-74240980D01*
X145293333Y-74240980D01*
X145150476Y-74288600D01*
X145102857Y-74336219D01*
X144150476Y-75240980D02*
X144721904Y-75240980D01*
X144436190Y-75240980D02*
X144436190Y-74240980D01*
X144531428Y-74383838D01*
X144626666Y-74479076D01*
X144721904Y-74526695D01*
X143769523Y-74336219D02*
X143721904Y-74288600D01*
X143626666Y-74240980D01*
X143388571Y-74240980D01*
X143293333Y-74288600D01*
X143245714Y-74336219D01*
X143198095Y-74431457D01*
X143198095Y-74526695D01*
X143245714Y-74669552D01*
X143817142Y-75240980D01*
X143198095Y-75240980D01*
%TO.C,C9*%
X144626666Y-90157142D02*
X144674285Y-90204761D01*
X144817142Y-90252380D01*
X144912380Y-90252380D01*
X145055238Y-90204761D01*
X145150476Y-90109523D01*
X145198095Y-90014285D01*
X145245714Y-89823809D01*
X145245714Y-89680952D01*
X145198095Y-89490476D01*
X145150476Y-89395238D01*
X145055238Y-89300000D01*
X144912380Y-89252380D01*
X144817142Y-89252380D01*
X144674285Y-89300000D01*
X144626666Y-89347619D01*
X144150476Y-90252380D02*
X143960000Y-90252380D01*
X143864761Y-90204761D01*
X143817142Y-90157142D01*
X143721904Y-90014285D01*
X143674285Y-89823809D01*
X143674285Y-89442857D01*
X143721904Y-89347619D01*
X143769523Y-89300000D01*
X143864761Y-89252380D01*
X144055238Y-89252380D01*
X144150476Y-89300000D01*
X144198095Y-89347619D01*
X144245714Y-89442857D01*
X144245714Y-89680952D01*
X144198095Y-89776190D01*
X144150476Y-89823809D01*
X144055238Y-89871428D01*
X143864761Y-89871428D01*
X143769523Y-89823809D01*
X143721904Y-89776190D01*
X143674285Y-89680952D01*
%TO.C,C7*%
X144626666Y-95160942D02*
X144674285Y-95208561D01*
X144817142Y-95256180D01*
X144912380Y-95256180D01*
X145055238Y-95208561D01*
X145150476Y-95113323D01*
X145198095Y-95018085D01*
X145245714Y-94827609D01*
X145245714Y-94684752D01*
X145198095Y-94494276D01*
X145150476Y-94399038D01*
X145055238Y-94303800D01*
X144912380Y-94256180D01*
X144817142Y-94256180D01*
X144674285Y-94303800D01*
X144626666Y-94351419D01*
X144293333Y-94256180D02*
X143626666Y-94256180D01*
X144055238Y-95256180D01*
%TO.C,C10*%
X145102857Y-85153342D02*
X145150476Y-85200961D01*
X145293333Y-85248580D01*
X145388571Y-85248580D01*
X145531428Y-85200961D01*
X145626666Y-85105723D01*
X145674285Y-85010485D01*
X145721904Y-84820009D01*
X145721904Y-84677152D01*
X145674285Y-84486676D01*
X145626666Y-84391438D01*
X145531428Y-84296200D01*
X145388571Y-84248580D01*
X145293333Y-84248580D01*
X145150476Y-84296200D01*
X145102857Y-84343819D01*
X144150476Y-85248580D02*
X144721904Y-85248580D01*
X144436190Y-85248580D02*
X144436190Y-84248580D01*
X144531428Y-84391438D01*
X144626666Y-84486676D01*
X144721904Y-84534295D01*
X143531428Y-84248580D02*
X143436190Y-84248580D01*
X143340952Y-84296200D01*
X143293333Y-84343819D01*
X143245714Y-84439057D01*
X143198095Y-84629533D01*
X143198095Y-84867628D01*
X143245714Y-85058104D01*
X143293333Y-85153342D01*
X143340952Y-85200961D01*
X143436190Y-85248580D01*
X143531428Y-85248580D01*
X143626666Y-85200961D01*
X143674285Y-85153342D01*
X143721904Y-85058104D01*
X143769523Y-84867628D01*
X143769523Y-84629533D01*
X143721904Y-84439057D01*
X143674285Y-84343819D01*
X143626666Y-84296200D01*
X143531428Y-84248580D01*
%TO.C,C11*%
X145102857Y-80149542D02*
X145150476Y-80197161D01*
X145293333Y-80244780D01*
X145388571Y-80244780D01*
X145531428Y-80197161D01*
X145626666Y-80101923D01*
X145674285Y-80006685D01*
X145721904Y-79816209D01*
X145721904Y-79673352D01*
X145674285Y-79482876D01*
X145626666Y-79387638D01*
X145531428Y-79292400D01*
X145388571Y-79244780D01*
X145293333Y-79244780D01*
X145150476Y-79292400D01*
X145102857Y-79340019D01*
X144150476Y-80244780D02*
X144721904Y-80244780D01*
X144436190Y-80244780D02*
X144436190Y-79244780D01*
X144531428Y-79387638D01*
X144626666Y-79482876D01*
X144721904Y-79530495D01*
X143198095Y-80244780D02*
X143769523Y-80244780D01*
X143483809Y-80244780D02*
X143483809Y-79244780D01*
X143579047Y-79387638D01*
X143674285Y-79482876D01*
X143769523Y-79530495D01*
D11*
%TO.C,C12*%
X144721252Y-75733600D02*
X144198748Y-75733600D01*
X144721252Y-77203600D02*
X144198748Y-77203600D01*
%TO.C,C9*%
X144721252Y-90745000D02*
X144198748Y-90745000D01*
X144721252Y-92215000D02*
X144198748Y-92215000D01*
%TO.C,C7*%
X144721252Y-97218800D02*
X144198748Y-97218800D01*
X144721252Y-95748800D02*
X144198748Y-95748800D01*
%TO.C,C10*%
X144721252Y-85741200D02*
X144198748Y-85741200D01*
X144721252Y-87211200D02*
X144198748Y-87211200D01*
%TO.C,C11*%
X144721252Y-82207400D02*
X144198748Y-82207400D01*
X144721252Y-80737400D02*
X144198748Y-80737400D01*
%TD*%
M02*
