%TF.GenerationSoftware,KiCad,Pcbnew,(6.0.11-0)*%
%TF.CreationDate,2023-06-16T12:41:29-04:00*%
%TF.ProjectId,Mux64,4d757836-342e-46b6-9963-61645f706362,rev?*%
%TF.SameCoordinates,Original*%
%TF.FileFunction,Legend,Top*%
%TF.FilePolarity,Positive*%
%FSLAX46Y46*%
G04 Gerber Fmt 4.6, Leading zero omitted, Abs format (unit mm)*
G04 Created by KiCad (PCBNEW (6.0.11-0)) date 2023-06-16 12:41:29*
%MOMM*%
%LPD*%
G01*
G04 APERTURE LIST*
%ADD10C,0.200000*%
%ADD11C,0.230000*%
%ADD12C,0.150000*%
%ADD13C,0.120000*%
G04 APERTURE END LIST*
D10*
X53476666Y-128147619D02*
X53552857Y-128071428D01*
X53781428Y-127919047D01*
X53933809Y-127842857D01*
X54162380Y-127766666D01*
X54543333Y-127690476D01*
X54848095Y-127690476D01*
X55229047Y-127766666D01*
X55457619Y-127842857D01*
X55610000Y-127919047D01*
X55838571Y-128071428D01*
X55914761Y-128147619D01*
X55686190Y-129061904D02*
X55686190Y-129214285D01*
X55610000Y-129366666D01*
X55533809Y-129442857D01*
X55381428Y-129519047D01*
X55076666Y-129595238D01*
X54695714Y-129595238D01*
X54390952Y-129519047D01*
X54238571Y-129442857D01*
X54162380Y-129366666D01*
X54086190Y-129214285D01*
X54086190Y-129061904D01*
X54162380Y-128909523D01*
X54238571Y-128833333D01*
X54390952Y-128757142D01*
X54695714Y-128680952D01*
X55076666Y-128680952D01*
X55381428Y-128757142D01*
X55533809Y-128833333D01*
X55610000Y-128909523D01*
X55686190Y-129061904D01*
X54695714Y-130280952D02*
X54695714Y-131500000D01*
X55152857Y-132947619D02*
X54086190Y-132947619D01*
X55762380Y-132566666D02*
X54619523Y-132185714D01*
X54619523Y-133176190D01*
X53476666Y-133633333D02*
X53552857Y-133709523D01*
X53781428Y-133861904D01*
X53933809Y-133938095D01*
X54162380Y-134014285D01*
X54543333Y-134090476D01*
X54848095Y-134090476D01*
X55229047Y-134014285D01*
X55457619Y-133938095D01*
X55610000Y-133861904D01*
X55838571Y-133709523D01*
X55914761Y-133633333D01*
X55686190Y-134623809D02*
X54086190Y-135157142D01*
X55686190Y-135690476D01*
X54238571Y-136223809D02*
X54162380Y-136300000D01*
X54086190Y-136223809D01*
X54162380Y-136147619D01*
X54238571Y-136223809D01*
X54086190Y-136223809D01*
X55076666Y-136223809D02*
X55000476Y-136300000D01*
X54924285Y-136223809D01*
X55000476Y-136147619D01*
X55076666Y-136223809D01*
X54924285Y-136223809D01*
X54695714Y-137976190D02*
X54771904Y-138052380D01*
X54848095Y-138204761D01*
X54695714Y-138509523D01*
X54771904Y-138661904D01*
X54848095Y-138738095D01*
X54086190Y-140185714D02*
X54086190Y-139271428D01*
X54086190Y-139728571D02*
X55686190Y-139728571D01*
X55457619Y-139576190D01*
X55305238Y-139423809D01*
X55229047Y-139271428D01*
X55762380Y-142014285D02*
X53705238Y-140642857D01*
X55152857Y-143233333D02*
X54086190Y-143233333D01*
X55762380Y-142852380D02*
X54619523Y-142471428D01*
X54619523Y-143461904D01*
X55686190Y-145061904D02*
X54086190Y-145595238D01*
X55686190Y-146128571D01*
X54086190Y-146661904D02*
X55152857Y-146661904D01*
X55686190Y-146661904D02*
X55610000Y-146585714D01*
X55533809Y-146661904D01*
X55610000Y-146738095D01*
X55686190Y-146661904D01*
X55533809Y-146661904D01*
X55152857Y-147423809D02*
X54086190Y-147423809D01*
X55000476Y-147423809D02*
X55076666Y-147500000D01*
X55152857Y-147652380D01*
X55152857Y-147880952D01*
X55076666Y-148033333D01*
X54924285Y-148109523D01*
X54086190Y-148109523D01*
X84536666Y-127387619D02*
X84612857Y-127311428D01*
X84841428Y-127159047D01*
X84993809Y-127082857D01*
X85222380Y-127006666D01*
X85603333Y-126930476D01*
X85908095Y-126930476D01*
X86289047Y-127006666D01*
X86517619Y-127082857D01*
X86670000Y-127159047D01*
X86898571Y-127311428D01*
X86974761Y-127387619D01*
X86746190Y-128301904D02*
X86746190Y-128454285D01*
X86670000Y-128606666D01*
X86593809Y-128682857D01*
X86441428Y-128759047D01*
X86136666Y-128835238D01*
X85755714Y-128835238D01*
X85450952Y-128759047D01*
X85298571Y-128682857D01*
X85222380Y-128606666D01*
X85146190Y-128454285D01*
X85146190Y-128301904D01*
X85222380Y-128149523D01*
X85298571Y-128073333D01*
X85450952Y-127997142D01*
X85755714Y-127920952D01*
X86136666Y-127920952D01*
X86441428Y-127997142D01*
X86593809Y-128073333D01*
X86670000Y-128149523D01*
X86746190Y-128301904D01*
X85755714Y-129520952D02*
X85755714Y-130740000D01*
X86593809Y-131425714D02*
X86670000Y-131501904D01*
X86746190Y-131654285D01*
X86746190Y-132035238D01*
X86670000Y-132187619D01*
X86593809Y-132263809D01*
X86441428Y-132340000D01*
X86289047Y-132340000D01*
X86060476Y-132263809D01*
X85146190Y-131349523D01*
X85146190Y-132340000D01*
X84536666Y-132873333D02*
X84612857Y-132949523D01*
X84841428Y-133101904D01*
X84993809Y-133178095D01*
X85222380Y-133254285D01*
X85603333Y-133330476D01*
X85908095Y-133330476D01*
X86289047Y-133254285D01*
X86517619Y-133178095D01*
X86670000Y-133101904D01*
X86898571Y-132949523D01*
X86974761Y-132873333D01*
X86746190Y-133863809D02*
X85146190Y-134397142D01*
X86746190Y-134930476D01*
X85298571Y-135463809D02*
X85222380Y-135540000D01*
X85146190Y-135463809D01*
X85222380Y-135387619D01*
X85298571Y-135463809D01*
X85146190Y-135463809D01*
X86136666Y-135463809D02*
X86060476Y-135540000D01*
X85984285Y-135463809D01*
X86060476Y-135387619D01*
X86136666Y-135463809D01*
X85984285Y-135463809D01*
X85755714Y-137216190D02*
X85831904Y-137292380D01*
X85908095Y-137444761D01*
X85755714Y-137749523D01*
X85831904Y-137901904D01*
X85908095Y-137978095D01*
X85146190Y-139425714D02*
X85146190Y-138511428D01*
X85146190Y-138968571D02*
X86746190Y-138968571D01*
X86517619Y-138816190D01*
X86365238Y-138663809D01*
X86289047Y-138511428D01*
X86822380Y-141254285D02*
X84765238Y-139882857D01*
X86593809Y-141711428D02*
X86670000Y-141787619D01*
X86746190Y-141940000D01*
X86746190Y-142320952D01*
X86670000Y-142473333D01*
X86593809Y-142549523D01*
X86441428Y-142625714D01*
X86289047Y-142625714D01*
X86060476Y-142549523D01*
X85146190Y-141635238D01*
X85146190Y-142625714D01*
X86746190Y-144301904D02*
X85146190Y-144835238D01*
X86746190Y-145368571D01*
X85146190Y-145901904D02*
X86212857Y-145901904D01*
X86746190Y-145901904D02*
X86670000Y-145825714D01*
X86593809Y-145901904D01*
X86670000Y-145978095D01*
X86746190Y-145901904D01*
X86593809Y-145901904D01*
X86212857Y-146663809D02*
X85146190Y-146663809D01*
X86060476Y-146663809D02*
X86136666Y-146740000D01*
X86212857Y-146892380D01*
X86212857Y-147120952D01*
X86136666Y-147273333D01*
X85984285Y-147349523D01*
X85146190Y-147349523D01*
D11*
X56505714Y-29210476D02*
X56505714Y-30429523D01*
X55896190Y-29820000D02*
X57115238Y-29820000D01*
X56725714Y-137740476D02*
X56725714Y-138959523D01*
X56745714Y-142970476D02*
X56745714Y-144189523D01*
X56395714Y-90520476D02*
X56395714Y-91739523D01*
X56395714Y-95460476D02*
X56395714Y-96679523D01*
X56745714Y-148000476D02*
X56745714Y-149219523D01*
X56515714Y-34340476D02*
X56515714Y-35559523D01*
X55906190Y-34950000D02*
X57125238Y-34950000D01*
X56405714Y-100530476D02*
X56405714Y-101749523D01*
X116990000Y-26275714D02*
X117218571Y-26351904D01*
X117294761Y-26428095D01*
X117370952Y-26580476D01*
X117370952Y-26809047D01*
X117294761Y-26961428D01*
X117218571Y-27037619D01*
X117066190Y-27113809D01*
X116456666Y-27113809D01*
X116456666Y-25513809D01*
X116990000Y-25513809D01*
X117142380Y-25590000D01*
X117218571Y-25666190D01*
X117294761Y-25818571D01*
X117294761Y-25970952D01*
X117218571Y-26123333D01*
X117142380Y-26199523D01*
X116990000Y-26275714D01*
X116456666Y-26275714D01*
X118285238Y-27113809D02*
X118132857Y-27037619D01*
X118056666Y-26961428D01*
X117980476Y-26809047D01*
X117980476Y-26351904D01*
X118056666Y-26199523D01*
X118132857Y-26123333D01*
X118285238Y-26047142D01*
X118513809Y-26047142D01*
X118666190Y-26123333D01*
X118742380Y-26199523D01*
X118818571Y-26351904D01*
X118818571Y-26809047D01*
X118742380Y-26961428D01*
X118666190Y-27037619D01*
X118513809Y-27113809D01*
X118285238Y-27113809D01*
X119428095Y-27037619D02*
X119580476Y-27113809D01*
X119885238Y-27113809D01*
X120037619Y-27037619D01*
X120113809Y-26885238D01*
X120113809Y-26809047D01*
X120037619Y-26656666D01*
X119885238Y-26580476D01*
X119656666Y-26580476D01*
X119504285Y-26504285D01*
X119428095Y-26351904D01*
X119428095Y-26275714D01*
X119504285Y-26123333D01*
X119656666Y-26047142D01*
X119885238Y-26047142D01*
X120037619Y-26123333D01*
X120570952Y-26047142D02*
X121180476Y-26047142D01*
X120799523Y-25513809D02*
X120799523Y-26885238D01*
X120875714Y-27037619D01*
X121028095Y-27113809D01*
X121180476Y-27113809D01*
X121942380Y-27113809D02*
X121790000Y-27037619D01*
X121713809Y-26961428D01*
X121637619Y-26809047D01*
X121637619Y-26351904D01*
X121713809Y-26199523D01*
X121790000Y-26123333D01*
X121942380Y-26047142D01*
X122170952Y-26047142D01*
X122323333Y-26123333D01*
X122399523Y-26199523D01*
X122475714Y-26351904D01*
X122475714Y-26809047D01*
X122399523Y-26961428D01*
X122323333Y-27037619D01*
X122170952Y-27113809D01*
X121942380Y-27113809D01*
X123161428Y-26047142D02*
X123161428Y-27113809D01*
X123161428Y-26199523D02*
X123237619Y-26123333D01*
X123390000Y-26047142D01*
X123618571Y-26047142D01*
X123770952Y-26123333D01*
X123847142Y-26275714D01*
X123847142Y-27113809D01*
X125828095Y-25513809D02*
X125828095Y-26809047D01*
X125904285Y-26961428D01*
X125980476Y-27037619D01*
X126132857Y-27113809D01*
X126437619Y-27113809D01*
X126590000Y-27037619D01*
X126666190Y-26961428D01*
X126742380Y-26809047D01*
X126742380Y-25513809D01*
X127504285Y-26047142D02*
X127504285Y-27113809D01*
X127504285Y-26199523D02*
X127580476Y-26123333D01*
X127732857Y-26047142D01*
X127961428Y-26047142D01*
X128113809Y-26123333D01*
X128190000Y-26275714D01*
X128190000Y-27113809D01*
X128951904Y-27113809D02*
X128951904Y-26047142D01*
X128951904Y-25513809D02*
X128875714Y-25590000D01*
X128951904Y-25666190D01*
X129028095Y-25590000D01*
X128951904Y-25513809D01*
X128951904Y-25666190D01*
X129561428Y-26047142D02*
X129942380Y-27113809D01*
X130323333Y-26047142D01*
X131542380Y-27037619D02*
X131390000Y-27113809D01*
X131085238Y-27113809D01*
X130932857Y-27037619D01*
X130856666Y-26885238D01*
X130856666Y-26275714D01*
X130932857Y-26123333D01*
X131085238Y-26047142D01*
X131390000Y-26047142D01*
X131542380Y-26123333D01*
X131618571Y-26275714D01*
X131618571Y-26428095D01*
X130856666Y-26580476D01*
X132304285Y-27113809D02*
X132304285Y-26047142D01*
X132304285Y-26351904D02*
X132380476Y-26199523D01*
X132456666Y-26123333D01*
X132609047Y-26047142D01*
X132761428Y-26047142D01*
X133218571Y-27037619D02*
X133370952Y-27113809D01*
X133675714Y-27113809D01*
X133828095Y-27037619D01*
X133904285Y-26885238D01*
X133904285Y-26809047D01*
X133828095Y-26656666D01*
X133675714Y-26580476D01*
X133447142Y-26580476D01*
X133294761Y-26504285D01*
X133218571Y-26351904D01*
X133218571Y-26275714D01*
X133294761Y-26123333D01*
X133447142Y-26047142D01*
X133675714Y-26047142D01*
X133828095Y-26123333D01*
X134590000Y-27113809D02*
X134590000Y-26047142D01*
X134590000Y-25513809D02*
X134513809Y-25590000D01*
X134590000Y-25666190D01*
X134666190Y-25590000D01*
X134590000Y-25513809D01*
X134590000Y-25666190D01*
X135123333Y-26047142D02*
X135732857Y-26047142D01*
X135351904Y-25513809D02*
X135351904Y-26885238D01*
X135428095Y-27037619D01*
X135580476Y-27113809D01*
X135732857Y-27113809D01*
X136113809Y-26047142D02*
X136494761Y-27113809D01*
X136875714Y-26047142D02*
X136494761Y-27113809D01*
X136342380Y-27494761D01*
X136266190Y-27570952D01*
X136113809Y-27647142D01*
X88635714Y-31370476D02*
X88635714Y-32589523D01*
D10*
X53336666Y-31077619D02*
X53412857Y-31001428D01*
X53641428Y-30849047D01*
X53793809Y-30772857D01*
X54022380Y-30696666D01*
X54403333Y-30620476D01*
X54708095Y-30620476D01*
X55089047Y-30696666D01*
X55317619Y-30772857D01*
X55470000Y-30849047D01*
X55698571Y-31001428D01*
X55774761Y-31077619D01*
X55546190Y-31991904D02*
X55546190Y-32144285D01*
X55470000Y-32296666D01*
X55393809Y-32372857D01*
X55241428Y-32449047D01*
X54936666Y-32525238D01*
X54555714Y-32525238D01*
X54250952Y-32449047D01*
X54098571Y-32372857D01*
X54022380Y-32296666D01*
X53946190Y-32144285D01*
X53946190Y-31991904D01*
X54022380Y-31839523D01*
X54098571Y-31763333D01*
X54250952Y-31687142D01*
X54555714Y-31610952D01*
X54936666Y-31610952D01*
X55241428Y-31687142D01*
X55393809Y-31763333D01*
X55470000Y-31839523D01*
X55546190Y-31991904D01*
X54555714Y-33210952D02*
X54555714Y-34430000D01*
X55393809Y-35115714D02*
X55470000Y-35191904D01*
X55546190Y-35344285D01*
X55546190Y-35725238D01*
X55470000Y-35877619D01*
X55393809Y-35953809D01*
X55241428Y-36030000D01*
X55089047Y-36030000D01*
X54860476Y-35953809D01*
X53946190Y-35039523D01*
X53946190Y-36030000D01*
X53336666Y-36563333D02*
X53412857Y-36639523D01*
X53641428Y-36791904D01*
X53793809Y-36868095D01*
X54022380Y-36944285D01*
X54403333Y-37020476D01*
X54708095Y-37020476D01*
X55089047Y-36944285D01*
X55317619Y-36868095D01*
X55470000Y-36791904D01*
X55698571Y-36639523D01*
X55774761Y-36563333D01*
X55546190Y-37553809D02*
X53946190Y-38087142D01*
X55546190Y-38620476D01*
X54098571Y-39153809D02*
X54022380Y-39229999D01*
X53946190Y-39153809D01*
X54022380Y-39077619D01*
X54098571Y-39153809D01*
X53946190Y-39153809D01*
X54936666Y-39153809D02*
X54860476Y-39229999D01*
X54784285Y-39153809D01*
X54860476Y-39077619D01*
X54936666Y-39153809D01*
X54784285Y-39153809D01*
X54555714Y-40906190D02*
X54631904Y-40982380D01*
X54708095Y-41134761D01*
X54555714Y-41439523D01*
X54631904Y-41591904D01*
X54708095Y-41668095D01*
X53946190Y-43115714D02*
X53946190Y-42201428D01*
X53946190Y-42658571D02*
X55546190Y-42658571D01*
X55317619Y-42506190D01*
X55165238Y-42353809D01*
X55089047Y-42201428D01*
X55622380Y-44944285D02*
X53565238Y-43572857D01*
X55393809Y-45401428D02*
X55470000Y-45477619D01*
X55546190Y-45629999D01*
X55546190Y-46010952D01*
X55470000Y-46163333D01*
X55393809Y-46239523D01*
X55241428Y-46315714D01*
X55089047Y-46315714D01*
X54860476Y-46239523D01*
X53946190Y-45325238D01*
X53946190Y-46315714D01*
X55546190Y-47991904D02*
X53946190Y-48525238D01*
X55546190Y-49058571D01*
X53946190Y-49591904D02*
X55012857Y-49591904D01*
X55546190Y-49591904D02*
X55470000Y-49515714D01*
X55393809Y-49591904D01*
X55470000Y-49668095D01*
X55546190Y-49591904D01*
X55393809Y-49591904D01*
X55012857Y-50353809D02*
X53946190Y-50353809D01*
X54860476Y-50353809D02*
X54936666Y-50429999D01*
X55012857Y-50582380D01*
X55012857Y-50810952D01*
X54936666Y-50963333D01*
X54784285Y-51039523D01*
X53946190Y-51039523D01*
D11*
X56215714Y-81260476D02*
X56215714Y-82479523D01*
X55606190Y-81870000D02*
X56825238Y-81870000D01*
X56175714Y-83820476D02*
X56175714Y-85039523D01*
X88405714Y-124120476D02*
X88405714Y-125339523D01*
X88655714Y-46660476D02*
X88655714Y-47879523D01*
X88675714Y-54250476D02*
X88675714Y-55469523D01*
X88066190Y-54860000D02*
X89285238Y-54860000D01*
X56465714Y-108220476D02*
X56465714Y-109439523D01*
X55856190Y-108830000D02*
X57075238Y-108830000D01*
X56725714Y-122740476D02*
X56725714Y-123959523D01*
X90685714Y-106940476D02*
X90685714Y-108159523D01*
X90076190Y-107550000D02*
X91295238Y-107550000D01*
X56175714Y-78790476D02*
X56175714Y-80009523D01*
X56165714Y-68570476D02*
X56165714Y-69789523D01*
X88695714Y-49130476D02*
X88695714Y-50349523D01*
X88086190Y-49740000D02*
X89305238Y-49740000D01*
X56225714Y-76260476D02*
X56225714Y-77479523D01*
X55616190Y-76870000D02*
X56835238Y-76870000D01*
X56525714Y-54550476D02*
X56525714Y-55769523D01*
X55916190Y-55160000D02*
X57135238Y-55160000D01*
X88405714Y-129060476D02*
X88405714Y-130279523D01*
X88425714Y-126600476D02*
X88425714Y-127819523D01*
X87816190Y-127210000D02*
X89035238Y-127210000D01*
X88655714Y-51690476D02*
X88655714Y-52909523D01*
X56505714Y-51990476D02*
X56505714Y-53209523D01*
D10*
X84816666Y-33157619D02*
X84892857Y-33081428D01*
X85121428Y-32929047D01*
X85273809Y-32852857D01*
X85502380Y-32776666D01*
X85883333Y-32700476D01*
X86188095Y-32700476D01*
X86569047Y-32776666D01*
X86797619Y-32852857D01*
X86950000Y-32929047D01*
X87178571Y-33081428D01*
X87254761Y-33157619D01*
X87026190Y-34071904D02*
X87026190Y-34224285D01*
X86950000Y-34376666D01*
X86873809Y-34452857D01*
X86721428Y-34529047D01*
X86416666Y-34605238D01*
X86035714Y-34605238D01*
X85730952Y-34529047D01*
X85578571Y-34452857D01*
X85502380Y-34376666D01*
X85426190Y-34224285D01*
X85426190Y-34071904D01*
X85502380Y-33919523D01*
X85578571Y-33843333D01*
X85730952Y-33767142D01*
X86035714Y-33690952D01*
X86416666Y-33690952D01*
X86721428Y-33767142D01*
X86873809Y-33843333D01*
X86950000Y-33919523D01*
X87026190Y-34071904D01*
X86035714Y-35290952D02*
X86035714Y-36510000D01*
X86873809Y-37195714D02*
X86950000Y-37271904D01*
X87026190Y-37424285D01*
X87026190Y-37805238D01*
X86950000Y-37957619D01*
X86873809Y-38033809D01*
X86721428Y-38110000D01*
X86569047Y-38110000D01*
X86340476Y-38033809D01*
X85426190Y-37119523D01*
X85426190Y-38110000D01*
X84816666Y-38643333D02*
X84892857Y-38719523D01*
X85121428Y-38871904D01*
X85273809Y-38948095D01*
X85502380Y-39024285D01*
X85883333Y-39100476D01*
X86188095Y-39100476D01*
X86569047Y-39024285D01*
X86797619Y-38948095D01*
X86950000Y-38871904D01*
X87178571Y-38719523D01*
X87254761Y-38643333D01*
X87026190Y-39633809D02*
X85426190Y-40167142D01*
X87026190Y-40700476D01*
X85578571Y-41233809D02*
X85502380Y-41310000D01*
X85426190Y-41233809D01*
X85502380Y-41157619D01*
X85578571Y-41233809D01*
X85426190Y-41233809D01*
X86416666Y-41233809D02*
X86340476Y-41310000D01*
X86264285Y-41233809D01*
X86340476Y-41157619D01*
X86416666Y-41233809D01*
X86264285Y-41233809D01*
X86035714Y-42986190D02*
X86111904Y-43062380D01*
X86188095Y-43214761D01*
X86035714Y-43519523D01*
X86111904Y-43671904D01*
X86188095Y-43748095D01*
X85426190Y-45195714D02*
X85426190Y-44281428D01*
X85426190Y-44738571D02*
X87026190Y-44738571D01*
X86797619Y-44586190D01*
X86645238Y-44433809D01*
X86569047Y-44281428D01*
X87102380Y-47024285D02*
X85045238Y-45652857D01*
X86873809Y-47481428D02*
X86950000Y-47557619D01*
X87026190Y-47710000D01*
X87026190Y-48090952D01*
X86950000Y-48243333D01*
X86873809Y-48319523D01*
X86721428Y-48395714D01*
X86569047Y-48395714D01*
X86340476Y-48319523D01*
X85426190Y-47405238D01*
X85426190Y-48395714D01*
X87026190Y-50071904D02*
X85426190Y-50605238D01*
X87026190Y-51138571D01*
X85426190Y-51671904D02*
X86492857Y-51671904D01*
X87026190Y-51671904D02*
X86950000Y-51595714D01*
X86873809Y-51671904D01*
X86950000Y-51748095D01*
X87026190Y-51671904D01*
X86873809Y-51671904D01*
X86492857Y-52433809D02*
X85426190Y-52433809D01*
X86340476Y-52433809D02*
X86416666Y-52510000D01*
X86492857Y-52662380D01*
X86492857Y-52890952D01*
X86416666Y-53043333D01*
X86264285Y-53119523D01*
X85426190Y-53119523D01*
D11*
X56435714Y-118340476D02*
X56435714Y-119559523D01*
X55826190Y-118950000D02*
X57045238Y-118950000D01*
X56455714Y-113220476D02*
X56455714Y-114439523D01*
X55846190Y-113830000D02*
X57065238Y-113830000D01*
X88475714Y-141820476D02*
X88475714Y-143039523D01*
X87866190Y-142430000D02*
X89085238Y-142430000D01*
X56155714Y-73560476D02*
X56155714Y-74779523D01*
X88635714Y-41430476D02*
X88635714Y-42649523D01*
X90665714Y-77070476D02*
X90665714Y-78289523D01*
X90056190Y-77680000D02*
X91275238Y-77680000D01*
X56175714Y-61040476D02*
X56175714Y-62259523D01*
X55566190Y-61650000D02*
X56785238Y-61650000D01*
X88415714Y-134130476D02*
X88415714Y-135349523D01*
X56215714Y-70890476D02*
X56215714Y-72109523D01*
X55606190Y-71500000D02*
X56825238Y-71500000D01*
X90645714Y-84580476D02*
X90645714Y-85799523D01*
X88465714Y-136450476D02*
X88465714Y-137669523D01*
X87856190Y-137060000D02*
X89075238Y-137060000D01*
X56415714Y-110750476D02*
X56415714Y-111969523D01*
D10*
X53146666Y-62877619D02*
X53222857Y-62801428D01*
X53451428Y-62649047D01*
X53603809Y-62572857D01*
X53832380Y-62496666D01*
X54213333Y-62420476D01*
X54518095Y-62420476D01*
X54899047Y-62496666D01*
X55127619Y-62572857D01*
X55280000Y-62649047D01*
X55508571Y-62801428D01*
X55584761Y-62877619D01*
X55356190Y-63791904D02*
X55356190Y-63944285D01*
X55280000Y-64096666D01*
X55203809Y-64172857D01*
X55051428Y-64249047D01*
X54746666Y-64325238D01*
X54365714Y-64325238D01*
X54060952Y-64249047D01*
X53908571Y-64172857D01*
X53832380Y-64096666D01*
X53756190Y-63944285D01*
X53756190Y-63791904D01*
X53832380Y-63639523D01*
X53908571Y-63563333D01*
X54060952Y-63487142D01*
X54365714Y-63410952D01*
X54746666Y-63410952D01*
X55051428Y-63487142D01*
X55203809Y-63563333D01*
X55280000Y-63639523D01*
X55356190Y-63791904D01*
X54365714Y-65010952D02*
X54365714Y-66230000D01*
X55203809Y-66915714D02*
X55280000Y-66991904D01*
X55356190Y-67144285D01*
X55356190Y-67525238D01*
X55280000Y-67677619D01*
X55203809Y-67753809D01*
X55051428Y-67830000D01*
X54899047Y-67830000D01*
X54670476Y-67753809D01*
X53756190Y-66839523D01*
X53756190Y-67830000D01*
X53146666Y-68363333D02*
X53222857Y-68439523D01*
X53451428Y-68591904D01*
X53603809Y-68668095D01*
X53832380Y-68744285D01*
X54213333Y-68820476D01*
X54518095Y-68820476D01*
X54899047Y-68744285D01*
X55127619Y-68668095D01*
X55280000Y-68591904D01*
X55508571Y-68439523D01*
X55584761Y-68363333D01*
X55356190Y-69353809D02*
X53756190Y-69887142D01*
X55356190Y-70420476D01*
X53908571Y-70953809D02*
X53832380Y-71029999D01*
X53756190Y-70953809D01*
X53832380Y-70877619D01*
X53908571Y-70953809D01*
X53756190Y-70953809D01*
X54746666Y-70953809D02*
X54670476Y-71030000D01*
X54594285Y-70953809D01*
X54670476Y-70877619D01*
X54746666Y-70953809D01*
X54594285Y-70953809D01*
X54365714Y-72706190D02*
X54441904Y-72782380D01*
X54518095Y-72934761D01*
X54365714Y-73239523D01*
X54441904Y-73391904D01*
X54518095Y-73468095D01*
X53756190Y-74915714D02*
X53756190Y-74001428D01*
X53756190Y-74458571D02*
X55356190Y-74458571D01*
X55127619Y-74306190D01*
X54975238Y-74153809D01*
X54899047Y-74001428D01*
X55432380Y-76744285D02*
X53375238Y-75372857D01*
X55203809Y-77201428D02*
X55280000Y-77277619D01*
X55356190Y-77430000D01*
X55356190Y-77810952D01*
X55280000Y-77963333D01*
X55203809Y-78039523D01*
X55051428Y-78115714D01*
X54899047Y-78115714D01*
X54670476Y-78039523D01*
X53756190Y-77125238D01*
X53756190Y-78115714D01*
X55356190Y-79791904D02*
X53756190Y-80325238D01*
X55356190Y-80858571D01*
X53756190Y-81391904D02*
X54822857Y-81391904D01*
X55356190Y-81391904D02*
X55280000Y-81315714D01*
X55203809Y-81391904D01*
X55280000Y-81468095D01*
X55356190Y-81391904D01*
X55203809Y-81391904D01*
X54822857Y-82153809D02*
X53756190Y-82153809D01*
X54670476Y-82153809D02*
X54746666Y-82230000D01*
X54822857Y-82382380D01*
X54822857Y-82610952D01*
X54746666Y-82763333D01*
X54594285Y-82839523D01*
X53756190Y-82839523D01*
D11*
X90685714Y-69560476D02*
X90685714Y-70779523D01*
X88425714Y-144350476D02*
X88425714Y-145569523D01*
X88465714Y-146820476D02*
X88465714Y-148039523D01*
X87856190Y-147430000D02*
X89075238Y-147430000D01*
X88445714Y-151940476D02*
X88445714Y-153159523D01*
X87836190Y-152550000D02*
X89055238Y-152550000D01*
X56485714Y-31670476D02*
X56485714Y-32889523D01*
X56495714Y-36740476D02*
X56495714Y-37959523D01*
X56415714Y-115780476D02*
X56415714Y-116999523D01*
X88635714Y-26430476D02*
X88635714Y-27649523D01*
X88425714Y-149380476D02*
X88425714Y-150599523D01*
X88705714Y-44130476D02*
X88705714Y-45349523D01*
X88096190Y-44740000D02*
X89315238Y-44740000D01*
X56545714Y-49430476D02*
X56545714Y-50649523D01*
X55936190Y-50040000D02*
X57155238Y-50040000D01*
X90625714Y-99530476D02*
X90625714Y-100749523D01*
X56185714Y-66170476D02*
X56185714Y-67389523D01*
X55576190Y-66780000D02*
X56795238Y-66780000D01*
X56485714Y-41730476D02*
X56485714Y-42949523D01*
X56155714Y-63500476D02*
X56155714Y-64719523D01*
X56545714Y-39060476D02*
X56545714Y-40279523D01*
X55936190Y-39670000D02*
X57155238Y-39670000D01*
X56505714Y-46960476D02*
X56505714Y-48179523D01*
D10*
X86426666Y-73706190D02*
X86502857Y-73630000D01*
X86731428Y-73477619D01*
X86883809Y-73401428D01*
X87112380Y-73325238D01*
X87493333Y-73249047D01*
X87798095Y-73249047D01*
X88179047Y-73325238D01*
X88407619Y-73401428D01*
X88560000Y-73477619D01*
X88788571Y-73630000D01*
X88864761Y-73706190D01*
X88636190Y-74620476D02*
X88636190Y-74772857D01*
X88560000Y-74925238D01*
X88483809Y-75001428D01*
X88331428Y-75077619D01*
X88026666Y-75153809D01*
X87645714Y-75153809D01*
X87340952Y-75077619D01*
X87188571Y-75001428D01*
X87112380Y-74925238D01*
X87036190Y-74772857D01*
X87036190Y-74620476D01*
X87112380Y-74468095D01*
X87188571Y-74391904D01*
X87340952Y-74315714D01*
X87645714Y-74239523D01*
X88026666Y-74239523D01*
X88331428Y-74315714D01*
X88483809Y-74391904D01*
X88560000Y-74468095D01*
X88636190Y-74620476D01*
X87645714Y-75839523D02*
X87645714Y-77058571D01*
X87036190Y-78658571D02*
X87036190Y-77744285D01*
X87036190Y-78201428D02*
X88636190Y-78201428D01*
X88407619Y-78049047D01*
X88255238Y-77896666D01*
X88179047Y-77744285D01*
X88483809Y-79268095D02*
X88560000Y-79344285D01*
X88636190Y-79496666D01*
X88636190Y-79877619D01*
X88560000Y-80030000D01*
X88483809Y-80106190D01*
X88331428Y-80182380D01*
X88179047Y-80182380D01*
X87950476Y-80106190D01*
X87036190Y-79191904D01*
X87036190Y-80182380D01*
X88636190Y-81630000D02*
X88636190Y-80868095D01*
X87874285Y-80791904D01*
X87950476Y-80868095D01*
X88026666Y-81020476D01*
X88026666Y-81401428D01*
X87950476Y-81553809D01*
X87874285Y-81630000D01*
X87721904Y-81706190D01*
X87340952Y-81706190D01*
X87188571Y-81630000D01*
X87112380Y-81553809D01*
X87036190Y-81401428D01*
X87036190Y-81020476D01*
X87112380Y-80868095D01*
X87188571Y-80791904D01*
X88636190Y-82696666D02*
X88636190Y-82849047D01*
X88560000Y-83001428D01*
X88483809Y-83077619D01*
X88331428Y-83153809D01*
X88026666Y-83230000D01*
X87645714Y-83230000D01*
X87340952Y-83153809D01*
X87188571Y-83077619D01*
X87112380Y-83001428D01*
X87036190Y-82849047D01*
X87036190Y-82696666D01*
X87112380Y-82544285D01*
X87188571Y-82468095D01*
X87340952Y-82391904D01*
X87645714Y-82315714D01*
X88026666Y-82315714D01*
X88331428Y-82391904D01*
X88483809Y-82468095D01*
X88560000Y-82544285D01*
X88636190Y-82696666D01*
X86426666Y-83763333D02*
X86502857Y-83839523D01*
X86731428Y-83991904D01*
X86883809Y-84068095D01*
X87112380Y-84144285D01*
X87493333Y-84220476D01*
X87798095Y-84220476D01*
X88179047Y-84144285D01*
X88407619Y-84068095D01*
X88560000Y-83991904D01*
X88788571Y-83839523D01*
X88864761Y-83763333D01*
X88636190Y-84753809D02*
X87036190Y-85287142D01*
X88636190Y-85820476D01*
X87188571Y-86353809D02*
X87112380Y-86430000D01*
X87036190Y-86353809D01*
X87112380Y-86277619D01*
X87188571Y-86353809D01*
X87036190Y-86353809D01*
X88026666Y-86353809D02*
X87950476Y-86430000D01*
X87874285Y-86353809D01*
X87950476Y-86277619D01*
X88026666Y-86353809D01*
X87874285Y-86353809D01*
X87645714Y-88106190D02*
X87721904Y-88182380D01*
X87798095Y-88334761D01*
X87645714Y-88639523D01*
X87721904Y-88791904D01*
X87798095Y-88868095D01*
X87036190Y-90315714D02*
X87036190Y-89401428D01*
X87036190Y-89858571D02*
X88636190Y-89858571D01*
X88407619Y-89706190D01*
X88255238Y-89553809D01*
X88179047Y-89401428D01*
X88712380Y-92144285D02*
X86655238Y-90772857D01*
X87036190Y-93515714D02*
X87036190Y-92601428D01*
X87036190Y-93058571D02*
X88636190Y-93058571D01*
X88407619Y-92906190D01*
X88255238Y-92753809D01*
X88179047Y-92601428D01*
X88483809Y-94125238D02*
X88560000Y-94201428D01*
X88636190Y-94353809D01*
X88636190Y-94734761D01*
X88560000Y-94887142D01*
X88483809Y-94963333D01*
X88331428Y-95039523D01*
X88179047Y-95039523D01*
X87950476Y-94963333D01*
X87036190Y-94049047D01*
X87036190Y-95039523D01*
X88636190Y-96487142D02*
X88636190Y-95725238D01*
X87874285Y-95649047D01*
X87950476Y-95725238D01*
X88026666Y-95877619D01*
X88026666Y-96258571D01*
X87950476Y-96410952D01*
X87874285Y-96487142D01*
X87721904Y-96563333D01*
X87340952Y-96563333D01*
X87188571Y-96487142D01*
X87112380Y-96410952D01*
X87036190Y-96258571D01*
X87036190Y-95877619D01*
X87112380Y-95725238D01*
X87188571Y-95649047D01*
X88636190Y-97553809D02*
X88636190Y-97706190D01*
X88560000Y-97858571D01*
X88483809Y-97934761D01*
X88331428Y-98010952D01*
X88026666Y-98087142D01*
X87645714Y-98087142D01*
X87340952Y-98010952D01*
X87188571Y-97934761D01*
X87112380Y-97858571D01*
X87036190Y-97706190D01*
X87036190Y-97553809D01*
X87112380Y-97401428D01*
X87188571Y-97325238D01*
X87340952Y-97249047D01*
X87645714Y-97172857D01*
X88026666Y-97172857D01*
X88331428Y-97249047D01*
X88483809Y-97325238D01*
X88560000Y-97401428D01*
X88636190Y-97553809D01*
X88636190Y-99763333D02*
X87036190Y-100296666D01*
X88636190Y-100830000D01*
X87036190Y-101363333D02*
X88102857Y-101363333D01*
X88636190Y-101363333D02*
X88560000Y-101287142D01*
X88483809Y-101363333D01*
X88560000Y-101439523D01*
X88636190Y-101363333D01*
X88483809Y-101363333D01*
X88102857Y-102125238D02*
X87036190Y-102125238D01*
X87950476Y-102125238D02*
X88026666Y-102201428D01*
X88102857Y-102353809D01*
X88102857Y-102582380D01*
X88026666Y-102734761D01*
X87874285Y-102810952D01*
X87036190Y-102810952D01*
D11*
X88435714Y-131730476D02*
X88435714Y-132949523D01*
X87826190Y-132340000D02*
X89045238Y-132340000D01*
X56425714Y-98130476D02*
X56425714Y-99349523D01*
X55816190Y-98740000D02*
X57035238Y-98740000D01*
X56765714Y-150560476D02*
X56765714Y-151779523D01*
X56156190Y-151170000D02*
X57375238Y-151170000D01*
X88405714Y-139120476D02*
X88405714Y-140339523D01*
X90685714Y-92140476D02*
X90685714Y-93359523D01*
X90076190Y-92750000D02*
X91295238Y-92750000D01*
X88645714Y-36440476D02*
X88645714Y-37659523D01*
X56485714Y-26730476D02*
X56485714Y-27949523D01*
X88665714Y-34040476D02*
X88665714Y-35259523D01*
X88056190Y-34650000D02*
X89275238Y-34650000D01*
X88655714Y-28910476D02*
X88655714Y-30129523D01*
X88046190Y-29520000D02*
X89265238Y-29520000D01*
D10*
X53236666Y-91530952D02*
X53312857Y-91454761D01*
X53541428Y-91302380D01*
X53693809Y-91226190D01*
X53922380Y-91150000D01*
X54303333Y-91073809D01*
X54608095Y-91073809D01*
X54989047Y-91150000D01*
X55217619Y-91226190D01*
X55370000Y-91302380D01*
X55598571Y-91454761D01*
X55674761Y-91530952D01*
X55446190Y-92445238D02*
X55446190Y-92597619D01*
X55370000Y-92750000D01*
X55293809Y-92826190D01*
X55141428Y-92902380D01*
X54836666Y-92978571D01*
X54455714Y-92978571D01*
X54150952Y-92902380D01*
X53998571Y-92826190D01*
X53922380Y-92750000D01*
X53846190Y-92597619D01*
X53846190Y-92445238D01*
X53922380Y-92292857D01*
X53998571Y-92216666D01*
X54150952Y-92140476D01*
X54455714Y-92064285D01*
X54836666Y-92064285D01*
X55141428Y-92140476D01*
X55293809Y-92216666D01*
X55370000Y-92292857D01*
X55446190Y-92445238D01*
X54455714Y-93664285D02*
X54455714Y-94883333D01*
X53846190Y-96483333D02*
X53846190Y-95569047D01*
X53846190Y-96026190D02*
X55446190Y-96026190D01*
X55217619Y-95873809D01*
X55065238Y-95721428D01*
X54989047Y-95569047D01*
X55293809Y-97092857D02*
X55370000Y-97169047D01*
X55446190Y-97321428D01*
X55446190Y-97702380D01*
X55370000Y-97854761D01*
X55293809Y-97930952D01*
X55141428Y-98007142D01*
X54989047Y-98007142D01*
X54760476Y-97930952D01*
X53846190Y-97016666D01*
X53846190Y-98007142D01*
X53998571Y-98692857D02*
X53922380Y-98769047D01*
X53846190Y-98692857D01*
X53922380Y-98616666D01*
X53998571Y-98692857D01*
X53846190Y-98692857D01*
X55446190Y-100216666D02*
X55446190Y-99454761D01*
X54684285Y-99378571D01*
X54760476Y-99454761D01*
X54836666Y-99607142D01*
X54836666Y-99988095D01*
X54760476Y-100140476D01*
X54684285Y-100216666D01*
X54531904Y-100292857D01*
X54150952Y-100292857D01*
X53998571Y-100216666D01*
X53922380Y-100140476D01*
X53846190Y-99988095D01*
X53846190Y-99607142D01*
X53922380Y-99454761D01*
X53998571Y-99378571D01*
X53236666Y-100826190D02*
X53312857Y-100902380D01*
X53541428Y-101054761D01*
X53693809Y-101130952D01*
X53922380Y-101207142D01*
X54303333Y-101283333D01*
X54608095Y-101283333D01*
X54989047Y-101207142D01*
X55217619Y-101130952D01*
X55370000Y-101054761D01*
X55598571Y-100902380D01*
X55674761Y-100826190D01*
X55446190Y-101816666D02*
X53846190Y-102350000D01*
X55446190Y-102883333D01*
X53998571Y-103416666D02*
X53922380Y-103492857D01*
X53846190Y-103416666D01*
X53922380Y-103340476D01*
X53998571Y-103416666D01*
X53846190Y-103416666D01*
X54836666Y-103416666D02*
X54760476Y-103492857D01*
X54684285Y-103416666D01*
X54760476Y-103340476D01*
X54836666Y-103416666D01*
X54684285Y-103416666D01*
X54455714Y-105169047D02*
X54531904Y-105245238D01*
X54608095Y-105397619D01*
X54455714Y-105702380D01*
X54531904Y-105854761D01*
X54608095Y-105930952D01*
X55293809Y-106464285D02*
X55370000Y-106540476D01*
X55446190Y-106692857D01*
X55446190Y-107073809D01*
X55370000Y-107226190D01*
X55293809Y-107302380D01*
X55141428Y-107378571D01*
X54989047Y-107378571D01*
X54760476Y-107302380D01*
X53846190Y-106388095D01*
X53846190Y-107378571D01*
X55522380Y-109207142D02*
X53465238Y-107835714D01*
X55293809Y-109664285D02*
X55370000Y-109740476D01*
X55446190Y-109892857D01*
X55446190Y-110273809D01*
X55370000Y-110426190D01*
X55293809Y-110502380D01*
X55141428Y-110578571D01*
X54989047Y-110578571D01*
X54760476Y-110502380D01*
X53846190Y-109588095D01*
X53846190Y-110578571D01*
X55446190Y-112026190D02*
X55446190Y-111264285D01*
X54684285Y-111188095D01*
X54760476Y-111264285D01*
X54836666Y-111416666D01*
X54836666Y-111797619D01*
X54760476Y-111950000D01*
X54684285Y-112026190D01*
X54531904Y-112102380D01*
X54150952Y-112102380D01*
X53998571Y-112026190D01*
X53922380Y-111950000D01*
X53846190Y-111797619D01*
X53846190Y-111416666D01*
X53922380Y-111264285D01*
X53998571Y-111188095D01*
X55446190Y-113778571D02*
X53846190Y-114311904D01*
X55446190Y-114845238D01*
X53846190Y-115378571D02*
X54912857Y-115378571D01*
X55446190Y-115378571D02*
X55370000Y-115302380D01*
X55293809Y-115378571D01*
X55370000Y-115454761D01*
X55446190Y-115378571D01*
X55293809Y-115378571D01*
X54912857Y-116140476D02*
X53846190Y-116140476D01*
X54760476Y-116140476D02*
X54836666Y-116216666D01*
X54912857Y-116369047D01*
X54912857Y-116597619D01*
X54836666Y-116750000D01*
X54684285Y-116826190D01*
X53846190Y-116826190D01*
D11*
X88695714Y-38760476D02*
X88695714Y-39979523D01*
X88086190Y-39370000D02*
X89305238Y-39370000D01*
X56755714Y-130350476D02*
X56755714Y-131569523D01*
X56146190Y-130960000D02*
X57365238Y-130960000D01*
X56155714Y-58560476D02*
X56155714Y-59779523D01*
X56455714Y-102850476D02*
X56455714Y-104069523D01*
X55846190Y-103460000D02*
X57065238Y-103460000D01*
X56745714Y-125220476D02*
X56745714Y-126439523D01*
X56136190Y-125830000D02*
X57355238Y-125830000D01*
X157628571Y-34657333D02*
X157552380Y-34581142D01*
X157400000Y-34352571D01*
X157323809Y-34200190D01*
X157247619Y-33971619D01*
X157171428Y-33590666D01*
X157171428Y-33285904D01*
X157247619Y-32904952D01*
X157323809Y-32676380D01*
X157400000Y-32524000D01*
X157552380Y-32295428D01*
X157628571Y-32219238D01*
X157704761Y-32295428D02*
X159076190Y-34352571D01*
X158923809Y-34200190D02*
X160142857Y-34200190D01*
X160142857Y-34200190D02*
X161361904Y-34200190D01*
X162885714Y-32371619D02*
X161514285Y-34428761D01*
X163266666Y-34657333D02*
X163342857Y-34581142D01*
X163495238Y-34352571D01*
X163571428Y-34200190D01*
X163647619Y-33971619D01*
X163723809Y-33590666D01*
X163723809Y-33285904D01*
X163647619Y-32904952D01*
X163571428Y-32676380D01*
X163495238Y-32524000D01*
X163342857Y-32295428D01*
X163266666Y-32219238D01*
X156638095Y-37233333D02*
X156561904Y-37157142D01*
X156409523Y-36928571D01*
X156333333Y-36776190D01*
X156257142Y-36547619D01*
X156180952Y-36166666D01*
X156180952Y-35861904D01*
X156257142Y-35480952D01*
X156333333Y-35252380D01*
X156409523Y-35100000D01*
X156561904Y-34871428D01*
X156638095Y-34795238D01*
X158923809Y-35861904D02*
X158923809Y-36166666D01*
X159000000Y-36166666D02*
X159000000Y-35861904D01*
X159076190Y-35785714D02*
X159076190Y-36242857D01*
X159152380Y-36166666D02*
X159152380Y-35861904D01*
X159228571Y-35861904D02*
X159228571Y-36166666D01*
X158923809Y-36090476D02*
X159076190Y-36242857D01*
X159228571Y-36090476D01*
X158923809Y-35938095D02*
X159076190Y-35785714D01*
X159228571Y-35938095D01*
X158923809Y-35861904D02*
X159076190Y-35785714D01*
X159228571Y-35861904D01*
X159304761Y-36014285D01*
X159228571Y-36166666D01*
X159076190Y-36242857D01*
X158923809Y-36166666D01*
X158847619Y-36014285D01*
X158923809Y-35861904D01*
X160447619Y-36014285D02*
X161666666Y-36014285D01*
X162885714Y-35861904D02*
X162885714Y-36166666D01*
X162961904Y-36166666D02*
X162961904Y-35861904D01*
X163038095Y-35785714D02*
X163038095Y-36242857D01*
X163114285Y-36166666D02*
X163114285Y-35861904D01*
X163190476Y-35861904D02*
X163190476Y-36166666D01*
X162885714Y-36090476D02*
X163038095Y-36242857D01*
X163190476Y-36090476D01*
X162885714Y-35938095D02*
X163038095Y-35785714D01*
X163190476Y-35938095D01*
X162885714Y-35861904D02*
X163038095Y-35785714D01*
X163190476Y-35861904D01*
X163266666Y-36014285D01*
X163190476Y-36166666D01*
X163038095Y-36242857D01*
X162885714Y-36166666D01*
X162809523Y-36014285D01*
X162885714Y-35861904D01*
X164257142Y-37233333D02*
X164333333Y-37157142D01*
X164485714Y-36928571D01*
X164561904Y-36776190D01*
X164638095Y-36547619D01*
X164714285Y-36166666D01*
X164714285Y-35861904D01*
X164638095Y-35480952D01*
X164561904Y-35252380D01*
X164485714Y-35100000D01*
X164333333Y-34871428D01*
X164257142Y-34795238D01*
X157095238Y-37523619D02*
X155723809Y-39580761D01*
X160066666Y-38133142D02*
X161285714Y-38590285D01*
X160066666Y-39047428D01*
X56555714Y-44430476D02*
X56555714Y-45649523D01*
X55946190Y-45040000D02*
X57165238Y-45040000D01*
X56415714Y-93000476D02*
X56415714Y-94219523D01*
X55806190Y-93610000D02*
X57025238Y-93610000D01*
X56785714Y-135070476D02*
X56785714Y-136289523D01*
X56176190Y-135680000D02*
X57395238Y-135680000D01*
X56725714Y-127680476D02*
X56725714Y-128899523D01*
X56735714Y-132750476D02*
X56735714Y-133969523D01*
X56195714Y-86380476D02*
X56195714Y-87599523D01*
X55586190Y-86990000D02*
X56805238Y-86990000D01*
X56795714Y-140440476D02*
X56795714Y-141659523D01*
X56186190Y-141050000D02*
X57405238Y-141050000D01*
X56395714Y-105520476D02*
X56395714Y-106739523D01*
X56785714Y-145440476D02*
X56785714Y-146659523D01*
X56176190Y-146050000D02*
X57395238Y-146050000D01*
D12*
%TO.C,R19*%
X76557142Y-132826580D02*
X76223809Y-132350390D01*
X75985714Y-132826580D02*
X75985714Y-131826580D01*
X76366666Y-131826580D01*
X76461904Y-131874200D01*
X76509523Y-131921819D01*
X76557142Y-132017057D01*
X76557142Y-132159914D01*
X76509523Y-132255152D01*
X76461904Y-132302771D01*
X76366666Y-132350390D01*
X75985714Y-132350390D01*
X77509523Y-132826580D02*
X76938095Y-132826580D01*
X77223809Y-132826580D02*
X77223809Y-131826580D01*
X77128571Y-131969438D01*
X77033333Y-132064676D01*
X76938095Y-132112295D01*
X77985714Y-132826580D02*
X78176190Y-132826580D01*
X78271428Y-132778961D01*
X78319047Y-132731342D01*
X78414285Y-132588485D01*
X78461904Y-132398009D01*
X78461904Y-132017057D01*
X78414285Y-131921819D01*
X78366666Y-131874200D01*
X78271428Y-131826580D01*
X78080952Y-131826580D01*
X77985714Y-131874200D01*
X77938095Y-131921819D01*
X77890476Y-132017057D01*
X77890476Y-132255152D01*
X77938095Y-132350390D01*
X77985714Y-132398009D01*
X78080952Y-132445628D01*
X78271428Y-132445628D01*
X78366666Y-132398009D01*
X78414285Y-132350390D01*
X78461904Y-132255152D01*
%TO.C,R31*%
X69197142Y-132810580D02*
X68863809Y-132334390D01*
X68625714Y-132810580D02*
X68625714Y-131810580D01*
X69006666Y-131810580D01*
X69101904Y-131858200D01*
X69149523Y-131905819D01*
X69197142Y-132001057D01*
X69197142Y-132143914D01*
X69149523Y-132239152D01*
X69101904Y-132286771D01*
X69006666Y-132334390D01*
X68625714Y-132334390D01*
X69530476Y-131810580D02*
X70149523Y-131810580D01*
X69816190Y-132191533D01*
X69959047Y-132191533D01*
X70054285Y-132239152D01*
X70101904Y-132286771D01*
X70149523Y-132382009D01*
X70149523Y-132620104D01*
X70101904Y-132715342D01*
X70054285Y-132762961D01*
X69959047Y-132810580D01*
X69673333Y-132810580D01*
X69578095Y-132762961D01*
X69530476Y-132715342D01*
X71101904Y-132810580D02*
X70530476Y-132810580D01*
X70816190Y-132810580D02*
X70816190Y-131810580D01*
X70720952Y-131953438D01*
X70625714Y-132048676D01*
X70530476Y-132096295D01*
%TO.C,R20*%
X76557142Y-127721180D02*
X76223809Y-127244990D01*
X75985714Y-127721180D02*
X75985714Y-126721180D01*
X76366666Y-126721180D01*
X76461904Y-126768800D01*
X76509523Y-126816419D01*
X76557142Y-126911657D01*
X76557142Y-127054514D01*
X76509523Y-127149752D01*
X76461904Y-127197371D01*
X76366666Y-127244990D01*
X75985714Y-127244990D01*
X76938095Y-126816419D02*
X76985714Y-126768800D01*
X77080952Y-126721180D01*
X77319047Y-126721180D01*
X77414285Y-126768800D01*
X77461904Y-126816419D01*
X77509523Y-126911657D01*
X77509523Y-127006895D01*
X77461904Y-127149752D01*
X76890476Y-127721180D01*
X77509523Y-127721180D01*
X78128571Y-126721180D02*
X78223809Y-126721180D01*
X78319047Y-126768800D01*
X78366666Y-126816419D01*
X78414285Y-126911657D01*
X78461904Y-127102133D01*
X78461904Y-127340228D01*
X78414285Y-127530704D01*
X78366666Y-127625942D01*
X78319047Y-127673561D01*
X78223809Y-127721180D01*
X78128571Y-127721180D01*
X78033333Y-127673561D01*
X77985714Y-127625942D01*
X77938095Y-127530704D01*
X77890476Y-127340228D01*
X77890476Y-127102133D01*
X77938095Y-126911657D01*
X77985714Y-126816419D01*
X78033333Y-126768800D01*
X78128571Y-126721180D01*
%TO.C,R17*%
X76557142Y-142961180D02*
X76223809Y-142484990D01*
X75985714Y-142961180D02*
X75985714Y-141961180D01*
X76366666Y-141961180D01*
X76461904Y-142008800D01*
X76509523Y-142056419D01*
X76557142Y-142151657D01*
X76557142Y-142294514D01*
X76509523Y-142389752D01*
X76461904Y-142437371D01*
X76366666Y-142484990D01*
X75985714Y-142484990D01*
X77509523Y-142961180D02*
X76938095Y-142961180D01*
X77223809Y-142961180D02*
X77223809Y-141961180D01*
X77128571Y-142104038D01*
X77033333Y-142199276D01*
X76938095Y-142246895D01*
X77842857Y-141961180D02*
X78509523Y-141961180D01*
X78080952Y-142961180D01*
%TO.C,R32*%
X69197142Y-127705180D02*
X68863809Y-127228990D01*
X68625714Y-127705180D02*
X68625714Y-126705180D01*
X69006666Y-126705180D01*
X69101904Y-126752800D01*
X69149523Y-126800419D01*
X69197142Y-126895657D01*
X69197142Y-127038514D01*
X69149523Y-127133752D01*
X69101904Y-127181371D01*
X69006666Y-127228990D01*
X68625714Y-127228990D01*
X69530476Y-126705180D02*
X70149523Y-126705180D01*
X69816190Y-127086133D01*
X69959047Y-127086133D01*
X70054285Y-127133752D01*
X70101904Y-127181371D01*
X70149523Y-127276609D01*
X70149523Y-127514704D01*
X70101904Y-127609942D01*
X70054285Y-127657561D01*
X69959047Y-127705180D01*
X69673333Y-127705180D01*
X69578095Y-127657561D01*
X69530476Y-127609942D01*
X70530476Y-126800419D02*
X70578095Y-126752800D01*
X70673333Y-126705180D01*
X70911428Y-126705180D01*
X71006666Y-126752800D01*
X71054285Y-126800419D01*
X71101904Y-126895657D01*
X71101904Y-126990895D01*
X71054285Y-127133752D01*
X70482857Y-127705180D01*
X71101904Y-127705180D01*
%TO.C,R30*%
X69197142Y-137890580D02*
X68863809Y-137414390D01*
X68625714Y-137890580D02*
X68625714Y-136890580D01*
X69006666Y-136890580D01*
X69101904Y-136938200D01*
X69149523Y-136985819D01*
X69197142Y-137081057D01*
X69197142Y-137223914D01*
X69149523Y-137319152D01*
X69101904Y-137366771D01*
X69006666Y-137414390D01*
X68625714Y-137414390D01*
X69530476Y-136890580D02*
X70149523Y-136890580D01*
X69816190Y-137271533D01*
X69959047Y-137271533D01*
X70054285Y-137319152D01*
X70101904Y-137366771D01*
X70149523Y-137462009D01*
X70149523Y-137700104D01*
X70101904Y-137795342D01*
X70054285Y-137842961D01*
X69959047Y-137890580D01*
X69673333Y-137890580D01*
X69578095Y-137842961D01*
X69530476Y-137795342D01*
X70768571Y-136890580D02*
X70863809Y-136890580D01*
X70959047Y-136938200D01*
X71006666Y-136985819D01*
X71054285Y-137081057D01*
X71101904Y-137271533D01*
X71101904Y-137509628D01*
X71054285Y-137700104D01*
X71006666Y-137795342D01*
X70959047Y-137842961D01*
X70863809Y-137890580D01*
X70768571Y-137890580D01*
X70673333Y-137842961D01*
X70625714Y-137795342D01*
X70578095Y-137700104D01*
X70530476Y-137509628D01*
X70530476Y-137271533D01*
X70578095Y-137081057D01*
X70625714Y-136985819D01*
X70673333Y-136938200D01*
X70768571Y-136890580D01*
%TO.C,R18*%
X76557142Y-137906580D02*
X76223809Y-137430390D01*
X75985714Y-137906580D02*
X75985714Y-136906580D01*
X76366666Y-136906580D01*
X76461904Y-136954200D01*
X76509523Y-137001819D01*
X76557142Y-137097057D01*
X76557142Y-137239914D01*
X76509523Y-137335152D01*
X76461904Y-137382771D01*
X76366666Y-137430390D01*
X75985714Y-137430390D01*
X77509523Y-137906580D02*
X76938095Y-137906580D01*
X77223809Y-137906580D02*
X77223809Y-136906580D01*
X77128571Y-137049438D01*
X77033333Y-137144676D01*
X76938095Y-137192295D01*
X78080952Y-137335152D02*
X77985714Y-137287533D01*
X77938095Y-137239914D01*
X77890476Y-137144676D01*
X77890476Y-137097057D01*
X77938095Y-137001819D01*
X77985714Y-136954200D01*
X78080952Y-136906580D01*
X78271428Y-136906580D01*
X78366666Y-136954200D01*
X78414285Y-137001819D01*
X78461904Y-137097057D01*
X78461904Y-137144676D01*
X78414285Y-137239914D01*
X78366666Y-137287533D01*
X78271428Y-137335152D01*
X78080952Y-137335152D01*
X77985714Y-137382771D01*
X77938095Y-137430390D01*
X77890476Y-137525628D01*
X77890476Y-137716104D01*
X77938095Y-137811342D01*
X77985714Y-137858961D01*
X78080952Y-137906580D01*
X78271428Y-137906580D01*
X78366666Y-137858961D01*
X78414285Y-137811342D01*
X78461904Y-137716104D01*
X78461904Y-137525628D01*
X78414285Y-137430390D01*
X78366666Y-137382771D01*
X78271428Y-137335152D01*
%TO.C,R28*%
X69197142Y-148025180D02*
X68863809Y-147548990D01*
X68625714Y-148025180D02*
X68625714Y-147025180D01*
X69006666Y-147025180D01*
X69101904Y-147072800D01*
X69149523Y-147120419D01*
X69197142Y-147215657D01*
X69197142Y-147358514D01*
X69149523Y-147453752D01*
X69101904Y-147501371D01*
X69006666Y-147548990D01*
X68625714Y-147548990D01*
X69578095Y-147120419D02*
X69625714Y-147072800D01*
X69720952Y-147025180D01*
X69959047Y-147025180D01*
X70054285Y-147072800D01*
X70101904Y-147120419D01*
X70149523Y-147215657D01*
X70149523Y-147310895D01*
X70101904Y-147453752D01*
X69530476Y-148025180D01*
X70149523Y-148025180D01*
X70720952Y-147453752D02*
X70625714Y-147406133D01*
X70578095Y-147358514D01*
X70530476Y-147263276D01*
X70530476Y-147215657D01*
X70578095Y-147120419D01*
X70625714Y-147072800D01*
X70720952Y-147025180D01*
X70911428Y-147025180D01*
X71006666Y-147072800D01*
X71054285Y-147120419D01*
X71101904Y-147215657D01*
X71101904Y-147263276D01*
X71054285Y-147358514D01*
X71006666Y-147406133D01*
X70911428Y-147453752D01*
X70720952Y-147453752D01*
X70625714Y-147501371D01*
X70578095Y-147548990D01*
X70530476Y-147644228D01*
X70530476Y-147834704D01*
X70578095Y-147929942D01*
X70625714Y-147977561D01*
X70720952Y-148025180D01*
X70911428Y-148025180D01*
X71006666Y-147977561D01*
X71054285Y-147929942D01*
X71101904Y-147834704D01*
X71101904Y-147644228D01*
X71054285Y-147548990D01*
X71006666Y-147501371D01*
X70911428Y-147453752D01*
%TO.C,R16*%
X76557142Y-148041180D02*
X76223809Y-147564990D01*
X75985714Y-148041180D02*
X75985714Y-147041180D01*
X76366666Y-147041180D01*
X76461904Y-147088800D01*
X76509523Y-147136419D01*
X76557142Y-147231657D01*
X76557142Y-147374514D01*
X76509523Y-147469752D01*
X76461904Y-147517371D01*
X76366666Y-147564990D01*
X75985714Y-147564990D01*
X77509523Y-148041180D02*
X76938095Y-148041180D01*
X77223809Y-148041180D02*
X77223809Y-147041180D01*
X77128571Y-147184038D01*
X77033333Y-147279276D01*
X76938095Y-147326895D01*
X78366666Y-147041180D02*
X78176190Y-147041180D01*
X78080952Y-147088800D01*
X78033333Y-147136419D01*
X77938095Y-147279276D01*
X77890476Y-147469752D01*
X77890476Y-147850704D01*
X77938095Y-147945942D01*
X77985714Y-147993561D01*
X78080952Y-148041180D01*
X78271428Y-148041180D01*
X78366666Y-147993561D01*
X78414285Y-147945942D01*
X78461904Y-147850704D01*
X78461904Y-147612609D01*
X78414285Y-147517371D01*
X78366666Y-147469752D01*
X78271428Y-147422133D01*
X78080952Y-147422133D01*
X77985714Y-147469752D01*
X77938095Y-147517371D01*
X77890476Y-147612609D01*
%TO.C,R15*%
X76557142Y-153121180D02*
X76223809Y-152644990D01*
X75985714Y-153121180D02*
X75985714Y-152121180D01*
X76366666Y-152121180D01*
X76461904Y-152168800D01*
X76509523Y-152216419D01*
X76557142Y-152311657D01*
X76557142Y-152454514D01*
X76509523Y-152549752D01*
X76461904Y-152597371D01*
X76366666Y-152644990D01*
X75985714Y-152644990D01*
X77509523Y-153121180D02*
X76938095Y-153121180D01*
X77223809Y-153121180D02*
X77223809Y-152121180D01*
X77128571Y-152264038D01*
X77033333Y-152359276D01*
X76938095Y-152406895D01*
X78414285Y-152121180D02*
X77938095Y-152121180D01*
X77890476Y-152597371D01*
X77938095Y-152549752D01*
X78033333Y-152502133D01*
X78271428Y-152502133D01*
X78366666Y-152549752D01*
X78414285Y-152597371D01*
X78461904Y-152692609D01*
X78461904Y-152930704D01*
X78414285Y-153025942D01*
X78366666Y-153073561D01*
X78271428Y-153121180D01*
X78033333Y-153121180D01*
X77938095Y-153073561D01*
X77890476Y-153025942D01*
%TO.C,R27*%
X69197142Y-153105180D02*
X68863809Y-152628990D01*
X68625714Y-153105180D02*
X68625714Y-152105180D01*
X69006666Y-152105180D01*
X69101904Y-152152800D01*
X69149523Y-152200419D01*
X69197142Y-152295657D01*
X69197142Y-152438514D01*
X69149523Y-152533752D01*
X69101904Y-152581371D01*
X69006666Y-152628990D01*
X68625714Y-152628990D01*
X69578095Y-152200419D02*
X69625714Y-152152800D01*
X69720952Y-152105180D01*
X69959047Y-152105180D01*
X70054285Y-152152800D01*
X70101904Y-152200419D01*
X70149523Y-152295657D01*
X70149523Y-152390895D01*
X70101904Y-152533752D01*
X69530476Y-153105180D01*
X70149523Y-153105180D01*
X70482857Y-152105180D02*
X71149523Y-152105180D01*
X70720952Y-153105180D01*
%TO.C,R29*%
X69197142Y-142945180D02*
X68863809Y-142468990D01*
X68625714Y-142945180D02*
X68625714Y-141945180D01*
X69006666Y-141945180D01*
X69101904Y-141992800D01*
X69149523Y-142040419D01*
X69197142Y-142135657D01*
X69197142Y-142278514D01*
X69149523Y-142373752D01*
X69101904Y-142421371D01*
X69006666Y-142468990D01*
X68625714Y-142468990D01*
X69578095Y-142040419D02*
X69625714Y-141992800D01*
X69720952Y-141945180D01*
X69959047Y-141945180D01*
X70054285Y-141992800D01*
X70101904Y-142040419D01*
X70149523Y-142135657D01*
X70149523Y-142230895D01*
X70101904Y-142373752D01*
X69530476Y-142945180D01*
X70149523Y-142945180D01*
X70625714Y-142945180D02*
X70816190Y-142945180D01*
X70911428Y-142897561D01*
X70959047Y-142849942D01*
X71054285Y-142707085D01*
X71101904Y-142516609D01*
X71101904Y-142135657D01*
X71054285Y-142040419D01*
X71006666Y-141992800D01*
X70911428Y-141945180D01*
X70720952Y-141945180D01*
X70625714Y-141992800D01*
X70578095Y-142040419D01*
X70530476Y-142135657D01*
X70530476Y-142373752D01*
X70578095Y-142468990D01*
X70625714Y-142516609D01*
X70720952Y-142564228D01*
X70911428Y-142564228D01*
X71006666Y-142516609D01*
X71054285Y-142468990D01*
X71101904Y-142373752D01*
%TO.C,R46*%
X109597142Y-149592380D02*
X109263809Y-149116190D01*
X109025714Y-149592380D02*
X109025714Y-148592380D01*
X109406666Y-148592380D01*
X109501904Y-148640000D01*
X109549523Y-148687619D01*
X109597142Y-148782857D01*
X109597142Y-148925714D01*
X109549523Y-149020952D01*
X109501904Y-149068571D01*
X109406666Y-149116190D01*
X109025714Y-149116190D01*
X110454285Y-148925714D02*
X110454285Y-149592380D01*
X110216190Y-148544761D02*
X109978095Y-149259047D01*
X110597142Y-149259047D01*
X111406666Y-148592380D02*
X111216190Y-148592380D01*
X111120952Y-148640000D01*
X111073333Y-148687619D01*
X110978095Y-148830476D01*
X110930476Y-149020952D01*
X110930476Y-149401904D01*
X110978095Y-149497142D01*
X111025714Y-149544761D01*
X111120952Y-149592380D01*
X111311428Y-149592380D01*
X111406666Y-149544761D01*
X111454285Y-149497142D01*
X111501904Y-149401904D01*
X111501904Y-149163809D01*
X111454285Y-149068571D01*
X111406666Y-149020952D01*
X111311428Y-148973333D01*
X111120952Y-148973333D01*
X111025714Y-149020952D01*
X110978095Y-149068571D01*
X110930476Y-149163809D01*
%TO.C,R98*%
X76489642Y-31692380D02*
X76156309Y-31216190D01*
X75918214Y-31692380D02*
X75918214Y-30692380D01*
X76299166Y-30692380D01*
X76394404Y-30740000D01*
X76442023Y-30787619D01*
X76489642Y-30882857D01*
X76489642Y-31025714D01*
X76442023Y-31120952D01*
X76394404Y-31168571D01*
X76299166Y-31216190D01*
X75918214Y-31216190D01*
X76965833Y-31692380D02*
X77156309Y-31692380D01*
X77251547Y-31644761D01*
X77299166Y-31597142D01*
X77394404Y-31454285D01*
X77442023Y-31263809D01*
X77442023Y-30882857D01*
X77394404Y-30787619D01*
X77346785Y-30740000D01*
X77251547Y-30692380D01*
X77061071Y-30692380D01*
X76965833Y-30740000D01*
X76918214Y-30787619D01*
X76870595Y-30882857D01*
X76870595Y-31120952D01*
X76918214Y-31216190D01*
X76965833Y-31263809D01*
X77061071Y-31311428D01*
X77251547Y-31311428D01*
X77346785Y-31263809D01*
X77394404Y-31216190D01*
X77442023Y-31120952D01*
X78013452Y-31120952D02*
X77918214Y-31073333D01*
X77870595Y-31025714D01*
X77822976Y-30930476D01*
X77822976Y-30882857D01*
X77870595Y-30787619D01*
X77918214Y-30740000D01*
X78013452Y-30692380D01*
X78203928Y-30692380D01*
X78299166Y-30740000D01*
X78346785Y-30787619D01*
X78394404Y-30882857D01*
X78394404Y-30930476D01*
X78346785Y-31025714D01*
X78299166Y-31073333D01*
X78203928Y-31120952D01*
X78013452Y-31120952D01*
X77918214Y-31168571D01*
X77870595Y-31216190D01*
X77822976Y-31311428D01*
X77822976Y-31501904D01*
X77870595Y-31597142D01*
X77918214Y-31644761D01*
X78013452Y-31692380D01*
X78203928Y-31692380D01*
X78299166Y-31644761D01*
X78346785Y-31597142D01*
X78394404Y-31501904D01*
X78394404Y-31311428D01*
X78346785Y-31216190D01*
X78299166Y-31168571D01*
X78203928Y-31120952D01*
%TO.C,R39*%
X76447142Y-121045980D02*
X76113809Y-120569790D01*
X75875714Y-121045980D02*
X75875714Y-120045980D01*
X76256666Y-120045980D01*
X76351904Y-120093600D01*
X76399523Y-120141219D01*
X76447142Y-120236457D01*
X76447142Y-120379314D01*
X76399523Y-120474552D01*
X76351904Y-120522171D01*
X76256666Y-120569790D01*
X75875714Y-120569790D01*
X76780476Y-120045980D02*
X77399523Y-120045980D01*
X77066190Y-120426933D01*
X77209047Y-120426933D01*
X77304285Y-120474552D01*
X77351904Y-120522171D01*
X77399523Y-120617409D01*
X77399523Y-120855504D01*
X77351904Y-120950742D01*
X77304285Y-120998361D01*
X77209047Y-121045980D01*
X76923333Y-121045980D01*
X76828095Y-120998361D01*
X76780476Y-120950742D01*
X77875714Y-121045980D02*
X78066190Y-121045980D01*
X78161428Y-120998361D01*
X78209047Y-120950742D01*
X78304285Y-120807885D01*
X78351904Y-120617409D01*
X78351904Y-120236457D01*
X78304285Y-120141219D01*
X78256666Y-120093600D01*
X78161428Y-120045980D01*
X77970952Y-120045980D01*
X77875714Y-120093600D01*
X77828095Y-120141219D01*
X77780476Y-120236457D01*
X77780476Y-120474552D01*
X77828095Y-120569790D01*
X77875714Y-120617409D01*
X77970952Y-120665028D01*
X78161428Y-120665028D01*
X78256666Y-120617409D01*
X78304285Y-120569790D01*
X78351904Y-120474552D01*
%TO.C,J12*%
X103777380Y-90079523D02*
X104491666Y-90079523D01*
X104634523Y-90127142D01*
X104729761Y-90222380D01*
X104777380Y-90365238D01*
X104777380Y-90460476D01*
X104777380Y-89079523D02*
X104777380Y-89650952D01*
X104777380Y-89365238D02*
X103777380Y-89365238D01*
X103920238Y-89460476D01*
X104015476Y-89555714D01*
X104063095Y-89650952D01*
X103872619Y-88698571D02*
X103825000Y-88650952D01*
X103777380Y-88555714D01*
X103777380Y-88317619D01*
X103825000Y-88222380D01*
X103872619Y-88174761D01*
X103967857Y-88127142D01*
X104063095Y-88127142D01*
X104205952Y-88174761D01*
X104777380Y-88746190D01*
X104777380Y-88127142D01*
%TO.C,J7*%
X144866666Y-100592380D02*
X144866666Y-101306666D01*
X144819047Y-101449523D01*
X144723809Y-101544761D01*
X144580952Y-101592380D01*
X144485714Y-101592380D01*
X145247619Y-100592380D02*
X145914285Y-100592380D01*
X145485714Y-101592380D01*
%TO.C,R22*%
X107372142Y-79952380D02*
X107038809Y-79476190D01*
X106800714Y-79952380D02*
X106800714Y-78952380D01*
X107181666Y-78952380D01*
X107276904Y-79000000D01*
X107324523Y-79047619D01*
X107372142Y-79142857D01*
X107372142Y-79285714D01*
X107324523Y-79380952D01*
X107276904Y-79428571D01*
X107181666Y-79476190D01*
X106800714Y-79476190D01*
X107753095Y-79047619D02*
X107800714Y-79000000D01*
X107895952Y-78952380D01*
X108134047Y-78952380D01*
X108229285Y-79000000D01*
X108276904Y-79047619D01*
X108324523Y-79142857D01*
X108324523Y-79238095D01*
X108276904Y-79380952D01*
X107705476Y-79952380D01*
X108324523Y-79952380D01*
X108705476Y-79047619D02*
X108753095Y-79000000D01*
X108848333Y-78952380D01*
X109086428Y-78952380D01*
X109181666Y-79000000D01*
X109229285Y-79047619D01*
X109276904Y-79142857D01*
X109276904Y-79238095D01*
X109229285Y-79380952D01*
X108657857Y-79952380D01*
X109276904Y-79952380D01*
%TO.C,C1*%
X164153333Y-47057142D02*
X164105714Y-47104761D01*
X163962857Y-47152380D01*
X163867619Y-47152380D01*
X163724761Y-47104761D01*
X163629523Y-47009523D01*
X163581904Y-46914285D01*
X163534285Y-46723809D01*
X163534285Y-46580952D01*
X163581904Y-46390476D01*
X163629523Y-46295238D01*
X163724761Y-46200000D01*
X163867619Y-46152380D01*
X163962857Y-46152380D01*
X164105714Y-46200000D01*
X164153333Y-46247619D01*
X165105714Y-47152380D02*
X164534285Y-47152380D01*
X164820000Y-47152380D02*
X164820000Y-46152380D01*
X164724761Y-46295238D01*
X164629523Y-46390476D01*
X164534285Y-46438095D01*
%TO.C,R108*%
X68020952Y-41852380D02*
X67687619Y-41376190D01*
X67449523Y-41852380D02*
X67449523Y-40852380D01*
X67830476Y-40852380D01*
X67925714Y-40900000D01*
X67973333Y-40947619D01*
X68020952Y-41042857D01*
X68020952Y-41185714D01*
X67973333Y-41280952D01*
X67925714Y-41328571D01*
X67830476Y-41376190D01*
X67449523Y-41376190D01*
X68973333Y-41852380D02*
X68401904Y-41852380D01*
X68687619Y-41852380D02*
X68687619Y-40852380D01*
X68592380Y-40995238D01*
X68497142Y-41090476D01*
X68401904Y-41138095D01*
X69592380Y-40852380D02*
X69687619Y-40852380D01*
X69782857Y-40900000D01*
X69830476Y-40947619D01*
X69878095Y-41042857D01*
X69925714Y-41233333D01*
X69925714Y-41471428D01*
X69878095Y-41661904D01*
X69830476Y-41757142D01*
X69782857Y-41804761D01*
X69687619Y-41852380D01*
X69592380Y-41852380D01*
X69497142Y-41804761D01*
X69449523Y-41757142D01*
X69401904Y-41661904D01*
X69354285Y-41471428D01*
X69354285Y-41233333D01*
X69401904Y-41042857D01*
X69449523Y-40947619D01*
X69497142Y-40900000D01*
X69592380Y-40852380D01*
X70497142Y-41280952D02*
X70401904Y-41233333D01*
X70354285Y-41185714D01*
X70306666Y-41090476D01*
X70306666Y-41042857D01*
X70354285Y-40947619D01*
X70401904Y-40900000D01*
X70497142Y-40852380D01*
X70687619Y-40852380D01*
X70782857Y-40900000D01*
X70830476Y-40947619D01*
X70878095Y-41042857D01*
X70878095Y-41090476D01*
X70830476Y-41185714D01*
X70782857Y-41233333D01*
X70687619Y-41280952D01*
X70497142Y-41280952D01*
X70401904Y-41328571D01*
X70354285Y-41376190D01*
X70306666Y-41471428D01*
X70306666Y-41661904D01*
X70354285Y-41757142D01*
X70401904Y-41804761D01*
X70497142Y-41852380D01*
X70687619Y-41852380D01*
X70782857Y-41804761D01*
X70830476Y-41757142D01*
X70878095Y-41661904D01*
X70878095Y-41471428D01*
X70830476Y-41376190D01*
X70782857Y-41328571D01*
X70687619Y-41280952D01*
%TO.C,U2*%
X179048095Y-57972380D02*
X179048095Y-58781904D01*
X179095714Y-58877142D01*
X179143333Y-58924761D01*
X179238571Y-58972380D01*
X179429047Y-58972380D01*
X179524285Y-58924761D01*
X179571904Y-58877142D01*
X179619523Y-58781904D01*
X179619523Y-57972380D01*
X180048095Y-58067619D02*
X180095714Y-58020000D01*
X180190952Y-57972380D01*
X180429047Y-57972380D01*
X180524285Y-58020000D01*
X180571904Y-58067619D01*
X180619523Y-58162857D01*
X180619523Y-58258095D01*
X180571904Y-58400952D01*
X180000476Y-58972380D01*
X180619523Y-58972380D01*
%TO.C,R2*%
X218032380Y-50306666D02*
X217556190Y-50640000D01*
X218032380Y-50878095D02*
X217032380Y-50878095D01*
X217032380Y-50497142D01*
X217080000Y-50401904D01*
X217127619Y-50354285D01*
X217222857Y-50306666D01*
X217365714Y-50306666D01*
X217460952Y-50354285D01*
X217508571Y-50401904D01*
X217556190Y-50497142D01*
X217556190Y-50878095D01*
X217127619Y-49925714D02*
X217080000Y-49878095D01*
X217032380Y-49782857D01*
X217032380Y-49544761D01*
X217080000Y-49449523D01*
X217127619Y-49401904D01*
X217222857Y-49354285D01*
X217318095Y-49354285D01*
X217460952Y-49401904D01*
X218032380Y-49973333D01*
X218032380Y-49354285D01*
%TO.C,R97*%
X76489642Y-36812380D02*
X76156309Y-36336190D01*
X75918214Y-36812380D02*
X75918214Y-35812380D01*
X76299166Y-35812380D01*
X76394404Y-35860000D01*
X76442023Y-35907619D01*
X76489642Y-36002857D01*
X76489642Y-36145714D01*
X76442023Y-36240952D01*
X76394404Y-36288571D01*
X76299166Y-36336190D01*
X75918214Y-36336190D01*
X76965833Y-36812380D02*
X77156309Y-36812380D01*
X77251547Y-36764761D01*
X77299166Y-36717142D01*
X77394404Y-36574285D01*
X77442023Y-36383809D01*
X77442023Y-36002857D01*
X77394404Y-35907619D01*
X77346785Y-35860000D01*
X77251547Y-35812380D01*
X77061071Y-35812380D01*
X76965833Y-35860000D01*
X76918214Y-35907619D01*
X76870595Y-36002857D01*
X76870595Y-36240952D01*
X76918214Y-36336190D01*
X76965833Y-36383809D01*
X77061071Y-36431428D01*
X77251547Y-36431428D01*
X77346785Y-36383809D01*
X77394404Y-36336190D01*
X77442023Y-36240952D01*
X77775357Y-35812380D02*
X78442023Y-35812380D01*
X78013452Y-36812380D01*
%TO.C,R58*%
X102067142Y-149602380D02*
X101733809Y-149126190D01*
X101495714Y-149602380D02*
X101495714Y-148602380D01*
X101876666Y-148602380D01*
X101971904Y-148650000D01*
X102019523Y-148697619D01*
X102067142Y-148792857D01*
X102067142Y-148935714D01*
X102019523Y-149030952D01*
X101971904Y-149078571D01*
X101876666Y-149126190D01*
X101495714Y-149126190D01*
X102971904Y-148602380D02*
X102495714Y-148602380D01*
X102448095Y-149078571D01*
X102495714Y-149030952D01*
X102590952Y-148983333D01*
X102829047Y-148983333D01*
X102924285Y-149030952D01*
X102971904Y-149078571D01*
X103019523Y-149173809D01*
X103019523Y-149411904D01*
X102971904Y-149507142D01*
X102924285Y-149554761D01*
X102829047Y-149602380D01*
X102590952Y-149602380D01*
X102495714Y-149554761D01*
X102448095Y-149507142D01*
X103590952Y-149030952D02*
X103495714Y-148983333D01*
X103448095Y-148935714D01*
X103400476Y-148840476D01*
X103400476Y-148792857D01*
X103448095Y-148697619D01*
X103495714Y-148650000D01*
X103590952Y-148602380D01*
X103781428Y-148602380D01*
X103876666Y-148650000D01*
X103924285Y-148697619D01*
X103971904Y-148792857D01*
X103971904Y-148840476D01*
X103924285Y-148935714D01*
X103876666Y-148983333D01*
X103781428Y-149030952D01*
X103590952Y-149030952D01*
X103495714Y-149078571D01*
X103448095Y-149126190D01*
X103400476Y-149221428D01*
X103400476Y-149411904D01*
X103448095Y-149507142D01*
X103495714Y-149554761D01*
X103590952Y-149602380D01*
X103781428Y-149602380D01*
X103876666Y-149554761D01*
X103924285Y-149507142D01*
X103971904Y-149411904D01*
X103971904Y-149221428D01*
X103924285Y-149126190D01*
X103876666Y-149078571D01*
X103781428Y-149030952D01*
%TO.C,C3*%
X178653333Y-38397142D02*
X178605714Y-38444761D01*
X178462857Y-38492380D01*
X178367619Y-38492380D01*
X178224761Y-38444761D01*
X178129523Y-38349523D01*
X178081904Y-38254285D01*
X178034285Y-38063809D01*
X178034285Y-37920952D01*
X178081904Y-37730476D01*
X178129523Y-37635238D01*
X178224761Y-37540000D01*
X178367619Y-37492380D01*
X178462857Y-37492380D01*
X178605714Y-37540000D01*
X178653333Y-37587619D01*
X178986666Y-37492380D02*
X179605714Y-37492380D01*
X179272380Y-37873333D01*
X179415238Y-37873333D01*
X179510476Y-37920952D01*
X179558095Y-37968571D01*
X179605714Y-38063809D01*
X179605714Y-38301904D01*
X179558095Y-38397142D01*
X179510476Y-38444761D01*
X179415238Y-38492380D01*
X179129523Y-38492380D01*
X179034285Y-38444761D01*
X178986666Y-38397142D01*
%TO.C,R84*%
X68497142Y-73922380D02*
X68163809Y-73446190D01*
X67925714Y-73922380D02*
X67925714Y-72922380D01*
X68306666Y-72922380D01*
X68401904Y-72970000D01*
X68449523Y-73017619D01*
X68497142Y-73112857D01*
X68497142Y-73255714D01*
X68449523Y-73350952D01*
X68401904Y-73398571D01*
X68306666Y-73446190D01*
X67925714Y-73446190D01*
X69068571Y-73350952D02*
X68973333Y-73303333D01*
X68925714Y-73255714D01*
X68878095Y-73160476D01*
X68878095Y-73112857D01*
X68925714Y-73017619D01*
X68973333Y-72970000D01*
X69068571Y-72922380D01*
X69259047Y-72922380D01*
X69354285Y-72970000D01*
X69401904Y-73017619D01*
X69449523Y-73112857D01*
X69449523Y-73160476D01*
X69401904Y-73255714D01*
X69354285Y-73303333D01*
X69259047Y-73350952D01*
X69068571Y-73350952D01*
X68973333Y-73398571D01*
X68925714Y-73446190D01*
X68878095Y-73541428D01*
X68878095Y-73731904D01*
X68925714Y-73827142D01*
X68973333Y-73874761D01*
X69068571Y-73922380D01*
X69259047Y-73922380D01*
X69354285Y-73874761D01*
X69401904Y-73827142D01*
X69449523Y-73731904D01*
X69449523Y-73541428D01*
X69401904Y-73446190D01*
X69354285Y-73398571D01*
X69259047Y-73350952D01*
X70306666Y-73255714D02*
X70306666Y-73922380D01*
X70068571Y-72874761D02*
X69830476Y-73589047D01*
X70449523Y-73589047D01*
%TO.C,R109*%
X68020952Y-36822380D02*
X67687619Y-36346190D01*
X67449523Y-36822380D02*
X67449523Y-35822380D01*
X67830476Y-35822380D01*
X67925714Y-35870000D01*
X67973333Y-35917619D01*
X68020952Y-36012857D01*
X68020952Y-36155714D01*
X67973333Y-36250952D01*
X67925714Y-36298571D01*
X67830476Y-36346190D01*
X67449523Y-36346190D01*
X68973333Y-36822380D02*
X68401904Y-36822380D01*
X68687619Y-36822380D02*
X68687619Y-35822380D01*
X68592380Y-35965238D01*
X68497142Y-36060476D01*
X68401904Y-36108095D01*
X69592380Y-35822380D02*
X69687619Y-35822380D01*
X69782857Y-35870000D01*
X69830476Y-35917619D01*
X69878095Y-36012857D01*
X69925714Y-36203333D01*
X69925714Y-36441428D01*
X69878095Y-36631904D01*
X69830476Y-36727142D01*
X69782857Y-36774761D01*
X69687619Y-36822380D01*
X69592380Y-36822380D01*
X69497142Y-36774761D01*
X69449523Y-36727142D01*
X69401904Y-36631904D01*
X69354285Y-36441428D01*
X69354285Y-36203333D01*
X69401904Y-36012857D01*
X69449523Y-35917619D01*
X69497142Y-35870000D01*
X69592380Y-35822380D01*
X70401904Y-36822380D02*
X70592380Y-36822380D01*
X70687619Y-36774761D01*
X70735238Y-36727142D01*
X70830476Y-36584285D01*
X70878095Y-36393809D01*
X70878095Y-36012857D01*
X70830476Y-35917619D01*
X70782857Y-35870000D01*
X70687619Y-35822380D01*
X70497142Y-35822380D01*
X70401904Y-35870000D01*
X70354285Y-35917619D01*
X70306666Y-36012857D01*
X70306666Y-36250952D01*
X70354285Y-36346190D01*
X70401904Y-36393809D01*
X70497142Y-36441428D01*
X70687619Y-36441428D01*
X70782857Y-36393809D01*
X70830476Y-36346190D01*
X70878095Y-36250952D01*
%TO.C,R82*%
X68497142Y-84072380D02*
X68163809Y-83596190D01*
X67925714Y-84072380D02*
X67925714Y-83072380D01*
X68306666Y-83072380D01*
X68401904Y-83120000D01*
X68449523Y-83167619D01*
X68497142Y-83262857D01*
X68497142Y-83405714D01*
X68449523Y-83500952D01*
X68401904Y-83548571D01*
X68306666Y-83596190D01*
X67925714Y-83596190D01*
X69068571Y-83500952D02*
X68973333Y-83453333D01*
X68925714Y-83405714D01*
X68878095Y-83310476D01*
X68878095Y-83262857D01*
X68925714Y-83167619D01*
X68973333Y-83120000D01*
X69068571Y-83072380D01*
X69259047Y-83072380D01*
X69354285Y-83120000D01*
X69401904Y-83167619D01*
X69449523Y-83262857D01*
X69449523Y-83310476D01*
X69401904Y-83405714D01*
X69354285Y-83453333D01*
X69259047Y-83500952D01*
X69068571Y-83500952D01*
X68973333Y-83548571D01*
X68925714Y-83596190D01*
X68878095Y-83691428D01*
X68878095Y-83881904D01*
X68925714Y-83977142D01*
X68973333Y-84024761D01*
X69068571Y-84072380D01*
X69259047Y-84072380D01*
X69354285Y-84024761D01*
X69401904Y-83977142D01*
X69449523Y-83881904D01*
X69449523Y-83691428D01*
X69401904Y-83596190D01*
X69354285Y-83548571D01*
X69259047Y-83500952D01*
X69830476Y-83167619D02*
X69878095Y-83120000D01*
X69973333Y-83072380D01*
X70211428Y-83072380D01*
X70306666Y-83120000D01*
X70354285Y-83167619D01*
X70401904Y-83262857D01*
X70401904Y-83358095D01*
X70354285Y-83500952D01*
X69782857Y-84072380D01*
X70401904Y-84072380D01*
%TO.C,R14*%
X107372142Y-109932380D02*
X107038809Y-109456190D01*
X106800714Y-109932380D02*
X106800714Y-108932380D01*
X107181666Y-108932380D01*
X107276904Y-108980000D01*
X107324523Y-109027619D01*
X107372142Y-109122857D01*
X107372142Y-109265714D01*
X107324523Y-109360952D01*
X107276904Y-109408571D01*
X107181666Y-109456190D01*
X106800714Y-109456190D01*
X108324523Y-109932380D02*
X107753095Y-109932380D01*
X108038809Y-109932380D02*
X108038809Y-108932380D01*
X107943571Y-109075238D01*
X107848333Y-109170476D01*
X107753095Y-109218095D01*
X109181666Y-109265714D02*
X109181666Y-109932380D01*
X108943571Y-108884761D02*
X108705476Y-109599047D01*
X109324523Y-109599047D01*
%TO.C,R12*%
X115762142Y-94892380D02*
X115428809Y-94416190D01*
X115190714Y-94892380D02*
X115190714Y-93892380D01*
X115571666Y-93892380D01*
X115666904Y-93940000D01*
X115714523Y-93987619D01*
X115762142Y-94082857D01*
X115762142Y-94225714D01*
X115714523Y-94320952D01*
X115666904Y-94368571D01*
X115571666Y-94416190D01*
X115190714Y-94416190D01*
X116714523Y-94892380D02*
X116143095Y-94892380D01*
X116428809Y-94892380D02*
X116428809Y-93892380D01*
X116333571Y-94035238D01*
X116238333Y-94130476D01*
X116143095Y-94178095D01*
X117095476Y-93987619D02*
X117143095Y-93940000D01*
X117238333Y-93892380D01*
X117476428Y-93892380D01*
X117571666Y-93940000D01*
X117619285Y-93987619D01*
X117666904Y-94082857D01*
X117666904Y-94178095D01*
X117619285Y-94320952D01*
X117047857Y-94892380D01*
X117666904Y-94892380D01*
%TO.C,R70*%
X76414642Y-84042380D02*
X76081309Y-83566190D01*
X75843214Y-84042380D02*
X75843214Y-83042380D01*
X76224166Y-83042380D01*
X76319404Y-83090000D01*
X76367023Y-83137619D01*
X76414642Y-83232857D01*
X76414642Y-83375714D01*
X76367023Y-83470952D01*
X76319404Y-83518571D01*
X76224166Y-83566190D01*
X75843214Y-83566190D01*
X76747976Y-83042380D02*
X77414642Y-83042380D01*
X76986071Y-84042380D01*
X77986071Y-83042380D02*
X78081309Y-83042380D01*
X78176547Y-83090000D01*
X78224166Y-83137619D01*
X78271785Y-83232857D01*
X78319404Y-83423333D01*
X78319404Y-83661428D01*
X78271785Y-83851904D01*
X78224166Y-83947142D01*
X78176547Y-83994761D01*
X78081309Y-84042380D01*
X77986071Y-84042380D01*
X77890833Y-83994761D01*
X77843214Y-83947142D01*
X77795595Y-83851904D01*
X77747976Y-83661428D01*
X77747976Y-83423333D01*
X77795595Y-83232857D01*
X77843214Y-83137619D01*
X77890833Y-83090000D01*
X77986071Y-83042380D01*
%TO.C,R5*%
X192485333Y-69119380D02*
X192152000Y-68643190D01*
X191913904Y-69119380D02*
X191913904Y-68119380D01*
X192294857Y-68119380D01*
X192390095Y-68167000D01*
X192437714Y-68214619D01*
X192485333Y-68309857D01*
X192485333Y-68452714D01*
X192437714Y-68547952D01*
X192390095Y-68595571D01*
X192294857Y-68643190D01*
X191913904Y-68643190D01*
X193390095Y-68119380D02*
X192913904Y-68119380D01*
X192866285Y-68595571D01*
X192913904Y-68547952D01*
X193009142Y-68500333D01*
X193247238Y-68500333D01*
X193342476Y-68547952D01*
X193390095Y-68595571D01*
X193437714Y-68690809D01*
X193437714Y-68928904D01*
X193390095Y-69024142D01*
X193342476Y-69071761D01*
X193247238Y-69119380D01*
X193009142Y-69119380D01*
X192913904Y-69071761D01*
X192866285Y-69024142D01*
%TO.C,R92*%
X110397142Y-36652380D02*
X110063809Y-36176190D01*
X109825714Y-36652380D02*
X109825714Y-35652380D01*
X110206666Y-35652380D01*
X110301904Y-35700000D01*
X110349523Y-35747619D01*
X110397142Y-35842857D01*
X110397142Y-35985714D01*
X110349523Y-36080952D01*
X110301904Y-36128571D01*
X110206666Y-36176190D01*
X109825714Y-36176190D01*
X110873333Y-36652380D02*
X111063809Y-36652380D01*
X111159047Y-36604761D01*
X111206666Y-36557142D01*
X111301904Y-36414285D01*
X111349523Y-36223809D01*
X111349523Y-35842857D01*
X111301904Y-35747619D01*
X111254285Y-35700000D01*
X111159047Y-35652380D01*
X110968571Y-35652380D01*
X110873333Y-35700000D01*
X110825714Y-35747619D01*
X110778095Y-35842857D01*
X110778095Y-36080952D01*
X110825714Y-36176190D01*
X110873333Y-36223809D01*
X110968571Y-36271428D01*
X111159047Y-36271428D01*
X111254285Y-36223809D01*
X111301904Y-36176190D01*
X111349523Y-36080952D01*
X111730476Y-35747619D02*
X111778095Y-35700000D01*
X111873333Y-35652380D01*
X112111428Y-35652380D01*
X112206666Y-35700000D01*
X112254285Y-35747619D01*
X112301904Y-35842857D01*
X112301904Y-35938095D01*
X112254285Y-36080952D01*
X111682857Y-36652380D01*
X112301904Y-36652380D01*
%TO.C,J8*%
X150137380Y-137898333D02*
X150851666Y-137898333D01*
X150994523Y-137945952D01*
X151089761Y-138041190D01*
X151137380Y-138184047D01*
X151137380Y-138279285D01*
X150565952Y-137279285D02*
X150518333Y-137374523D01*
X150470714Y-137422142D01*
X150375476Y-137469761D01*
X150327857Y-137469761D01*
X150232619Y-137422142D01*
X150185000Y-137374523D01*
X150137380Y-137279285D01*
X150137380Y-137088809D01*
X150185000Y-136993571D01*
X150232619Y-136945952D01*
X150327857Y-136898333D01*
X150375476Y-136898333D01*
X150470714Y-136945952D01*
X150518333Y-136993571D01*
X150565952Y-137088809D01*
X150565952Y-137279285D01*
X150613571Y-137374523D01*
X150661190Y-137422142D01*
X150756428Y-137469761D01*
X150946904Y-137469761D01*
X151042142Y-137422142D01*
X151089761Y-137374523D01*
X151137380Y-137279285D01*
X151137380Y-137088809D01*
X151089761Y-136993571D01*
X151042142Y-136945952D01*
X150946904Y-136898333D01*
X150756428Y-136898333D01*
X150661190Y-136945952D01*
X150613571Y-136993571D01*
X150565952Y-137088809D01*
%TO.C,R11*%
X115762142Y-109932380D02*
X115428809Y-109456190D01*
X115190714Y-109932380D02*
X115190714Y-108932380D01*
X115571666Y-108932380D01*
X115666904Y-108980000D01*
X115714523Y-109027619D01*
X115762142Y-109122857D01*
X115762142Y-109265714D01*
X115714523Y-109360952D01*
X115666904Y-109408571D01*
X115571666Y-109456190D01*
X115190714Y-109456190D01*
X116714523Y-109932380D02*
X116143095Y-109932380D01*
X116428809Y-109932380D02*
X116428809Y-108932380D01*
X116333571Y-109075238D01*
X116238333Y-109170476D01*
X116143095Y-109218095D01*
X117666904Y-109932380D02*
X117095476Y-109932380D01*
X117381190Y-109932380D02*
X117381190Y-108932380D01*
X117285952Y-109075238D01*
X117190714Y-109170476D01*
X117095476Y-109218095D01*
%TO.C,R40*%
X109597142Y-154652380D02*
X109263809Y-154176190D01*
X109025714Y-154652380D02*
X109025714Y-153652380D01*
X109406666Y-153652380D01*
X109501904Y-153700000D01*
X109549523Y-153747619D01*
X109597142Y-153842857D01*
X109597142Y-153985714D01*
X109549523Y-154080952D01*
X109501904Y-154128571D01*
X109406666Y-154176190D01*
X109025714Y-154176190D01*
X110454285Y-153985714D02*
X110454285Y-154652380D01*
X110216190Y-153604761D02*
X109978095Y-154319047D01*
X110597142Y-154319047D01*
X111168571Y-153652380D02*
X111263809Y-153652380D01*
X111359047Y-153700000D01*
X111406666Y-153747619D01*
X111454285Y-153842857D01*
X111501904Y-154033333D01*
X111501904Y-154271428D01*
X111454285Y-154461904D01*
X111406666Y-154557142D01*
X111359047Y-154604761D01*
X111263809Y-154652380D01*
X111168571Y-154652380D01*
X111073333Y-154604761D01*
X111025714Y-154557142D01*
X110978095Y-154461904D01*
X110930476Y-154271428D01*
X110930476Y-154033333D01*
X110978095Y-153842857D01*
X111025714Y-153747619D01*
X111073333Y-153700000D01*
X111168571Y-153652380D01*
%TO.C,C8*%
X186357142Y-56886666D02*
X186404761Y-56934285D01*
X186452380Y-57077142D01*
X186452380Y-57172380D01*
X186404761Y-57315238D01*
X186309523Y-57410476D01*
X186214285Y-57458095D01*
X186023809Y-57505714D01*
X185880952Y-57505714D01*
X185690476Y-57458095D01*
X185595238Y-57410476D01*
X185500000Y-57315238D01*
X185452380Y-57172380D01*
X185452380Y-57077142D01*
X185500000Y-56934285D01*
X185547619Y-56886666D01*
X185880952Y-56315238D02*
X185833333Y-56410476D01*
X185785714Y-56458095D01*
X185690476Y-56505714D01*
X185642857Y-56505714D01*
X185547619Y-56458095D01*
X185500000Y-56410476D01*
X185452380Y-56315238D01*
X185452380Y-56124761D01*
X185500000Y-56029523D01*
X185547619Y-55981904D01*
X185642857Y-55934285D01*
X185690476Y-55934285D01*
X185785714Y-55981904D01*
X185833333Y-56029523D01*
X185880952Y-56124761D01*
X185880952Y-56315238D01*
X185928571Y-56410476D01*
X185976190Y-56458095D01*
X186071428Y-56505714D01*
X186261904Y-56505714D01*
X186357142Y-56458095D01*
X186404761Y-56410476D01*
X186452380Y-56315238D01*
X186452380Y-56124761D01*
X186404761Y-56029523D01*
X186357142Y-55981904D01*
X186261904Y-55934285D01*
X186071428Y-55934285D01*
X185976190Y-55981904D01*
X185928571Y-56029523D01*
X185880952Y-56124761D01*
%TO.C,C5*%
X175153333Y-58757142D02*
X175105714Y-58804761D01*
X174962857Y-58852380D01*
X174867619Y-58852380D01*
X174724761Y-58804761D01*
X174629523Y-58709523D01*
X174581904Y-58614285D01*
X174534285Y-58423809D01*
X174534285Y-58280952D01*
X174581904Y-58090476D01*
X174629523Y-57995238D01*
X174724761Y-57900000D01*
X174867619Y-57852380D01*
X174962857Y-57852380D01*
X175105714Y-57900000D01*
X175153333Y-57947619D01*
X176058095Y-57852380D02*
X175581904Y-57852380D01*
X175534285Y-58328571D01*
X175581904Y-58280952D01*
X175677142Y-58233333D01*
X175915238Y-58233333D01*
X176010476Y-58280952D01*
X176058095Y-58328571D01*
X176105714Y-58423809D01*
X176105714Y-58661904D01*
X176058095Y-58757142D01*
X176010476Y-58804761D01*
X175915238Y-58852380D01*
X175677142Y-58852380D01*
X175581904Y-58804761D01*
X175534285Y-58757142D01*
%TO.C,R64*%
X76414642Y-89182380D02*
X76081309Y-88706190D01*
X75843214Y-89182380D02*
X75843214Y-88182380D01*
X76224166Y-88182380D01*
X76319404Y-88230000D01*
X76367023Y-88277619D01*
X76414642Y-88372857D01*
X76414642Y-88515714D01*
X76367023Y-88610952D01*
X76319404Y-88658571D01*
X76224166Y-88706190D01*
X75843214Y-88706190D01*
X77271785Y-88182380D02*
X77081309Y-88182380D01*
X76986071Y-88230000D01*
X76938452Y-88277619D01*
X76843214Y-88420476D01*
X76795595Y-88610952D01*
X76795595Y-88991904D01*
X76843214Y-89087142D01*
X76890833Y-89134761D01*
X76986071Y-89182380D01*
X77176547Y-89182380D01*
X77271785Y-89134761D01*
X77319404Y-89087142D01*
X77367023Y-88991904D01*
X77367023Y-88753809D01*
X77319404Y-88658571D01*
X77271785Y-88610952D01*
X77176547Y-88563333D01*
X76986071Y-88563333D01*
X76890833Y-88610952D01*
X76843214Y-88658571D01*
X76795595Y-88753809D01*
X78224166Y-88515714D02*
X78224166Y-89182380D01*
X77986071Y-88134761D02*
X77747976Y-88849047D01*
X78367023Y-88849047D01*
%TO.C,R48*%
X109597142Y-139442380D02*
X109263809Y-138966190D01*
X109025714Y-139442380D02*
X109025714Y-138442380D01*
X109406666Y-138442380D01*
X109501904Y-138490000D01*
X109549523Y-138537619D01*
X109597142Y-138632857D01*
X109597142Y-138775714D01*
X109549523Y-138870952D01*
X109501904Y-138918571D01*
X109406666Y-138966190D01*
X109025714Y-138966190D01*
X110454285Y-138775714D02*
X110454285Y-139442380D01*
X110216190Y-138394761D02*
X109978095Y-139109047D01*
X110597142Y-139109047D01*
X111120952Y-138870952D02*
X111025714Y-138823333D01*
X110978095Y-138775714D01*
X110930476Y-138680476D01*
X110930476Y-138632857D01*
X110978095Y-138537619D01*
X111025714Y-138490000D01*
X111120952Y-138442380D01*
X111311428Y-138442380D01*
X111406666Y-138490000D01*
X111454285Y-138537619D01*
X111501904Y-138632857D01*
X111501904Y-138680476D01*
X111454285Y-138775714D01*
X111406666Y-138823333D01*
X111311428Y-138870952D01*
X111120952Y-138870952D01*
X111025714Y-138918571D01*
X110978095Y-138966190D01*
X110930476Y-139061428D01*
X110930476Y-139251904D01*
X110978095Y-139347142D01*
X111025714Y-139394761D01*
X111120952Y-139442380D01*
X111311428Y-139442380D01*
X111406666Y-139394761D01*
X111454285Y-139347142D01*
X111501904Y-139251904D01*
X111501904Y-139061428D01*
X111454285Y-138966190D01*
X111406666Y-138918571D01*
X111311428Y-138870952D01*
%TO.C,R55*%
X69107142Y-100753380D02*
X68773809Y-100277190D01*
X68535714Y-100753380D02*
X68535714Y-99753380D01*
X68916666Y-99753380D01*
X69011904Y-99801000D01*
X69059523Y-99848619D01*
X69107142Y-99943857D01*
X69107142Y-100086714D01*
X69059523Y-100181952D01*
X69011904Y-100229571D01*
X68916666Y-100277190D01*
X68535714Y-100277190D01*
X70011904Y-99753380D02*
X69535714Y-99753380D01*
X69488095Y-100229571D01*
X69535714Y-100181952D01*
X69630952Y-100134333D01*
X69869047Y-100134333D01*
X69964285Y-100181952D01*
X70011904Y-100229571D01*
X70059523Y-100324809D01*
X70059523Y-100562904D01*
X70011904Y-100658142D01*
X69964285Y-100705761D01*
X69869047Y-100753380D01*
X69630952Y-100753380D01*
X69535714Y-100705761D01*
X69488095Y-100658142D01*
X70964285Y-99753380D02*
X70488095Y-99753380D01*
X70440476Y-100229571D01*
X70488095Y-100181952D01*
X70583333Y-100134333D01*
X70821428Y-100134333D01*
X70916666Y-100181952D01*
X70964285Y-100229571D01*
X71011904Y-100324809D01*
X71011904Y-100562904D01*
X70964285Y-100658142D01*
X70916666Y-100705761D01*
X70821428Y-100753380D01*
X70583333Y-100753380D01*
X70488095Y-100705761D01*
X70440476Y-100658142D01*
%TO.C,R42*%
X76447142Y-110928180D02*
X76113809Y-110451990D01*
X75875714Y-110928180D02*
X75875714Y-109928180D01*
X76256666Y-109928180D01*
X76351904Y-109975800D01*
X76399523Y-110023419D01*
X76447142Y-110118657D01*
X76447142Y-110261514D01*
X76399523Y-110356752D01*
X76351904Y-110404371D01*
X76256666Y-110451990D01*
X75875714Y-110451990D01*
X77304285Y-110261514D02*
X77304285Y-110928180D01*
X77066190Y-109880561D02*
X76828095Y-110594847D01*
X77447142Y-110594847D01*
X77780476Y-110023419D02*
X77828095Y-109975800D01*
X77923333Y-109928180D01*
X78161428Y-109928180D01*
X78256666Y-109975800D01*
X78304285Y-110023419D01*
X78351904Y-110118657D01*
X78351904Y-110213895D01*
X78304285Y-110356752D01*
X77732857Y-110928180D01*
X78351904Y-110928180D01*
%TO.C,J16*%
X64732380Y-74729523D02*
X65446666Y-74729523D01*
X65589523Y-74777142D01*
X65684761Y-74872380D01*
X65732380Y-75015238D01*
X65732380Y-75110476D01*
X65732380Y-73729523D02*
X65732380Y-74300952D01*
X65732380Y-74015238D02*
X64732380Y-74015238D01*
X64875238Y-74110476D01*
X64970476Y-74205714D01*
X65018095Y-74300952D01*
X64732380Y-72872380D02*
X64732380Y-73062857D01*
X64780000Y-73158095D01*
X64827619Y-73205714D01*
X64970476Y-73300952D01*
X65160952Y-73348571D01*
X65541904Y-73348571D01*
X65637142Y-73300952D01*
X65684761Y-73253333D01*
X65732380Y-73158095D01*
X65732380Y-72967619D01*
X65684761Y-72872380D01*
X65637142Y-72824761D01*
X65541904Y-72777142D01*
X65303809Y-72777142D01*
X65208571Y-72824761D01*
X65160952Y-72872380D01*
X65113333Y-72967619D01*
X65113333Y-73158095D01*
X65160952Y-73253333D01*
X65208571Y-73300952D01*
X65303809Y-73348571D01*
%TO.C,U1*%
X170808095Y-37672380D02*
X170808095Y-38481904D01*
X170855714Y-38577142D01*
X170903333Y-38624761D01*
X170998571Y-38672380D01*
X171189047Y-38672380D01*
X171284285Y-38624761D01*
X171331904Y-38577142D01*
X171379523Y-38481904D01*
X171379523Y-37672380D01*
X172379523Y-38672380D02*
X171808095Y-38672380D01*
X172093809Y-38672380D02*
X172093809Y-37672380D01*
X171998571Y-37815238D01*
X171903333Y-37910476D01*
X171808095Y-37958095D01*
%TO.C,R87*%
X110397142Y-56932380D02*
X110063809Y-56456190D01*
X109825714Y-56932380D02*
X109825714Y-55932380D01*
X110206666Y-55932380D01*
X110301904Y-55980000D01*
X110349523Y-56027619D01*
X110397142Y-56122857D01*
X110397142Y-56265714D01*
X110349523Y-56360952D01*
X110301904Y-56408571D01*
X110206666Y-56456190D01*
X109825714Y-56456190D01*
X110968571Y-56360952D02*
X110873333Y-56313333D01*
X110825714Y-56265714D01*
X110778095Y-56170476D01*
X110778095Y-56122857D01*
X110825714Y-56027619D01*
X110873333Y-55980000D01*
X110968571Y-55932380D01*
X111159047Y-55932380D01*
X111254285Y-55980000D01*
X111301904Y-56027619D01*
X111349523Y-56122857D01*
X111349523Y-56170476D01*
X111301904Y-56265714D01*
X111254285Y-56313333D01*
X111159047Y-56360952D01*
X110968571Y-56360952D01*
X110873333Y-56408571D01*
X110825714Y-56456190D01*
X110778095Y-56551428D01*
X110778095Y-56741904D01*
X110825714Y-56837142D01*
X110873333Y-56884761D01*
X110968571Y-56932380D01*
X111159047Y-56932380D01*
X111254285Y-56884761D01*
X111301904Y-56837142D01*
X111349523Y-56741904D01*
X111349523Y-56551428D01*
X111301904Y-56456190D01*
X111254285Y-56408571D01*
X111159047Y-56360952D01*
X111682857Y-55932380D02*
X112349523Y-55932380D01*
X111920952Y-56932380D01*
%TO.C,J1*%
X205267380Y-141038333D02*
X205981666Y-141038333D01*
X206124523Y-141085952D01*
X206219761Y-141181190D01*
X206267380Y-141324047D01*
X206267380Y-141419285D01*
X206267380Y-140038333D02*
X206267380Y-140609761D01*
X206267380Y-140324047D02*
X205267380Y-140324047D01*
X205410238Y-140419285D01*
X205505476Y-140514523D01*
X205553095Y-140609761D01*
%TO.C,R90*%
X110397142Y-46772380D02*
X110063809Y-46296190D01*
X109825714Y-46772380D02*
X109825714Y-45772380D01*
X110206666Y-45772380D01*
X110301904Y-45820000D01*
X110349523Y-45867619D01*
X110397142Y-45962857D01*
X110397142Y-46105714D01*
X110349523Y-46200952D01*
X110301904Y-46248571D01*
X110206666Y-46296190D01*
X109825714Y-46296190D01*
X110873333Y-46772380D02*
X111063809Y-46772380D01*
X111159047Y-46724761D01*
X111206666Y-46677142D01*
X111301904Y-46534285D01*
X111349523Y-46343809D01*
X111349523Y-45962857D01*
X111301904Y-45867619D01*
X111254285Y-45820000D01*
X111159047Y-45772380D01*
X110968571Y-45772380D01*
X110873333Y-45820000D01*
X110825714Y-45867619D01*
X110778095Y-45962857D01*
X110778095Y-46200952D01*
X110825714Y-46296190D01*
X110873333Y-46343809D01*
X110968571Y-46391428D01*
X111159047Y-46391428D01*
X111254285Y-46343809D01*
X111301904Y-46296190D01*
X111349523Y-46200952D01*
X111968571Y-45772380D02*
X112063809Y-45772380D01*
X112159047Y-45820000D01*
X112206666Y-45867619D01*
X112254285Y-45962857D01*
X112301904Y-46153333D01*
X112301904Y-46391428D01*
X112254285Y-46581904D01*
X112206666Y-46677142D01*
X112159047Y-46724761D01*
X112063809Y-46772380D01*
X111968571Y-46772380D01*
X111873333Y-46724761D01*
X111825714Y-46677142D01*
X111778095Y-46581904D01*
X111730476Y-46391428D01*
X111730476Y-46153333D01*
X111778095Y-45962857D01*
X111825714Y-45867619D01*
X111873333Y-45820000D01*
X111968571Y-45772380D01*
%TO.C,R106*%
X68020952Y-52052380D02*
X67687619Y-51576190D01*
X67449523Y-52052380D02*
X67449523Y-51052380D01*
X67830476Y-51052380D01*
X67925714Y-51100000D01*
X67973333Y-51147619D01*
X68020952Y-51242857D01*
X68020952Y-51385714D01*
X67973333Y-51480952D01*
X67925714Y-51528571D01*
X67830476Y-51576190D01*
X67449523Y-51576190D01*
X68973333Y-52052380D02*
X68401904Y-52052380D01*
X68687619Y-52052380D02*
X68687619Y-51052380D01*
X68592380Y-51195238D01*
X68497142Y-51290476D01*
X68401904Y-51338095D01*
X69592380Y-51052380D02*
X69687619Y-51052380D01*
X69782857Y-51100000D01*
X69830476Y-51147619D01*
X69878095Y-51242857D01*
X69925714Y-51433333D01*
X69925714Y-51671428D01*
X69878095Y-51861904D01*
X69830476Y-51957142D01*
X69782857Y-52004761D01*
X69687619Y-52052380D01*
X69592380Y-52052380D01*
X69497142Y-52004761D01*
X69449523Y-51957142D01*
X69401904Y-51861904D01*
X69354285Y-51671428D01*
X69354285Y-51433333D01*
X69401904Y-51242857D01*
X69449523Y-51147619D01*
X69497142Y-51100000D01*
X69592380Y-51052380D01*
X70782857Y-51052380D02*
X70592380Y-51052380D01*
X70497142Y-51100000D01*
X70449523Y-51147619D01*
X70354285Y-51290476D01*
X70306666Y-51480952D01*
X70306666Y-51861904D01*
X70354285Y-51957142D01*
X70401904Y-52004761D01*
X70497142Y-52052380D01*
X70687619Y-52052380D01*
X70782857Y-52004761D01*
X70830476Y-51957142D01*
X70878095Y-51861904D01*
X70878095Y-51623809D01*
X70830476Y-51528571D01*
X70782857Y-51480952D01*
X70687619Y-51433333D01*
X70497142Y-51433333D01*
X70401904Y-51480952D01*
X70354285Y-51528571D01*
X70306666Y-51623809D01*
%TO.C,R21*%
X107372142Y-94892380D02*
X107038809Y-94416190D01*
X106800714Y-94892380D02*
X106800714Y-93892380D01*
X107181666Y-93892380D01*
X107276904Y-93940000D01*
X107324523Y-93987619D01*
X107372142Y-94082857D01*
X107372142Y-94225714D01*
X107324523Y-94320952D01*
X107276904Y-94368571D01*
X107181666Y-94416190D01*
X106800714Y-94416190D01*
X107753095Y-93987619D02*
X107800714Y-93940000D01*
X107895952Y-93892380D01*
X108134047Y-93892380D01*
X108229285Y-93940000D01*
X108276904Y-93987619D01*
X108324523Y-94082857D01*
X108324523Y-94178095D01*
X108276904Y-94320952D01*
X107705476Y-94892380D01*
X108324523Y-94892380D01*
X109276904Y-94892380D02*
X108705476Y-94892380D01*
X108991190Y-94892380D02*
X108991190Y-93892380D01*
X108895952Y-94035238D01*
X108800714Y-94130476D01*
X108705476Y-94178095D01*
%TO.C,R3*%
X218032380Y-93916666D02*
X217556190Y-94250000D01*
X218032380Y-94488095D02*
X217032380Y-94488095D01*
X217032380Y-94107142D01*
X217080000Y-94011904D01*
X217127619Y-93964285D01*
X217222857Y-93916666D01*
X217365714Y-93916666D01*
X217460952Y-93964285D01*
X217508571Y-94011904D01*
X217556190Y-94107142D01*
X217556190Y-94488095D01*
X217032380Y-93583333D02*
X217032380Y-92964285D01*
X217413333Y-93297619D01*
X217413333Y-93154761D01*
X217460952Y-93059523D01*
X217508571Y-93011904D01*
X217603809Y-92964285D01*
X217841904Y-92964285D01*
X217937142Y-93011904D01*
X217984761Y-93059523D01*
X218032380Y-93154761D01*
X218032380Y-93440476D01*
X217984761Y-93535714D01*
X217937142Y-93583333D01*
%TO.C,R94*%
X76489642Y-52042380D02*
X76156309Y-51566190D01*
X75918214Y-52042380D02*
X75918214Y-51042380D01*
X76299166Y-51042380D01*
X76394404Y-51090000D01*
X76442023Y-51137619D01*
X76489642Y-51232857D01*
X76489642Y-51375714D01*
X76442023Y-51470952D01*
X76394404Y-51518571D01*
X76299166Y-51566190D01*
X75918214Y-51566190D01*
X76965833Y-52042380D02*
X77156309Y-52042380D01*
X77251547Y-51994761D01*
X77299166Y-51947142D01*
X77394404Y-51804285D01*
X77442023Y-51613809D01*
X77442023Y-51232857D01*
X77394404Y-51137619D01*
X77346785Y-51090000D01*
X77251547Y-51042380D01*
X77061071Y-51042380D01*
X76965833Y-51090000D01*
X76918214Y-51137619D01*
X76870595Y-51232857D01*
X76870595Y-51470952D01*
X76918214Y-51566190D01*
X76965833Y-51613809D01*
X77061071Y-51661428D01*
X77251547Y-51661428D01*
X77346785Y-51613809D01*
X77394404Y-51566190D01*
X77442023Y-51470952D01*
X78299166Y-51375714D02*
X78299166Y-52042380D01*
X78061071Y-50994761D02*
X77822976Y-51709047D01*
X78442023Y-51709047D01*
%TO.C,J10*%
X147597380Y-96464523D02*
X148311666Y-96464523D01*
X148454523Y-96512142D01*
X148549761Y-96607380D01*
X148597380Y-96750238D01*
X148597380Y-96845476D01*
X148597380Y-95464523D02*
X148597380Y-96035952D01*
X148597380Y-95750238D02*
X147597380Y-95750238D01*
X147740238Y-95845476D01*
X147835476Y-95940714D01*
X147883095Y-96035952D01*
X147597380Y-94845476D02*
X147597380Y-94750238D01*
X147645000Y-94655000D01*
X147692619Y-94607380D01*
X147787857Y-94559761D01*
X147978333Y-94512142D01*
X148216428Y-94512142D01*
X148406904Y-94559761D01*
X148502142Y-94607380D01*
X148549761Y-94655000D01*
X148597380Y-94750238D01*
X148597380Y-94845476D01*
X148549761Y-94940714D01*
X148502142Y-94988333D01*
X148406904Y-95035952D01*
X148216428Y-95083571D01*
X147978333Y-95083571D01*
X147787857Y-95035952D01*
X147692619Y-94988333D01*
X147645000Y-94940714D01*
X147597380Y-94845476D01*
%TO.C,J13*%
X64872380Y-107109523D02*
X65586666Y-107109523D01*
X65729523Y-107157142D01*
X65824761Y-107252380D01*
X65872380Y-107395238D01*
X65872380Y-107490476D01*
X65872380Y-106109523D02*
X65872380Y-106680952D01*
X65872380Y-106395238D02*
X64872380Y-106395238D01*
X65015238Y-106490476D01*
X65110476Y-106585714D01*
X65158095Y-106680952D01*
X64872380Y-105776190D02*
X64872380Y-105157142D01*
X65253333Y-105490476D01*
X65253333Y-105347619D01*
X65300952Y-105252380D01*
X65348571Y-105204761D01*
X65443809Y-105157142D01*
X65681904Y-105157142D01*
X65777142Y-105204761D01*
X65824761Y-105252380D01*
X65872380Y-105347619D01*
X65872380Y-105633333D01*
X65824761Y-105728571D01*
X65777142Y-105776190D01*
%TO.C,TP1*%
X189088095Y-46234380D02*
X189659523Y-46234380D01*
X189373809Y-47234380D02*
X189373809Y-46234380D01*
X189992857Y-47234380D02*
X189992857Y-46234380D01*
X190373809Y-46234380D01*
X190469047Y-46282000D01*
X190516666Y-46329619D01*
X190564285Y-46424857D01*
X190564285Y-46567714D01*
X190516666Y-46662952D01*
X190469047Y-46710571D01*
X190373809Y-46758190D01*
X189992857Y-46758190D01*
X191516666Y-47234380D02*
X190945238Y-47234380D01*
X191230952Y-47234380D02*
X191230952Y-46234380D01*
X191135714Y-46377238D01*
X191040476Y-46472476D01*
X190945238Y-46520095D01*
%TO.C,H2*%
X80768095Y-154682380D02*
X80768095Y-153682380D01*
X80768095Y-154158571D02*
X81339523Y-154158571D01*
X81339523Y-154682380D02*
X81339523Y-153682380D01*
X81768095Y-153777619D02*
X81815714Y-153730000D01*
X81910952Y-153682380D01*
X82149047Y-153682380D01*
X82244285Y-153730000D01*
X82291904Y-153777619D01*
X82339523Y-153872857D01*
X82339523Y-153968095D01*
X82291904Y-154110952D01*
X81720476Y-154682380D01*
X82339523Y-154682380D01*
%TO.C,R59*%
X102067142Y-144502380D02*
X101733809Y-144026190D01*
X101495714Y-144502380D02*
X101495714Y-143502380D01*
X101876666Y-143502380D01*
X101971904Y-143550000D01*
X102019523Y-143597619D01*
X102067142Y-143692857D01*
X102067142Y-143835714D01*
X102019523Y-143930952D01*
X101971904Y-143978571D01*
X101876666Y-144026190D01*
X101495714Y-144026190D01*
X102971904Y-143502380D02*
X102495714Y-143502380D01*
X102448095Y-143978571D01*
X102495714Y-143930952D01*
X102590952Y-143883333D01*
X102829047Y-143883333D01*
X102924285Y-143930952D01*
X102971904Y-143978571D01*
X103019523Y-144073809D01*
X103019523Y-144311904D01*
X102971904Y-144407142D01*
X102924285Y-144454761D01*
X102829047Y-144502380D01*
X102590952Y-144502380D01*
X102495714Y-144454761D01*
X102448095Y-144407142D01*
X103495714Y-144502380D02*
X103686190Y-144502380D01*
X103781428Y-144454761D01*
X103829047Y-144407142D01*
X103924285Y-144264285D01*
X103971904Y-144073809D01*
X103971904Y-143692857D01*
X103924285Y-143597619D01*
X103876666Y-143550000D01*
X103781428Y-143502380D01*
X103590952Y-143502380D01*
X103495714Y-143550000D01*
X103448095Y-143597619D01*
X103400476Y-143692857D01*
X103400476Y-143930952D01*
X103448095Y-144026190D01*
X103495714Y-144073809D01*
X103590952Y-144121428D01*
X103781428Y-144121428D01*
X103876666Y-144073809D01*
X103924285Y-144026190D01*
X103971904Y-143930952D01*
%TO.C,R107*%
X68020952Y-46952380D02*
X67687619Y-46476190D01*
X67449523Y-46952380D02*
X67449523Y-45952380D01*
X67830476Y-45952380D01*
X67925714Y-46000000D01*
X67973333Y-46047619D01*
X68020952Y-46142857D01*
X68020952Y-46285714D01*
X67973333Y-46380952D01*
X67925714Y-46428571D01*
X67830476Y-46476190D01*
X67449523Y-46476190D01*
X68973333Y-46952380D02*
X68401904Y-46952380D01*
X68687619Y-46952380D02*
X68687619Y-45952380D01*
X68592380Y-46095238D01*
X68497142Y-46190476D01*
X68401904Y-46238095D01*
X69592380Y-45952380D02*
X69687619Y-45952380D01*
X69782857Y-46000000D01*
X69830476Y-46047619D01*
X69878095Y-46142857D01*
X69925714Y-46333333D01*
X69925714Y-46571428D01*
X69878095Y-46761904D01*
X69830476Y-46857142D01*
X69782857Y-46904761D01*
X69687619Y-46952380D01*
X69592380Y-46952380D01*
X69497142Y-46904761D01*
X69449523Y-46857142D01*
X69401904Y-46761904D01*
X69354285Y-46571428D01*
X69354285Y-46333333D01*
X69401904Y-46142857D01*
X69449523Y-46047619D01*
X69497142Y-46000000D01*
X69592380Y-45952380D01*
X70259047Y-45952380D02*
X70925714Y-45952380D01*
X70497142Y-46952380D01*
%TO.C,R23*%
X136824642Y-97022380D02*
X136491309Y-96546190D01*
X136253214Y-97022380D02*
X136253214Y-96022380D01*
X136634166Y-96022380D01*
X136729404Y-96070000D01*
X136777023Y-96117619D01*
X136824642Y-96212857D01*
X136824642Y-96355714D01*
X136777023Y-96450952D01*
X136729404Y-96498571D01*
X136634166Y-96546190D01*
X136253214Y-96546190D01*
X137205595Y-96117619D02*
X137253214Y-96070000D01*
X137348452Y-96022380D01*
X137586547Y-96022380D01*
X137681785Y-96070000D01*
X137729404Y-96117619D01*
X137777023Y-96212857D01*
X137777023Y-96308095D01*
X137729404Y-96450952D01*
X137157976Y-97022380D01*
X137777023Y-97022380D01*
X138110357Y-96022380D02*
X138729404Y-96022380D01*
X138396071Y-96403333D01*
X138538928Y-96403333D01*
X138634166Y-96450952D01*
X138681785Y-96498571D01*
X138729404Y-96593809D01*
X138729404Y-96831904D01*
X138681785Y-96927142D01*
X138634166Y-96974761D01*
X138538928Y-97022380D01*
X138253214Y-97022380D01*
X138157976Y-96974761D01*
X138110357Y-96927142D01*
%TO.C,R103*%
X102150952Y-36622380D02*
X101817619Y-36146190D01*
X101579523Y-36622380D02*
X101579523Y-35622380D01*
X101960476Y-35622380D01*
X102055714Y-35670000D01*
X102103333Y-35717619D01*
X102150952Y-35812857D01*
X102150952Y-35955714D01*
X102103333Y-36050952D01*
X102055714Y-36098571D01*
X101960476Y-36146190D01*
X101579523Y-36146190D01*
X103103333Y-36622380D02*
X102531904Y-36622380D01*
X102817619Y-36622380D02*
X102817619Y-35622380D01*
X102722380Y-35765238D01*
X102627142Y-35860476D01*
X102531904Y-35908095D01*
X103722380Y-35622380D02*
X103817619Y-35622380D01*
X103912857Y-35670000D01*
X103960476Y-35717619D01*
X104008095Y-35812857D01*
X104055714Y-36003333D01*
X104055714Y-36241428D01*
X104008095Y-36431904D01*
X103960476Y-36527142D01*
X103912857Y-36574761D01*
X103817619Y-36622380D01*
X103722380Y-36622380D01*
X103627142Y-36574761D01*
X103579523Y-36527142D01*
X103531904Y-36431904D01*
X103484285Y-36241428D01*
X103484285Y-36003333D01*
X103531904Y-35812857D01*
X103579523Y-35717619D01*
X103627142Y-35670000D01*
X103722380Y-35622380D01*
X104389047Y-35622380D02*
X105008095Y-35622380D01*
X104674761Y-36003333D01*
X104817619Y-36003333D01*
X104912857Y-36050952D01*
X104960476Y-36098571D01*
X105008095Y-36193809D01*
X105008095Y-36431904D01*
X104960476Y-36527142D01*
X104912857Y-36574761D01*
X104817619Y-36622380D01*
X104531904Y-36622380D01*
X104436666Y-36574761D01*
X104389047Y-36527142D01*
%TO.C,R54*%
X69107142Y-105835780D02*
X68773809Y-105359590D01*
X68535714Y-105835780D02*
X68535714Y-104835780D01*
X68916666Y-104835780D01*
X69011904Y-104883400D01*
X69059523Y-104931019D01*
X69107142Y-105026257D01*
X69107142Y-105169114D01*
X69059523Y-105264352D01*
X69011904Y-105311971D01*
X68916666Y-105359590D01*
X68535714Y-105359590D01*
X70011904Y-104835780D02*
X69535714Y-104835780D01*
X69488095Y-105311971D01*
X69535714Y-105264352D01*
X69630952Y-105216733D01*
X69869047Y-105216733D01*
X69964285Y-105264352D01*
X70011904Y-105311971D01*
X70059523Y-105407209D01*
X70059523Y-105645304D01*
X70011904Y-105740542D01*
X69964285Y-105788161D01*
X69869047Y-105835780D01*
X69630952Y-105835780D01*
X69535714Y-105788161D01*
X69488095Y-105740542D01*
X70916666Y-105169114D02*
X70916666Y-105835780D01*
X70678571Y-104788161D02*
X70440476Y-105502447D01*
X71059523Y-105502447D01*
%TO.C,C2*%
X164143333Y-41037142D02*
X164095714Y-41084761D01*
X163952857Y-41132380D01*
X163857619Y-41132380D01*
X163714761Y-41084761D01*
X163619523Y-40989523D01*
X163571904Y-40894285D01*
X163524285Y-40703809D01*
X163524285Y-40560952D01*
X163571904Y-40370476D01*
X163619523Y-40275238D01*
X163714761Y-40180000D01*
X163857619Y-40132380D01*
X163952857Y-40132380D01*
X164095714Y-40180000D01*
X164143333Y-40227619D01*
X164524285Y-40227619D02*
X164571904Y-40180000D01*
X164667142Y-40132380D01*
X164905238Y-40132380D01*
X165000476Y-40180000D01*
X165048095Y-40227619D01*
X165095714Y-40322857D01*
X165095714Y-40418095D01*
X165048095Y-40560952D01*
X164476666Y-41132380D01*
X165095714Y-41132380D01*
%TO.C,R57*%
X102067142Y-154662380D02*
X101733809Y-154186190D01*
X101495714Y-154662380D02*
X101495714Y-153662380D01*
X101876666Y-153662380D01*
X101971904Y-153710000D01*
X102019523Y-153757619D01*
X102067142Y-153852857D01*
X102067142Y-153995714D01*
X102019523Y-154090952D01*
X101971904Y-154138571D01*
X101876666Y-154186190D01*
X101495714Y-154186190D01*
X102971904Y-153662380D02*
X102495714Y-153662380D01*
X102448095Y-154138571D01*
X102495714Y-154090952D01*
X102590952Y-154043333D01*
X102829047Y-154043333D01*
X102924285Y-154090952D01*
X102971904Y-154138571D01*
X103019523Y-154233809D01*
X103019523Y-154471904D01*
X102971904Y-154567142D01*
X102924285Y-154614761D01*
X102829047Y-154662380D01*
X102590952Y-154662380D01*
X102495714Y-154614761D01*
X102448095Y-154567142D01*
X103352857Y-153662380D02*
X104019523Y-153662380D01*
X103590952Y-154662380D01*
%TO.C,R8*%
X124448333Y-109762380D02*
X124115000Y-109286190D01*
X123876904Y-109762380D02*
X123876904Y-108762380D01*
X124257857Y-108762380D01*
X124353095Y-108810000D01*
X124400714Y-108857619D01*
X124448333Y-108952857D01*
X124448333Y-109095714D01*
X124400714Y-109190952D01*
X124353095Y-109238571D01*
X124257857Y-109286190D01*
X123876904Y-109286190D01*
X125019761Y-109190952D02*
X124924523Y-109143333D01*
X124876904Y-109095714D01*
X124829285Y-109000476D01*
X124829285Y-108952857D01*
X124876904Y-108857619D01*
X124924523Y-108810000D01*
X125019761Y-108762380D01*
X125210238Y-108762380D01*
X125305476Y-108810000D01*
X125353095Y-108857619D01*
X125400714Y-108952857D01*
X125400714Y-109000476D01*
X125353095Y-109095714D01*
X125305476Y-109143333D01*
X125210238Y-109190952D01*
X125019761Y-109190952D01*
X124924523Y-109238571D01*
X124876904Y-109286190D01*
X124829285Y-109381428D01*
X124829285Y-109571904D01*
X124876904Y-109667142D01*
X124924523Y-109714761D01*
X125019761Y-109762380D01*
X125210238Y-109762380D01*
X125305476Y-109714761D01*
X125353095Y-109667142D01*
X125400714Y-109571904D01*
X125400714Y-109381428D01*
X125353095Y-109286190D01*
X125305476Y-109238571D01*
X125210238Y-109190952D01*
%TO.C,J11*%
X64982380Y-139049523D02*
X65696666Y-139049523D01*
X65839523Y-139097142D01*
X65934761Y-139192380D01*
X65982380Y-139335238D01*
X65982380Y-139430476D01*
X65982380Y-138049523D02*
X65982380Y-138620952D01*
X65982380Y-138335238D02*
X64982380Y-138335238D01*
X65125238Y-138430476D01*
X65220476Y-138525714D01*
X65268095Y-138620952D01*
X65982380Y-137097142D02*
X65982380Y-137668571D01*
X65982380Y-137382857D02*
X64982380Y-137382857D01*
X65125238Y-137478095D01*
X65220476Y-137573333D01*
X65268095Y-137668571D01*
%TO.C,R60*%
X102067142Y-139452380D02*
X101733809Y-138976190D01*
X101495714Y-139452380D02*
X101495714Y-138452380D01*
X101876666Y-138452380D01*
X101971904Y-138500000D01*
X102019523Y-138547619D01*
X102067142Y-138642857D01*
X102067142Y-138785714D01*
X102019523Y-138880952D01*
X101971904Y-138928571D01*
X101876666Y-138976190D01*
X101495714Y-138976190D01*
X102924285Y-138452380D02*
X102733809Y-138452380D01*
X102638571Y-138500000D01*
X102590952Y-138547619D01*
X102495714Y-138690476D01*
X102448095Y-138880952D01*
X102448095Y-139261904D01*
X102495714Y-139357142D01*
X102543333Y-139404761D01*
X102638571Y-139452380D01*
X102829047Y-139452380D01*
X102924285Y-139404761D01*
X102971904Y-139357142D01*
X103019523Y-139261904D01*
X103019523Y-139023809D01*
X102971904Y-138928571D01*
X102924285Y-138880952D01*
X102829047Y-138833333D01*
X102638571Y-138833333D01*
X102543333Y-138880952D01*
X102495714Y-138928571D01*
X102448095Y-139023809D01*
X103638571Y-138452380D02*
X103733809Y-138452380D01*
X103829047Y-138500000D01*
X103876666Y-138547619D01*
X103924285Y-138642857D01*
X103971904Y-138833333D01*
X103971904Y-139071428D01*
X103924285Y-139261904D01*
X103876666Y-139357142D01*
X103829047Y-139404761D01*
X103733809Y-139452380D01*
X103638571Y-139452380D01*
X103543333Y-139404761D01*
X103495714Y-139357142D01*
X103448095Y-139261904D01*
X103400476Y-139071428D01*
X103400476Y-138833333D01*
X103448095Y-138642857D01*
X103495714Y-138547619D01*
X103543333Y-138500000D01*
X103638571Y-138452380D01*
%TO.C,R85*%
X68497142Y-68842380D02*
X68163809Y-68366190D01*
X67925714Y-68842380D02*
X67925714Y-67842380D01*
X68306666Y-67842380D01*
X68401904Y-67890000D01*
X68449523Y-67937619D01*
X68497142Y-68032857D01*
X68497142Y-68175714D01*
X68449523Y-68270952D01*
X68401904Y-68318571D01*
X68306666Y-68366190D01*
X67925714Y-68366190D01*
X69068571Y-68270952D02*
X68973333Y-68223333D01*
X68925714Y-68175714D01*
X68878095Y-68080476D01*
X68878095Y-68032857D01*
X68925714Y-67937619D01*
X68973333Y-67890000D01*
X69068571Y-67842380D01*
X69259047Y-67842380D01*
X69354285Y-67890000D01*
X69401904Y-67937619D01*
X69449523Y-68032857D01*
X69449523Y-68080476D01*
X69401904Y-68175714D01*
X69354285Y-68223333D01*
X69259047Y-68270952D01*
X69068571Y-68270952D01*
X68973333Y-68318571D01*
X68925714Y-68366190D01*
X68878095Y-68461428D01*
X68878095Y-68651904D01*
X68925714Y-68747142D01*
X68973333Y-68794761D01*
X69068571Y-68842380D01*
X69259047Y-68842380D01*
X69354285Y-68794761D01*
X69401904Y-68747142D01*
X69449523Y-68651904D01*
X69449523Y-68461428D01*
X69401904Y-68366190D01*
X69354285Y-68318571D01*
X69259047Y-68270952D01*
X70354285Y-67842380D02*
X69878095Y-67842380D01*
X69830476Y-68318571D01*
X69878095Y-68270952D01*
X69973333Y-68223333D01*
X70211428Y-68223333D01*
X70306666Y-68270952D01*
X70354285Y-68318571D01*
X70401904Y-68413809D01*
X70401904Y-68651904D01*
X70354285Y-68747142D01*
X70306666Y-68794761D01*
X70211428Y-68842380D01*
X69973333Y-68842380D01*
X69878095Y-68794761D01*
X69830476Y-68747142D01*
%TO.C,R50*%
X109597142Y-129262380D02*
X109263809Y-128786190D01*
X109025714Y-129262380D02*
X109025714Y-128262380D01*
X109406666Y-128262380D01*
X109501904Y-128310000D01*
X109549523Y-128357619D01*
X109597142Y-128452857D01*
X109597142Y-128595714D01*
X109549523Y-128690952D01*
X109501904Y-128738571D01*
X109406666Y-128786190D01*
X109025714Y-128786190D01*
X110501904Y-128262380D02*
X110025714Y-128262380D01*
X109978095Y-128738571D01*
X110025714Y-128690952D01*
X110120952Y-128643333D01*
X110359047Y-128643333D01*
X110454285Y-128690952D01*
X110501904Y-128738571D01*
X110549523Y-128833809D01*
X110549523Y-129071904D01*
X110501904Y-129167142D01*
X110454285Y-129214761D01*
X110359047Y-129262380D01*
X110120952Y-129262380D01*
X110025714Y-129214761D01*
X109978095Y-129167142D01*
X111168571Y-128262380D02*
X111263809Y-128262380D01*
X111359047Y-128310000D01*
X111406666Y-128357619D01*
X111454285Y-128452857D01*
X111501904Y-128643333D01*
X111501904Y-128881428D01*
X111454285Y-129071904D01*
X111406666Y-129167142D01*
X111359047Y-129214761D01*
X111263809Y-129262380D01*
X111168571Y-129262380D01*
X111073333Y-129214761D01*
X111025714Y-129167142D01*
X110978095Y-129071904D01*
X110930476Y-128881428D01*
X110930476Y-128643333D01*
X110978095Y-128452857D01*
X111025714Y-128357619D01*
X111073333Y-128310000D01*
X111168571Y-128262380D01*
%TO.C,H1*%
X249938095Y-148632380D02*
X249938095Y-147632380D01*
X249938095Y-148108571D02*
X250509523Y-148108571D01*
X250509523Y-148632380D02*
X250509523Y-147632380D01*
X251509523Y-148632380D02*
X250938095Y-148632380D01*
X251223809Y-148632380D02*
X251223809Y-147632380D01*
X251128571Y-147775238D01*
X251033333Y-147870476D01*
X250938095Y-147918095D01*
%TO.C,R62*%
X102067142Y-129272380D02*
X101733809Y-128796190D01*
X101495714Y-129272380D02*
X101495714Y-128272380D01*
X101876666Y-128272380D01*
X101971904Y-128320000D01*
X102019523Y-128367619D01*
X102067142Y-128462857D01*
X102067142Y-128605714D01*
X102019523Y-128700952D01*
X101971904Y-128748571D01*
X101876666Y-128796190D01*
X101495714Y-128796190D01*
X102924285Y-128272380D02*
X102733809Y-128272380D01*
X102638571Y-128320000D01*
X102590952Y-128367619D01*
X102495714Y-128510476D01*
X102448095Y-128700952D01*
X102448095Y-129081904D01*
X102495714Y-129177142D01*
X102543333Y-129224761D01*
X102638571Y-129272380D01*
X102829047Y-129272380D01*
X102924285Y-129224761D01*
X102971904Y-129177142D01*
X103019523Y-129081904D01*
X103019523Y-128843809D01*
X102971904Y-128748571D01*
X102924285Y-128700952D01*
X102829047Y-128653333D01*
X102638571Y-128653333D01*
X102543333Y-128700952D01*
X102495714Y-128748571D01*
X102448095Y-128843809D01*
X103400476Y-128367619D02*
X103448095Y-128320000D01*
X103543333Y-128272380D01*
X103781428Y-128272380D01*
X103876666Y-128320000D01*
X103924285Y-128367619D01*
X103971904Y-128462857D01*
X103971904Y-128558095D01*
X103924285Y-128700952D01*
X103352857Y-129272380D01*
X103971904Y-129272380D01*
%TO.C,R6*%
X185144733Y-72419380D02*
X184811400Y-71943190D01*
X184573304Y-72419380D02*
X184573304Y-71419380D01*
X184954257Y-71419380D01*
X185049495Y-71467000D01*
X185097114Y-71514619D01*
X185144733Y-71609857D01*
X185144733Y-71752714D01*
X185097114Y-71847952D01*
X185049495Y-71895571D01*
X184954257Y-71943190D01*
X184573304Y-71943190D01*
X186001876Y-71419380D02*
X185811400Y-71419380D01*
X185716161Y-71467000D01*
X185668542Y-71514619D01*
X185573304Y-71657476D01*
X185525685Y-71847952D01*
X185525685Y-72228904D01*
X185573304Y-72324142D01*
X185620923Y-72371761D01*
X185716161Y-72419380D01*
X185906638Y-72419380D01*
X186001876Y-72371761D01*
X186049495Y-72324142D01*
X186097114Y-72228904D01*
X186097114Y-71990809D01*
X186049495Y-71895571D01*
X186001876Y-71847952D01*
X185906638Y-71800333D01*
X185716161Y-71800333D01*
X185620923Y-71847952D01*
X185573304Y-71895571D01*
X185525685Y-71990809D01*
%TO.C,R99*%
X102627142Y-56902380D02*
X102293809Y-56426190D01*
X102055714Y-56902380D02*
X102055714Y-55902380D01*
X102436666Y-55902380D01*
X102531904Y-55950000D01*
X102579523Y-55997619D01*
X102627142Y-56092857D01*
X102627142Y-56235714D01*
X102579523Y-56330952D01*
X102531904Y-56378571D01*
X102436666Y-56426190D01*
X102055714Y-56426190D01*
X103103333Y-56902380D02*
X103293809Y-56902380D01*
X103389047Y-56854761D01*
X103436666Y-56807142D01*
X103531904Y-56664285D01*
X103579523Y-56473809D01*
X103579523Y-56092857D01*
X103531904Y-55997619D01*
X103484285Y-55950000D01*
X103389047Y-55902380D01*
X103198571Y-55902380D01*
X103103333Y-55950000D01*
X103055714Y-55997619D01*
X103008095Y-56092857D01*
X103008095Y-56330952D01*
X103055714Y-56426190D01*
X103103333Y-56473809D01*
X103198571Y-56521428D01*
X103389047Y-56521428D01*
X103484285Y-56473809D01*
X103531904Y-56426190D01*
X103579523Y-56330952D01*
X104055714Y-56902380D02*
X104246190Y-56902380D01*
X104341428Y-56854761D01*
X104389047Y-56807142D01*
X104484285Y-56664285D01*
X104531904Y-56473809D01*
X104531904Y-56092857D01*
X104484285Y-55997619D01*
X104436666Y-55950000D01*
X104341428Y-55902380D01*
X104150952Y-55902380D01*
X104055714Y-55950000D01*
X104008095Y-55997619D01*
X103960476Y-56092857D01*
X103960476Y-56330952D01*
X104008095Y-56426190D01*
X104055714Y-56473809D01*
X104150952Y-56521428D01*
X104341428Y-56521428D01*
X104436666Y-56473809D01*
X104484285Y-56426190D01*
X104531904Y-56330952D01*
%TO.C,R13*%
X115762142Y-79952380D02*
X115428809Y-79476190D01*
X115190714Y-79952380D02*
X115190714Y-78952380D01*
X115571666Y-78952380D01*
X115666904Y-79000000D01*
X115714523Y-79047619D01*
X115762142Y-79142857D01*
X115762142Y-79285714D01*
X115714523Y-79380952D01*
X115666904Y-79428571D01*
X115571666Y-79476190D01*
X115190714Y-79476190D01*
X116714523Y-79952380D02*
X116143095Y-79952380D01*
X116428809Y-79952380D02*
X116428809Y-78952380D01*
X116333571Y-79095238D01*
X116238333Y-79190476D01*
X116143095Y-79238095D01*
X117047857Y-78952380D02*
X117666904Y-78952380D01*
X117333571Y-79333333D01*
X117476428Y-79333333D01*
X117571666Y-79380952D01*
X117619285Y-79428571D01*
X117666904Y-79523809D01*
X117666904Y-79761904D01*
X117619285Y-79857142D01*
X117571666Y-79904761D01*
X117476428Y-79952380D01*
X117190714Y-79952380D01*
X117095476Y-79904761D01*
X117047857Y-79857142D01*
%TO.C,R61*%
X102067142Y-134342380D02*
X101733809Y-133866190D01*
X101495714Y-134342380D02*
X101495714Y-133342380D01*
X101876666Y-133342380D01*
X101971904Y-133390000D01*
X102019523Y-133437619D01*
X102067142Y-133532857D01*
X102067142Y-133675714D01*
X102019523Y-133770952D01*
X101971904Y-133818571D01*
X101876666Y-133866190D01*
X101495714Y-133866190D01*
X102924285Y-133342380D02*
X102733809Y-133342380D01*
X102638571Y-133390000D01*
X102590952Y-133437619D01*
X102495714Y-133580476D01*
X102448095Y-133770952D01*
X102448095Y-134151904D01*
X102495714Y-134247142D01*
X102543333Y-134294761D01*
X102638571Y-134342380D01*
X102829047Y-134342380D01*
X102924285Y-134294761D01*
X102971904Y-134247142D01*
X103019523Y-134151904D01*
X103019523Y-133913809D01*
X102971904Y-133818571D01*
X102924285Y-133770952D01*
X102829047Y-133723333D01*
X102638571Y-133723333D01*
X102543333Y-133770952D01*
X102495714Y-133818571D01*
X102448095Y-133913809D01*
X103971904Y-134342380D02*
X103400476Y-134342380D01*
X103686190Y-134342380D02*
X103686190Y-133342380D01*
X103590952Y-133485238D01*
X103495714Y-133580476D01*
X103400476Y-133628095D01*
%TO.C,R95*%
X76489642Y-46942380D02*
X76156309Y-46466190D01*
X75918214Y-46942380D02*
X75918214Y-45942380D01*
X76299166Y-45942380D01*
X76394404Y-45990000D01*
X76442023Y-46037619D01*
X76489642Y-46132857D01*
X76489642Y-46275714D01*
X76442023Y-46370952D01*
X76394404Y-46418571D01*
X76299166Y-46466190D01*
X75918214Y-46466190D01*
X76965833Y-46942380D02*
X77156309Y-46942380D01*
X77251547Y-46894761D01*
X77299166Y-46847142D01*
X77394404Y-46704285D01*
X77442023Y-46513809D01*
X77442023Y-46132857D01*
X77394404Y-46037619D01*
X77346785Y-45990000D01*
X77251547Y-45942380D01*
X77061071Y-45942380D01*
X76965833Y-45990000D01*
X76918214Y-46037619D01*
X76870595Y-46132857D01*
X76870595Y-46370952D01*
X76918214Y-46466190D01*
X76965833Y-46513809D01*
X77061071Y-46561428D01*
X77251547Y-46561428D01*
X77346785Y-46513809D01*
X77394404Y-46466190D01*
X77442023Y-46370952D01*
X78346785Y-45942380D02*
X77870595Y-45942380D01*
X77822976Y-46418571D01*
X77870595Y-46370952D01*
X77965833Y-46323333D01*
X78203928Y-46323333D01*
X78299166Y-46370952D01*
X78346785Y-46418571D01*
X78394404Y-46513809D01*
X78394404Y-46751904D01*
X78346785Y-46847142D01*
X78299166Y-46894761D01*
X78203928Y-46942380D01*
X77965833Y-46942380D01*
X77870595Y-46894761D01*
X77822976Y-46847142D01*
%TO.C,R71*%
X76414642Y-78972380D02*
X76081309Y-78496190D01*
X75843214Y-78972380D02*
X75843214Y-77972380D01*
X76224166Y-77972380D01*
X76319404Y-78020000D01*
X76367023Y-78067619D01*
X76414642Y-78162857D01*
X76414642Y-78305714D01*
X76367023Y-78400952D01*
X76319404Y-78448571D01*
X76224166Y-78496190D01*
X75843214Y-78496190D01*
X76747976Y-77972380D02*
X77414642Y-77972380D01*
X76986071Y-78972380D01*
X78319404Y-78972380D02*
X77747976Y-78972380D01*
X78033690Y-78972380D02*
X78033690Y-77972380D01*
X77938452Y-78115238D01*
X77843214Y-78210476D01*
X77747976Y-78258095D01*
%TO.C,R53*%
X69107142Y-110928180D02*
X68773809Y-110451990D01*
X68535714Y-110928180D02*
X68535714Y-109928180D01*
X68916666Y-109928180D01*
X69011904Y-109975800D01*
X69059523Y-110023419D01*
X69107142Y-110118657D01*
X69107142Y-110261514D01*
X69059523Y-110356752D01*
X69011904Y-110404371D01*
X68916666Y-110451990D01*
X68535714Y-110451990D01*
X70011904Y-109928180D02*
X69535714Y-109928180D01*
X69488095Y-110404371D01*
X69535714Y-110356752D01*
X69630952Y-110309133D01*
X69869047Y-110309133D01*
X69964285Y-110356752D01*
X70011904Y-110404371D01*
X70059523Y-110499609D01*
X70059523Y-110737704D01*
X70011904Y-110832942D01*
X69964285Y-110880561D01*
X69869047Y-110928180D01*
X69630952Y-110928180D01*
X69535714Y-110880561D01*
X69488095Y-110832942D01*
X70392857Y-109928180D02*
X71011904Y-109928180D01*
X70678571Y-110309133D01*
X70821428Y-110309133D01*
X70916666Y-110356752D01*
X70964285Y-110404371D01*
X71011904Y-110499609D01*
X71011904Y-110737704D01*
X70964285Y-110832942D01*
X70916666Y-110880561D01*
X70821428Y-110928180D01*
X70535714Y-110928180D01*
X70440476Y-110880561D01*
X70392857Y-110832942D01*
%TO.C,J18*%
X64642380Y-41809523D02*
X65356666Y-41809523D01*
X65499523Y-41857142D01*
X65594761Y-41952380D01*
X65642380Y-42095238D01*
X65642380Y-42190476D01*
X65642380Y-40809523D02*
X65642380Y-41380952D01*
X65642380Y-41095238D02*
X64642380Y-41095238D01*
X64785238Y-41190476D01*
X64880476Y-41285714D01*
X64928095Y-41380952D01*
X65070952Y-40238095D02*
X65023333Y-40333333D01*
X64975714Y-40380952D01*
X64880476Y-40428571D01*
X64832857Y-40428571D01*
X64737619Y-40380952D01*
X64690000Y-40333333D01*
X64642380Y-40238095D01*
X64642380Y-40047619D01*
X64690000Y-39952380D01*
X64737619Y-39904761D01*
X64832857Y-39857142D01*
X64880476Y-39857142D01*
X64975714Y-39904761D01*
X65023333Y-39952380D01*
X65070952Y-40047619D01*
X65070952Y-40238095D01*
X65118571Y-40333333D01*
X65166190Y-40380952D01*
X65261428Y-40428571D01*
X65451904Y-40428571D01*
X65547142Y-40380952D01*
X65594761Y-40333333D01*
X65642380Y-40238095D01*
X65642380Y-40047619D01*
X65594761Y-39952380D01*
X65547142Y-39904761D01*
X65451904Y-39857142D01*
X65261428Y-39857142D01*
X65166190Y-39904761D01*
X65118571Y-39952380D01*
X65070952Y-40047619D01*
%TO.C,J4*%
X235267380Y-53838333D02*
X235981666Y-53838333D01*
X236124523Y-53885952D01*
X236219761Y-53981190D01*
X236267380Y-54124047D01*
X236267380Y-54219285D01*
X235600714Y-52933571D02*
X236267380Y-52933571D01*
X235219761Y-53171666D02*
X235934047Y-53409761D01*
X235934047Y-52790714D01*
%TO.C,R91*%
X110397142Y-41662380D02*
X110063809Y-41186190D01*
X109825714Y-41662380D02*
X109825714Y-40662380D01*
X110206666Y-40662380D01*
X110301904Y-40710000D01*
X110349523Y-40757619D01*
X110397142Y-40852857D01*
X110397142Y-40995714D01*
X110349523Y-41090952D01*
X110301904Y-41138571D01*
X110206666Y-41186190D01*
X109825714Y-41186190D01*
X110873333Y-41662380D02*
X111063809Y-41662380D01*
X111159047Y-41614761D01*
X111206666Y-41567142D01*
X111301904Y-41424285D01*
X111349523Y-41233809D01*
X111349523Y-40852857D01*
X111301904Y-40757619D01*
X111254285Y-40710000D01*
X111159047Y-40662380D01*
X110968571Y-40662380D01*
X110873333Y-40710000D01*
X110825714Y-40757619D01*
X110778095Y-40852857D01*
X110778095Y-41090952D01*
X110825714Y-41186190D01*
X110873333Y-41233809D01*
X110968571Y-41281428D01*
X111159047Y-41281428D01*
X111254285Y-41233809D01*
X111301904Y-41186190D01*
X111349523Y-41090952D01*
X112301904Y-41662380D02*
X111730476Y-41662380D01*
X112016190Y-41662380D02*
X112016190Y-40662380D01*
X111920952Y-40805238D01*
X111825714Y-40900476D01*
X111730476Y-40948095D01*
%TO.C,R73*%
X76414642Y-68812380D02*
X76081309Y-68336190D01*
X75843214Y-68812380D02*
X75843214Y-67812380D01*
X76224166Y-67812380D01*
X76319404Y-67860000D01*
X76367023Y-67907619D01*
X76414642Y-68002857D01*
X76414642Y-68145714D01*
X76367023Y-68240952D01*
X76319404Y-68288571D01*
X76224166Y-68336190D01*
X75843214Y-68336190D01*
X76747976Y-67812380D02*
X77414642Y-67812380D01*
X76986071Y-68812380D01*
X77700357Y-67812380D02*
X78319404Y-67812380D01*
X77986071Y-68193333D01*
X78128928Y-68193333D01*
X78224166Y-68240952D01*
X78271785Y-68288571D01*
X78319404Y-68383809D01*
X78319404Y-68621904D01*
X78271785Y-68717142D01*
X78224166Y-68764761D01*
X78128928Y-68812380D01*
X77843214Y-68812380D01*
X77747976Y-68764761D01*
X77700357Y-68717142D01*
%TO.C,R93*%
X110397142Y-31512380D02*
X110063809Y-31036190D01*
X109825714Y-31512380D02*
X109825714Y-30512380D01*
X110206666Y-30512380D01*
X110301904Y-30560000D01*
X110349523Y-30607619D01*
X110397142Y-30702857D01*
X110397142Y-30845714D01*
X110349523Y-30940952D01*
X110301904Y-30988571D01*
X110206666Y-31036190D01*
X109825714Y-31036190D01*
X110873333Y-31512380D02*
X111063809Y-31512380D01*
X111159047Y-31464761D01*
X111206666Y-31417142D01*
X111301904Y-31274285D01*
X111349523Y-31083809D01*
X111349523Y-30702857D01*
X111301904Y-30607619D01*
X111254285Y-30560000D01*
X111159047Y-30512380D01*
X110968571Y-30512380D01*
X110873333Y-30560000D01*
X110825714Y-30607619D01*
X110778095Y-30702857D01*
X110778095Y-30940952D01*
X110825714Y-31036190D01*
X110873333Y-31083809D01*
X110968571Y-31131428D01*
X111159047Y-31131428D01*
X111254285Y-31083809D01*
X111301904Y-31036190D01*
X111349523Y-30940952D01*
X111682857Y-30512380D02*
X112301904Y-30512380D01*
X111968571Y-30893333D01*
X112111428Y-30893333D01*
X112206666Y-30940952D01*
X112254285Y-30988571D01*
X112301904Y-31083809D01*
X112301904Y-31321904D01*
X112254285Y-31417142D01*
X112206666Y-31464761D01*
X112111428Y-31512380D01*
X111825714Y-31512380D01*
X111730476Y-31464761D01*
X111682857Y-31417142D01*
%TO.C,R43*%
X76447142Y-105835780D02*
X76113809Y-105359590D01*
X75875714Y-105835780D02*
X75875714Y-104835780D01*
X76256666Y-104835780D01*
X76351904Y-104883400D01*
X76399523Y-104931019D01*
X76447142Y-105026257D01*
X76447142Y-105169114D01*
X76399523Y-105264352D01*
X76351904Y-105311971D01*
X76256666Y-105359590D01*
X75875714Y-105359590D01*
X77304285Y-105169114D02*
X77304285Y-105835780D01*
X77066190Y-104788161D02*
X76828095Y-105502447D01*
X77447142Y-105502447D01*
X77732857Y-104835780D02*
X78351904Y-104835780D01*
X78018571Y-105216733D01*
X78161428Y-105216733D01*
X78256666Y-105264352D01*
X78304285Y-105311971D01*
X78351904Y-105407209D01*
X78351904Y-105645304D01*
X78304285Y-105740542D01*
X78256666Y-105788161D01*
X78161428Y-105835780D01*
X77875714Y-105835780D01*
X77780476Y-105788161D01*
X77732857Y-105740542D01*
%TO.C,R10*%
X123972142Y-79782380D02*
X123638809Y-79306190D01*
X123400714Y-79782380D02*
X123400714Y-78782380D01*
X123781666Y-78782380D01*
X123876904Y-78830000D01*
X123924523Y-78877619D01*
X123972142Y-78972857D01*
X123972142Y-79115714D01*
X123924523Y-79210952D01*
X123876904Y-79258571D01*
X123781666Y-79306190D01*
X123400714Y-79306190D01*
X124924523Y-79782380D02*
X124353095Y-79782380D01*
X124638809Y-79782380D02*
X124638809Y-78782380D01*
X124543571Y-78925238D01*
X124448333Y-79020476D01*
X124353095Y-79068095D01*
X125543571Y-78782380D02*
X125638809Y-78782380D01*
X125734047Y-78830000D01*
X125781666Y-78877619D01*
X125829285Y-78972857D01*
X125876904Y-79163333D01*
X125876904Y-79401428D01*
X125829285Y-79591904D01*
X125781666Y-79687142D01*
X125734047Y-79734761D01*
X125638809Y-79782380D01*
X125543571Y-79782380D01*
X125448333Y-79734761D01*
X125400714Y-79687142D01*
X125353095Y-79591904D01*
X125305476Y-79401428D01*
X125305476Y-79163333D01*
X125353095Y-78972857D01*
X125400714Y-78877619D01*
X125448333Y-78830000D01*
X125543571Y-78782380D01*
%TO.C,R45*%
X76447142Y-95656580D02*
X76113809Y-95180390D01*
X75875714Y-95656580D02*
X75875714Y-94656580D01*
X76256666Y-94656580D01*
X76351904Y-94704200D01*
X76399523Y-94751819D01*
X76447142Y-94847057D01*
X76447142Y-94989914D01*
X76399523Y-95085152D01*
X76351904Y-95132771D01*
X76256666Y-95180390D01*
X75875714Y-95180390D01*
X77304285Y-94989914D02*
X77304285Y-95656580D01*
X77066190Y-94608961D02*
X76828095Y-95323247D01*
X77447142Y-95323247D01*
X78304285Y-94656580D02*
X77828095Y-94656580D01*
X77780476Y-95132771D01*
X77828095Y-95085152D01*
X77923333Y-95037533D01*
X78161428Y-95037533D01*
X78256666Y-95085152D01*
X78304285Y-95132771D01*
X78351904Y-95228009D01*
X78351904Y-95466104D01*
X78304285Y-95561342D01*
X78256666Y-95608961D01*
X78161428Y-95656580D01*
X77923333Y-95656580D01*
X77828095Y-95608961D01*
X77780476Y-95561342D01*
%TO.C,R102*%
X102150952Y-41632380D02*
X101817619Y-41156190D01*
X101579523Y-41632380D02*
X101579523Y-40632380D01*
X101960476Y-40632380D01*
X102055714Y-40680000D01*
X102103333Y-40727619D01*
X102150952Y-40822857D01*
X102150952Y-40965714D01*
X102103333Y-41060952D01*
X102055714Y-41108571D01*
X101960476Y-41156190D01*
X101579523Y-41156190D01*
X103103333Y-41632380D02*
X102531904Y-41632380D01*
X102817619Y-41632380D02*
X102817619Y-40632380D01*
X102722380Y-40775238D01*
X102627142Y-40870476D01*
X102531904Y-40918095D01*
X103722380Y-40632380D02*
X103817619Y-40632380D01*
X103912857Y-40680000D01*
X103960476Y-40727619D01*
X104008095Y-40822857D01*
X104055714Y-41013333D01*
X104055714Y-41251428D01*
X104008095Y-41441904D01*
X103960476Y-41537142D01*
X103912857Y-41584761D01*
X103817619Y-41632380D01*
X103722380Y-41632380D01*
X103627142Y-41584761D01*
X103579523Y-41537142D01*
X103531904Y-41441904D01*
X103484285Y-41251428D01*
X103484285Y-41013333D01*
X103531904Y-40822857D01*
X103579523Y-40727619D01*
X103627142Y-40680000D01*
X103722380Y-40632380D01*
X104436666Y-40727619D02*
X104484285Y-40680000D01*
X104579523Y-40632380D01*
X104817619Y-40632380D01*
X104912857Y-40680000D01*
X104960476Y-40727619D01*
X105008095Y-40822857D01*
X105008095Y-40918095D01*
X104960476Y-41060952D01*
X104389047Y-41632380D01*
X105008095Y-41632380D01*
%TO.C,J14*%
X96782380Y-140709523D02*
X97496666Y-140709523D01*
X97639523Y-140757142D01*
X97734761Y-140852380D01*
X97782380Y-140995238D01*
X97782380Y-141090476D01*
X97782380Y-139709523D02*
X97782380Y-140280952D01*
X97782380Y-139995238D02*
X96782380Y-139995238D01*
X96925238Y-140090476D01*
X97020476Y-140185714D01*
X97068095Y-140280952D01*
X97115714Y-138852380D02*
X97782380Y-138852380D01*
X96734761Y-139090476D02*
X97449047Y-139328571D01*
X97449047Y-138709523D01*
%TO.C,J17*%
X96982380Y-42199523D02*
X97696666Y-42199523D01*
X97839523Y-42247142D01*
X97934761Y-42342380D01*
X97982380Y-42485238D01*
X97982380Y-42580476D01*
X97982380Y-41199523D02*
X97982380Y-41770952D01*
X97982380Y-41485238D02*
X96982380Y-41485238D01*
X97125238Y-41580476D01*
X97220476Y-41675714D01*
X97268095Y-41770952D01*
X96982380Y-40866190D02*
X96982380Y-40199523D01*
X97982380Y-40628095D01*
%TO.C,R110*%
X68020952Y-31702380D02*
X67687619Y-31226190D01*
X67449523Y-31702380D02*
X67449523Y-30702380D01*
X67830476Y-30702380D01*
X67925714Y-30750000D01*
X67973333Y-30797619D01*
X68020952Y-30892857D01*
X68020952Y-31035714D01*
X67973333Y-31130952D01*
X67925714Y-31178571D01*
X67830476Y-31226190D01*
X67449523Y-31226190D01*
X68973333Y-31702380D02*
X68401904Y-31702380D01*
X68687619Y-31702380D02*
X68687619Y-30702380D01*
X68592380Y-30845238D01*
X68497142Y-30940476D01*
X68401904Y-30988095D01*
X69925714Y-31702380D02*
X69354285Y-31702380D01*
X69640000Y-31702380D02*
X69640000Y-30702380D01*
X69544761Y-30845238D01*
X69449523Y-30940476D01*
X69354285Y-30988095D01*
X70544761Y-30702380D02*
X70640000Y-30702380D01*
X70735238Y-30750000D01*
X70782857Y-30797619D01*
X70830476Y-30892857D01*
X70878095Y-31083333D01*
X70878095Y-31321428D01*
X70830476Y-31511904D01*
X70782857Y-31607142D01*
X70735238Y-31654761D01*
X70640000Y-31702380D01*
X70544761Y-31702380D01*
X70449523Y-31654761D01*
X70401904Y-31607142D01*
X70354285Y-31511904D01*
X70306666Y-31321428D01*
X70306666Y-31083333D01*
X70354285Y-30892857D01*
X70401904Y-30797619D01*
X70449523Y-30750000D01*
X70544761Y-30702380D01*
%TO.C,R96*%
X76489642Y-41842380D02*
X76156309Y-41366190D01*
X75918214Y-41842380D02*
X75918214Y-40842380D01*
X76299166Y-40842380D01*
X76394404Y-40890000D01*
X76442023Y-40937619D01*
X76489642Y-41032857D01*
X76489642Y-41175714D01*
X76442023Y-41270952D01*
X76394404Y-41318571D01*
X76299166Y-41366190D01*
X75918214Y-41366190D01*
X76965833Y-41842380D02*
X77156309Y-41842380D01*
X77251547Y-41794761D01*
X77299166Y-41747142D01*
X77394404Y-41604285D01*
X77442023Y-41413809D01*
X77442023Y-41032857D01*
X77394404Y-40937619D01*
X77346785Y-40890000D01*
X77251547Y-40842380D01*
X77061071Y-40842380D01*
X76965833Y-40890000D01*
X76918214Y-40937619D01*
X76870595Y-41032857D01*
X76870595Y-41270952D01*
X76918214Y-41366190D01*
X76965833Y-41413809D01*
X77061071Y-41461428D01*
X77251547Y-41461428D01*
X77346785Y-41413809D01*
X77394404Y-41366190D01*
X77442023Y-41270952D01*
X78299166Y-40842380D02*
X78108690Y-40842380D01*
X78013452Y-40890000D01*
X77965833Y-40937619D01*
X77870595Y-41080476D01*
X77822976Y-41270952D01*
X77822976Y-41651904D01*
X77870595Y-41747142D01*
X77918214Y-41794761D01*
X78013452Y-41842380D01*
X78203928Y-41842380D01*
X78299166Y-41794761D01*
X78346785Y-41747142D01*
X78394404Y-41651904D01*
X78394404Y-41413809D01*
X78346785Y-41318571D01*
X78299166Y-41270952D01*
X78203928Y-41223333D01*
X78013452Y-41223333D01*
X77918214Y-41270952D01*
X77870595Y-41318571D01*
X77822976Y-41413809D01*
%TO.C,J5*%
X205267380Y-97438333D02*
X205981666Y-97438333D01*
X206124523Y-97485952D01*
X206219761Y-97581190D01*
X206267380Y-97724047D01*
X206267380Y-97819285D01*
X205267380Y-96485952D02*
X205267380Y-96962142D01*
X205743571Y-97009761D01*
X205695952Y-96962142D01*
X205648333Y-96866904D01*
X205648333Y-96628809D01*
X205695952Y-96533571D01*
X205743571Y-96485952D01*
X205838809Y-96438333D01*
X206076904Y-96438333D01*
X206172142Y-96485952D01*
X206219761Y-96533571D01*
X206267380Y-96628809D01*
X206267380Y-96866904D01*
X206219761Y-96962142D01*
X206172142Y-97009761D01*
%TO.C,J6*%
X235267380Y-97438333D02*
X235981666Y-97438333D01*
X236124523Y-97485952D01*
X236219761Y-97581190D01*
X236267380Y-97724047D01*
X236267380Y-97819285D01*
X235267380Y-96533571D02*
X235267380Y-96724047D01*
X235315000Y-96819285D01*
X235362619Y-96866904D01*
X235505476Y-96962142D01*
X235695952Y-97009761D01*
X236076904Y-97009761D01*
X236172142Y-96962142D01*
X236219761Y-96914523D01*
X236267380Y-96819285D01*
X236267380Y-96628809D01*
X236219761Y-96533571D01*
X236172142Y-96485952D01*
X236076904Y-96438333D01*
X235838809Y-96438333D01*
X235743571Y-96485952D01*
X235695952Y-96533571D01*
X235648333Y-96628809D01*
X235648333Y-96819285D01*
X235695952Y-96914523D01*
X235743571Y-96962142D01*
X235838809Y-97009761D01*
%TO.C,R9*%
X124448333Y-94722380D02*
X124115000Y-94246190D01*
X123876904Y-94722380D02*
X123876904Y-93722380D01*
X124257857Y-93722380D01*
X124353095Y-93770000D01*
X124400714Y-93817619D01*
X124448333Y-93912857D01*
X124448333Y-94055714D01*
X124400714Y-94150952D01*
X124353095Y-94198571D01*
X124257857Y-94246190D01*
X123876904Y-94246190D01*
X124924523Y-94722380D02*
X125115000Y-94722380D01*
X125210238Y-94674761D01*
X125257857Y-94627142D01*
X125353095Y-94484285D01*
X125400714Y-94293809D01*
X125400714Y-93912857D01*
X125353095Y-93817619D01*
X125305476Y-93770000D01*
X125210238Y-93722380D01*
X125019761Y-93722380D01*
X124924523Y-93770000D01*
X124876904Y-93817619D01*
X124829285Y-93912857D01*
X124829285Y-94150952D01*
X124876904Y-94246190D01*
X124924523Y-94293809D01*
X125019761Y-94341428D01*
X125210238Y-94341428D01*
X125305476Y-94293809D01*
X125353095Y-94246190D01*
X125400714Y-94150952D01*
%TO.C,R74*%
X76414642Y-63722380D02*
X76081309Y-63246190D01*
X75843214Y-63722380D02*
X75843214Y-62722380D01*
X76224166Y-62722380D01*
X76319404Y-62770000D01*
X76367023Y-62817619D01*
X76414642Y-62912857D01*
X76414642Y-63055714D01*
X76367023Y-63150952D01*
X76319404Y-63198571D01*
X76224166Y-63246190D01*
X75843214Y-63246190D01*
X76747976Y-62722380D02*
X77414642Y-62722380D01*
X76986071Y-63722380D01*
X78224166Y-63055714D02*
X78224166Y-63722380D01*
X77986071Y-62674761D02*
X77747976Y-63389047D01*
X78367023Y-63389047D01*
%TO.C,R41*%
X76447142Y-115991380D02*
X76113809Y-115515190D01*
X75875714Y-115991380D02*
X75875714Y-114991380D01*
X76256666Y-114991380D01*
X76351904Y-115039000D01*
X76399523Y-115086619D01*
X76447142Y-115181857D01*
X76447142Y-115324714D01*
X76399523Y-115419952D01*
X76351904Y-115467571D01*
X76256666Y-115515190D01*
X75875714Y-115515190D01*
X77304285Y-115324714D02*
X77304285Y-115991380D01*
X77066190Y-114943761D02*
X76828095Y-115658047D01*
X77447142Y-115658047D01*
X78351904Y-115991380D02*
X77780476Y-115991380D01*
X78066190Y-115991380D02*
X78066190Y-114991380D01*
X77970952Y-115134238D01*
X77875714Y-115229476D01*
X77780476Y-115277095D01*
%TO.C,R51*%
X69107142Y-121045980D02*
X68773809Y-120569790D01*
X68535714Y-121045980D02*
X68535714Y-120045980D01*
X68916666Y-120045980D01*
X69011904Y-120093600D01*
X69059523Y-120141219D01*
X69107142Y-120236457D01*
X69107142Y-120379314D01*
X69059523Y-120474552D01*
X69011904Y-120522171D01*
X68916666Y-120569790D01*
X68535714Y-120569790D01*
X70011904Y-120045980D02*
X69535714Y-120045980D01*
X69488095Y-120522171D01*
X69535714Y-120474552D01*
X69630952Y-120426933D01*
X69869047Y-120426933D01*
X69964285Y-120474552D01*
X70011904Y-120522171D01*
X70059523Y-120617409D01*
X70059523Y-120855504D01*
X70011904Y-120950742D01*
X69964285Y-120998361D01*
X69869047Y-121045980D01*
X69630952Y-121045980D01*
X69535714Y-120998361D01*
X69488095Y-120950742D01*
X71011904Y-121045980D02*
X70440476Y-121045980D01*
X70726190Y-121045980D02*
X70726190Y-120045980D01*
X70630952Y-120188838D01*
X70535714Y-120284076D01*
X70440476Y-120331695D01*
%TO.C,J2*%
X205267380Y-53838333D02*
X205981666Y-53838333D01*
X206124523Y-53885952D01*
X206219761Y-53981190D01*
X206267380Y-54124047D01*
X206267380Y-54219285D01*
X205362619Y-53409761D02*
X205315000Y-53362142D01*
X205267380Y-53266904D01*
X205267380Y-53028809D01*
X205315000Y-52933571D01*
X205362619Y-52885952D01*
X205457857Y-52838333D01*
X205553095Y-52838333D01*
X205695952Y-52885952D01*
X206267380Y-53457380D01*
X206267380Y-52838333D01*
%TO.C,R52*%
X69107142Y-115991380D02*
X68773809Y-115515190D01*
X68535714Y-115991380D02*
X68535714Y-114991380D01*
X68916666Y-114991380D01*
X69011904Y-115039000D01*
X69059523Y-115086619D01*
X69107142Y-115181857D01*
X69107142Y-115324714D01*
X69059523Y-115419952D01*
X69011904Y-115467571D01*
X68916666Y-115515190D01*
X68535714Y-115515190D01*
X70011904Y-114991380D02*
X69535714Y-114991380D01*
X69488095Y-115467571D01*
X69535714Y-115419952D01*
X69630952Y-115372333D01*
X69869047Y-115372333D01*
X69964285Y-115419952D01*
X70011904Y-115467571D01*
X70059523Y-115562809D01*
X70059523Y-115800904D01*
X70011904Y-115896142D01*
X69964285Y-115943761D01*
X69869047Y-115991380D01*
X69630952Y-115991380D01*
X69535714Y-115943761D01*
X69488095Y-115896142D01*
X70440476Y-115086619D02*
X70488095Y-115039000D01*
X70583333Y-114991380D01*
X70821428Y-114991380D01*
X70916666Y-115039000D01*
X70964285Y-115086619D01*
X71011904Y-115181857D01*
X71011904Y-115277095D01*
X70964285Y-115419952D01*
X70392857Y-115991380D01*
X71011904Y-115991380D01*
%TO.C,J3*%
X235267380Y-141038333D02*
X235981666Y-141038333D01*
X236124523Y-141085952D01*
X236219761Y-141181190D01*
X236267380Y-141324047D01*
X236267380Y-141419285D01*
X235267380Y-140657380D02*
X235267380Y-140038333D01*
X235648333Y-140371666D01*
X235648333Y-140228809D01*
X235695952Y-140133571D01*
X235743571Y-140085952D01*
X235838809Y-140038333D01*
X236076904Y-140038333D01*
X236172142Y-140085952D01*
X236219761Y-140133571D01*
X236267380Y-140228809D01*
X236267380Y-140514523D01*
X236219761Y-140609761D01*
X236172142Y-140657380D01*
%TO.C,R7*%
X192485333Y-59619780D02*
X192152000Y-59143590D01*
X191913904Y-59619780D02*
X191913904Y-58619780D01*
X192294857Y-58619780D01*
X192390095Y-58667400D01*
X192437714Y-58715019D01*
X192485333Y-58810257D01*
X192485333Y-58953114D01*
X192437714Y-59048352D01*
X192390095Y-59095971D01*
X192294857Y-59143590D01*
X191913904Y-59143590D01*
X192818666Y-58619780D02*
X193485333Y-58619780D01*
X193056761Y-59619780D01*
%TO.C,R83*%
X68497142Y-79002380D02*
X68163809Y-78526190D01*
X67925714Y-79002380D02*
X67925714Y-78002380D01*
X68306666Y-78002380D01*
X68401904Y-78050000D01*
X68449523Y-78097619D01*
X68497142Y-78192857D01*
X68497142Y-78335714D01*
X68449523Y-78430952D01*
X68401904Y-78478571D01*
X68306666Y-78526190D01*
X67925714Y-78526190D01*
X69068571Y-78430952D02*
X68973333Y-78383333D01*
X68925714Y-78335714D01*
X68878095Y-78240476D01*
X68878095Y-78192857D01*
X68925714Y-78097619D01*
X68973333Y-78050000D01*
X69068571Y-78002380D01*
X69259047Y-78002380D01*
X69354285Y-78050000D01*
X69401904Y-78097619D01*
X69449523Y-78192857D01*
X69449523Y-78240476D01*
X69401904Y-78335714D01*
X69354285Y-78383333D01*
X69259047Y-78430952D01*
X69068571Y-78430952D01*
X68973333Y-78478571D01*
X68925714Y-78526190D01*
X68878095Y-78621428D01*
X68878095Y-78811904D01*
X68925714Y-78907142D01*
X68973333Y-78954761D01*
X69068571Y-79002380D01*
X69259047Y-79002380D01*
X69354285Y-78954761D01*
X69401904Y-78907142D01*
X69449523Y-78811904D01*
X69449523Y-78621428D01*
X69401904Y-78526190D01*
X69354285Y-78478571D01*
X69259047Y-78430952D01*
X69782857Y-78002380D02*
X70401904Y-78002380D01*
X70068571Y-78383333D01*
X70211428Y-78383333D01*
X70306666Y-78430952D01*
X70354285Y-78478571D01*
X70401904Y-78573809D01*
X70401904Y-78811904D01*
X70354285Y-78907142D01*
X70306666Y-78954761D01*
X70211428Y-79002380D01*
X69925714Y-79002380D01*
X69830476Y-78954761D01*
X69782857Y-78907142D01*
%TO.C,R88*%
X76489642Y-57112380D02*
X76156309Y-56636190D01*
X75918214Y-57112380D02*
X75918214Y-56112380D01*
X76299166Y-56112380D01*
X76394404Y-56160000D01*
X76442023Y-56207619D01*
X76489642Y-56302857D01*
X76489642Y-56445714D01*
X76442023Y-56540952D01*
X76394404Y-56588571D01*
X76299166Y-56636190D01*
X75918214Y-56636190D01*
X77061071Y-56540952D02*
X76965833Y-56493333D01*
X76918214Y-56445714D01*
X76870595Y-56350476D01*
X76870595Y-56302857D01*
X76918214Y-56207619D01*
X76965833Y-56160000D01*
X77061071Y-56112380D01*
X77251547Y-56112380D01*
X77346785Y-56160000D01*
X77394404Y-56207619D01*
X77442023Y-56302857D01*
X77442023Y-56350476D01*
X77394404Y-56445714D01*
X77346785Y-56493333D01*
X77251547Y-56540952D01*
X77061071Y-56540952D01*
X76965833Y-56588571D01*
X76918214Y-56636190D01*
X76870595Y-56731428D01*
X76870595Y-56921904D01*
X76918214Y-57017142D01*
X76965833Y-57064761D01*
X77061071Y-57112380D01*
X77251547Y-57112380D01*
X77346785Y-57064761D01*
X77394404Y-57017142D01*
X77442023Y-56921904D01*
X77442023Y-56731428D01*
X77394404Y-56636190D01*
X77346785Y-56588571D01*
X77251547Y-56540952D01*
X78013452Y-56540952D02*
X77918214Y-56493333D01*
X77870595Y-56445714D01*
X77822976Y-56350476D01*
X77822976Y-56302857D01*
X77870595Y-56207619D01*
X77918214Y-56160000D01*
X78013452Y-56112380D01*
X78203928Y-56112380D01*
X78299166Y-56160000D01*
X78346785Y-56207619D01*
X78394404Y-56302857D01*
X78394404Y-56350476D01*
X78346785Y-56445714D01*
X78299166Y-56493333D01*
X78203928Y-56540952D01*
X78013452Y-56540952D01*
X77918214Y-56588571D01*
X77870595Y-56636190D01*
X77822976Y-56731428D01*
X77822976Y-56921904D01*
X77870595Y-57017142D01*
X77918214Y-57064761D01*
X78013452Y-57112380D01*
X78203928Y-57112380D01*
X78299166Y-57064761D01*
X78346785Y-57017142D01*
X78394404Y-56921904D01*
X78394404Y-56731428D01*
X78346785Y-56636190D01*
X78299166Y-56588571D01*
X78203928Y-56540952D01*
%TO.C,R72*%
X76414642Y-73892380D02*
X76081309Y-73416190D01*
X75843214Y-73892380D02*
X75843214Y-72892380D01*
X76224166Y-72892380D01*
X76319404Y-72940000D01*
X76367023Y-72987619D01*
X76414642Y-73082857D01*
X76414642Y-73225714D01*
X76367023Y-73320952D01*
X76319404Y-73368571D01*
X76224166Y-73416190D01*
X75843214Y-73416190D01*
X76747976Y-72892380D02*
X77414642Y-72892380D01*
X76986071Y-73892380D01*
X77747976Y-72987619D02*
X77795595Y-72940000D01*
X77890833Y-72892380D01*
X78128928Y-72892380D01*
X78224166Y-72940000D01*
X78271785Y-72987619D01*
X78319404Y-73082857D01*
X78319404Y-73178095D01*
X78271785Y-73320952D01*
X77700357Y-73892380D01*
X78319404Y-73892380D01*
%TO.C,R4*%
X185144733Y-59619780D02*
X184811400Y-59143590D01*
X184573304Y-59619780D02*
X184573304Y-58619780D01*
X184954257Y-58619780D01*
X185049495Y-58667400D01*
X185097114Y-58715019D01*
X185144733Y-58810257D01*
X185144733Y-58953114D01*
X185097114Y-59048352D01*
X185049495Y-59095971D01*
X184954257Y-59143590D01*
X184573304Y-59143590D01*
X186001876Y-58953114D02*
X186001876Y-59619780D01*
X185763780Y-58572161D02*
X185525685Y-59286447D01*
X186144733Y-59286447D01*
%TO.C,H4*%
X249848095Y-32662380D02*
X249848095Y-31662380D01*
X249848095Y-32138571D02*
X250419523Y-32138571D01*
X250419523Y-32662380D02*
X250419523Y-31662380D01*
X251324285Y-31995714D02*
X251324285Y-32662380D01*
X251086190Y-31614761D02*
X250848095Y-32329047D01*
X251467142Y-32329047D01*
%TO.C,J9*%
X186776666Y-131532380D02*
X186776666Y-132246666D01*
X186729047Y-132389523D01*
X186633809Y-132484761D01*
X186490952Y-132532380D01*
X186395714Y-132532380D01*
X187300476Y-132532380D02*
X187490952Y-132532380D01*
X187586190Y-132484761D01*
X187633809Y-132437142D01*
X187729047Y-132294285D01*
X187776666Y-132103809D01*
X187776666Y-131722857D01*
X187729047Y-131627619D01*
X187681428Y-131580000D01*
X187586190Y-131532380D01*
X187395714Y-131532380D01*
X187300476Y-131580000D01*
X187252857Y-131627619D01*
X187205238Y-131722857D01*
X187205238Y-131960952D01*
X187252857Y-132056190D01*
X187300476Y-132103809D01*
X187395714Y-132151428D01*
X187586190Y-132151428D01*
X187681428Y-132103809D01*
X187729047Y-132056190D01*
X187776666Y-131960952D01*
%TO.C,C4*%
X178653333Y-44397142D02*
X178605714Y-44444761D01*
X178462857Y-44492380D01*
X178367619Y-44492380D01*
X178224761Y-44444761D01*
X178129523Y-44349523D01*
X178081904Y-44254285D01*
X178034285Y-44063809D01*
X178034285Y-43920952D01*
X178081904Y-43730476D01*
X178129523Y-43635238D01*
X178224761Y-43540000D01*
X178367619Y-43492380D01*
X178462857Y-43492380D01*
X178605714Y-43540000D01*
X178653333Y-43587619D01*
X179510476Y-43825714D02*
X179510476Y-44492380D01*
X179272380Y-43444761D02*
X179034285Y-44159047D01*
X179653333Y-44159047D01*
%TO.C,R100*%
X102150952Y-51812380D02*
X101817619Y-51336190D01*
X101579523Y-51812380D02*
X101579523Y-50812380D01*
X101960476Y-50812380D01*
X102055714Y-50860000D01*
X102103333Y-50907619D01*
X102150952Y-51002857D01*
X102150952Y-51145714D01*
X102103333Y-51240952D01*
X102055714Y-51288571D01*
X101960476Y-51336190D01*
X101579523Y-51336190D01*
X103103333Y-51812380D02*
X102531904Y-51812380D01*
X102817619Y-51812380D02*
X102817619Y-50812380D01*
X102722380Y-50955238D01*
X102627142Y-51050476D01*
X102531904Y-51098095D01*
X103722380Y-50812380D02*
X103817619Y-50812380D01*
X103912857Y-50860000D01*
X103960476Y-50907619D01*
X104008095Y-51002857D01*
X104055714Y-51193333D01*
X104055714Y-51431428D01*
X104008095Y-51621904D01*
X103960476Y-51717142D01*
X103912857Y-51764761D01*
X103817619Y-51812380D01*
X103722380Y-51812380D01*
X103627142Y-51764761D01*
X103579523Y-51717142D01*
X103531904Y-51621904D01*
X103484285Y-51431428D01*
X103484285Y-51193333D01*
X103531904Y-51002857D01*
X103579523Y-50907619D01*
X103627142Y-50860000D01*
X103722380Y-50812380D01*
X104674761Y-50812380D02*
X104770000Y-50812380D01*
X104865238Y-50860000D01*
X104912857Y-50907619D01*
X104960476Y-51002857D01*
X105008095Y-51193333D01*
X105008095Y-51431428D01*
X104960476Y-51621904D01*
X104912857Y-51717142D01*
X104865238Y-51764761D01*
X104770000Y-51812380D01*
X104674761Y-51812380D01*
X104579523Y-51764761D01*
X104531904Y-51717142D01*
X104484285Y-51621904D01*
X104436666Y-51431428D01*
X104436666Y-51193333D01*
X104484285Y-51002857D01*
X104531904Y-50907619D01*
X104579523Y-50860000D01*
X104674761Y-50812380D01*
%TO.C,R47*%
X109597142Y-144492380D02*
X109263809Y-144016190D01*
X109025714Y-144492380D02*
X109025714Y-143492380D01*
X109406666Y-143492380D01*
X109501904Y-143540000D01*
X109549523Y-143587619D01*
X109597142Y-143682857D01*
X109597142Y-143825714D01*
X109549523Y-143920952D01*
X109501904Y-143968571D01*
X109406666Y-144016190D01*
X109025714Y-144016190D01*
X110454285Y-143825714D02*
X110454285Y-144492380D01*
X110216190Y-143444761D02*
X109978095Y-144159047D01*
X110597142Y-144159047D01*
X110882857Y-143492380D02*
X111549523Y-143492380D01*
X111120952Y-144492380D01*
%TO.C,R49*%
X109597142Y-134332380D02*
X109263809Y-133856190D01*
X109025714Y-134332380D02*
X109025714Y-133332380D01*
X109406666Y-133332380D01*
X109501904Y-133380000D01*
X109549523Y-133427619D01*
X109597142Y-133522857D01*
X109597142Y-133665714D01*
X109549523Y-133760952D01*
X109501904Y-133808571D01*
X109406666Y-133856190D01*
X109025714Y-133856190D01*
X110454285Y-133665714D02*
X110454285Y-134332380D01*
X110216190Y-133284761D02*
X109978095Y-133999047D01*
X110597142Y-133999047D01*
X111025714Y-134332380D02*
X111216190Y-134332380D01*
X111311428Y-134284761D01*
X111359047Y-134237142D01*
X111454285Y-134094285D01*
X111501904Y-133903809D01*
X111501904Y-133522857D01*
X111454285Y-133427619D01*
X111406666Y-133380000D01*
X111311428Y-133332380D01*
X111120952Y-133332380D01*
X111025714Y-133380000D01*
X110978095Y-133427619D01*
X110930476Y-133522857D01*
X110930476Y-133760952D01*
X110978095Y-133856190D01*
X111025714Y-133903809D01*
X111120952Y-133951428D01*
X111311428Y-133951428D01*
X111406666Y-133903809D01*
X111454285Y-133856190D01*
X111501904Y-133760952D01*
%TO.C,R86*%
X68497142Y-63752380D02*
X68163809Y-63276190D01*
X67925714Y-63752380D02*
X67925714Y-62752380D01*
X68306666Y-62752380D01*
X68401904Y-62800000D01*
X68449523Y-62847619D01*
X68497142Y-62942857D01*
X68497142Y-63085714D01*
X68449523Y-63180952D01*
X68401904Y-63228571D01*
X68306666Y-63276190D01*
X67925714Y-63276190D01*
X69068571Y-63180952D02*
X68973333Y-63133333D01*
X68925714Y-63085714D01*
X68878095Y-62990476D01*
X68878095Y-62942857D01*
X68925714Y-62847619D01*
X68973333Y-62800000D01*
X69068571Y-62752380D01*
X69259047Y-62752380D01*
X69354285Y-62800000D01*
X69401904Y-62847619D01*
X69449523Y-62942857D01*
X69449523Y-62990476D01*
X69401904Y-63085714D01*
X69354285Y-63133333D01*
X69259047Y-63180952D01*
X69068571Y-63180952D01*
X68973333Y-63228571D01*
X68925714Y-63276190D01*
X68878095Y-63371428D01*
X68878095Y-63561904D01*
X68925714Y-63657142D01*
X68973333Y-63704761D01*
X69068571Y-63752380D01*
X69259047Y-63752380D01*
X69354285Y-63704761D01*
X69401904Y-63657142D01*
X69449523Y-63561904D01*
X69449523Y-63371428D01*
X69401904Y-63276190D01*
X69354285Y-63228571D01*
X69259047Y-63180952D01*
X70306666Y-62752380D02*
X70116190Y-62752380D01*
X70020952Y-62800000D01*
X69973333Y-62847619D01*
X69878095Y-62990476D01*
X69830476Y-63180952D01*
X69830476Y-63561904D01*
X69878095Y-63657142D01*
X69925714Y-63704761D01*
X70020952Y-63752380D01*
X70211428Y-63752380D01*
X70306666Y-63704761D01*
X70354285Y-63657142D01*
X70401904Y-63561904D01*
X70401904Y-63323809D01*
X70354285Y-63228571D01*
X70306666Y-63180952D01*
X70211428Y-63133333D01*
X70020952Y-63133333D01*
X69925714Y-63180952D01*
X69878095Y-63228571D01*
X69830476Y-63323809D01*
%TO.C,R1*%
X218032380Y-137526666D02*
X217556190Y-137860000D01*
X218032380Y-138098095D02*
X217032380Y-138098095D01*
X217032380Y-137717142D01*
X217080000Y-137621904D01*
X217127619Y-137574285D01*
X217222857Y-137526666D01*
X217365714Y-137526666D01*
X217460952Y-137574285D01*
X217508571Y-137621904D01*
X217556190Y-137717142D01*
X217556190Y-138098095D01*
X218032380Y-136574285D02*
X218032380Y-137145714D01*
X218032380Y-136860000D02*
X217032380Y-136860000D01*
X217175238Y-136955238D01*
X217270476Y-137050476D01*
X217318095Y-137145714D01*
%TO.C,R104*%
X102150952Y-31482380D02*
X101817619Y-31006190D01*
X101579523Y-31482380D02*
X101579523Y-30482380D01*
X101960476Y-30482380D01*
X102055714Y-30530000D01*
X102103333Y-30577619D01*
X102150952Y-30672857D01*
X102150952Y-30815714D01*
X102103333Y-30910952D01*
X102055714Y-30958571D01*
X101960476Y-31006190D01*
X101579523Y-31006190D01*
X103103333Y-31482380D02*
X102531904Y-31482380D01*
X102817619Y-31482380D02*
X102817619Y-30482380D01*
X102722380Y-30625238D01*
X102627142Y-30720476D01*
X102531904Y-30768095D01*
X103722380Y-30482380D02*
X103817619Y-30482380D01*
X103912857Y-30530000D01*
X103960476Y-30577619D01*
X104008095Y-30672857D01*
X104055714Y-30863333D01*
X104055714Y-31101428D01*
X104008095Y-31291904D01*
X103960476Y-31387142D01*
X103912857Y-31434761D01*
X103817619Y-31482380D01*
X103722380Y-31482380D01*
X103627142Y-31434761D01*
X103579523Y-31387142D01*
X103531904Y-31291904D01*
X103484285Y-31101428D01*
X103484285Y-30863333D01*
X103531904Y-30672857D01*
X103579523Y-30577619D01*
X103627142Y-30530000D01*
X103722380Y-30482380D01*
X104912857Y-30815714D02*
X104912857Y-31482380D01*
X104674761Y-30434761D02*
X104436666Y-31149047D01*
X105055714Y-31149047D01*
%TO.C,H3*%
X80648095Y-26262380D02*
X80648095Y-25262380D01*
X80648095Y-25738571D02*
X81219523Y-25738571D01*
X81219523Y-26262380D02*
X81219523Y-25262380D01*
X81600476Y-25262380D02*
X82219523Y-25262380D01*
X81886190Y-25643333D01*
X82029047Y-25643333D01*
X82124285Y-25690952D01*
X82171904Y-25738571D01*
X82219523Y-25833809D01*
X82219523Y-26071904D01*
X82171904Y-26167142D01*
X82124285Y-26214761D01*
X82029047Y-26262380D01*
X81743333Y-26262380D01*
X81648095Y-26214761D01*
X81600476Y-26167142D01*
%TO.C,R44*%
X76447142Y-100753380D02*
X76113809Y-100277190D01*
X75875714Y-100753380D02*
X75875714Y-99753380D01*
X76256666Y-99753380D01*
X76351904Y-99801000D01*
X76399523Y-99848619D01*
X76447142Y-99943857D01*
X76447142Y-100086714D01*
X76399523Y-100181952D01*
X76351904Y-100229571D01*
X76256666Y-100277190D01*
X75875714Y-100277190D01*
X77304285Y-100086714D02*
X77304285Y-100753380D01*
X77066190Y-99705761D02*
X76828095Y-100420047D01*
X77447142Y-100420047D01*
X78256666Y-100086714D02*
X78256666Y-100753380D01*
X78018571Y-99705761D02*
X77780476Y-100420047D01*
X78399523Y-100420047D01*
%TO.C,R101*%
X102150952Y-46742380D02*
X101817619Y-46266190D01*
X101579523Y-46742380D02*
X101579523Y-45742380D01*
X101960476Y-45742380D01*
X102055714Y-45790000D01*
X102103333Y-45837619D01*
X102150952Y-45932857D01*
X102150952Y-46075714D01*
X102103333Y-46170952D01*
X102055714Y-46218571D01*
X101960476Y-46266190D01*
X101579523Y-46266190D01*
X103103333Y-46742380D02*
X102531904Y-46742380D01*
X102817619Y-46742380D02*
X102817619Y-45742380D01*
X102722380Y-45885238D01*
X102627142Y-45980476D01*
X102531904Y-46028095D01*
X103722380Y-45742380D02*
X103817619Y-45742380D01*
X103912857Y-45790000D01*
X103960476Y-45837619D01*
X104008095Y-45932857D01*
X104055714Y-46123333D01*
X104055714Y-46361428D01*
X104008095Y-46551904D01*
X103960476Y-46647142D01*
X103912857Y-46694761D01*
X103817619Y-46742380D01*
X103722380Y-46742380D01*
X103627142Y-46694761D01*
X103579523Y-46647142D01*
X103531904Y-46551904D01*
X103484285Y-46361428D01*
X103484285Y-46123333D01*
X103531904Y-45932857D01*
X103579523Y-45837619D01*
X103627142Y-45790000D01*
X103722380Y-45742380D01*
X105008095Y-46742380D02*
X104436666Y-46742380D01*
X104722380Y-46742380D02*
X104722380Y-45742380D01*
X104627142Y-45885238D01*
X104531904Y-45980476D01*
X104436666Y-46028095D01*
%TO.C,R89*%
X110397142Y-51842380D02*
X110063809Y-51366190D01*
X109825714Y-51842380D02*
X109825714Y-50842380D01*
X110206666Y-50842380D01*
X110301904Y-50890000D01*
X110349523Y-50937619D01*
X110397142Y-51032857D01*
X110397142Y-51175714D01*
X110349523Y-51270952D01*
X110301904Y-51318571D01*
X110206666Y-51366190D01*
X109825714Y-51366190D01*
X110968571Y-51270952D02*
X110873333Y-51223333D01*
X110825714Y-51175714D01*
X110778095Y-51080476D01*
X110778095Y-51032857D01*
X110825714Y-50937619D01*
X110873333Y-50890000D01*
X110968571Y-50842380D01*
X111159047Y-50842380D01*
X111254285Y-50890000D01*
X111301904Y-50937619D01*
X111349523Y-51032857D01*
X111349523Y-51080476D01*
X111301904Y-51175714D01*
X111254285Y-51223333D01*
X111159047Y-51270952D01*
X110968571Y-51270952D01*
X110873333Y-51318571D01*
X110825714Y-51366190D01*
X110778095Y-51461428D01*
X110778095Y-51651904D01*
X110825714Y-51747142D01*
X110873333Y-51794761D01*
X110968571Y-51842380D01*
X111159047Y-51842380D01*
X111254285Y-51794761D01*
X111301904Y-51747142D01*
X111349523Y-51651904D01*
X111349523Y-51461428D01*
X111301904Y-51366190D01*
X111254285Y-51318571D01*
X111159047Y-51270952D01*
X111825714Y-51842380D02*
X112016190Y-51842380D01*
X112111428Y-51794761D01*
X112159047Y-51747142D01*
X112254285Y-51604285D01*
X112301904Y-51413809D01*
X112301904Y-51032857D01*
X112254285Y-50937619D01*
X112206666Y-50890000D01*
X112111428Y-50842380D01*
X111920952Y-50842380D01*
X111825714Y-50890000D01*
X111778095Y-50937619D01*
X111730476Y-51032857D01*
X111730476Y-51270952D01*
X111778095Y-51366190D01*
X111825714Y-51413809D01*
X111920952Y-51461428D01*
X112111428Y-51461428D01*
X112206666Y-51413809D01*
X112254285Y-51366190D01*
X112301904Y-51270952D01*
%TO.C,R56*%
X69107142Y-95656580D02*
X68773809Y-95180390D01*
X68535714Y-95656580D02*
X68535714Y-94656580D01*
X68916666Y-94656580D01*
X69011904Y-94704200D01*
X69059523Y-94751819D01*
X69107142Y-94847057D01*
X69107142Y-94989914D01*
X69059523Y-95085152D01*
X69011904Y-95132771D01*
X68916666Y-95180390D01*
X68535714Y-95180390D01*
X70011904Y-94656580D02*
X69535714Y-94656580D01*
X69488095Y-95132771D01*
X69535714Y-95085152D01*
X69630952Y-95037533D01*
X69869047Y-95037533D01*
X69964285Y-95085152D01*
X70011904Y-95132771D01*
X70059523Y-95228009D01*
X70059523Y-95466104D01*
X70011904Y-95561342D01*
X69964285Y-95608961D01*
X69869047Y-95656580D01*
X69630952Y-95656580D01*
X69535714Y-95608961D01*
X69488095Y-95561342D01*
X70916666Y-94656580D02*
X70726190Y-94656580D01*
X70630952Y-94704200D01*
X70583333Y-94751819D01*
X70488095Y-94894676D01*
X70440476Y-95085152D01*
X70440476Y-95466104D01*
X70488095Y-95561342D01*
X70535714Y-95608961D01*
X70630952Y-95656580D01*
X70821428Y-95656580D01*
X70916666Y-95608961D01*
X70964285Y-95561342D01*
X71011904Y-95466104D01*
X71011904Y-95228009D01*
X70964285Y-95132771D01*
X70916666Y-95085152D01*
X70821428Y-95037533D01*
X70630952Y-95037533D01*
X70535714Y-95085152D01*
X70488095Y-95132771D01*
X70440476Y-95228009D01*
%TO.C,C6*%
X175153333Y-65757142D02*
X175105714Y-65804761D01*
X174962857Y-65852380D01*
X174867619Y-65852380D01*
X174724761Y-65804761D01*
X174629523Y-65709523D01*
X174581904Y-65614285D01*
X174534285Y-65423809D01*
X174534285Y-65280952D01*
X174581904Y-65090476D01*
X174629523Y-64995238D01*
X174724761Y-64900000D01*
X174867619Y-64852380D01*
X174962857Y-64852380D01*
X175105714Y-64900000D01*
X175153333Y-64947619D01*
X176010476Y-64852380D02*
X175820000Y-64852380D01*
X175724761Y-64900000D01*
X175677142Y-64947619D01*
X175581904Y-65090476D01*
X175534285Y-65280952D01*
X175534285Y-65661904D01*
X175581904Y-65757142D01*
X175629523Y-65804761D01*
X175724761Y-65852380D01*
X175915238Y-65852380D01*
X176010476Y-65804761D01*
X176058095Y-65757142D01*
X176105714Y-65661904D01*
X176105714Y-65423809D01*
X176058095Y-65328571D01*
X176010476Y-65280952D01*
X175915238Y-65233333D01*
X175724761Y-65233333D01*
X175629523Y-65280952D01*
X175581904Y-65328571D01*
X175534285Y-65423809D01*
%TO.C,R105*%
X68020952Y-57122380D02*
X67687619Y-56646190D01*
X67449523Y-57122380D02*
X67449523Y-56122380D01*
X67830476Y-56122380D01*
X67925714Y-56170000D01*
X67973333Y-56217619D01*
X68020952Y-56312857D01*
X68020952Y-56455714D01*
X67973333Y-56550952D01*
X67925714Y-56598571D01*
X67830476Y-56646190D01*
X67449523Y-56646190D01*
X68973333Y-57122380D02*
X68401904Y-57122380D01*
X68687619Y-57122380D02*
X68687619Y-56122380D01*
X68592380Y-56265238D01*
X68497142Y-56360476D01*
X68401904Y-56408095D01*
X69592380Y-56122380D02*
X69687619Y-56122380D01*
X69782857Y-56170000D01*
X69830476Y-56217619D01*
X69878095Y-56312857D01*
X69925714Y-56503333D01*
X69925714Y-56741428D01*
X69878095Y-56931904D01*
X69830476Y-57027142D01*
X69782857Y-57074761D01*
X69687619Y-57122380D01*
X69592380Y-57122380D01*
X69497142Y-57074761D01*
X69449523Y-57027142D01*
X69401904Y-56931904D01*
X69354285Y-56741428D01*
X69354285Y-56503333D01*
X69401904Y-56312857D01*
X69449523Y-56217619D01*
X69497142Y-56170000D01*
X69592380Y-56122380D01*
X70830476Y-56122380D02*
X70354285Y-56122380D01*
X70306666Y-56598571D01*
X70354285Y-56550952D01*
X70449523Y-56503333D01*
X70687619Y-56503333D01*
X70782857Y-56550952D01*
X70830476Y-56598571D01*
X70878095Y-56693809D01*
X70878095Y-56931904D01*
X70830476Y-57027142D01*
X70782857Y-57074761D01*
X70687619Y-57122380D01*
X70449523Y-57122380D01*
X70354285Y-57074761D01*
X70306666Y-57027142D01*
%TO.C,R81*%
X68497142Y-89212380D02*
X68163809Y-88736190D01*
X67925714Y-89212380D02*
X67925714Y-88212380D01*
X68306666Y-88212380D01*
X68401904Y-88260000D01*
X68449523Y-88307619D01*
X68497142Y-88402857D01*
X68497142Y-88545714D01*
X68449523Y-88640952D01*
X68401904Y-88688571D01*
X68306666Y-88736190D01*
X67925714Y-88736190D01*
X69068571Y-88640952D02*
X68973333Y-88593333D01*
X68925714Y-88545714D01*
X68878095Y-88450476D01*
X68878095Y-88402857D01*
X68925714Y-88307619D01*
X68973333Y-88260000D01*
X69068571Y-88212380D01*
X69259047Y-88212380D01*
X69354285Y-88260000D01*
X69401904Y-88307619D01*
X69449523Y-88402857D01*
X69449523Y-88450476D01*
X69401904Y-88545714D01*
X69354285Y-88593333D01*
X69259047Y-88640952D01*
X69068571Y-88640952D01*
X68973333Y-88688571D01*
X68925714Y-88736190D01*
X68878095Y-88831428D01*
X68878095Y-89021904D01*
X68925714Y-89117142D01*
X68973333Y-89164761D01*
X69068571Y-89212380D01*
X69259047Y-89212380D01*
X69354285Y-89164761D01*
X69401904Y-89117142D01*
X69449523Y-89021904D01*
X69449523Y-88831428D01*
X69401904Y-88736190D01*
X69354285Y-88688571D01*
X69259047Y-88640952D01*
X70401904Y-89212380D02*
X69830476Y-89212380D01*
X70116190Y-89212380D02*
X70116190Y-88212380D01*
X70020952Y-88355238D01*
X69925714Y-88450476D01*
X69830476Y-88498095D01*
D13*
%TO.C,R19*%
X77427064Y-131459200D02*
X76972936Y-131459200D01*
X77427064Y-129989200D02*
X76972936Y-129989200D01*
%TO.C,R31*%
X70067064Y-129973200D02*
X69612936Y-129973200D01*
X70067064Y-131443200D02*
X69612936Y-131443200D01*
%TO.C,R20*%
X77427064Y-126353800D02*
X76972936Y-126353800D01*
X77427064Y-124883800D02*
X76972936Y-124883800D01*
%TO.C,R17*%
X77427064Y-140123800D02*
X76972936Y-140123800D01*
X77427064Y-141593800D02*
X76972936Y-141593800D01*
%TO.C,R32*%
X70067064Y-126337800D02*
X69612936Y-126337800D01*
X70067064Y-124867800D02*
X69612936Y-124867800D01*
%TO.C,R30*%
X70067064Y-135053200D02*
X69612936Y-135053200D01*
X70067064Y-136523200D02*
X69612936Y-136523200D01*
%TO.C,R18*%
X77427064Y-136539200D02*
X76972936Y-136539200D01*
X77427064Y-135069200D02*
X76972936Y-135069200D01*
%TO.C,R28*%
X70067064Y-146657800D02*
X69612936Y-146657800D01*
X70067064Y-145187800D02*
X69612936Y-145187800D01*
%TO.C,R16*%
X77427064Y-145203800D02*
X76972936Y-145203800D01*
X77427064Y-146673800D02*
X76972936Y-146673800D01*
%TO.C,R15*%
X77427064Y-151753800D02*
X76972936Y-151753800D01*
X77427064Y-150283800D02*
X76972936Y-150283800D01*
%TO.C,R27*%
X70067064Y-150267800D02*
X69612936Y-150267800D01*
X70067064Y-151737800D02*
X69612936Y-151737800D01*
%TO.C,R29*%
X70067064Y-140107800D02*
X69612936Y-140107800D01*
X70067064Y-141577800D02*
X69612936Y-141577800D01*
%TO.C,R46*%
X110467064Y-146755000D02*
X110012936Y-146755000D01*
X110467064Y-148225000D02*
X110012936Y-148225000D01*
%TO.C,R98*%
X77359564Y-28855000D02*
X76905436Y-28855000D01*
X77359564Y-30325000D02*
X76905436Y-30325000D01*
%TO.C,R39*%
X77317064Y-118208600D02*
X76862936Y-118208600D01*
X77317064Y-119678600D02*
X76862936Y-119678600D01*
%TO.C,J12*%
X92619000Y-71390000D02*
X93619000Y-71390000D01*
X103220000Y-111690000D02*
X103220000Y-111090000D01*
X92560000Y-111450000D02*
X102980000Y-111450000D01*
X92619000Y-78890000D02*
X92619000Y-76390000D01*
X92619000Y-106390000D02*
X93619000Y-106390000D01*
X92619000Y-68890000D02*
X93619000Y-68890000D01*
X93619000Y-71390000D02*
X93619000Y-68890000D01*
X92619000Y-108890000D02*
X92619000Y-106390000D01*
X92619000Y-83890000D02*
X93619000Y-83890000D01*
X93619000Y-86390000D02*
X93619000Y-83890000D01*
X92619000Y-71390000D02*
X92619000Y-68890000D01*
X102980000Y-111450000D02*
X102980000Y-66330000D01*
X92619000Y-101390000D02*
X92619000Y-98890000D01*
X92619000Y-91390000D02*
X93619000Y-91390000D01*
X92619000Y-76390000D02*
X93619000Y-76390000D01*
X102380000Y-111690000D02*
X103220000Y-111690000D01*
X92619000Y-86390000D02*
X92619000Y-83890000D01*
X102320000Y-111450000D02*
X102320000Y-66330000D01*
X92619000Y-101390000D02*
X93619000Y-101390000D01*
X94619000Y-111450000D02*
X94619000Y-66330000D01*
X93619000Y-101390000D02*
X93619000Y-98890000D01*
X92619000Y-108890000D02*
X93619000Y-108890000D01*
X93619000Y-93890000D02*
X93619000Y-91390000D01*
X92560000Y-66330000D02*
X102980000Y-66330000D01*
X93619000Y-78890000D02*
X93619000Y-76390000D01*
X93619000Y-108890000D02*
X93619000Y-106390000D01*
X92619000Y-78890000D02*
X93619000Y-78890000D01*
X92619000Y-86390000D02*
X93619000Y-86390000D01*
X92560000Y-111450000D02*
X92560000Y-66330000D01*
X101720000Y-111450000D02*
X101720000Y-66330000D01*
X92619000Y-98890000D02*
X93619000Y-98890000D01*
X92619000Y-93890000D02*
X93619000Y-93890000D01*
X92619000Y-93890000D02*
X92619000Y-91390000D01*
X97131000Y-109124000D02*
G75*
G03*
X98709089Y-109123953I789000J1483995D01*
G01*
X99600000Y-107640000D02*
G75*
G03*
X99403352Y-106851288I-1680000J0D01*
G01*
X99404000Y-108429000D02*
G75*
G03*
X99600450Y-107610617I-1483995J788998D01*
G01*
X98709000Y-106155999D02*
G75*
G03*
X97130911Y-106156047I-789000J-1484001D01*
G01*
X96436000Y-106851000D02*
G75*
G03*
X96436047Y-108429089I1483995J-789000D01*
G01*
X99600000Y-92640000D02*
G75*
G03*
X99600000Y-92640000I-1680000J0D01*
G01*
X99600000Y-85140000D02*
G75*
G03*
X99600000Y-85140000I-1680000J0D01*
G01*
X99600000Y-77640000D02*
G75*
G03*
X99600000Y-77640000I-1680000J0D01*
G01*
X99600000Y-70140000D02*
G75*
G03*
X99600000Y-70140000I-1680000J0D01*
G01*
X99600000Y-100140000D02*
G75*
G03*
X99600000Y-100140000I-1680000J0D01*
G01*
%TO.C,J7*%
X147800000Y-105180000D02*
X147800000Y-133180000D01*
X146470000Y-102580000D02*
X147800000Y-102580000D01*
X142600000Y-102580000D02*
X145200000Y-102580000D01*
X145200000Y-105180000D02*
X147800000Y-105180000D01*
X142600000Y-133180000D02*
X147800000Y-133180000D01*
X147800000Y-102580000D02*
X147800000Y-103910000D01*
X142600000Y-102580000D02*
X142600000Y-133180000D01*
X145200000Y-102580000D02*
X145200000Y-105180000D01*
%TO.C,R22*%
X108742064Y-78590000D02*
X107287936Y-78590000D01*
X108742064Y-76770000D02*
X107287936Y-76770000D01*
%TO.C,C1*%
X164581252Y-44285000D02*
X164058748Y-44285000D01*
X164581252Y-45755000D02*
X164058748Y-45755000D01*
%TO.C,R108*%
X69367064Y-39015000D02*
X68912936Y-39015000D01*
X69367064Y-40485000D02*
X68912936Y-40485000D01*
%TO.C,U2*%
X179810000Y-62480000D02*
X179010000Y-62480000D01*
X179810000Y-59360000D02*
X178010000Y-59360000D01*
X179810000Y-59360000D02*
X180610000Y-59360000D01*
X179810000Y-62480000D02*
X180610000Y-62480000D01*
%TO.C,R2*%
X219965000Y-50367064D02*
X219965000Y-49912936D01*
X218495000Y-50367064D02*
X218495000Y-49912936D01*
%TO.C,R97*%
X77359564Y-33975000D02*
X76905436Y-33975000D01*
X77359564Y-35445000D02*
X76905436Y-35445000D01*
%TO.C,R58*%
X102937064Y-148235000D02*
X102482936Y-148235000D01*
X102937064Y-146765000D02*
X102482936Y-146765000D01*
%TO.C,C3*%
X178558748Y-38985000D02*
X179081252Y-38985000D01*
X178558748Y-40455000D02*
X179081252Y-40455000D01*
%TO.C,R84*%
X69367064Y-72555000D02*
X68912936Y-72555000D01*
X69367064Y-71085000D02*
X68912936Y-71085000D01*
%TO.C,R109*%
X69367064Y-35455000D02*
X68912936Y-35455000D01*
X69367064Y-33985000D02*
X68912936Y-33985000D01*
%TO.C,R82*%
X69367064Y-82705000D02*
X68912936Y-82705000D01*
X69367064Y-81235000D02*
X68912936Y-81235000D01*
%TO.C,R14*%
X108742064Y-108570000D02*
X107287936Y-108570000D01*
X108742064Y-106750000D02*
X107287936Y-106750000D01*
%TO.C,R12*%
X117132064Y-93530000D02*
X115677936Y-93530000D01*
X117132064Y-91710000D02*
X115677936Y-91710000D01*
%TO.C,R70*%
X77284564Y-81205000D02*
X76830436Y-81205000D01*
X77284564Y-82675000D02*
X76830436Y-82675000D01*
%TO.C,R5*%
X192424936Y-69582000D02*
X192879064Y-69582000D01*
X192424936Y-71052000D02*
X192879064Y-71052000D01*
%TO.C,R92*%
X111267064Y-35285000D02*
X110812936Y-35285000D01*
X111267064Y-33815000D02*
X110812936Y-33815000D01*
%TO.C,J8*%
X182725000Y-140165000D02*
X182725000Y-134965000D01*
X152125000Y-140165000D02*
X152125000Y-137565000D01*
X154725000Y-134965000D02*
X182725000Y-134965000D01*
X152125000Y-136295000D02*
X152125000Y-134965000D01*
X152125000Y-134965000D02*
X153455000Y-134965000D01*
X154725000Y-137565000D02*
X154725000Y-134965000D01*
X152125000Y-140165000D02*
X182725000Y-140165000D01*
X152125000Y-137565000D02*
X154725000Y-137565000D01*
%TO.C,R11*%
X117132064Y-106750000D02*
X115677936Y-106750000D01*
X117132064Y-108570000D02*
X115677936Y-108570000D01*
%TO.C,R40*%
X110467064Y-153285000D02*
X110012936Y-153285000D01*
X110467064Y-151815000D02*
X110012936Y-151815000D01*
%TO.C,C8*%
X185055000Y-56458748D02*
X185055000Y-56981252D01*
X183585000Y-56458748D02*
X183585000Y-56981252D01*
%TO.C,C5*%
X175581252Y-55985000D02*
X175058748Y-55985000D01*
X175581252Y-57455000D02*
X175058748Y-57455000D01*
%TO.C,R64*%
X77284564Y-87815000D02*
X76830436Y-87815000D01*
X77284564Y-86345000D02*
X76830436Y-86345000D01*
%TO.C,R48*%
X110467064Y-136605000D02*
X110012936Y-136605000D01*
X110467064Y-138075000D02*
X110012936Y-138075000D01*
%TO.C,R55*%
X69977064Y-99386000D02*
X69522936Y-99386000D01*
X69977064Y-97916000D02*
X69522936Y-97916000D01*
%TO.C,R42*%
X77317064Y-108090800D02*
X76862936Y-108090800D01*
X77317064Y-109560800D02*
X76862936Y-109560800D01*
%TO.C,J16*%
X64200000Y-88590000D02*
X64200000Y-57529000D01*
X64440000Y-88830000D02*
X64440000Y-88330000D01*
X58340000Y-88590000D02*
X58340000Y-57529000D01*
X57880000Y-88590000D02*
X64200000Y-88590000D01*
X63640000Y-88590000D02*
X63640000Y-57529000D01*
X57880000Y-57529000D02*
X64200000Y-57529000D01*
X63700000Y-88830000D02*
X64440000Y-88830000D01*
X57880000Y-88590000D02*
X57880000Y-57529000D01*
%TO.C,U1*%
X173480000Y-46130000D02*
X173480000Y-44870000D01*
X169720000Y-46130000D02*
X173480000Y-46130000D01*
X173480000Y-39310000D02*
X173480000Y-40570000D01*
X167470000Y-39310000D02*
X173480000Y-39310000D01*
%TO.C,R87*%
X111267064Y-54095000D02*
X110812936Y-54095000D01*
X111267064Y-55565000D02*
X110812936Y-55565000D01*
D10*
%TO.C,J1*%
X207965500Y-125380000D02*
X207965500Y-123630000D01*
X213934500Y-125380000D02*
X213934500Y-123630000D01*
X213934500Y-143630000D02*
X213934500Y-141880000D01*
X211650000Y-143630000D02*
X213934500Y-143630000D01*
X207965500Y-141880000D02*
X207965500Y-143630000D01*
X213934500Y-123630000D02*
X211650000Y-123630000D01*
X207965500Y-123630000D02*
X208450000Y-123630000D01*
X207965500Y-143630000D02*
X208450000Y-143630000D01*
X207450000Y-142130000D02*
G75*
G03*
X207450000Y-142130000I-100000J0D01*
G01*
D13*
%TO.C,R90*%
X111267064Y-45405000D02*
X110812936Y-45405000D01*
X111267064Y-43935000D02*
X110812936Y-43935000D01*
%TO.C,R106*%
X69367064Y-49215000D02*
X68912936Y-49215000D01*
X69367064Y-50685000D02*
X68912936Y-50685000D01*
%TO.C,R21*%
X108742064Y-91710000D02*
X107287936Y-91710000D01*
X108742064Y-93530000D02*
X107287936Y-93530000D01*
%TO.C,R3*%
X218495000Y-93977064D02*
X218495000Y-93522936D01*
X219965000Y-93977064D02*
X219965000Y-93522936D01*
%TO.C,R94*%
X77359564Y-50675000D02*
X76905436Y-50675000D01*
X77359564Y-49205000D02*
X76905436Y-49205000D01*
%TO.C,J10*%
X152185000Y-93055000D02*
X180185000Y-93055000D01*
X149585000Y-95655000D02*
X152185000Y-95655000D01*
X149585000Y-98255000D02*
X149585000Y-95655000D01*
X180185000Y-98255000D02*
X180185000Y-93055000D01*
X149585000Y-98255000D02*
X180185000Y-98255000D01*
X149585000Y-94385000D02*
X149585000Y-93055000D01*
X152185000Y-95655000D02*
X152185000Y-93055000D01*
X149585000Y-93055000D02*
X150915000Y-93055000D01*
%TO.C,J13*%
X57870000Y-120530000D02*
X57870000Y-89469000D01*
X63690000Y-120770000D02*
X64430000Y-120770000D01*
X64190000Y-120530000D02*
X64190000Y-89469000D01*
X58330000Y-120530000D02*
X58330000Y-89469000D01*
X64430000Y-120770000D02*
X64430000Y-120270000D01*
X63630000Y-120530000D02*
X63630000Y-89469000D01*
X57870000Y-120530000D02*
X64190000Y-120530000D01*
X57870000Y-89469000D02*
X64190000Y-89469000D01*
%TO.C,TP1*%
X191800000Y-48930000D02*
G75*
G03*
X191800000Y-48930000I-1450000J0D01*
G01*
%TO.C,R59*%
X102937064Y-143135000D02*
X102482936Y-143135000D01*
X102937064Y-141665000D02*
X102482936Y-141665000D01*
%TO.C,R107*%
X69367064Y-44115000D02*
X68912936Y-44115000D01*
X69367064Y-45585000D02*
X68912936Y-45585000D01*
%TO.C,R23*%
X137694564Y-95655000D02*
X137240436Y-95655000D01*
X137694564Y-94185000D02*
X137240436Y-94185000D01*
%TO.C,R103*%
X103497064Y-33785000D02*
X103042936Y-33785000D01*
X103497064Y-35255000D02*
X103042936Y-35255000D01*
%TO.C,R54*%
X69977064Y-104468400D02*
X69522936Y-104468400D01*
X69977064Y-102998400D02*
X69522936Y-102998400D01*
%TO.C,C2*%
X164581252Y-39755000D02*
X164058748Y-39755000D01*
X164581252Y-38285000D02*
X164058748Y-38285000D01*
%TO.C,R57*%
X102937064Y-153295000D02*
X102482936Y-153295000D01*
X102937064Y-151825000D02*
X102482936Y-151825000D01*
%TO.C,R8*%
X124842064Y-108395000D02*
X124387936Y-108395000D01*
X124842064Y-106925000D02*
X124387936Y-106925000D01*
%TO.C,J11*%
X63682500Y-152801000D02*
X64422500Y-152801000D01*
X58322500Y-152561000D02*
X58322500Y-121500000D01*
X57862500Y-121500000D02*
X64182500Y-121500000D01*
X63622500Y-152561000D02*
X63622500Y-121500000D01*
X57862500Y-152561000D02*
X64182500Y-152561000D01*
X64422500Y-152801000D02*
X64422500Y-152301000D01*
X57862500Y-152561000D02*
X57862500Y-121500000D01*
X64182500Y-152561000D02*
X64182500Y-121500000D01*
%TO.C,R60*%
X102937064Y-136615000D02*
X102482936Y-136615000D01*
X102937064Y-138085000D02*
X102482936Y-138085000D01*
%TO.C,R85*%
X69367064Y-66005000D02*
X68912936Y-66005000D01*
X69367064Y-67475000D02*
X68912936Y-67475000D01*
%TO.C,R50*%
X110467064Y-126425000D02*
X110012936Y-126425000D01*
X110467064Y-127895000D02*
X110012936Y-127895000D01*
%TO.C,R62*%
X102937064Y-127905000D02*
X102482936Y-127905000D01*
X102937064Y-126435000D02*
X102482936Y-126435000D01*
%TO.C,R6*%
X185538464Y-71052000D02*
X185084336Y-71052000D01*
X185538464Y-69582000D02*
X185084336Y-69582000D01*
%TO.C,R99*%
X103497064Y-54065000D02*
X103042936Y-54065000D01*
X103497064Y-55535000D02*
X103042936Y-55535000D01*
%TO.C,R13*%
X117132064Y-78590000D02*
X115677936Y-78590000D01*
X117132064Y-76770000D02*
X115677936Y-76770000D01*
%TO.C,R61*%
X102937064Y-132975000D02*
X102482936Y-132975000D01*
X102937064Y-131505000D02*
X102482936Y-131505000D01*
%TO.C,R95*%
X77359564Y-44105000D02*
X76905436Y-44105000D01*
X77359564Y-45575000D02*
X76905436Y-45575000D01*
%TO.C,R71*%
X77284564Y-77605000D02*
X76830436Y-77605000D01*
X77284564Y-76135000D02*
X76830436Y-76135000D01*
%TO.C,R53*%
X69977064Y-108090800D02*
X69522936Y-108090800D01*
X69977064Y-109560800D02*
X69522936Y-109560800D01*
%TO.C,J18*%
X63650000Y-56590000D02*
X63650000Y-25529000D01*
X64210000Y-56590000D02*
X64210000Y-25529000D01*
X58350000Y-56590000D02*
X58350000Y-25529000D01*
X63710000Y-56830000D02*
X64450000Y-56830000D01*
X57890000Y-56590000D02*
X64210000Y-56590000D01*
X57890000Y-56590000D02*
X57890000Y-25529000D01*
X57890000Y-25529000D02*
X64210000Y-25529000D01*
X64450000Y-56830000D02*
X64450000Y-56330000D01*
D10*
%TO.C,J4*%
X237965500Y-38180000D02*
X237965500Y-36430000D01*
X237965500Y-56430000D02*
X238450000Y-56430000D01*
X243934500Y-56430000D02*
X243934500Y-54680000D01*
X241650000Y-56430000D02*
X243934500Y-56430000D01*
X237965500Y-36430000D02*
X238450000Y-36430000D01*
X237965500Y-54680000D02*
X237965500Y-56430000D01*
X243934500Y-38180000D02*
X243934500Y-36430000D01*
X243934500Y-36430000D02*
X241650000Y-36430000D01*
X237450000Y-54930000D02*
G75*
G03*
X237450000Y-54930000I-100000J0D01*
G01*
D13*
%TO.C,R91*%
X111267064Y-38825000D02*
X110812936Y-38825000D01*
X111267064Y-40295000D02*
X110812936Y-40295000D01*
%TO.C,R73*%
X77284564Y-67445000D02*
X76830436Y-67445000D01*
X77284564Y-65975000D02*
X76830436Y-65975000D01*
%TO.C,R93*%
X111267064Y-28675000D02*
X110812936Y-28675000D01*
X111267064Y-30145000D02*
X110812936Y-30145000D01*
%TO.C,R43*%
X77317064Y-104468400D02*
X76862936Y-104468400D01*
X77317064Y-102998400D02*
X76862936Y-102998400D01*
%TO.C,R10*%
X124842064Y-78415000D02*
X124387936Y-78415000D01*
X124842064Y-76945000D02*
X124387936Y-76945000D01*
%TO.C,R45*%
X77317064Y-92819200D02*
X76862936Y-92819200D01*
X77317064Y-94289200D02*
X76862936Y-94289200D01*
%TO.C,R102*%
X103497064Y-38795000D02*
X103042936Y-38795000D01*
X103497064Y-40265000D02*
X103042936Y-40265000D01*
%TO.C,J14*%
X89760000Y-154130000D02*
X96080000Y-154130000D01*
X89760000Y-123069000D02*
X96080000Y-123069000D01*
X90220000Y-154130000D02*
X90220000Y-123069000D01*
X96320000Y-154370000D02*
X96320000Y-153870000D01*
X95520000Y-154130000D02*
X95520000Y-123069000D01*
X89760000Y-154130000D02*
X89760000Y-123069000D01*
X96080000Y-154130000D02*
X96080000Y-123069000D01*
X95580000Y-154370000D02*
X96320000Y-154370000D01*
%TO.C,J17*%
X90220000Y-56360000D02*
X90220000Y-25299000D01*
X89760000Y-56360000D02*
X89760000Y-25299000D01*
X95520000Y-56360000D02*
X95520000Y-25299000D01*
X89760000Y-25299000D02*
X96080000Y-25299000D01*
X96080000Y-56360000D02*
X96080000Y-25299000D01*
X95580000Y-56600000D02*
X96320000Y-56600000D01*
X96320000Y-56600000D02*
X96320000Y-56100000D01*
X89760000Y-56360000D02*
X96080000Y-56360000D01*
%TO.C,R110*%
X69367064Y-30335000D02*
X68912936Y-30335000D01*
X69367064Y-28865000D02*
X68912936Y-28865000D01*
%TO.C,R96*%
X77359564Y-39005000D02*
X76905436Y-39005000D01*
X77359564Y-40475000D02*
X76905436Y-40475000D01*
D10*
%TO.C,J5*%
X211650000Y-100030000D02*
X213934500Y-100030000D01*
X213934500Y-100030000D02*
X213934500Y-98280000D01*
X207965500Y-98280000D02*
X207965500Y-100030000D01*
X213934500Y-80030000D02*
X211650000Y-80030000D01*
X213934500Y-81780000D02*
X213934500Y-80030000D01*
X207965500Y-80030000D02*
X208450000Y-80030000D01*
X207965500Y-81780000D02*
X207965500Y-80030000D01*
X207965500Y-100030000D02*
X208450000Y-100030000D01*
X207450000Y-98530000D02*
G75*
G03*
X207450000Y-98530000I-100000J0D01*
G01*
%TO.C,J6*%
X243934500Y-100030000D02*
X243934500Y-98280000D01*
X243934500Y-80030000D02*
X241650000Y-80030000D01*
X237965500Y-98280000D02*
X237965500Y-100030000D01*
X237965500Y-100030000D02*
X238450000Y-100030000D01*
X237965500Y-81780000D02*
X237965500Y-80030000D01*
X243934500Y-81780000D02*
X243934500Y-80030000D01*
X241650000Y-100030000D02*
X243934500Y-100030000D01*
X237965500Y-80030000D02*
X238450000Y-80030000D01*
X237450000Y-98530000D02*
G75*
G03*
X237450000Y-98530000I-100000J0D01*
G01*
D13*
%TO.C,R9*%
X124842064Y-93355000D02*
X124387936Y-93355000D01*
X124842064Y-91885000D02*
X124387936Y-91885000D01*
%TO.C,R74*%
X77284564Y-60885000D02*
X76830436Y-60885000D01*
X77284564Y-62355000D02*
X76830436Y-62355000D01*
%TO.C,R41*%
X77317064Y-114624000D02*
X76862936Y-114624000D01*
X77317064Y-113154000D02*
X76862936Y-113154000D01*
%TO.C,R51*%
X69977064Y-118208600D02*
X69522936Y-118208600D01*
X69977064Y-119678600D02*
X69522936Y-119678600D01*
D10*
%TO.C,J2*%
X213934500Y-36430000D02*
X211650000Y-36430000D01*
X213934500Y-56430000D02*
X213934500Y-54680000D01*
X207965500Y-54680000D02*
X207965500Y-56430000D01*
X213934500Y-38180000D02*
X213934500Y-36430000D01*
X207965500Y-38180000D02*
X207965500Y-36430000D01*
X207965500Y-36430000D02*
X208450000Y-36430000D01*
X211650000Y-56430000D02*
X213934500Y-56430000D01*
X207965500Y-56430000D02*
X208450000Y-56430000D01*
X207450000Y-54930000D02*
G75*
G03*
X207450000Y-54930000I-100000J0D01*
G01*
D13*
%TO.C,R52*%
X69977064Y-113154000D02*
X69522936Y-113154000D01*
X69977064Y-114624000D02*
X69522936Y-114624000D01*
D10*
%TO.C,J3*%
X243934500Y-125380000D02*
X243934500Y-123630000D01*
X237965500Y-125380000D02*
X237965500Y-123630000D01*
X243934500Y-123630000D02*
X241650000Y-123630000D01*
X237965500Y-141880000D02*
X237965500Y-143630000D01*
X237965500Y-123630000D02*
X238450000Y-123630000D01*
X243934500Y-143630000D02*
X243934500Y-141880000D01*
X237965500Y-143630000D02*
X238450000Y-143630000D01*
X241650000Y-143630000D02*
X243934500Y-143630000D01*
X237450000Y-142130000D02*
G75*
G03*
X237450000Y-142130000I-100000J0D01*
G01*
D13*
%TO.C,R7*%
X192424936Y-60082400D02*
X192879064Y-60082400D01*
X192424936Y-61552400D02*
X192879064Y-61552400D01*
%TO.C,R83*%
X69367064Y-77635000D02*
X68912936Y-77635000D01*
X69367064Y-76165000D02*
X68912936Y-76165000D01*
%TO.C,R88*%
X77359564Y-55745000D02*
X76905436Y-55745000D01*
X77359564Y-54275000D02*
X76905436Y-54275000D01*
%TO.C,R72*%
X77284564Y-72525000D02*
X76830436Y-72525000D01*
X77284564Y-71055000D02*
X76830436Y-71055000D01*
%TO.C,R4*%
X185084336Y-61552400D02*
X185538464Y-61552400D01*
X185084336Y-60082400D02*
X185538464Y-60082400D01*
%TO.C,J9*%
X189710000Y-100040000D02*
X184510000Y-100040000D01*
X189710000Y-130640000D02*
X187110000Y-130640000D01*
X185840000Y-130640000D02*
X184510000Y-130640000D01*
X189710000Y-130640000D02*
X189710000Y-100040000D01*
X187110000Y-130640000D02*
X187110000Y-128040000D01*
X184510000Y-128040000D02*
X184510000Y-100040000D01*
X187110000Y-128040000D02*
X184510000Y-128040000D01*
X184510000Y-130640000D02*
X184510000Y-129310000D01*
%TO.C,C4*%
X178558748Y-46455000D02*
X179081252Y-46455000D01*
X178558748Y-44985000D02*
X179081252Y-44985000D01*
%TO.C,R100*%
X103497064Y-48975000D02*
X103042936Y-48975000D01*
X103497064Y-50445000D02*
X103042936Y-50445000D01*
%TO.C,R47*%
X110467064Y-141655000D02*
X110012936Y-141655000D01*
X110467064Y-143125000D02*
X110012936Y-143125000D01*
%TO.C,R49*%
X110467064Y-131495000D02*
X110012936Y-131495000D01*
X110467064Y-132965000D02*
X110012936Y-132965000D01*
%TO.C,R86*%
X69367064Y-62385000D02*
X68912936Y-62385000D01*
X69367064Y-60915000D02*
X68912936Y-60915000D01*
%TO.C,R1*%
X219965000Y-137587064D02*
X219965000Y-137132936D01*
X218495000Y-137587064D02*
X218495000Y-137132936D01*
%TO.C,R104*%
X103497064Y-30115000D02*
X103042936Y-30115000D01*
X103497064Y-28645000D02*
X103042936Y-28645000D01*
%TO.C,R44*%
X77317064Y-97916000D02*
X76862936Y-97916000D01*
X77317064Y-99386000D02*
X76862936Y-99386000D01*
%TO.C,R101*%
X103497064Y-45375000D02*
X103042936Y-45375000D01*
X103497064Y-43905000D02*
X103042936Y-43905000D01*
%TO.C,R89*%
X111267064Y-49005000D02*
X110812936Y-49005000D01*
X111267064Y-50475000D02*
X110812936Y-50475000D01*
%TO.C,R56*%
X69977064Y-94289200D02*
X69522936Y-94289200D01*
X69977064Y-92819200D02*
X69522936Y-92819200D01*
%TO.C,C6*%
X175581252Y-62985000D02*
X175058748Y-62985000D01*
X175581252Y-64455000D02*
X175058748Y-64455000D01*
%TO.C,R105*%
X69367064Y-54285000D02*
X68912936Y-54285000D01*
X69367064Y-55755000D02*
X68912936Y-55755000D01*
%TO.C,R81*%
X69367064Y-87845000D02*
X68912936Y-87845000D01*
X69367064Y-86375000D02*
X68912936Y-86375000D01*
%TD*%
M02*
