%TF.GenerationSoftware,KiCad,Pcbnew,(6.0.11-0)*%
%TF.CreationDate,2023-06-11T17:05:38-04:00*%
%TF.ProjectId,Mux64,4d757836-342e-46b6-9963-61645f706362,rev?*%
%TF.SameCoordinates,Original*%
%TF.FileFunction,Copper,L4,Bot*%
%TF.FilePolarity,Positive*%
%FSLAX46Y46*%
G04 Gerber Fmt 4.6, Leading zero omitted, Abs format (unit mm)*
G04 Created by KiCad (PCBNEW (6.0.11-0)) date 2023-06-11 17:05:38*
%MOMM*%
%LPD*%
G01*
G04 APERTURE LIST*
G04 Aperture macros list*
%AMRoundRect*
0 Rectangle with rounded corners*
0 $1 Rounding radius*
0 $2 $3 $4 $5 $6 $7 $8 $9 X,Y pos of 4 corners*
0 Add a 4 corners polygon primitive as box body*
4,1,4,$2,$3,$4,$5,$6,$7,$8,$9,$2,$3,0*
0 Add four circle primitives for the rounded corners*
1,1,$1+$1,$2,$3*
1,1,$1+$1,$4,$5*
1,1,$1+$1,$6,$7*
1,1,$1+$1,$8,$9*
0 Add four rect primitives between the rounded corners*
20,1,$1+$1,$2,$3,$4,$5,0*
20,1,$1+$1,$4,$5,$6,$7,0*
20,1,$1+$1,$6,$7,$8,$9,0*
20,1,$1+$1,$8,$9,$2,$3,0*%
G04 Aperture macros list end*
%TA.AperFunction,ComponentPad*%
%ADD10R,2.500000X2.500000*%
%TD*%
%TA.AperFunction,ComponentPad*%
%ADD11C,2.500000*%
%TD*%
%TA.AperFunction,ComponentPad*%
%ADD12R,1.700000X1.700000*%
%TD*%
%TA.AperFunction,ComponentPad*%
%ADD13O,1.700000X1.700000*%
%TD*%
%TA.AperFunction,ComponentPad*%
%ADD14R,2.200000X2.200000*%
%TD*%
%TA.AperFunction,ComponentPad*%
%ADD15C,2.200000*%
%TD*%
%TA.AperFunction,WasherPad*%
%ADD16C,5.700000*%
%TD*%
%TA.AperFunction,SMDPad,CuDef*%
%ADD17RoundRect,0.250000X0.250000X0.475000X-0.250000X0.475000X-0.250000X-0.475000X0.250000X-0.475000X0*%
%TD*%
%TA.AperFunction,ViaPad*%
%ADD18C,0.800000*%
%TD*%
%TA.AperFunction,Conductor*%
%ADD19C,0.152400*%
%TD*%
%TA.AperFunction,Conductor*%
%ADD20C,0.500000*%
%TD*%
%TA.AperFunction,Conductor*%
%ADD21C,0.152000*%
%TD*%
G04 APERTURE END LIST*
D10*
%TO.P,J12,1,Pin_1*%
%TO.N,/mux64-regulators/screw-terminals/HV0*%
X97920000Y-107640000D03*
D11*
%TO.P,J12,2,Pin_2*%
%TO.N,MUX64_A11*%
X97920000Y-100140000D03*
%TO.P,J12,3,Pin_3*%
%TO.N,/mux64-regulators/screw-terminals/HV1*%
X97920000Y-92640000D03*
%TO.P,J12,4,Pin_4*%
%TO.N,MUX64_A11*%
X97920000Y-85140000D03*
%TO.P,J12,5,Pin_5*%
%TO.N,/mux64-regulators/screw-terminals/HV2*%
X97920000Y-77640000D03*
%TO.P,J12,6,Pin_6*%
%TO.N,MUX64_A11*%
X97920000Y-70140000D03*
%TD*%
D12*
%TO.P,J7,1,Pin_1*%
%TO.N,unconnected-(J7-Pad1)*%
X146470000Y-103910000D03*
D13*
%TO.P,J7,2,Pin_2*%
%TO.N,B_d5*%
X143930000Y-103910000D03*
%TO.P,J7,3,Pin_3*%
%TO.N,B_d3*%
X146470000Y-106450000D03*
%TO.P,J7,4,Pin_4*%
%TO.N,B_d4*%
X143930000Y-106450000D03*
%TO.P,J7,5,Pin_5*%
%TO.N,B_d1*%
X146470000Y-108990000D03*
%TO.P,J7,6,Pin_6*%
%TO.N,B_d2*%
X143930000Y-108990000D03*
%TO.P,J7,7,Pin_7*%
%TO.N,MUX64_A0*%
X146470000Y-111530000D03*
%TO.P,J7,8,Pin_8*%
%TO.N,B_d0*%
X143930000Y-111530000D03*
%TO.P,J7,9,Pin_9*%
%TO.N,MUX64_A2*%
X146470000Y-114070000D03*
%TO.P,J7,10,Pin_10*%
%TO.N,MUX64_A0*%
X143930000Y-114070000D03*
%TO.P,J7,11,Pin_11*%
%TO.N,MUX64_A4*%
X146470000Y-116610000D03*
%TO.P,J7,12,Pin_12*%
%TO.N,MUX64_A3*%
X143930000Y-116610000D03*
%TO.P,J7,13,Pin_13*%
%TO.N,MUX64_A6*%
X146470000Y-119150000D03*
%TO.P,J7,14,Pin_14*%
%TO.N,MUX64_A5*%
X143930000Y-119150000D03*
%TO.P,J7,15,Pin_15*%
%TO.N,MUX64_A8*%
X146470000Y-121690000D03*
%TO.P,J7,16,Pin_16*%
%TO.N,MUX64_A7*%
X143930000Y-121690000D03*
%TO.P,J7,17,Pin_17*%
%TO.N,MUX64_A10*%
X146470000Y-124230000D03*
%TO.P,J7,18,Pin_18*%
%TO.N,MUX64_A9*%
X143930000Y-124230000D03*
%TO.P,J7,19,Pin_19*%
%TO.N,MUX64_A11*%
X146470000Y-126770000D03*
%TO.P,J7,20,Pin_20*%
X143930000Y-126770000D03*
%TO.P,J7,21,Pin_21*%
%TO.N,unconnected-(J7-Pad21)*%
X146470000Y-129310000D03*
%TO.P,J7,22,Pin_22*%
%TO.N,MUX64_A11*%
X143930000Y-129310000D03*
%TO.P,J7,23,Pin_23*%
X146470000Y-131850000D03*
%TO.P,J7,24,Pin_24*%
X143930000Y-131850000D03*
%TD*%
D12*
%TO.P,J8,1,Pin_1*%
%TO.N,unconnected-(J8-Pad1)*%
X153455000Y-136295000D03*
D13*
%TO.P,J8,2,Pin_2*%
%TO.N,MUX64_A11*%
X153455000Y-138835000D03*
%TO.P,J8,3,Pin_3*%
%TO.N,MUX64_A16*%
X155995000Y-136295000D03*
%TO.P,J8,4,Pin_4*%
%TO.N,MUX64_A15*%
X155995000Y-138835000D03*
%TO.P,J8,5,Pin_5*%
%TO.N,MUX64_A18*%
X158535000Y-136295000D03*
%TO.P,J8,6,Pin_6*%
%TO.N,MUX64_A17*%
X158535000Y-138835000D03*
%TO.P,J8,7,Pin_7*%
%TO.N,MUX64_A20*%
X161075000Y-136295000D03*
%TO.P,J8,8,Pin_8*%
%TO.N,MUX64_A19*%
X161075000Y-138835000D03*
%TO.P,J8,9,Pin_9*%
%TO.N,MUX64_A22*%
X163615000Y-136295000D03*
%TO.P,J8,10,Pin_10*%
%TO.N,MUX64_A21*%
X163615000Y-138835000D03*
%TO.P,J8,11,Pin_11*%
%TO.N,MUX64_A24*%
X166155000Y-136295000D03*
%TO.P,J8,12,Pin_12*%
%TO.N,MUX64_A23*%
X166155000Y-138835000D03*
%TO.P,J8,13,Pin_13*%
%TO.N,MUX64_A26*%
X168695000Y-136295000D03*
%TO.P,J8,14,Pin_14*%
%TO.N,MUX64_A25*%
X168695000Y-138835000D03*
%TO.P,J8,15,Pin_15*%
%TO.N,MUX64_A11*%
X171235000Y-136295000D03*
%TO.P,J8,16,Pin_16*%
X171235000Y-138835000D03*
%TO.P,J8,17,Pin_17*%
%TO.N,MUX64_A30*%
X173775000Y-136295000D03*
%TO.P,J8,18,Pin_18*%
%TO.N,MUX64_A29*%
X173775000Y-138835000D03*
%TO.P,J8,19,Pin_19*%
%TO.N,MUX64_A32*%
X176315000Y-136295000D03*
%TO.P,J8,20,Pin_20*%
%TO.N,MUX64_A31*%
X176315000Y-138835000D03*
%TO.P,J8,21,Pin_21*%
%TO.N,unconnected-(J8-Pad21)*%
X178855000Y-136295000D03*
%TO.P,J8,22,Pin_22*%
%TO.N,MUX64_A33*%
X178855000Y-138835000D03*
%TO.P,J8,23,Pin_23*%
%TO.N,MUX64_A11*%
X181395000Y-136295000D03*
%TO.P,J8,24,Pin_24*%
X181395000Y-138835000D03*
%TD*%
D14*
%TO.P,J16,1,Pin_1*%
%TO.N,Net-(J16-Pad1)*%
X61040000Y-87030000D03*
D15*
%TO.P,J16,2,Pin_2*%
%TO.N,MUX64_A11*%
X61040000Y-84490000D03*
%TO.P,J16,3,Pin_3*%
%TO.N,Net-(J16-Pad3)*%
X61040000Y-81950000D03*
%TO.P,J16,4,Pin_4*%
%TO.N,MUX64_A11*%
X61040000Y-79410000D03*
%TO.P,J16,5,Pin_5*%
%TO.N,Net-(J16-Pad5)*%
X61040000Y-76870000D03*
%TO.P,J16,6,Pin_6*%
%TO.N,MUX64_A11*%
X61040000Y-74330000D03*
%TO.P,J16,7,Pin_7*%
%TO.N,Net-(J16-Pad7)*%
X61040000Y-71790000D03*
%TO.P,J16,8,Pin_8*%
%TO.N,MUX64_A11*%
X61040000Y-69250000D03*
%TO.P,J16,9,Pin_9*%
%TO.N,Net-(J16-Pad9)*%
X61040000Y-66710000D03*
%TO.P,J16,10,Pin_10*%
%TO.N,MUX64_A11*%
X61040000Y-64170000D03*
%TO.P,J16,11,Pin_11*%
%TO.N,Net-(J16-Pad11)*%
X61040000Y-61630000D03*
%TO.P,J16,12,Pin_12*%
%TO.N,MUX64_A11*%
X61040000Y-59090000D03*
%TD*%
D12*
%TO.P,J10,1,Pin_1*%
%TO.N,MUX64_A11*%
X150915000Y-94385000D03*
D13*
%TO.P,J10,2,Pin_2*%
X150915000Y-96925000D03*
%TO.P,J10,3,Pin_3*%
%TO.N,1.2V*%
X153455000Y-94385000D03*
%TO.P,J10,4,Pin_4*%
%TO.N,unconnected-(J10-Pad4)*%
X153455000Y-96925000D03*
%TO.P,J10,5,Pin_5*%
%TO.N,1.2V*%
X155995000Y-94385000D03*
%TO.P,J10,6,Pin_6*%
X155995000Y-96925000D03*
%TO.P,J10,7,Pin_7*%
X158535000Y-94385000D03*
%TO.P,J10,8,Pin_8*%
X158535000Y-96925000D03*
%TO.P,J10,9,Pin_9*%
%TO.N,MUX64_A11*%
X161075000Y-94385000D03*
%TO.P,J10,10,Pin_10*%
X161075000Y-96925000D03*
%TO.P,J10,11,Pin_11*%
X163615000Y-94385000D03*
%TO.P,J10,12,Pin_12*%
X163615000Y-96925000D03*
%TO.P,J10,13,Pin_13*%
%TO.N,B_a4*%
X166155000Y-94385000D03*
%TO.P,J10,14,Pin_14*%
%TO.N,B_a0(MUX_OUT)*%
X166155000Y-96925000D03*
%TO.P,J10,15,Pin_15*%
%TO.N,MUX64_A11*%
X168695000Y-94385000D03*
%TO.P,J10,16,Pin_16*%
X168695000Y-96925000D03*
%TO.P,J10,17,Pin_17*%
X171235000Y-94385000D03*
%TO.P,J10,18,Pin_18*%
%TO.N,MUX64_A60*%
X171235000Y-96925000D03*
%TO.P,J10,19,Pin_19*%
%TO.N,MUX64_A57*%
X173775000Y-94385000D03*
%TO.P,J10,20,Pin_20*%
%TO.N,MUX64_A58*%
X173775000Y-96925000D03*
%TO.P,J10,21,Pin_21*%
%TO.N,MUX64_A55*%
X176315000Y-94385000D03*
%TO.P,J10,22,Pin_22*%
%TO.N,MUX64_A56*%
X176315000Y-96925000D03*
%TO.P,J10,23,Pin_23*%
%TO.N,MUX64_A54*%
X178855000Y-94385000D03*
%TO.P,J10,24,Pin_24*%
%TO.N,unconnected-(J10-Pad24)*%
X178855000Y-96925000D03*
%TD*%
D14*
%TO.P,J13,1,Pin_1*%
%TO.N,Net-(J13-Pad1)*%
X61030000Y-118970000D03*
D15*
%TO.P,J13,2,Pin_2*%
%TO.N,MUX64_A11*%
X61030000Y-116430000D03*
%TO.P,J13,3,Pin_3*%
%TO.N,Net-(J13-Pad3)*%
X61030000Y-113890000D03*
%TO.P,J13,4,Pin_4*%
%TO.N,MUX64_A11*%
X61030000Y-111350000D03*
%TO.P,J13,5,Pin_5*%
%TO.N,Net-(J13-Pad5)*%
X61030000Y-108810000D03*
%TO.P,J13,6,Pin_6*%
%TO.N,MUX64_A11*%
X61030000Y-106270000D03*
%TO.P,J13,7,Pin_7*%
%TO.N,Net-(J13-Pad7)*%
X61030000Y-103730000D03*
%TO.P,J13,8,Pin_8*%
%TO.N,MUX64_A11*%
X61030000Y-101190000D03*
%TO.P,J13,9,Pin_9*%
%TO.N,Net-(J13-Pad9)*%
X61030000Y-98650000D03*
%TO.P,J13,10,Pin_10*%
%TO.N,MUX64_A11*%
X61030000Y-96110000D03*
%TO.P,J13,11,Pin_11*%
%TO.N,Net-(J13-Pad11)*%
X61030000Y-93570000D03*
%TO.P,J13,12,Pin_12*%
%TO.N,MUX64_A11*%
X61030000Y-91030000D03*
%TD*%
D16*
%TO.P,H2,*%
%TO.N,*%
X85000000Y-151680000D03*
%TD*%
D14*
%TO.P,J11,1,Pin_1*%
%TO.N,Net-(J11-Pad1)*%
X61022500Y-150901000D03*
D15*
%TO.P,J11,2,Pin_2*%
%TO.N,MUX64_A11*%
X61022500Y-148361000D03*
%TO.P,J11,3,Pin_3*%
%TO.N,Net-(J11-Pad3)*%
X61022500Y-145821000D03*
%TO.P,J11,4,Pin_4*%
%TO.N,MUX64_A11*%
X61022500Y-143281000D03*
%TO.P,J11,5,Pin_5*%
%TO.N,Net-(J11-Pad5)*%
X61022500Y-140741000D03*
%TO.P,J11,6,Pin_6*%
%TO.N,MUX64_A11*%
X61022500Y-138201000D03*
%TO.P,J11,7,Pin_7*%
%TO.N,Net-(J11-Pad7)*%
X61022500Y-135661000D03*
%TO.P,J11,8,Pin_8*%
%TO.N,MUX64_A11*%
X61022500Y-133121000D03*
%TO.P,J11,9,Pin_9*%
%TO.N,Net-(J11-Pad9)*%
X61022500Y-130581000D03*
%TO.P,J11,10,Pin_10*%
%TO.N,MUX64_A11*%
X61022500Y-128041000D03*
%TO.P,J11,11,Pin_11*%
%TO.N,Net-(J11-Pad11)*%
X61022500Y-125501000D03*
%TO.P,J11,12,Pin_12*%
%TO.N,MUX64_A11*%
X61022500Y-122961000D03*
%TD*%
D16*
%TO.P,H1,*%
%TO.N,*%
X250700000Y-151680000D03*
%TD*%
D14*
%TO.P,J18,1,Pin_1*%
%TO.N,Net-(J18-Pad1)*%
X61050000Y-55100000D03*
D15*
%TO.P,J18,2,Pin_2*%
%TO.N,MUX64_A11*%
X61050000Y-52560000D03*
%TO.P,J18,3,Pin_3*%
%TO.N,Net-(J18-Pad3)*%
X61050000Y-50020000D03*
%TO.P,J18,4,Pin_4*%
%TO.N,MUX64_A11*%
X61050000Y-47480000D03*
%TO.P,J18,5,Pin_5*%
%TO.N,Net-(J18-Pad5)*%
X61050000Y-44940000D03*
%TO.P,J18,6,Pin_6*%
%TO.N,MUX64_A11*%
X61050000Y-42400000D03*
%TO.P,J18,7,Pin_7*%
%TO.N,Net-(J18-Pad7)*%
X61050000Y-39860000D03*
%TO.P,J18,8,Pin_8*%
%TO.N,MUX64_A11*%
X61050000Y-37320000D03*
%TO.P,J18,9,Pin_9*%
%TO.N,Net-(J18-Pad9)*%
X61050000Y-34780000D03*
%TO.P,J18,10,Pin_10*%
%TO.N,MUX64_A11*%
X61050000Y-32240000D03*
%TO.P,J18,11,Pin_11*%
%TO.N,Net-(J18-Pad11)*%
X61050000Y-29700000D03*
%TO.P,J18,12,Pin_12*%
%TO.N,MUX64_A11*%
X61050000Y-27160000D03*
%TD*%
D14*
%TO.P,J14,1,Pin_1*%
%TO.N,Net-(J14-Pad1)*%
X92920000Y-152570000D03*
D15*
%TO.P,J14,2,Pin_2*%
%TO.N,MUX64_A11*%
X92920000Y-150030000D03*
%TO.P,J14,3,Pin_3*%
%TO.N,Net-(J14-Pad3)*%
X92920000Y-147490000D03*
%TO.P,J14,4,Pin_4*%
%TO.N,MUX64_A11*%
X92920000Y-144950000D03*
%TO.P,J14,5,Pin_5*%
%TO.N,Net-(J14-Pad5)*%
X92920000Y-142410000D03*
%TO.P,J14,6,Pin_6*%
%TO.N,MUX64_A11*%
X92920000Y-139870000D03*
%TO.P,J14,7,Pin_7*%
%TO.N,Net-(J14-Pad7)*%
X92920000Y-137330000D03*
%TO.P,J14,8,Pin_8*%
%TO.N,MUX64_A11*%
X92920000Y-134790000D03*
%TO.P,J14,9,Pin_9*%
%TO.N,Net-(J14-Pad9)*%
X92920000Y-132250000D03*
%TO.P,J14,10,Pin_10*%
%TO.N,MUX64_A11*%
X92920000Y-129710000D03*
%TO.P,J14,11,Pin_11*%
%TO.N,Net-(J14-Pad11)*%
X92920000Y-127170000D03*
%TO.P,J14,12,Pin_12*%
%TO.N,MUX64_A11*%
X92920000Y-124630000D03*
%TD*%
D14*
%TO.P,J17,1,Pin_1*%
%TO.N,Net-(J17-Pad1)*%
X92920000Y-54800000D03*
D15*
%TO.P,J17,2,Pin_2*%
%TO.N,MUX64_A11*%
X92920000Y-52260000D03*
%TO.P,J17,3,Pin_3*%
%TO.N,Net-(J17-Pad3)*%
X92920000Y-49720000D03*
%TO.P,J17,4,Pin_4*%
%TO.N,MUX64_A11*%
X92920000Y-47180000D03*
%TO.P,J17,5,Pin_5*%
%TO.N,Net-(J17-Pad5)*%
X92920000Y-44640000D03*
%TO.P,J17,6,Pin_6*%
%TO.N,MUX64_A11*%
X92920000Y-42100000D03*
%TO.P,J17,7,Pin_7*%
%TO.N,Net-(J17-Pad7)*%
X92920000Y-39560000D03*
%TO.P,J17,8,Pin_8*%
%TO.N,MUX64_A11*%
X92920000Y-37020000D03*
%TO.P,J17,9,Pin_9*%
%TO.N,Net-(J17-Pad9)*%
X92920000Y-34480000D03*
%TO.P,J17,10,Pin_10*%
%TO.N,MUX64_A11*%
X92920000Y-31940000D03*
%TO.P,J17,11,Pin_11*%
%TO.N,Net-(J17-Pad11)*%
X92920000Y-29400000D03*
%TO.P,J17,12,Pin_12*%
%TO.N,MUX64_A11*%
X92920000Y-26860000D03*
%TD*%
D16*
%TO.P,H4,*%
%TO.N,*%
X250700000Y-28380000D03*
%TD*%
D12*
%TO.P,J9,1,Pin_1*%
%TO.N,unconnected-(J9-Pad1)*%
X185840000Y-129310000D03*
D13*
%TO.P,J9,2,Pin_2*%
%TO.N,MUX64_A34*%
X188380000Y-129310000D03*
%TO.P,J9,3,Pin_3*%
%TO.N,MUX64_A11*%
X185840000Y-126770000D03*
%TO.P,J9,4,Pin_4*%
%TO.N,MUX64_A35*%
X188380000Y-126770000D03*
%TO.P,J9,5,Pin_5*%
%TO.N,MUX64_A38*%
X185840000Y-124230000D03*
%TO.P,J9,6,Pin_6*%
%TO.N,MUX64_A37*%
X188380000Y-124230000D03*
%TO.P,J9,7,Pin_7*%
%TO.N,MUX64_A40*%
X185840000Y-121690000D03*
%TO.P,J9,8,Pin_8*%
%TO.N,MUX64_A39*%
X188380000Y-121690000D03*
%TO.P,J9,9,Pin_9*%
%TO.N,MUX64_A11*%
X185840000Y-119150000D03*
%TO.P,J9,10,Pin_10*%
%TO.N,MUX64_A41*%
X188380000Y-119150000D03*
%TO.P,J9,11,Pin_11*%
%TO.N,MUX64_A11*%
X185840000Y-116610000D03*
%TO.P,J9,12,Pin_12*%
X188380000Y-116610000D03*
%TO.P,J9,13,Pin_13*%
X185840000Y-114070000D03*
%TO.P,J9,14,Pin_14*%
X188380000Y-114070000D03*
%TO.P,J9,15,Pin_15*%
X185840000Y-111530000D03*
%TO.P,J9,16,Pin_16*%
X188380000Y-111530000D03*
%TO.P,J9,17,Pin_17*%
X185840000Y-108990000D03*
%TO.P,J9,18,Pin_18*%
X188380000Y-108990000D03*
%TO.P,J9,19,Pin_19*%
X185840000Y-106450000D03*
%TO.P,J9,20,Pin_20*%
X188380000Y-106450000D03*
%TO.P,J9,21,Pin_21*%
%TO.N,unconnected-(J9-Pad21)*%
X185840000Y-103910000D03*
%TO.P,J9,22,Pin_22*%
%TO.N,MUX64_A11*%
X188380000Y-103910000D03*
%TO.P,J9,23,Pin_23*%
X185840000Y-101370000D03*
%TO.P,J9,24,Pin_24*%
X188380000Y-101370000D03*
%TD*%
D16*
%TO.P,H3,*%
%TO.N,*%
X85000000Y-28380000D03*
%TD*%
D17*
%TO.P,C12,1*%
%TO.N,1.2V*%
X145410000Y-76468600D03*
%TO.P,C12,2*%
%TO.N,MUX64_A11*%
X143510000Y-76468600D03*
%TD*%
%TO.P,C9,1*%
%TO.N,1.2V*%
X145410000Y-91480000D03*
%TO.P,C9,2*%
%TO.N,MUX64_A11*%
X143510000Y-91480000D03*
%TD*%
%TO.P,C7,1*%
%TO.N,1.2V*%
X145410000Y-96483800D03*
%TO.P,C7,2*%
%TO.N,MUX64_A11*%
X143510000Y-96483800D03*
%TD*%
%TO.P,C10,1*%
%TO.N,1.2V*%
X145410000Y-86476200D03*
%TO.P,C10,2*%
%TO.N,MUX64_A11*%
X143510000Y-86476200D03*
%TD*%
%TO.P,C11,1*%
%TO.N,1.2V*%
X145410000Y-81472400D03*
%TO.P,C11,2*%
%TO.N,MUX64_A11*%
X143510000Y-81472400D03*
%TD*%
D18*
%TO.N,MUX64_A11*%
X196120000Y-60820000D03*
X184400000Y-73600000D03*
X180540000Y-55850000D03*
X171670000Y-63660000D03*
X171670000Y-56730000D03*
%TO.N,1.2V*%
X177850000Y-50540000D03*
X147216200Y-96483800D03*
%TO.N,MUX64_A11*%
X140950000Y-78780000D03*
X141040000Y-93830000D03*
%TO.N,B_a4*%
X191730000Y-63920000D03*
%TO.N,MUX64_A11*%
X163390000Y-41700000D03*
%TO.N,LV_RB*%
X218360000Y-126760000D03*
X233420000Y-140390000D03*
X219450000Y-72230000D03*
X234450000Y-96870000D03*
X217770000Y-83110000D03*
%TO.N,B_a4*%
X204980000Y-72730000D03*
%TO.N,B_d4*%
X150630000Y-115280000D03*
%TO.N,B_d5*%
X150770000Y-112780000D03*
%TO.N,MUX64_A2*%
X79710000Y-64810000D03*
%TO.N,MUX64_A3*%
X80310000Y-69780000D03*
%TO.N,MUX64_A4*%
X80980000Y-74690000D03*
%TO.N,MUX64_A5*%
X80620000Y-79690000D03*
%TO.N,MUX64_A6*%
X80220000Y-84800000D03*
%TO.N,MUX64_A7*%
X81560000Y-88520000D03*
%TO.N,MUX64_A15*%
X154720000Y-65630000D03*
%TO.N,MUX64_A16*%
X152180000Y-67090000D03*
%TO.N,MUX64_A17*%
X159875000Y-62955000D03*
%TO.N,MUX64_A18*%
X157260000Y-64140000D03*
%TO.N,MUX64_A19*%
X164970000Y-59510000D03*
%TO.N,MUX64_A20*%
X162380000Y-61240000D03*
%TO.N,MUX64_A21*%
X73660000Y-95860000D03*
%TO.N,MUX64_A22*%
X73260000Y-100670000D03*
%TO.N,MUX64_A23*%
X73400000Y-106030000D03*
%TO.N,MUX64_A24*%
X73440000Y-111460000D03*
%TO.N,MUX64_A25*%
X73680000Y-116170000D03*
%TO.N,MUX64_A26*%
X74260000Y-120690000D03*
%TO.N,MUX64_A11*%
X205460000Y-96050000D03*
X216700000Y-132450000D03*
X246250000Y-93670000D03*
X246140000Y-134860000D03*
X80230000Y-87080000D03*
X114750000Y-49750000D03*
X205230000Y-93690000D03*
X246240000Y-130040000D03*
X205270000Y-137250000D03*
X80370000Y-44920000D03*
X176340000Y-60920000D03*
X79250000Y-95710000D03*
X79950000Y-29650000D03*
X246140000Y-88890000D03*
X114020000Y-143410000D03*
X205200000Y-127620000D03*
X80420000Y-125500000D03*
X168410000Y-37330000D03*
X240980000Y-58050000D03*
X205630000Y-42810000D03*
X235480000Y-134780000D03*
X240860000Y-122110000D03*
X216430000Y-129270000D03*
X80480000Y-150870000D03*
X125570000Y-74490000D03*
X246200000Y-137220000D03*
X80050000Y-55100000D03*
X240910000Y-78560000D03*
X128470000Y-94770000D03*
X210970000Y-121800000D03*
X235770000Y-95270000D03*
X205130000Y-91260000D03*
X113090000Y-153930000D03*
X210970000Y-145150000D03*
X246150000Y-84060000D03*
X79320000Y-101500000D03*
X80450000Y-145870000D03*
X246290000Y-86490000D03*
X205770000Y-49980000D03*
X246290000Y-50030000D03*
X216130000Y-45210000D03*
X246190000Y-91310000D03*
X205660000Y-40410000D03*
X113990000Y-147870000D03*
X80350000Y-135610000D03*
X246180000Y-45250000D03*
X80400000Y-140750000D03*
X113740000Y-132280000D03*
X79980000Y-114690000D03*
X218880000Y-84650000D03*
X246300000Y-52400000D03*
X235240000Y-51060000D03*
X246190000Y-40420000D03*
X235150000Y-138250000D03*
X205500000Y-139610000D03*
X80400000Y-130640000D03*
X216370000Y-99890000D03*
X80140000Y-50030000D03*
X113740000Y-127080000D03*
X205650000Y-45170000D03*
X235570000Y-47590000D03*
X205170000Y-132430000D03*
X79790000Y-108710000D03*
X80040000Y-71760000D03*
X205220000Y-86460000D03*
X222080000Y-51020000D03*
X246330000Y-42850000D03*
X80220000Y-76880000D03*
X234570000Y-42030000D03*
X240950000Y-34920000D03*
X210940000Y-58180000D03*
X133750000Y-94110000D03*
X246210000Y-139590000D03*
X210920000Y-78510000D03*
X205130000Y-88870000D03*
X235530000Y-91230000D03*
X114770000Y-29430000D03*
X114030000Y-138330000D03*
X246160000Y-96070000D03*
X234480000Y-129220000D03*
X246100000Y-127610000D03*
X205730000Y-47610000D03*
X114840000Y-44600000D03*
X114380000Y-54810000D03*
X246230000Y-47670000D03*
X80360000Y-118070000D03*
X80240000Y-34790000D03*
X205820000Y-52390000D03*
X205170000Y-84070000D03*
X246090000Y-132440000D03*
X179840000Y-42600000D03*
X80160000Y-39850000D03*
X127940000Y-108280000D03*
X241010000Y-145110000D03*
X79960000Y-66660000D03*
X216120000Y-41600000D03*
X114750000Y-34510000D03*
X234530000Y-85670000D03*
X217360000Y-89170000D03*
X240940000Y-101700000D03*
X205260000Y-130020000D03*
X80280000Y-61600000D03*
X114800000Y-39660000D03*
X205170000Y-134820000D03*
X80270000Y-81920000D03*
X211000000Y-35010000D03*
%TO.N,MUX64_A55*%
X135050000Y-85540000D03*
X135020000Y-41790000D03*
%TO.N,MUX64_A54*%
X138780000Y-32820000D03*
X138790000Y-83090000D03*
%TO.N,MUX64_A56*%
X136740000Y-84270000D03*
X136730000Y-37680000D03*
%TO.N,MUX64_A57*%
X130930000Y-47880000D03*
X130930000Y-87880000D03*
%TO.N,MUX64_A58*%
X132900000Y-86520000D03*
X132910000Y-42840000D03*
%TO.N,MUX64_A60*%
X128910000Y-89160000D03*
X128890000Y-49900000D03*
%TD*%
D19*
%TO.N,B_d5*%
X150770000Y-112780000D02*
X150730000Y-112740000D01*
X150730000Y-112740000D02*
X150730000Y-104820000D01*
X150730000Y-104820000D02*
X147530000Y-101620000D01*
X147530000Y-101620000D02*
X144840000Y-101620000D01*
X144840000Y-101620000D02*
X143930000Y-102530000D01*
X143930000Y-102530000D02*
X143930000Y-103910000D01*
%TO.N,B_a4*%
X194315000Y-66505000D02*
X191730000Y-63920000D01*
X200540000Y-72730000D02*
X194315000Y-66505000D01*
X181445000Y-66505000D02*
X166155000Y-81795000D01*
X194315000Y-66505000D02*
X181445000Y-66505000D01*
D20*
%TO.N,1.2V*%
X158920000Y-51500000D02*
X159880000Y-50540000D01*
X159880000Y-50540000D02*
X177850000Y-50540000D01*
X145410000Y-76468600D02*
X145410000Y-65010000D01*
X145410000Y-65010000D02*
X158920000Y-51500000D01*
X145410000Y-96483800D02*
X147216200Y-96483800D01*
X147216200Y-96483800D02*
X147240000Y-96460000D01*
X145410000Y-76468600D02*
X145410000Y-96483800D01*
D19*
%TO.N,MUX64_A11*%
X140970000Y-78760000D02*
X140950000Y-78780000D01*
D20*
X143510000Y-78760000D02*
X140970000Y-78760000D01*
X143510000Y-81472400D02*
X143510000Y-78760000D01*
X143510000Y-78760000D02*
X143510000Y-76468600D01*
D19*
X141050000Y-93820000D02*
X141040000Y-93830000D01*
D20*
X143510000Y-93820000D02*
X141050000Y-93820000D01*
X143510000Y-96483800D02*
X143510000Y-93820000D01*
X143510000Y-93820000D02*
X143510000Y-91480000D01*
X143510000Y-86476200D02*
X143510000Y-81472400D01*
X143510000Y-91480000D02*
X143510000Y-86476200D01*
D19*
X143510000Y-96483800D02*
X143453800Y-96483800D01*
%TO.N,B_a4*%
X203970000Y-72730000D02*
X200540000Y-72730000D01*
D20*
%TO.N,LV_RB*%
X226205000Y-88625000D02*
X219450000Y-81870000D01*
X228315000Y-135285000D02*
X228315000Y-90735000D01*
X219010000Y-81870000D02*
X217770000Y-83110000D01*
X219450000Y-81870000D02*
X219010000Y-81870000D01*
X218360000Y-96470000D02*
X226205000Y-88625000D01*
X233420000Y-140390000D02*
X228315000Y-135285000D01*
X228315000Y-90735000D02*
X226205000Y-88625000D01*
X234450000Y-96870000D02*
X228315000Y-90735000D01*
X219450000Y-81870000D02*
X219450000Y-72230000D01*
X218360000Y-126760000D02*
X218360000Y-96470000D01*
D21*
%TO.N,B_a4*%
X166155000Y-81795000D02*
X166155000Y-94385000D01*
D19*
X204980000Y-72730000D02*
X203970000Y-72730000D01*
%TO.N,B_d4*%
X145180000Y-105200000D02*
X143930000Y-106450000D01*
X147810000Y-105200000D02*
X145180000Y-105200000D01*
X150630000Y-115280000D02*
X149050000Y-113700000D01*
X149050000Y-113700000D02*
X149050000Y-106440000D01*
X149050000Y-106440000D02*
X147810000Y-105200000D01*
%TO.N,MUX64_A2*%
X79710000Y-64810000D02*
X81350000Y-64810000D01*
X81350000Y-64810000D02*
X85890000Y-60270000D01*
X145200000Y-115340000D02*
X146470000Y-114070000D01*
X85890000Y-60270000D02*
X99820000Y-60270000D01*
X126480000Y-115340000D02*
X145200000Y-115340000D01*
X124180000Y-113040000D02*
X126480000Y-115340000D01*
X124180000Y-84630000D02*
X124180000Y-113040000D01*
X99820000Y-60270000D02*
X124180000Y-84630000D01*
%TO.N,MUX64_A3*%
X121380000Y-115210000D02*
X122780000Y-116610000D01*
X86680000Y-61950000D02*
X99560000Y-61950000D01*
X80310000Y-69780000D02*
X80310000Y-68320000D01*
X80310000Y-68320000D02*
X86680000Y-61950000D01*
X99560000Y-61950000D02*
X121380000Y-83770000D01*
X121380000Y-83770000D02*
X121380000Y-115210000D01*
X122780000Y-116610000D02*
X143930000Y-116610000D01*
%TO.N,MUX64_A4*%
X118820000Y-117850000D02*
X145230000Y-117850000D01*
X117250000Y-83690000D02*
X117250000Y-116280000D01*
X80980000Y-71460000D02*
X88990000Y-63450000D01*
X97010000Y-63450000D02*
X117250000Y-83690000D01*
X117250000Y-116280000D02*
X118820000Y-117850000D01*
X88990000Y-63450000D02*
X97010000Y-63450000D01*
X80980000Y-74690000D02*
X80980000Y-71460000D01*
X145230000Y-117850000D02*
X146470000Y-116610000D01*
%TO.N,MUX64_A5*%
X114450000Y-87210000D02*
X114450000Y-115970000D01*
X114450000Y-115970000D02*
X117630000Y-119150000D01*
X80620000Y-79690000D02*
X80620000Y-78150000D01*
X80620000Y-78150000D02*
X84870000Y-73900000D01*
X101140000Y-73900000D02*
X114450000Y-87210000D01*
X117630000Y-119150000D02*
X143930000Y-119150000D01*
X84870000Y-73900000D02*
X101140000Y-73900000D01*
%TO.N,MUX64_A6*%
X80220000Y-83390000D02*
X82250000Y-81360000D01*
X104780000Y-81360000D02*
X111580000Y-88160000D01*
X111580000Y-88160000D02*
X111580000Y-115280000D01*
X145230000Y-120390000D02*
X146470000Y-119150000D01*
X111580000Y-115280000D02*
X116690000Y-120390000D01*
X80220000Y-84800000D02*
X80220000Y-83390000D01*
X82250000Y-81360000D02*
X104780000Y-81360000D01*
X116690000Y-120390000D02*
X145230000Y-120390000D01*
%TO.N,MUX64_A7*%
X108560000Y-114510000D02*
X115740000Y-121690000D01*
X115740000Y-121690000D02*
X143930000Y-121690000D01*
X81560000Y-88520000D02*
X81760000Y-88320000D01*
X81560000Y-88520000D02*
X81860000Y-88820000D01*
X81860000Y-88820000D02*
X101960000Y-88820000D01*
X108560000Y-95420000D02*
X108560000Y-114510000D01*
X101960000Y-88820000D02*
X108560000Y-95420000D01*
%TO.N,MUX64_A15*%
X154720000Y-65630000D02*
X154720000Y-76110000D01*
X157310000Y-137520000D02*
X155995000Y-138835000D01*
X157310000Y-133370000D02*
X157310000Y-137510000D01*
X154720000Y-130780000D02*
X157310000Y-133370000D01*
X154720000Y-76110000D02*
X154720000Y-130780000D01*
%TO.N,MUX64_A16*%
X152200000Y-129670000D02*
X155995000Y-133465000D01*
X152180000Y-67090000D02*
X152200000Y-67110000D01*
X152200000Y-67110000D02*
X152200000Y-109600000D01*
X155995000Y-133465000D02*
X155995000Y-136295000D01*
X152200000Y-109600000D02*
X152200000Y-129670000D01*
%TO.N,MUX64_A17*%
X159810000Y-137560000D02*
X158535000Y-138835000D01*
X159810000Y-63020000D02*
X159810000Y-137560000D01*
X159875000Y-62955000D02*
X159810000Y-63020000D01*
%TO.N,MUX64_A18*%
X158535000Y-132985000D02*
X158535000Y-136295000D01*
X157270000Y-71500000D02*
X157270000Y-110170000D01*
X157270000Y-131720000D02*
X158535000Y-132985000D01*
X157270000Y-110170000D02*
X157270000Y-131720000D01*
X157270000Y-64150000D02*
X157270000Y-71500000D01*
X157260000Y-64140000D02*
X157270000Y-64150000D01*
%TO.N,MUX64_A19*%
X162300000Y-137610000D02*
X161075000Y-138835000D01*
X162300000Y-134030000D02*
X162300000Y-137610000D01*
X164970000Y-59510000D02*
X164890000Y-59590000D01*
X164890000Y-59590000D02*
X164890000Y-131440000D01*
X164890000Y-131440000D02*
X162300000Y-134030000D01*
%TO.N,MUX64_A20*%
X162350000Y-131780000D02*
X161075000Y-133055000D01*
X162350000Y-61270000D02*
X162350000Y-131780000D01*
X161075000Y-133055000D02*
X161075000Y-136295000D01*
X162380000Y-61240000D02*
X162350000Y-61270000D01*
%TO.N,MUX64_A21*%
X74950000Y-97150000D02*
X73660000Y-95860000D01*
X105990000Y-123700000D02*
X79440000Y-97150000D01*
X138220000Y-141770000D02*
X131240000Y-134790000D01*
X131240000Y-134790000D02*
X108070000Y-134790000D01*
X163620000Y-140350000D02*
X162200000Y-141770000D01*
X163615000Y-140345000D02*
X163620000Y-140350000D01*
X106060000Y-123770000D02*
X105990000Y-123700000D01*
X108070000Y-134790000D02*
X106060000Y-132780000D01*
X163615000Y-138835000D02*
X163615000Y-140345000D01*
X162200000Y-141770000D02*
X138220000Y-141770000D01*
X106060000Y-132780000D02*
X106060000Y-123770000D01*
X79440000Y-97150000D02*
X74950000Y-97150000D01*
%TO.N,MUX64_A22*%
X134440000Y-143300000D02*
X162490000Y-143300000D01*
X105170000Y-135780000D02*
X126920000Y-135780000D01*
X103340000Y-133950000D02*
X105170000Y-135780000D01*
X103340000Y-123460000D02*
X103340000Y-133950000D01*
X84790000Y-104910000D02*
X103340000Y-123460000D01*
X162490000Y-143300000D02*
X164930000Y-140860000D01*
X73260000Y-100670000D02*
X77500000Y-104910000D01*
X77500000Y-104910000D02*
X84790000Y-104910000D01*
X164930000Y-137610000D02*
X163615000Y-136295000D01*
X164930000Y-140860000D02*
X164930000Y-137610000D01*
X126920000Y-135780000D02*
X134440000Y-143300000D01*
%TO.N,MUX64_A23*%
X166155000Y-144485000D02*
X166155000Y-138835000D01*
X73400000Y-106030000D02*
X83770000Y-106030000D01*
X126420000Y-146360000D02*
X164280000Y-146360000D01*
X102100000Y-124360000D02*
X102100000Y-134240000D01*
X116880000Y-136820000D02*
X126420000Y-146360000D01*
X102100000Y-134240000D02*
X104680000Y-136820000D01*
X164280000Y-146360000D02*
X166155000Y-144485000D01*
X83770000Y-106030000D02*
X102100000Y-124360000D01*
X104680000Y-136820000D02*
X116880000Y-136820000D01*
%TO.N,MUX64_A24*%
X101050000Y-135080000D02*
X106820000Y-140850000D01*
X167430000Y-145690000D02*
X167430000Y-137570000D01*
X73440000Y-111460000D02*
X87080000Y-111460000D01*
X122950000Y-148230000D02*
X164890000Y-148230000D01*
X106820000Y-140850000D02*
X115570000Y-140850000D01*
X167430000Y-137570000D02*
X166155000Y-136295000D01*
X101050000Y-125430000D02*
X101050000Y-135080000D01*
X115570000Y-140850000D02*
X122950000Y-148230000D01*
X87080000Y-111460000D02*
X101050000Y-125430000D01*
X164890000Y-148230000D02*
X167430000Y-145690000D01*
%TO.N,MUX64_A25*%
X120850000Y-150020000D02*
X166540000Y-150020000D01*
X168700000Y-141150000D02*
X168695000Y-141145000D01*
X166540000Y-150020000D02*
X168700000Y-147860000D01*
X99360000Y-135520000D02*
X110000000Y-146160000D01*
X99360000Y-125990000D02*
X99360000Y-135520000D01*
X110000000Y-146160000D02*
X116990000Y-146160000D01*
X168700000Y-147860000D02*
X168700000Y-141150000D01*
X89540000Y-116170000D02*
X99360000Y-125990000D01*
X168695000Y-141145000D02*
X168695000Y-138835000D01*
X73680000Y-116170000D02*
X89540000Y-116170000D01*
X116990000Y-146160000D02*
X120850000Y-150020000D01*
%TO.N,MUX64_A26*%
X167380000Y-152360000D02*
X169980000Y-149760000D01*
X91690000Y-120690000D02*
X98050000Y-127050000D01*
X168695000Y-136295000D02*
X169970000Y-137570000D01*
X169980000Y-149760000D02*
X169980000Y-137550000D01*
X98050000Y-137190000D02*
X113220000Y-152360000D01*
X74260000Y-120690000D02*
X91690000Y-120690000D01*
X113220000Y-152360000D02*
X167380000Y-152360000D01*
X98050000Y-127050000D02*
X98050000Y-137190000D01*
%TO.N,MUX64_A55*%
X135050000Y-85540000D02*
X135020000Y-85510000D01*
X135020000Y-85510000D02*
X135020000Y-41790000D01*
%TO.N,MUX64_A54*%
X138780000Y-83080000D02*
X138780000Y-32820000D01*
X138790000Y-83090000D02*
X138780000Y-83080000D01*
%TO.N,MUX64_A56*%
X136740000Y-84270000D02*
X136730000Y-84260000D01*
X136730000Y-84260000D02*
X136730000Y-37680000D01*
%TO.N,MUX64_A57*%
X130930000Y-87880000D02*
X130930000Y-47880000D01*
%TO.N,MUX64_A58*%
X132910000Y-86510000D02*
X132910000Y-42840000D01*
X132900000Y-86520000D02*
X132910000Y-86510000D01*
%TO.N,MUX64_A60*%
X128910000Y-89160000D02*
X128890000Y-89140000D01*
X128890000Y-89140000D02*
X128890000Y-49900000D01*
%TD*%
M02*
