%TF.GenerationSoftware,KiCad,Pcbnew,7.0.7*%
%TF.CreationDate,2023-08-23T16:32:02-04:00*%
%TF.ProjectId,Mux64,4d757836-342e-46b6-9963-61645f706362,rev?*%
%TF.SameCoordinates,Original*%
%TF.FileFunction,Legend,Bot*%
%TF.FilePolarity,Positive*%
%FSLAX46Y46*%
G04 Gerber Fmt 4.6, Leading zero omitted, Abs format (unit mm)*
G04 Created by KiCad (PCBNEW 7.0.7) date 2023-08-23 16:32:02*
%MOMM*%
%LPD*%
G01*
G04 APERTURE LIST*
%ADD10C,0.150000*%
%ADD11C,0.120000*%
G04 APERTURE END LIST*
D10*
X145102857Y-75148180D02*
X145150476Y-75195800D01*
X145150476Y-75195800D02*
X145293333Y-75243419D01*
X145293333Y-75243419D02*
X145388571Y-75243419D01*
X145388571Y-75243419D02*
X145531428Y-75195800D01*
X145531428Y-75195800D02*
X145626666Y-75100561D01*
X145626666Y-75100561D02*
X145674285Y-75005323D01*
X145674285Y-75005323D02*
X145721904Y-74814847D01*
X145721904Y-74814847D02*
X145721904Y-74671990D01*
X145721904Y-74671990D02*
X145674285Y-74481514D01*
X145674285Y-74481514D02*
X145626666Y-74386276D01*
X145626666Y-74386276D02*
X145531428Y-74291038D01*
X145531428Y-74291038D02*
X145388571Y-74243419D01*
X145388571Y-74243419D02*
X145293333Y-74243419D01*
X145293333Y-74243419D02*
X145150476Y-74291038D01*
X145150476Y-74291038D02*
X145102857Y-74338657D01*
X144150476Y-75243419D02*
X144721904Y-75243419D01*
X144436190Y-75243419D02*
X144436190Y-74243419D01*
X144436190Y-74243419D02*
X144531428Y-74386276D01*
X144531428Y-74386276D02*
X144626666Y-74481514D01*
X144626666Y-74481514D02*
X144721904Y-74529133D01*
X143769523Y-74338657D02*
X143721904Y-74291038D01*
X143721904Y-74291038D02*
X143626666Y-74243419D01*
X143626666Y-74243419D02*
X143388571Y-74243419D01*
X143388571Y-74243419D02*
X143293333Y-74291038D01*
X143293333Y-74291038D02*
X143245714Y-74338657D01*
X143245714Y-74338657D02*
X143198095Y-74433895D01*
X143198095Y-74433895D02*
X143198095Y-74529133D01*
X143198095Y-74529133D02*
X143245714Y-74671990D01*
X143245714Y-74671990D02*
X143817142Y-75243419D01*
X143817142Y-75243419D02*
X143198095Y-75243419D01*
X144626666Y-90159580D02*
X144674285Y-90207200D01*
X144674285Y-90207200D02*
X144817142Y-90254819D01*
X144817142Y-90254819D02*
X144912380Y-90254819D01*
X144912380Y-90254819D02*
X145055237Y-90207200D01*
X145055237Y-90207200D02*
X145150475Y-90111961D01*
X145150475Y-90111961D02*
X145198094Y-90016723D01*
X145198094Y-90016723D02*
X145245713Y-89826247D01*
X145245713Y-89826247D02*
X145245713Y-89683390D01*
X145245713Y-89683390D02*
X145198094Y-89492914D01*
X145198094Y-89492914D02*
X145150475Y-89397676D01*
X145150475Y-89397676D02*
X145055237Y-89302438D01*
X145055237Y-89302438D02*
X144912380Y-89254819D01*
X144912380Y-89254819D02*
X144817142Y-89254819D01*
X144817142Y-89254819D02*
X144674285Y-89302438D01*
X144674285Y-89302438D02*
X144626666Y-89350057D01*
X144150475Y-90254819D02*
X143959999Y-90254819D01*
X143959999Y-90254819D02*
X143864761Y-90207200D01*
X143864761Y-90207200D02*
X143817142Y-90159580D01*
X143817142Y-90159580D02*
X143721904Y-90016723D01*
X143721904Y-90016723D02*
X143674285Y-89826247D01*
X143674285Y-89826247D02*
X143674285Y-89445295D01*
X143674285Y-89445295D02*
X143721904Y-89350057D01*
X143721904Y-89350057D02*
X143769523Y-89302438D01*
X143769523Y-89302438D02*
X143864761Y-89254819D01*
X143864761Y-89254819D02*
X144055237Y-89254819D01*
X144055237Y-89254819D02*
X144150475Y-89302438D01*
X144150475Y-89302438D02*
X144198094Y-89350057D01*
X144198094Y-89350057D02*
X144245713Y-89445295D01*
X144245713Y-89445295D02*
X144245713Y-89683390D01*
X144245713Y-89683390D02*
X144198094Y-89778628D01*
X144198094Y-89778628D02*
X144150475Y-89826247D01*
X144150475Y-89826247D02*
X144055237Y-89873866D01*
X144055237Y-89873866D02*
X143864761Y-89873866D01*
X143864761Y-89873866D02*
X143769523Y-89826247D01*
X143769523Y-89826247D02*
X143721904Y-89778628D01*
X143721904Y-89778628D02*
X143674285Y-89683390D01*
X144626666Y-95163380D02*
X144674285Y-95211000D01*
X144674285Y-95211000D02*
X144817142Y-95258619D01*
X144817142Y-95258619D02*
X144912380Y-95258619D01*
X144912380Y-95258619D02*
X145055237Y-95211000D01*
X145055237Y-95211000D02*
X145150475Y-95115761D01*
X145150475Y-95115761D02*
X145198094Y-95020523D01*
X145198094Y-95020523D02*
X145245713Y-94830047D01*
X145245713Y-94830047D02*
X145245713Y-94687190D01*
X145245713Y-94687190D02*
X145198094Y-94496714D01*
X145198094Y-94496714D02*
X145150475Y-94401476D01*
X145150475Y-94401476D02*
X145055237Y-94306238D01*
X145055237Y-94306238D02*
X144912380Y-94258619D01*
X144912380Y-94258619D02*
X144817142Y-94258619D01*
X144817142Y-94258619D02*
X144674285Y-94306238D01*
X144674285Y-94306238D02*
X144626666Y-94353857D01*
X144293332Y-94258619D02*
X143626666Y-94258619D01*
X143626666Y-94258619D02*
X144055237Y-95258619D01*
X145102857Y-85155780D02*
X145150476Y-85203400D01*
X145150476Y-85203400D02*
X145293333Y-85251019D01*
X145293333Y-85251019D02*
X145388571Y-85251019D01*
X145388571Y-85251019D02*
X145531428Y-85203400D01*
X145531428Y-85203400D02*
X145626666Y-85108161D01*
X145626666Y-85108161D02*
X145674285Y-85012923D01*
X145674285Y-85012923D02*
X145721904Y-84822447D01*
X145721904Y-84822447D02*
X145721904Y-84679590D01*
X145721904Y-84679590D02*
X145674285Y-84489114D01*
X145674285Y-84489114D02*
X145626666Y-84393876D01*
X145626666Y-84393876D02*
X145531428Y-84298638D01*
X145531428Y-84298638D02*
X145388571Y-84251019D01*
X145388571Y-84251019D02*
X145293333Y-84251019D01*
X145293333Y-84251019D02*
X145150476Y-84298638D01*
X145150476Y-84298638D02*
X145102857Y-84346257D01*
X144150476Y-85251019D02*
X144721904Y-85251019D01*
X144436190Y-85251019D02*
X144436190Y-84251019D01*
X144436190Y-84251019D02*
X144531428Y-84393876D01*
X144531428Y-84393876D02*
X144626666Y-84489114D01*
X144626666Y-84489114D02*
X144721904Y-84536733D01*
X143531428Y-84251019D02*
X143436190Y-84251019D01*
X143436190Y-84251019D02*
X143340952Y-84298638D01*
X143340952Y-84298638D02*
X143293333Y-84346257D01*
X143293333Y-84346257D02*
X143245714Y-84441495D01*
X143245714Y-84441495D02*
X143198095Y-84631971D01*
X143198095Y-84631971D02*
X143198095Y-84870066D01*
X143198095Y-84870066D02*
X143245714Y-85060542D01*
X143245714Y-85060542D02*
X143293333Y-85155780D01*
X143293333Y-85155780D02*
X143340952Y-85203400D01*
X143340952Y-85203400D02*
X143436190Y-85251019D01*
X143436190Y-85251019D02*
X143531428Y-85251019D01*
X143531428Y-85251019D02*
X143626666Y-85203400D01*
X143626666Y-85203400D02*
X143674285Y-85155780D01*
X143674285Y-85155780D02*
X143721904Y-85060542D01*
X143721904Y-85060542D02*
X143769523Y-84870066D01*
X143769523Y-84870066D02*
X143769523Y-84631971D01*
X143769523Y-84631971D02*
X143721904Y-84441495D01*
X143721904Y-84441495D02*
X143674285Y-84346257D01*
X143674285Y-84346257D02*
X143626666Y-84298638D01*
X143626666Y-84298638D02*
X143531428Y-84251019D01*
X145102857Y-80151980D02*
X145150476Y-80199600D01*
X145150476Y-80199600D02*
X145293333Y-80247219D01*
X145293333Y-80247219D02*
X145388571Y-80247219D01*
X145388571Y-80247219D02*
X145531428Y-80199600D01*
X145531428Y-80199600D02*
X145626666Y-80104361D01*
X145626666Y-80104361D02*
X145674285Y-80009123D01*
X145674285Y-80009123D02*
X145721904Y-79818647D01*
X145721904Y-79818647D02*
X145721904Y-79675790D01*
X145721904Y-79675790D02*
X145674285Y-79485314D01*
X145674285Y-79485314D02*
X145626666Y-79390076D01*
X145626666Y-79390076D02*
X145531428Y-79294838D01*
X145531428Y-79294838D02*
X145388571Y-79247219D01*
X145388571Y-79247219D02*
X145293333Y-79247219D01*
X145293333Y-79247219D02*
X145150476Y-79294838D01*
X145150476Y-79294838D02*
X145102857Y-79342457D01*
X144150476Y-80247219D02*
X144721904Y-80247219D01*
X144436190Y-80247219D02*
X144436190Y-79247219D01*
X144436190Y-79247219D02*
X144531428Y-79390076D01*
X144531428Y-79390076D02*
X144626666Y-79485314D01*
X144626666Y-79485314D02*
X144721904Y-79532933D01*
X143198095Y-80247219D02*
X143769523Y-80247219D01*
X143483809Y-80247219D02*
X143483809Y-79247219D01*
X143483809Y-79247219D02*
X143579047Y-79390076D01*
X143579047Y-79390076D02*
X143674285Y-79485314D01*
X143674285Y-79485314D02*
X143769523Y-79532933D01*
D11*
%TO.C,C12*%
X144721252Y-77203600D02*
X144198748Y-77203600D01*
X144721252Y-75733600D02*
X144198748Y-75733600D01*
%TO.C,C9*%
X144721252Y-92215000D02*
X144198748Y-92215000D01*
X144721252Y-90745000D02*
X144198748Y-90745000D01*
%TO.C,C7*%
X144721252Y-97218800D02*
X144198748Y-97218800D01*
X144721252Y-95748800D02*
X144198748Y-95748800D01*
%TO.C,C10*%
X144721252Y-87211200D02*
X144198748Y-87211200D01*
X144721252Y-85741200D02*
X144198748Y-85741200D01*
%TO.C,C11*%
X144721252Y-82207400D02*
X144198748Y-82207400D01*
X144721252Y-80737400D02*
X144198748Y-80737400D01*
%TD*%
M02*
