M48
; DRILL file {KiCad 7.0.7} date 2023 August 23, Wednesday 16:32:10
; FORMAT={-:-/ absolute / inch / decimal}
; #@! TF.CreationDate,2023-08-23T16:32:10-04:00
; #@! TF.GenerationSoftware,Kicad,Pcbnew,7.0.7
; #@! TF.FileFunction,Plated,1,4,PTH
FMAT,2
INCH
; #@! TA.AperFunction,Plated,PTH,ViaDrill
T1C0.0157
; #@! TA.AperFunction,Plated,PTH,ComponentDrill
T2C0.0394
; #@! TA.AperFunction,Plated,PTH,ComponentDrill
T3C0.0433
; #@! TA.AperFunction,Plated,PTH,ComponentDrill
T4C0.0512
%
G90
G05
T1
X2.8843Y-3.9634
X2.8898Y-4.1744
X2.8913Y-4.3882
X2.9Y-3.774
X2.9008Y-4.5736
X2.9236Y-4.7516
X3.1201Y-3.7681
X3.1228Y-3.9961
X3.1382Y-2.5516
X3.1413Y-4.2799
X3.1476Y-1.1646
X3.148Y-2.6244
X3.1488Y-4.5154
X3.1512Y-2.8252
X3.1516Y-2.1665
X3.1551Y-1.9669
X3.1559Y-1.5661
X3.1583Y-3.0268
X3.1583Y-3.3386
X3.1587Y-3.4283
X3.1591Y-1.3669
X3.1602Y-3.2252
X3.1606Y-2.4252
X3.1618Y-2.7472
X3.1634Y-5.3429
X3.1638Y-4.6484
X3.1642Y-1.7657
X3.1654Y-5.1472
X3.1654Y-5.5453
X3.1661Y-4.9449
X3.1673Y-5.7469
X3.1685Y-5.9437
X3.174Y-3.1374
X3.1882Y-2.9406
X3.211Y-3.485
X4.4524Y-6.0602
X4.478Y-5.0031
X4.478Y-5.2079
X4.4878Y-5.8217
X4.489Y-5.6461
X4.4894Y-5.4461
X4.5031Y-2.1579
X4.5177Y-1.3587
X4.5177Y-1.9587
X4.5185Y-1.1587
X4.5197Y-1.5614
X4.5213Y-1.7559
X4.9437Y-2.9327
X5.037Y-4.263
X5.0579Y-3.7311
X5.0744Y-1.9646
X5.0752Y-3.5102
X5.1547Y-1.885
X5.1547Y-3.4598
X5.2323Y-3.4063
X5.2327Y-1.6866
X5.2657Y-3.7051
X5.3157Y-1.6453
X5.3169Y-3.3677
X5.3831Y-1.4835
X5.3835Y-3.3177
X5.4638Y-1.2921
X5.4642Y-3.2713
X5.5492Y-3.1016
X5.5528Y-3.6941
X5.7959Y-3.7986
X5.9913Y-2.6413
X6.0913Y-2.5839
X6.1913Y-2.5252
X6.2943Y-2.4785
X6.3929Y-2.411
X6.4327Y-1.6417
X6.4949Y-2.3429
X6.6303Y-1.4697
X6.7587Y-2.2335
X6.7587Y-2.5063
X6.9425Y-2.3984
X7.002Y-1.9898
X7.0803Y-1.6772
X7.1079Y-2.1988
X7.2598Y-2.8976
X7.5484Y-2.5165
X7.7213Y-2.3945
X7.8937Y-2.8642
X7.9331Y-1.378
X7.9764Y-3.8772
X8.0087Y-5.5272
X8.0472Y-3.6409
X8.0504Y-5.0874
X8.0524Y-3.3728
X8.0539Y-1.6547
X8.0768Y-5.4429
X8.0787Y-2.8614
X8.0803Y-2.0102
X8.0898Y-5.3063
X8.0917Y-3.5917
X8.0933Y-1.8736
X8.1005Y-3.7488
X8.1535Y-4.0543
X8.3016Y-4.8075
X8.3035Y-3.0929
X8.3047Y-4.0039
X8.3051Y-1.3748
X8.3063Y-2.2854
X8.3075Y-5.713
X8.5075Y-5.2142
X8.5079Y-5.024
X8.5094Y-3.4996
X8.5094Y-5.3094
X8.5098Y-3.3094
X8.5102Y-3.7823
X8.511Y-1.7815
X8.5114Y-1.5913
X8.5114Y-3.5949
X8.5118Y-5.4024
X8.5122Y-5.4957
X8.513Y-1.8768
X8.5134Y-5.1197
X8.5138Y-3.6878
X8.5154Y-1.9697
X8.5154Y-3.4051
X8.5157Y-2.063
X8.5169Y-1.687
X9.0157Y-3.4449
X9.1339Y-3.3929
X9.2244Y-3.3339
X9.2587Y-5.2138
X9.2587Y-5.3079
X9.2598Y-5.0244
X9.2622Y-5.1189
X9.2626Y-5.4035
X9.2701Y-3.7815
X9.2717Y-3.3098
X9.2717Y-3.4055
X9.2717Y-3.4988
X9.2717Y-3.5933
X9.2717Y-3.6878
X9.2717Y-5.4965
X9.2768Y-1.6854
X9.2776Y-1.7783
X9.278Y-1.5909
X9.2807Y-1.8744
X9.2823Y-1.9677
X9.2843Y-2.0626
X9.485Y-3.0909
X9.4858Y-2.2906
X9.4862Y-3.9843
X9.487Y-4.7953
X9.487Y-5.7146
X9.4882Y-1.3783
X9.5394Y-3.511
X9.6898Y-1.6378
X9.6902Y-1.7799
X9.6929Y-3.3732
X9.6969Y-3.5622
X9.7008Y-3.4677
X9.702Y-5.0894
X9.7126Y-5.2146
X9.7283Y-3.4283
X9.7402Y-3.511
X9.7441Y-3.3398
X9.7638Y-1.5551
X9.778Y-4.9906
X9.9244Y-2.0087
T2
X5.6665Y-4.0909
X5.6665Y-4.1909
X5.6665Y-4.2909
X5.6665Y-4.3909
X5.6665Y-4.4909
X5.6665Y-4.5909
X5.6665Y-4.6909
X5.6665Y-4.7909
X5.6665Y-4.8909
X5.6665Y-4.9909
X5.6665Y-5.0909
X5.6665Y-5.1909
X5.7665Y-4.0909
X5.7665Y-4.1909
X5.7665Y-4.2909
X5.7665Y-4.3909
X5.7665Y-4.4909
X5.7665Y-4.5909
X5.7665Y-4.6909
X5.7665Y-4.7909
X5.7665Y-4.8909
X5.7665Y-4.9909
X5.7665Y-5.0909
X5.7665Y-5.1909
X5.9415Y-3.7159
X5.9415Y-3.8159
X6.0415Y-3.7159
X6.0415Y-3.8159
X6.0415Y-5.3659
X6.0415Y-5.4659
X6.1415Y-3.7159
X6.1415Y-3.8159
X6.1415Y-5.3659
X6.1415Y-5.4659
X6.2415Y-3.7159
X6.2415Y-3.8159
X6.2415Y-5.3659
X6.2415Y-5.4659
X6.3415Y-3.7159
X6.3415Y-3.8159
X6.3415Y-5.3659
X6.3415Y-5.4659
X6.4415Y-3.7159
X6.4415Y-3.8159
X6.4415Y-5.3659
X6.4415Y-5.4659
X6.5415Y-3.7159
X6.5415Y-3.8159
X6.5415Y-5.3659
X6.5415Y-5.4659
X6.6415Y-3.7159
X6.6415Y-3.8159
X6.6415Y-5.3659
X6.6415Y-5.4659
X6.7415Y-3.7159
X6.7415Y-3.8159
X6.7415Y-5.3659
X6.7415Y-5.4659
X6.8415Y-3.7159
X6.8415Y-3.8159
X6.8415Y-5.3659
X6.8415Y-5.4659
X6.9415Y-3.7159
X6.9415Y-3.8159
X6.9415Y-5.3659
X6.9415Y-5.4659
X7.0415Y-3.7159
X7.0415Y-3.8159
X7.0415Y-5.3659
X7.0415Y-5.4659
X7.1415Y-5.3659
X7.1415Y-5.4659
X7.3165Y-3.9909
X7.3165Y-4.0909
X7.3165Y-4.1909
X7.3165Y-4.2909
X7.3165Y-4.3909
X7.3165Y-4.4909
X7.3165Y-4.5909
X7.3165Y-4.6909
X7.3165Y-4.7909
X7.3165Y-4.8909
X7.3165Y-4.9909
X7.3165Y-5.0909
X7.4165Y-3.9909
X7.4165Y-4.0909
X7.4165Y-4.1909
X7.4165Y-4.2909
X7.4165Y-4.3909
X7.4165Y-4.4909
X7.4165Y-4.5909
X7.4165Y-4.6909
X7.4165Y-4.7909
X7.4165Y-4.8909
X7.4165Y-4.9909
X7.4165Y-5.0909
T3
X2.4025Y-4.8449
X2.4025Y-4.9449
X2.4025Y-5.0449
X2.4025Y-5.1449
X2.4025Y-5.2449
X2.4025Y-5.3449
X2.4025Y-5.4449
X2.4025Y-5.5449
X2.4025Y-5.6449
X2.4025Y-5.7449
X2.4025Y-5.8449
X2.4025Y-5.9449
X2.4028Y-3.5839
X2.4028Y-3.6839
X2.4028Y-3.7839
X2.4028Y-3.8839
X2.4028Y-3.9839
X2.4028Y-4.0839
X2.4028Y-4.1839
X2.4028Y-4.2839
X2.4028Y-4.3839
X2.4028Y-4.4839
X2.4028Y-4.5839
X2.4028Y-4.6839
X2.4031Y-2.3264
X2.4031Y-2.4264
X2.4031Y-2.5264
X2.4031Y-2.6264
X2.4031Y-2.7264
X2.4031Y-2.8264
X2.4031Y-2.9264
X2.4031Y-3.0264
X2.4031Y-3.1264
X2.4031Y-3.2264
X2.4031Y-3.3264
X2.4031Y-3.4264
X2.4035Y-1.0665
X2.4035Y-1.1665
X2.4035Y-1.2665
X2.4035Y-1.3665
X2.4035Y-1.4665
X2.4035Y-1.5665
X2.4035Y-1.6665
X2.4035Y-1.7665
X2.4035Y-1.8665
X2.4035Y-1.9665
X2.4035Y-2.0665
X2.4035Y-2.1665
X3.6583Y-1.0575
X3.6583Y-1.1575
X3.6583Y-1.2575
X3.6583Y-1.3575
X3.6583Y-1.4575
X3.6583Y-1.5575
X3.6583Y-1.6575
X3.6583Y-1.7575
X3.6583Y-1.8575
X3.6583Y-1.9575
X3.6583Y-2.0575
X3.6583Y-2.1575
X3.6583Y-4.9067
X3.6583Y-5.0067
X3.6583Y-5.1067
X3.6583Y-5.2067
X3.6583Y-5.3067
X3.6583Y-5.4067
X3.6583Y-5.5067
X3.6583Y-5.6067
X3.6583Y-5.7067
X3.6583Y-5.8067
X3.6583Y-5.9067
X3.6583Y-6.0067
T4
X3.8551Y-2.7614
X3.8551Y-3.0567
X3.8551Y-3.352
X3.8551Y-3.6472
X3.8551Y-3.9425
X3.8551Y-4.2378
T0
M30
